<svg id="Calque_1" data-name="Calque 1" xmlns="http://www.w3.org/2000/svg" xmlns:xlink="http://www.w3.org/1999/xlink" viewBox="0 0 743 1115"><defs><style>.cls-1{fill:none;}.cls-2{fill:#181222;}.cls-3{clip-path:url(#clip-path);}.cls-4{fill:#c8beb5;}</style><clipPath id="clip-path"><rect class="cls-1" width="747" height="1115"/></clipPath></defs><rect class="cls-2" width="747" height="1115"/><g class="cls-3"><path class="cls-4" d="M58.85,43.74h-43v-53h43ZM19.08,40.51H55.62V-6H19.08Z"/><path class="cls-4" d="M33.82,29.57c-1.82-12.44,2-19.48,5.55-23.2A18.57,18.57,0,0,1,47.76,1.2l.6,2.51a16.39,16.39,0,0,0-7.21,4.54c-4.5,4.81-6.1,11.85-4.77,21Z"/><polygon class="cls-4" points="35.1 63.26 17.47 80.89 35.1 80.89 35.1 63.26"/><polygon class="cls-4" points="39.6 80.89 57.23 80.89 39.6 63.26 39.6 80.89"/><polygon class="cls-4" points="17.47 85.39 35.1 103.02 35.1 85.39 17.47 85.39"/><polygon class="cls-4" points="39.6 103.02 57.23 85.39 39.6 85.39 39.6 103.02"/><rect class="cls-4" x="36.72" y="63.26" width="0.72" height="18.08"/><rect class="cls-4" x="36.72" y="84.94" width="0.72" height="18.08"/><rect class="cls-4" x="17.47" y="82.78" width="17.81" height="0.72"/><rect class="cls-4" x="38.88" y="82.78" width="18.35" height="0.72"/><circle class="cls-4" cx="37.04" cy="83.18" r="0.94"/><rect class="cls-4" x="17.47" y="117.25" width="39.77" height="3.23"/><rect class="cls-4" x="17.47" y="129.21" width="39.77" height="3.23"/><rect class="cls-4" x="17.47" y="141.17" width="39.77" height="3.23"/><path class="cls-4" d="M58.85,208.74h-43v-53h43Zm-39.77-3.23H55.62V159H19.08Z"/><path class="cls-4" d="M33.82,194.57c-1.82-12.44,2-19.48,5.55-23.2a18.57,18.57,0,0,1,8.39-5.17l.6,2.51a16.39,16.39,0,0,0-7.21,4.54c-4.5,4.81-6.1,11.85-4.77,20.95Z"/><polygon class="cls-4" points="35.1 234.26 17.47 251.89 35.1 251.89 35.1 234.26"/><polygon class="cls-4" points="39.6 251.89 57.23 251.89 39.6 234.26 39.6 251.89"/><polygon class="cls-4" points="17.47 256.39 35.1 274.02 35.1 256.39 17.47 256.39"/><polygon class="cls-4" points="39.6 274.02 57.23 256.39 39.6 256.39 39.6 274.02"/><rect class="cls-4" x="36.72" y="234.26" width="0.72" height="18.08"/><rect class="cls-4" x="36.72" y="255.94" width="0.72" height="18.08"/><rect class="cls-4" x="17.47" y="253.78" width="17.81" height="0.72"/><rect class="cls-4" x="38.88" y="253.78" width="18.35" height="0.72"/><circle class="cls-4" cx="37.04" cy="254.18" r="0.94"/><rect class="cls-4" x="17.47" y="288.25" width="39.77" height="3.23"/><rect class="cls-4" x="17.47" y="300.21" width="39.77" height="3.23"/><rect class="cls-4" x="17.47" y="312.17" width="39.77" height="3.23"/><path class="cls-4" d="M58.85,379.74h-43v-53h43Zm-39.77-3.23H55.62V330H19.08Z"/><path class="cls-4" d="M33.82,365.57c-1.82-12.44,2-19.48,5.55-23.2a18.57,18.57,0,0,1,8.39-5.17l.6,2.51a16.39,16.39,0,0,0-7.21,4.54c-4.5,4.81-6.1,11.85-4.77,20.95Z"/><polygon class="cls-4" points="35.1 399.26 17.47 416.89 35.1 416.89 35.1 399.26"/><polygon class="cls-4" points="39.6 416.89 57.23 416.89 39.6 399.26 39.6 416.89"/><polygon class="cls-4" points="17.47 421.39 35.1 439.02 35.1 421.39 17.47 421.39"/><polygon class="cls-4" points="39.6 439.02 57.23 421.39 39.6 421.39 39.6 439.02"/><rect class="cls-4" x="36.72" y="399.26" width="0.72" height="18.08"/><rect class="cls-4" x="36.72" y="420.94" width="0.72" height="18.08"/><rect class="cls-4" x="17.47" y="418.78" width="17.81" height="0.72"/><rect class="cls-4" x="38.88" y="418.78" width="18.35" height="0.72"/><circle class="cls-4" cx="37.04" cy="419.18" r="0.94"/><rect class="cls-4" x="17.47" y="453.25" width="39.77" height="3.23"/><rect class="cls-4" x="17.47" y="465.21" width="39.77" height="3.23"/><rect class="cls-4" x="17.47" y="477.17" width="39.77" height="3.23"/><path class="cls-4" d="M58.85,544.74h-43v-53h43Zm-39.77-3.23H55.62V495H19.08Z"/><path class="cls-4" d="M33.82,530.57c-1.82-12.44,2-19.48,5.55-23.2a18.57,18.57,0,0,1,8.39-5.17l.6,2.51a16.39,16.39,0,0,0-7.21,4.54c-4.5,4.81-6.1,11.85-4.77,21Z"/><polygon class="cls-4" points="35.1 570.26 17.47 587.89 35.1 587.89 35.1 570.26"/><polygon class="cls-4" points="39.6 587.89 57.23 587.89 39.6 570.26 39.6 587.89"/><polygon class="cls-4" points="17.47 592.39 35.1 610.02 35.1 592.39 17.47 592.39"/><polygon class="cls-4" points="39.6 610.02 57.23 592.39 39.6 592.39 39.6 610.02"/><rect class="cls-4" x="36.72" y="570.26" width="0.72" height="18.08"/><rect class="cls-4" x="36.72" y="591.94" width="0.72" height="18.08"/><rect class="cls-4" x="17.47" y="589.78" width="17.81" height="0.72"/><rect class="cls-4" x="38.88" y="589.78" width="18.35" height="0.72"/><circle class="cls-4" cx="37.04" cy="590.18" r="0.94"/><rect class="cls-4" x="17.47" y="624.25" width="39.77" height="3.23"/><rect class="cls-4" x="17.47" y="636.21" width="39.77" height="3.23"/><rect class="cls-4" x="17.47" y="648.17" width="39.77" height="3.23"/><path class="cls-4" d="M58.85,715.74h-43v-53h43Zm-39.77-3.23H55.62V666H19.08Z"/><path class="cls-4" d="M33.82,701.57c-1.82-12.44,2-19.48,5.55-23.2a18.57,18.57,0,0,1,8.39-5.17l.6,2.51a16.39,16.39,0,0,0-7.21,4.54c-4.5,4.81-6.1,11.85-4.77,21Z"/><polygon class="cls-4" points="35.1 735.26 17.47 752.89 35.1 752.89 35.1 735.26"/><polygon class="cls-4" points="39.6 752.89 57.23 752.89 39.6 735.26 39.6 752.89"/><polygon class="cls-4" points="17.47 757.39 35.1 775.02 35.1 757.39 17.47 757.39"/><polygon class="cls-4" points="39.6 775.02 57.23 757.39 39.6 757.39 39.6 775.02"/><rect class="cls-4" x="36.72" y="735.26" width="0.72" height="18.08"/><rect class="cls-4" x="36.72" y="756.94" width="0.72" height="18.08"/><rect class="cls-4" x="17.47" y="754.78" width="17.81" height="0.72"/><rect class="cls-4" x="38.88" y="754.78" width="18.35" height="0.72"/><circle class="cls-4" cx="37.04" cy="755.18" r="0.94"/><rect class="cls-4" x="17.47" y="789.25" width="39.77" height="3.23"/><rect class="cls-4" x="17.47" y="801.21" width="39.77" height="3.23"/><rect class="cls-4" x="17.47" y="813.17" width="39.77" height="3.23"/><path class="cls-4" d="M58.85,880.74h-43v-53h43Zm-39.77-3.23H55.62V831H19.08Z"/><path class="cls-4" d="M33.82,866.57c-1.82-12.44,2-19.48,5.55-23.2a18.57,18.57,0,0,1,8.39-5.17l.6,2.51a16.39,16.39,0,0,0-7.21,4.54c-4.5,4.81-6.1,11.85-4.77,21Z"/><polygon class="cls-4" points="35.1 906.26 17.47 923.89 35.1 923.89 35.1 906.26"/><polygon class="cls-4" points="39.6 923.89 57.23 923.89 39.6 906.26 39.6 923.89"/><polygon class="cls-4" points="17.47 928.39 35.1 946.02 35.1 928.39 17.47 928.39"/><polygon class="cls-4" points="39.6 946.02 57.23 928.39 39.6 928.39 39.6 946.02"/><rect class="cls-4" x="36.72" y="906.26" width="0.72" height="18.08"/><rect class="cls-4" x="36.72" y="927.94" width="0.72" height="18.08"/><rect class="cls-4" x="17.47" y="925.78" width="17.81" height="0.72"/><rect class="cls-4" x="38.88" y="925.78" width="18.35" height="0.72"/><circle class="cls-4" cx="37.04" cy="926.18" r="0.94"/><rect class="cls-4" x="17.47" y="960.25" width="39.77" height="3.23"/><rect class="cls-4" x="17.47" y="972.21" width="39.77" height="3.23"/><rect class="cls-4" x="17.47" y="984.17" width="39.77" height="3.23"/><path class="cls-4" d="M58.85,1051.74h-43v-53h43Zm-39.77-3.23H55.62V1002H19.08Z"/><path class="cls-4" d="M33.82,1037.57c-1.82-12.44,2-19.48,5.55-23.2a18.57,18.57,0,0,1,8.39-5.17l.6,2.51a16.39,16.39,0,0,0-7.21,4.54c-4.5,4.81-6.1,11.85-4.77,21Z"/><polygon class="cls-4" points="35.1 1071.26 17.47 1088.89 35.1 1088.89 35.1 1071.26"/><polygon class="cls-4" points="39.6 1088.89 57.23 1088.89 39.6 1071.26 39.6 1088.89"/><polygon class="cls-4" points="17.47 1093.39 35.1 1111.02 35.1 1093.39 17.47 1093.39"/><polygon class="cls-4" points="39.6 1111.02 57.23 1093.39 39.6 1093.39 39.6 1111.02"/><rect class="cls-4" x="36.72" y="1071.26" width="0.72" height="18.08"/><rect class="cls-4" x="36.72" y="1092.94" width="0.72" height="18.08"/><rect class="cls-4" x="17.47" y="1090.78" width="17.81" height="0.72"/><rect class="cls-4" x="38.88" y="1090.78" width="18.35" height="0.72"/><circle class="cls-4" cx="37.04" cy="1091.18" r="0.94"/><rect class="cls-4" x="92.02" y="60.64" width="38.89" height="3.16"/><rect class="cls-4" x="92.02" y="82.98" width="38.89" height="3.16"/><rect class="cls-4" x="92.02" y="105.58" width="38.89" height="3.16"/><rect class="cls-4" x="92.02" y="128.19" width="38.89" height="3.16"/><circle class="cls-4" cx="115.37" cy="1.13" r="5.98"/><circle class="cls-4" cx="100.08" cy="12.44" r="5.98"/><circle class="cls-4" cx="102.74" cy="31.72" r="5.98"/><circle class="cls-4" cx="117.37" cy="24.4" r="5.98"/><circle class="cls-4" cx="127.34" cy="40.36" r="5.98"/><circle class="cls-4" cx="96.76" cy="150.75" r="5.98"/><circle class="cls-4" cx="115.37" cy="168.04" r="5.98"/><circle class="cls-4" cx="100.08" cy="179.34" r="5.98"/><circle class="cls-4" cx="102.74" cy="198.62" r="5.98"/><circle class="cls-4" cx="117.37" cy="191.31" r="5.98"/><circle class="cls-4" cx="127.34" cy="207.27" r="5.98"/><circle class="cls-4" cx="127.34" cy="156.73" r="5.98"/><rect class="cls-4" x="92.02" y="229.75" width="38.89" height="3.16"/><rect class="cls-4" x="92.02" y="252.09" width="38.89" height="3.16"/><rect class="cls-4" x="92.02" y="274.69" width="38.89" height="3.16"/><rect class="cls-4" x="92.02" y="297.3" width="38.89" height="3.16"/><rect class="cls-4" x="92.02" y="396.64" width="38.89" height="3.16"/><rect class="cls-4" x="92.02" y="418.98" width="38.89" height="3.16"/><rect class="cls-4" x="92.02" y="441.58" width="38.89" height="3.16"/><rect class="cls-4" x="92.02" y="464.19" width="38.89" height="3.16"/><circle class="cls-4" cx="96.76" cy="319.84" r="5.98"/><circle class="cls-4" cx="115.37" cy="337.13" r="5.98"/><circle class="cls-4" cx="100.08" cy="348.44" r="5.98"/><circle class="cls-4" cx="102.74" cy="367.72" r="5.98"/><circle class="cls-4" cx="117.37" cy="360.4" r="5.98"/><circle class="cls-4" cx="127.34" cy="376.36" r="5.98"/><circle class="cls-4" cx="127.34" cy="325.83" r="5.98"/><circle class="cls-4" cx="96.76" cy="486.75" r="5.98"/><circle class="cls-4" cx="115.37" cy="504.04" r="5.98"/><circle class="cls-4" cx="100.08" cy="515.34" r="5.98"/><circle class="cls-4" cx="102.74" cy="534.62" r="5.98"/><circle class="cls-4" cx="117.37" cy="527.31" r="5.98"/><circle class="cls-4" cx="127.34" cy="543.27" r="5.98"/><circle class="cls-4" cx="127.34" cy="492.73" r="5.98"/><rect class="cls-4" x="92.02" y="565.75" width="38.89" height="3.16"/><rect class="cls-4" x="92.02" y="588.09" width="38.89" height="3.16"/><rect class="cls-4" x="92.02" y="610.69" width="38.89" height="3.16"/><rect class="cls-4" x="92.02" y="633.3" width="38.89" height="3.16"/><rect class="cls-4" x="92.02" y="732.64" width="38.89" height="3.16"/><rect class="cls-4" x="92.02" y="754.98" width="38.89" height="3.16"/><rect class="cls-4" x="92.02" y="777.58" width="38.89" height="3.16"/><rect class="cls-4" x="92.02" y="800.19" width="38.89" height="3.16"/><circle class="cls-4" cx="96.76" cy="655.84" r="5.98"/><circle class="cls-4" cx="115.37" cy="673.13" r="5.98"/><circle class="cls-4" cx="100.08" cy="684.44" r="5.98"/><circle class="cls-4" cx="102.74" cy="703.72" r="5.98"/><circle class="cls-4" cx="117.37" cy="696.4" r="5.98"/><circle class="cls-4" cx="127.34" cy="712.36" r="5.98"/><circle class="cls-4" cx="127.34" cy="661.83" r="5.98"/><circle class="cls-4" cx="96.76" cy="822.75" r="5.98"/><circle class="cls-4" cx="115.37" cy="840.04" r="5.98"/><circle class="cls-4" cx="100.08" cy="851.34" r="5.98"/><circle class="cls-4" cx="102.74" cy="870.62" r="5.98"/><circle class="cls-4" cx="117.37" cy="863.31" r="5.98"/><circle class="cls-4" cx="127.34" cy="879.27" r="5.98"/><circle class="cls-4" cx="127.34" cy="828.73" r="5.98"/><rect class="cls-4" x="92.02" y="901.75" width="38.89" height="3.16"/><rect class="cls-4" x="92.02" y="924.09" width="38.89" height="3.16"/><rect class="cls-4" x="92.02" y="946.69" width="38.89" height="3.16"/><rect class="cls-4" x="92.02" y="969.3" width="38.89" height="3.16"/><rect class="cls-4" x="92.02" y="1068.64" width="38.89" height="3.16"/><rect class="cls-4" x="92.02" y="1090.98" width="38.89" height="3.16"/><rect class="cls-4" x="92.02" y="1113.58" width="38.89" height="3.16"/><circle class="cls-4" cx="96.76" cy="991.84" r="5.98"/><circle class="cls-4" cx="115.37" cy="1009.13" r="5.98"/><circle class="cls-4" cx="100.08" cy="1020.44" r="5.98"/><circle class="cls-4" cx="102.74" cy="1039.72" r="5.98"/><circle class="cls-4" cx="117.37" cy="1032.4" r="5.98"/><circle class="cls-4" cx="127.34" cy="1048.36" r="5.98"/><circle class="cls-4" cx="127.34" cy="997.83" r="5.98"/><rect class="cls-4" x="182.8" y="0.44" width="9.9" height="9.9" rx="4.95" transform="translate(58.81 -131.18) rotate(45)"/><path class="cls-4" d="M175.37,39.63l12-12.06a.49.49,0,0,1,.66,0l12,12.06h2a2,2,0,0,0-.4-.57L189.15,26.5a2,2,0,0,0-2.8,0L173.79,39.06a2,2,0,0,0-.4.57Z"/><path class="cls-4" d="M208.17,4.53l.06.15Z"/><path class="cls-4" d="M208.16,4.5a.91.91,0,0,0-.07-.14A.91.91,0,0,1,208.16,4.5Z"/><path class="cls-4" d="M208.17,5.49l-.08.14Z"/><path class="cls-4" d="M208.08,5.65l-.12.16Z"/><path class="cls-4" d="M208.23,5.31l-.06.16Z"/><path class="cls-4" d="M208.07,4.33,208,4.18Z"/><path class="cls-4" d="M208.23,4.68l0,.19Z"/><path class="cls-4" d="M208.17,4.53v0Z"/><path class="cls-4" d="M208.23,5.31l0-.18Z"/><path class="cls-4" d="M208.09,5.63v0Z"/><path class="cls-4" d="M208.09,4.36l0,0Z"/><path class="cls-4" d="M208.17,5.47v0Z"/><path class="cls-4" d="M208.55,39.53l-.1-.11L192,23a.07.07,0,0,1,0-.1L208.45,6.4A2,2,0,0,0,209,5a2,2,0,0,0-.58-1.41l-16-16a.75.75,0,0,1-.22-.53.74.74,0,0,1,.22-.52l15.39-15.39h-2.14L190.37-13.5a.78.78,0,0,0-.27.58.68.68,0,0,0,.05.29l0,0,.14.15a.52.52,0,0,0,.11.1l17,17a.47.47,0,0,1,0,.66l-17,17a.75.75,0,0,0-.27.58.64.64,0,0,0,.05.28l0,0,.15.14a.52.52,0,0,0,.1.11l16.29,16.29h2.1Z"/><path class="cls-4" d="M185.23,23.38l.15-.14,0,0a.64.64,0,0,0,.05-.28.75.75,0,0,0-.27-.58l-17-17a.47.47,0,0,1,0-.66l17-17a.52.52,0,0,0,.11-.1l.14-.15,0,0a.68.68,0,0,0,.05-.29.78.78,0,0,0-.27-.58L169.79-28.83h-2.14L183-13.44a.74.74,0,0,1,.22.52.75.75,0,0,1-.22.53l-16,16A2,2,0,0,0,166.47,5a2,2,0,0,0,.58,1.4l16.46,16.46a.07.07,0,0,1,0,.1L167.05,39.42l-.1.11-.21.25h2.1l16.29-16.29A.52.52,0,0,0,185.23,23.38Z"/><rect class="cls-4" x="176.96" y="79.71" width="19.59" height="19.59" rx="8.06" transform="translate(117.98 -105.84) rotate(45)"/><polygon class="cls-4" points="167.22 91.76 164.47 91.76 184.49 111.78 184.49 109.03 167.22 91.76"/><polygon class="cls-4" points="184.49 69.97 184.49 67.22 164.47 87.24 167.22 87.24 184.49 69.97"/><polygon class="cls-4" points="206.28 87.24 209.03 87.24 189.01 67.22 189.01 69.97 206.28 87.24"/><polygon class="cls-4" points="206.28 91.76 189.01 109.03 189.01 111.78 209.03 91.76 206.28 91.76"/><rect class="cls-4" x="182.8" y="165.44" width="9.9" height="9.9" rx="4.95" transform="translate(175.48 -82.85) rotate(45)"/><path class="cls-4" d="M200.13,136.17l-12,12.05a.49.49,0,0,1-.66,0l-12-12.05h-2a2,2,0,0,0,.4.56l12.56,12.56a2,2,0,0,0,2.8,0l12.56-12.56a2,2,0,0,0,.4-.56Z"/><path class="cls-4" d="M175.37,204.63l12-12.06a.49.49,0,0,1,.66,0l12,12.06h2a2,2,0,0,0-.4-.57L189.15,191.5a2,2,0,0,0-2.8,0l-12.56,12.56a2,2,0,0,0-.4.57Z"/><path class="cls-4" d="M208.17,169.53l.06.15Z"/><path class="cls-4" d="M208.16,169.5a.91.91,0,0,0-.07-.14A.91.91,0,0,1,208.16,169.5Z"/><path class="cls-4" d="M208.17,170.49l-.08.14Z"/><path class="cls-4" d="M208.08,170.65l-.12.16Z"/><path class="cls-4" d="M208.23,170.31l-.06.16Z"/><path class="cls-4" d="M208.07,169.33l-.11-.15Z"/><path class="cls-4" d="M208.23,169.68l0,.19Z"/><path class="cls-4" d="M208.17,169.53v0Z"/><path class="cls-4" d="M208.23,170.31l0-.18Z"/><path class="cls-4" d="M208.09,170.63v0Z"/><path class="cls-4" d="M208.09,169.36l0,0Z"/><path class="cls-4" d="M208.17,170.47v0Z"/><path class="cls-4" d="M208.55,204.53l-.1-.11L192,188a.07.07,0,0,1,0-.1l16.46-16.46A2,2,0,0,0,209,170a2,2,0,0,0-.58-1.41l-16-16a.74.74,0,0,1,0-1.05l15.39-15.39h-2.14L190.37,151.5a.78.78,0,0,0-.27.58.68.68,0,0,0,.05.29l0,0,.14.15a.52.52,0,0,0,.11.1l17,17a.47.47,0,0,1,0,.66l-17,17a.75.75,0,0,0-.27.58.64.64,0,0,0,.05.28l0,.05.15.14a.52.52,0,0,0,.1.11l16.29,16.29h2.1Z"/><path class="cls-4" d="M185.23,188.38l.15-.14,0-.05a.64.64,0,0,0,.05-.28.75.75,0,0,0-.27-.58l-17-17a.47.47,0,0,1,0-.66l17-17a.52.52,0,0,0,.11-.1l.14-.15,0,0a.68.68,0,0,0,.05-.29.78.78,0,0,0-.27-.58l-15.34-15.33h-2.14L183,151.56a.74.74,0,0,1,0,1.05l-16,16a2,2,0,0,0-.58,1.41,2,2,0,0,0,.58,1.4l16.46,16.46a.07.07,0,0,1,0,.1l-16.46,16.46-.1.11-.21.25h2.1l16.29-16.29A.52.52,0,0,0,185.23,188.38Z"/><rect class="cls-4" x="176.96" y="250.71" width="19.59" height="19.59" rx="8.06" transform="translate(238.9 -55.75) rotate(45)"/><polygon class="cls-4" points="167.22 262.76 164.47 262.76 184.49 282.78 184.49 280.03 167.22 262.76"/><polygon class="cls-4" points="184.49 240.97 184.49 238.22 164.47 258.24 167.22 258.24 184.49 240.97"/><polygon class="cls-4" points="206.28 258.24 209.03 258.24 189.01 238.22 189.01 240.97 206.28 258.24"/><polygon class="cls-4" points="206.28 262.76 189.01 280.03 189.01 282.78 209.03 262.76 206.28 262.76"/><rect class="cls-4" x="182.8" y="336.44" width="9.9" height="9.9" rx="4.95" transform="translate(296.39 -32.77) rotate(45)"/><path class="cls-4" d="M200.13,307.17l-12,12.05a.49.49,0,0,1-.66,0l-12-12.05h-2a2,2,0,0,0,.4.56l12.56,12.56a2,2,0,0,0,2.8,0l12.56-12.56a2,2,0,0,0,.4-.56Z"/><path class="cls-4" d="M175.37,375.63l12-12.06a.49.49,0,0,1,.66,0l12,12.06h2a2,2,0,0,0-.4-.57L189.15,362.5a2,2,0,0,0-2.8,0l-12.56,12.56a2,2,0,0,0-.4.57Z"/><path class="cls-4" d="M208.17,340.53l.06.15Z"/><path class="cls-4" d="M208.16,340.5l-.07-.14Z"/><path class="cls-4" d="M208.17,341.49l-.08.14Z"/><path class="cls-4" d="M208.08,341.65l-.12.16Z"/><path class="cls-4" d="M208.23,341.31l-.06.16Z"/><path class="cls-4" d="M208.07,340.33l-.11-.15Z"/><path class="cls-4" d="M208.23,340.68l0,.19Z"/><path class="cls-4" d="M208.17,340.53v0Z"/><path class="cls-4" d="M208.23,341.31l0-.18Z"/><path class="cls-4" d="M208.09,341.63v0Z"/><path class="cls-4" d="M208.09,340.36l0,0Z"/><path class="cls-4" d="M208.17,341.47v0Z"/><path class="cls-4" d="M208.55,375.53l-.1-.11L192,359a.07.07,0,0,1,0-.1l16.46-16.46A2,2,0,0,0,209,341a2,2,0,0,0-.58-1.41l-16-16a.74.74,0,0,1,0-1.05l15.39-15.39h-2.14L190.37,322.5a.78.78,0,0,0-.27.58.68.68,0,0,0,.05.29l0,0,.14.15a.52.52,0,0,0,.11.1l17,17a.47.47,0,0,1,0,.66l-17,17a.75.75,0,0,0-.27.58.64.64,0,0,0,.05.28l0,.05.15.14a.52.52,0,0,0,.1.11l16.29,16.29h2.1Z"/><path class="cls-4" d="M185.23,359.38l.15-.14,0-.05a.64.64,0,0,0,.05-.28.75.75,0,0,0-.27-.58l-17-17a.47.47,0,0,1,0-.66l17-17a.52.52,0,0,0,.11-.1l.14-.15,0,0a.68.68,0,0,0,.05-.29.78.78,0,0,0-.27-.58l-15.34-15.33h-2.14L183,322.56a.74.74,0,0,1,0,1.05l-16,16a2,2,0,0,0-.58,1.41,2,2,0,0,0,.58,1.4l16.46,16.46a.07.07,0,0,1,0,.1l-16.46,16.46-.1.11-.21.25h2.1l16.29-16.29A.52.52,0,0,0,185.23,359.38Z"/><rect class="cls-4" x="176.96" y="415.71" width="19.59" height="19.59" rx="8.06" transform="translate(355.57 -7.43) rotate(45)"/><polygon class="cls-4" points="167.22 427.76 164.47 427.76 184.49 447.78 184.49 445.03 167.22 427.76"/><polygon class="cls-4" points="184.49 405.97 184.49 403.22 164.47 423.24 167.22 423.24 184.49 405.97"/><polygon class="cls-4" points="206.28 423.24 209.03 423.24 189.01 403.22 189.01 405.97 206.28 423.24"/><polygon class="cls-4" points="206.28 427.76 189.01 445.03 189.01 447.78 209.03 427.76 206.28 427.76"/><rect class="cls-4" x="182.8" y="501.44" width="9.9" height="9.9" rx="4.95" transform="translate(413.07 15.56) rotate(45)"/><path class="cls-4" d="M200.13,472.17l-12,12.05a.49.49,0,0,1-.66,0l-12-12.05h-2a2,2,0,0,0,.4.56l12.56,12.56a2,2,0,0,0,2.8,0l12.56-12.56a2,2,0,0,0,.4-.56Z"/><path class="cls-4" d="M175.37,540.63l12-12.06a.49.49,0,0,1,.66,0l12,12.06h2a2,2,0,0,0-.4-.57L189.15,527.5a2,2,0,0,0-2.8,0l-12.56,12.56a2,2,0,0,0-.4.57Z"/><path class="cls-4" d="M208.17,505.53l.06.15Z"/><path class="cls-4" d="M208.16,505.5l-.07-.14Z"/><path class="cls-4" d="M208.17,506.49l-.08.14Z"/><path class="cls-4" d="M208.08,506.65l-.12.16Z"/><path class="cls-4" d="M208.23,506.31l-.06.16Z"/><path class="cls-4" d="M208.07,505.33l-.11-.15Z"/><path class="cls-4" d="M208.23,505.68l0,.19Z"/><path class="cls-4" d="M208.17,505.53v0Z"/><path class="cls-4" d="M208.23,506.31l0-.18Z"/><path class="cls-4" d="M208.09,506.63v0Z"/><path class="cls-4" d="M208.09,505.36l0,0Z"/><path class="cls-4" d="M208.17,506.47v0Z"/><path class="cls-4" d="M208.55,540.53l-.1-.11L192,524a.07.07,0,0,1,0-.1l16.46-16.46A2,2,0,0,0,209,506a2,2,0,0,0-.58-1.41l-16-16a.74.74,0,0,1,0-1.05l15.39-15.39h-2.14L190.37,487.5a.78.78,0,0,0-.27.58.68.68,0,0,0,.05.29l0,0,.14.15a.52.52,0,0,0,.11.1l17,17a.47.47,0,0,1,0,.66l-17,17a.75.75,0,0,0-.27.58.64.64,0,0,0,.05.28l0,0,.15.14a.52.52,0,0,0,.1.11l16.29,16.29h2.1Z"/><path class="cls-4" d="M185.23,524.38l.15-.14,0,0a.64.64,0,0,0,.05-.28.75.75,0,0,0-.27-.58l-17-17a.47.47,0,0,1,0-.66l17-17a.52.52,0,0,0,.11-.1l.14-.15,0,0a.68.68,0,0,0,.05-.29.78.78,0,0,0-.27-.58l-15.34-15.33h-2.14L183,487.56a.74.74,0,0,1,0,1.05l-16,16a2,2,0,0,0-.58,1.41,2,2,0,0,0,.58,1.4l16.46,16.46a.07.07,0,0,1,0,.1l-16.46,16.46-.1.11-.21.25h2.1l16.29-16.29A.52.52,0,0,0,185.23,524.38Z"/><rect class="cls-4" x="176.96" y="586.71" width="19.59" height="19.59" rx="8.06" transform="translate(476.49 42.66) rotate(45)"/><polygon class="cls-4" points="167.22 598.76 164.47 598.76 184.49 618.78 184.49 616.03 167.22 598.76"/><polygon class="cls-4" points="184.49 576.97 184.49 574.22 164.47 594.24 167.22 594.24 184.49 576.97"/><polygon class="cls-4" points="206.28 594.24 209.03 594.24 189.01 574.22 189.01 576.97 206.28 594.24"/><polygon class="cls-4" points="206.28 598.76 189.01 616.03 189.01 618.78 209.03 598.76 206.28 598.76"/><rect class="cls-4" x="182.8" y="672.44" width="9.9" height="9.9" rx="4.95" transform="translate(533.98 65.65) rotate(45)"/><path class="cls-4" d="M200.13,643.17l-12,12.05a.49.49,0,0,1-.66,0l-12-12.05h-2a2,2,0,0,0,.4.56l12.56,12.56a2,2,0,0,0,2.8,0l12.56-12.56a2,2,0,0,0,.4-.56Z"/><path class="cls-4" d="M175.37,711.63l12-12.06a.49.49,0,0,1,.66,0l12,12.06h2a2,2,0,0,0-.4-.57L189.15,698.5a2,2,0,0,0-2.8,0l-12.56,12.56a2,2,0,0,0-.4.57Z"/><path class="cls-4" d="M208.17,676.53l.06.15Z"/><path class="cls-4" d="M208.16,676.5a.91.91,0,0,0-.07-.14A.91.91,0,0,1,208.16,676.5Z"/><path class="cls-4" d="M208.17,677.49l-.08.14Z"/><path class="cls-4" d="M208.08,677.65l-.12.16Z"/><path class="cls-4" d="M208.23,677.31l-.06.16Z"/><path class="cls-4" d="M208.07,676.33l-.11-.15Z"/><path class="cls-4" d="M208.23,676.68l0,.19Z"/><path class="cls-4" d="M208.17,676.53v0Z"/><path class="cls-4" d="M208.23,677.31l0-.18Z"/><path class="cls-4" d="M208.09,677.63v0Z"/><path class="cls-4" d="M208.09,676.36l0,0Z"/><path class="cls-4" d="M208.17,677.47v0Z"/><path class="cls-4" d="M208.55,711.53l-.1-.11L192,695a.07.07,0,0,1,0-.1l16.46-16.46A2,2,0,0,0,209,677a2,2,0,0,0-.58-1.41l-16-16a.74.74,0,0,1,0-1.05l15.39-15.39h-2.14L190.37,658.5a.78.78,0,0,0-.27.58.68.68,0,0,0,.05.29l0,0,.14.15a.52.52,0,0,0,.11.1l17,17a.47.47,0,0,1,0,.66l-17,17a.75.75,0,0,0-.27.58.64.64,0,0,0,.05.28l0,0,.15.14a.52.52,0,0,0,.1.11l16.29,16.29h2.1Z"/><path class="cls-4" d="M185.23,695.38l.15-.14,0,0a.64.64,0,0,0,.05-.28.75.75,0,0,0-.27-.58l-17-17a.47.47,0,0,1,0-.66l17-17a.52.52,0,0,0,.11-.1l.14-.15,0,0a.68.68,0,0,0,.05-.29.78.78,0,0,0-.27-.58l-15.34-15.33h-2.14L183,658.56a.74.74,0,0,1,0,1.05l-16,16a2,2,0,0,0-.58,1.41,2,2,0,0,0,.58,1.4l16.46,16.46a.07.07,0,0,1,0,.1l-16.46,16.46-.1.11-.21.25h2.1l16.29-16.29A.52.52,0,0,0,185.23,695.38Z"/><rect class="cls-4" x="176.96" y="751.71" width="19.59" height="19.59" rx="8.06" transform="translate(593.16 90.99) rotate(45)"/><polygon class="cls-4" points="167.22 763.76 164.47 763.76 184.49 783.78 184.49 781.03 167.22 763.76"/><polygon class="cls-4" points="184.49 741.97 184.49 739.22 164.47 759.24 167.22 759.24 184.49 741.97"/><polygon class="cls-4" points="206.28 759.24 209.03 759.24 189.01 739.22 189.01 741.97 206.28 759.24"/><polygon class="cls-4" points="206.28 763.76 189.01 781.03 189.01 783.78 209.03 763.76 206.28 763.76"/><rect class="cls-4" x="182.8" y="837.44" width="9.9" height="9.9" rx="4.95" transform="translate(650.65 113.97) rotate(45)"/><path class="cls-4" d="M200.13,808.17l-12,12.05a.49.49,0,0,1-.66,0l-12-12.05h-2a2,2,0,0,0,.4.56l12.56,12.56a2,2,0,0,0,2.8,0l12.56-12.56a2,2,0,0,0,.4-.56Z"/><path class="cls-4" d="M175.37,876.63l12-12.06a.49.49,0,0,1,.66,0l12,12.06h2a2,2,0,0,0-.4-.57L189.15,863.5a2,2,0,0,0-2.8,0l-12.56,12.56a2,2,0,0,0-.4.57Z"/><path class="cls-4" d="M208.17,841.53l.06.15Z"/><path class="cls-4" d="M208.16,841.5a.91.91,0,0,0-.07-.14A.91.91,0,0,1,208.16,841.5Z"/><path class="cls-4" d="M208.17,842.49l-.08.14Z"/><path class="cls-4" d="M208.08,842.65l-.12.16Z"/><path class="cls-4" d="M208.23,842.31l-.06.16Z"/><path class="cls-4" d="M208.07,841.33l-.11-.15Z"/><path class="cls-4" d="M208.23,841.68l0,.19Z"/><path class="cls-4" d="M208.17,841.53v0Z"/><path class="cls-4" d="M208.23,842.31l0-.18Z"/><path class="cls-4" d="M208.09,842.63v0Z"/><path class="cls-4" d="M208.09,841.36l0,0Z"/><path class="cls-4" d="M208.17,842.47v0Z"/><path class="cls-4" d="M208.55,876.53l-.1-.11L192,860a.07.07,0,0,1,0-.1l16.46-16.46A2,2,0,0,0,209,842a2,2,0,0,0-.58-1.41l-16-16a.74.74,0,0,1,0-1.05l15.39-15.39h-2.14L190.37,823.5a.78.78,0,0,0-.27.58.68.68,0,0,0,.05.29l0,0,.14.15a.52.52,0,0,0,.11.1l17,17a.47.47,0,0,1,0,.66l-17,17a.75.75,0,0,0-.27.58.64.64,0,0,0,.05.28l0,0,.15.14a.52.52,0,0,0,.1.11l16.29,16.29h2.1Z"/><path class="cls-4" d="M185.23,860.38l.15-.14,0,0a.64.64,0,0,0,.05-.28.75.75,0,0,0-.27-.58l-17-17a.47.47,0,0,1,0-.66l17-17a.52.52,0,0,0,.11-.1l.14-.15,0,0a.68.68,0,0,0,.05-.29.78.78,0,0,0-.27-.58l-15.34-15.33h-2.14L183,823.56a.74.74,0,0,1,0,1.05l-16,16a2,2,0,0,0-.58,1.41,2,2,0,0,0,.58,1.4l16.46,16.46a.07.07,0,0,1,0,.1l-16.46,16.46-.1.11-.21.25h2.1l16.29-16.29A.52.52,0,0,0,185.23,860.38Z"/><rect class="cls-4" x="176.96" y="922.71" width="19.59" height="19.59" rx="8.06" transform="translate(714.07 141.07) rotate(45)"/><polygon class="cls-4" points="167.22 934.76 164.47 934.76 184.49 954.78 184.49 952.03 167.22 934.76"/><polygon class="cls-4" points="184.49 912.97 184.49 910.22 164.47 930.24 167.22 930.24 184.49 912.97"/><polygon class="cls-4" points="206.28 930.24 209.03 930.24 189.01 910.22 189.01 912.97 206.28 930.24"/><polygon class="cls-4" points="206.28 934.76 189.01 952.03 189.01 954.78 209.03 934.76 206.28 934.76"/><rect class="cls-4" x="182.8" y="1008.44" width="9.9" height="9.9" rx="4.95" transform="translate(771.57 164.06) rotate(45)"/><path class="cls-4" d="M200.13,979.17l-12,12.05a.49.49,0,0,1-.66,0l-12-12.05h-2a2,2,0,0,0,.4.56l12.56,12.56a2,2,0,0,0,2.8,0l12.56-12.56a2,2,0,0,0,.4-.56Z"/><path class="cls-4" d="M175.37,1047.63l12-12.06a.49.49,0,0,1,.66,0l12,12.06h2a2,2,0,0,0-.4-.57l-12.56-12.56a2,2,0,0,0-2.8,0l-12.56,12.56a2,2,0,0,0-.4.57Z"/><path class="cls-4" d="M208.17,1012.53l.06.15Z"/><path class="cls-4" d="M208.16,1012.5a.91.91,0,0,0-.07-.14A.91.91,0,0,1,208.16,1012.5Z"/><path class="cls-4" d="M208.17,1013.49l-.08.14Z"/><path class="cls-4" d="M208.08,1013.65l-.12.16Z"/><path class="cls-4" d="M208.23,1013.31l-.06.16Z"/><path class="cls-4" d="M208.07,1012.33l-.11-.15Z"/><path class="cls-4" d="M208.23,1012.68l0,.19Z"/><path class="cls-4" d="M208.17,1012.53v0Z"/><path class="cls-4" d="M208.23,1013.31l0-.18Z"/><path class="cls-4" d="M208.09,1013.63v0Z"/><path class="cls-4" d="M208.09,1012.36l0,0Z"/><path class="cls-4" d="M208.17,1013.47v0Z"/><path class="cls-4" d="M208.55,1047.53l-.1-.11L192,1031a.07.07,0,0,1,0-.1l16.46-16.46a2,2,0,0,0,.58-1.4,2,2,0,0,0-.58-1.41l-16-16a.74.74,0,0,1,0-1.05l15.39-15.39h-2.14L190.37,994.5a.78.78,0,0,0-.27.58.68.68,0,0,0,.05.29l0,0,.14.15a.52.52,0,0,0,.11.1l17,17a.47.47,0,0,1,0,.66l-17,17a.75.75,0,0,0-.27.58.64.64,0,0,0,.05.28l0,0,.15.14a.52.52,0,0,0,.1.11l16.29,16.29h2.1Z"/><path class="cls-4" d="M185.23,1031.38l.15-.14,0,0a.64.64,0,0,0,.05-.28.75.75,0,0,0-.27-.58l-17-17a.47.47,0,0,1,0-.66l17-17a.52.52,0,0,0,.11-.1l.14-.15,0,0a.68.68,0,0,0,.05-.29.78.78,0,0,0-.27-.58l-15.34-15.33h-2.14L183,994.56a.74.74,0,0,1,0,1.05l-16,16a2,2,0,0,0-.58,1.41,2,2,0,0,0,.58,1.4l16.46,16.46a.07.07,0,0,1,0,.1l-16.46,16.46-.1.11-.21.25h2.1l16.29-16.29A.52.52,0,0,0,185.23,1031.38Z"/><rect class="cls-4" x="176.96" y="1087.71" width="19.59" height="19.59" rx="8.06" transform="translate(830.75 189.4) rotate(45)"/><polygon class="cls-4" points="167.22 1099.76 164.47 1099.76 184.49 1119.78 184.49 1117.03 167.22 1099.76"/><polygon class="cls-4" points="184.49 1077.97 184.49 1075.22 164.47 1095.24 167.22 1095.24 184.49 1077.97"/><polygon class="cls-4" points="206.28 1095.24 209.03 1095.24 189.01 1075.22 189.01 1077.97 206.28 1095.24"/><polygon class="cls-4" points="206.28 1099.76 189.01 1117.03 189.01 1119.78 209.03 1099.76 206.28 1099.76"/><rect class="cls-4" x="540.22" y="60.64" width="38.89" height="3.16"/><rect class="cls-4" x="540.22" y="82.98" width="38.89" height="3.16"/><rect class="cls-4" x="540.22" y="105.58" width="38.89" height="3.16"/><rect class="cls-4" x="540.22" y="128.19" width="38.89" height="3.16"/><circle class="cls-4" cx="563.57" cy="1.13" r="5.98"/><circle class="cls-4" cx="548.28" cy="12.44" r="5.98"/><circle class="cls-4" cx="550.94" cy="31.72" r="5.98"/><circle class="cls-4" cx="565.57" cy="24.4" r="5.98"/><circle class="cls-4" cx="575.54" cy="40.36" r="5.98"/><circle class="cls-4" cx="544.96" cy="150.75" r="5.98"/><circle class="cls-4" cx="563.57" cy="168.04" r="5.98"/><circle class="cls-4" cx="548.28" cy="179.34" r="5.98"/><circle class="cls-4" cx="550.94" cy="198.62" r="5.98"/><circle class="cls-4" cx="565.57" cy="191.31" r="5.98"/><circle class="cls-4" cx="575.54" cy="207.27" r="5.98"/><circle class="cls-4" cx="575.54" cy="156.73" r="5.98"/><rect class="cls-4" x="540.22" y="229.75" width="38.89" height="3.16"/><rect class="cls-4" x="540.22" y="252.09" width="38.89" height="3.16"/><rect class="cls-4" x="540.22" y="274.69" width="38.89" height="3.16"/><rect class="cls-4" x="540.22" y="297.3" width="38.89" height="3.16"/><rect class="cls-4" x="540.22" y="396.64" width="38.89" height="3.16"/><rect class="cls-4" x="540.22" y="418.98" width="38.89" height="3.16"/><rect class="cls-4" x="540.22" y="441.58" width="38.89" height="3.16"/><rect class="cls-4" x="540.22" y="464.19" width="38.89" height="3.16"/><circle class="cls-4" cx="544.96" cy="319.84" r="5.98"/><circle class="cls-4" cx="563.57" cy="337.13" r="5.98"/><circle class="cls-4" cx="548.28" cy="348.44" r="5.98"/><circle class="cls-4" cx="550.94" cy="367.72" r="5.98"/><circle class="cls-4" cx="565.57" cy="360.4" r="5.98"/><circle class="cls-4" cx="575.54" cy="376.36" r="5.98"/><circle class="cls-4" cx="575.54" cy="325.83" r="5.98"/><circle class="cls-4" cx="544.96" cy="486.75" r="5.98"/><circle class="cls-4" cx="563.57" cy="504.04" r="5.98"/><circle class="cls-4" cx="548.28" cy="515.34" r="5.98"/><circle class="cls-4" cx="550.94" cy="534.62" r="5.98"/><circle class="cls-4" cx="565.57" cy="527.31" r="5.98"/><circle class="cls-4" cx="575.54" cy="543.27" r="5.98"/><circle class="cls-4" cx="575.54" cy="492.73" r="5.98"/><rect class="cls-4" x="540.22" y="565.75" width="38.89" height="3.16"/><rect class="cls-4" x="540.22" y="588.09" width="38.89" height="3.16"/><rect class="cls-4" x="540.22" y="610.69" width="38.89" height="3.16"/><rect class="cls-4" x="540.22" y="633.3" width="38.89" height="3.16"/><rect class="cls-4" x="540.22" y="732.64" width="38.89" height="3.16"/><rect class="cls-4" x="540.22" y="754.98" width="38.89" height="3.16"/><rect class="cls-4" x="540.22" y="777.58" width="38.89" height="3.16"/><rect class="cls-4" x="540.22" y="800.19" width="38.89" height="3.16"/><circle class="cls-4" cx="544.96" cy="655.84" r="5.98"/><circle class="cls-4" cx="563.57" cy="673.13" r="5.98"/><circle class="cls-4" cx="548.28" cy="684.44" r="5.98"/><circle class="cls-4" cx="550.94" cy="703.72" r="5.98"/><circle class="cls-4" cx="565.57" cy="696.4" r="5.98"/><circle class="cls-4" cx="575.54" cy="712.36" r="5.98"/><circle class="cls-4" cx="575.54" cy="661.83" r="5.98"/><circle class="cls-4" cx="544.96" cy="822.75" r="5.98"/><circle class="cls-4" cx="563.57" cy="840.04" r="5.98"/><circle class="cls-4" cx="548.28" cy="851.34" r="5.98"/><circle class="cls-4" cx="550.94" cy="870.62" r="5.98"/><circle class="cls-4" cx="565.57" cy="863.31" r="5.98"/><circle class="cls-4" cx="575.54" cy="879.27" r="5.98"/><circle class="cls-4" cx="575.54" cy="828.73" r="5.98"/><rect class="cls-4" x="540.22" y="901.75" width="38.89" height="3.16"/><rect class="cls-4" x="540.22" y="924.09" width="38.89" height="3.16"/><rect class="cls-4" x="540.22" y="946.69" width="38.89" height="3.16"/><rect class="cls-4" x="540.22" y="969.3" width="38.89" height="3.16"/><rect class="cls-4" x="540.22" y="1068.64" width="38.89" height="3.16"/><rect class="cls-4" x="540.22" y="1090.98" width="38.89" height="3.16"/><rect class="cls-4" x="540.22" y="1113.58" width="38.89" height="3.16"/><circle class="cls-4" cx="544.96" cy="991.84" r="5.98"/><circle class="cls-4" cx="563.57" cy="1009.13" r="5.98"/><circle class="cls-4" cx="548.28" cy="1020.44" r="5.98"/><circle class="cls-4" cx="550.94" cy="1039.72" r="5.98"/><circle class="cls-4" cx="565.57" cy="1032.4" r="5.98"/><circle class="cls-4" cx="575.54" cy="1048.36" r="5.98"/><circle class="cls-4" cx="575.54" cy="997.83" r="5.98"/><rect class="cls-4" x="631" y="0.44" width="9.9" height="9.9" rx="4.95" transform="translate(190.08 -448.1) rotate(45)"/><path class="cls-4" d="M623.57,39.63l12-12.06a.49.49,0,0,1,.66,0l12.05,12.06h2a2,2,0,0,0-.4-.57L637.35,26.5a2,2,0,0,0-2.8,0L622,39.06a2,2,0,0,0-.4.57Z"/><path class="cls-4" d="M656.37,4.53l.06.15Z"/><path class="cls-4" d="M656.36,4.5a.91.91,0,0,0-.07-.14A.91.91,0,0,1,656.36,4.5Z"/><path class="cls-4" d="M656.37,5.49l-.08.14Z"/><path class="cls-4" d="M656.28,5.65l-.12.16Z"/><path class="cls-4" d="M656.43,5.31l-.06.16Z"/><path class="cls-4" d="M656.27,4.33l-.11-.15Z"/><path class="cls-4" d="M656.43,4.68l0,.19Z"/><path class="cls-4" d="M656.37,4.53v0Z"/><path class="cls-4" d="M656.43,5.31l0-.18Z"/><path class="cls-4" d="M656.29,5.63v0Z"/><path class="cls-4" d="M656.29,4.36l0,0Z"/><path class="cls-4" d="M656.37,5.47v0Z"/><path class="cls-4" d="M656.75,39.53l-.1-.11L640.19,23a.07.07,0,0,1,0-.1L656.65,6.4a2,2,0,0,0,.58-1.4,2,2,0,0,0-.58-1.41l-16-16a.75.75,0,0,1-.22-.53.74.74,0,0,1,.22-.52l15.39-15.39h-2.14L638.57-13.5a.78.78,0,0,0-.27.58.68.68,0,0,0,.05.29l0,0,.14.15a.52.52,0,0,0,.11.1l17,17a.47.47,0,0,1,0,.66l-17,17a.75.75,0,0,0-.27.58.64.64,0,0,0,.05.28l0,0,.15.14a.52.52,0,0,0,.1.11l16.29,16.29H657Z"/><path class="cls-4" d="M633.43,23.38l.15-.14,0,0a.64.64,0,0,0,.05-.28.75.75,0,0,0-.27-.58l-17-17a.47.47,0,0,1,0-.66l17-17a.52.52,0,0,0,.11-.1l.14-.15,0,0a.68.68,0,0,0,.05-.29.78.78,0,0,0-.27-.58L618-28.83h-2.14l15.39,15.39a.74.74,0,0,1,.22.52.75.75,0,0,1-.22.53l-16,16A2,2,0,0,0,614.67,5a2,2,0,0,0,.58,1.4l16.46,16.46a.07.07,0,0,1,0,.1L615.25,39.42l-.1.11-.21.25H617l16.29-16.29A.52.52,0,0,0,633.43,23.38Z"/><rect class="cls-4" x="625.16" y="79.71" width="19.59" height="19.59" rx="8.06" transform="translate(249.26 -422.76) rotate(45)"/><polygon class="cls-4" points="615.42 91.76 612.67 91.76 632.69 111.78 632.69 109.03 615.42 91.76"/><polygon class="cls-4" points="632.69 69.97 632.69 67.22 612.67 87.24 615.42 87.24 632.69 69.97"/><polygon class="cls-4" points="654.48 87.24 657.23 87.24 637.21 67.22 637.21 69.97 654.48 87.24"/><polygon class="cls-4" points="654.48 91.76 637.21 109.03 637.21 111.78 657.23 91.76 654.48 91.76"/><rect class="cls-4" x="631" y="165.44" width="9.9" height="9.9" rx="4.95" transform="translate(306.75 -399.78) rotate(45)"/><path class="cls-4" d="M648.33,136.17l-12.05,12.05a.49.49,0,0,1-.66,0l-12-12.05h-2a2,2,0,0,0,.4.56l12.56,12.56a2,2,0,0,0,2.8,0l12.56-12.56a2,2,0,0,0,.4-.56Z"/><path class="cls-4" d="M623.57,204.63l12-12.06a.49.49,0,0,1,.66,0l12.05,12.06h2a2,2,0,0,0-.4-.57L637.35,191.5a2,2,0,0,0-2.8,0L622,204.06a2,2,0,0,0-.4.57Z"/><path class="cls-4" d="M656.37,169.53l.06.15Z"/><path class="cls-4" d="M656.36,169.5a.91.91,0,0,0-.07-.14A.91.91,0,0,1,656.36,169.5Z"/><path class="cls-4" d="M656.37,170.49l-.08.14Z"/><path class="cls-4" d="M656.28,170.65l-.12.16Z"/><path class="cls-4" d="M656.43,170.31l-.06.16Z"/><path class="cls-4" d="M656.27,169.33l-.11-.15Z"/><path class="cls-4" d="M656.43,169.68l0,.19Z"/><path class="cls-4" d="M656.37,169.53v0Z"/><path class="cls-4" d="M656.43,170.31l0-.18Z"/><path class="cls-4" d="M656.29,170.63v0Z"/><path class="cls-4" d="M656.29,169.36l0,0Z"/><path class="cls-4" d="M656.37,170.47v0Z"/><path class="cls-4" d="M656.75,204.53l-.1-.11L640.19,188a.07.07,0,0,1,0-.1l16.46-16.46a2,2,0,0,0,.58-1.4,2,2,0,0,0-.58-1.41l-16-16a.74.74,0,0,1,0-1.05l15.39-15.39h-2.14L638.57,151.5a.78.78,0,0,0-.27.58.68.68,0,0,0,.05.29l0,0,.14.15a.52.52,0,0,0,.11.1l17,17a.47.47,0,0,1,0,.66l-17,17a.75.75,0,0,0-.27.58.64.64,0,0,0,.05.28l0,.05.15.14a.52.52,0,0,0,.1.11l16.29,16.29H657Z"/><path class="cls-4" d="M633.43,188.38l.15-.14,0-.05a.64.64,0,0,0,.05-.28.75.75,0,0,0-.27-.58l-17-17a.47.47,0,0,1,0-.66l17-17a.52.52,0,0,0,.11-.1l.14-.15,0,0a.68.68,0,0,0,.05-.29.78.78,0,0,0-.27-.58L618,136.17h-2.14l15.39,15.39a.74.74,0,0,1,0,1.05l-16,16a2,2,0,0,0-.58,1.41,2,2,0,0,0,.58,1.4l16.46,16.46a.07.07,0,0,1,0,.1l-16.46,16.46-.1.11-.21.25H617l16.29-16.29A.52.52,0,0,0,633.43,188.38Z"/><rect class="cls-4" x="625.16" y="250.71" width="19.59" height="19.59" rx="8.06" transform="translate(370.17 -372.68) rotate(45)"/><polygon class="cls-4" points="615.42 262.76 612.67 262.76 632.69 282.78 632.69 280.03 615.42 262.76"/><polygon class="cls-4" points="632.69 240.97 632.69 238.22 612.67 258.24 615.42 258.24 632.69 240.97"/><polygon class="cls-4" points="654.48 258.24 657.23 258.24 637.21 238.22 637.21 240.97 654.48 258.24"/><polygon class="cls-4" points="654.48 262.76 637.21 280.03 637.21 282.78 657.23 262.76 654.48 262.76"/><rect class="cls-4" x="631" y="336.44" width="9.9" height="9.9" rx="4.95" transform="translate(427.67 -349.69) rotate(45)"/><path class="cls-4" d="M648.33,307.17l-12.05,12.05a.49.49,0,0,1-.66,0l-12-12.05h-2a2,2,0,0,0,.4.56l12.56,12.56a2,2,0,0,0,2.8,0l12.56-12.56a2,2,0,0,0,.4-.56Z"/><path class="cls-4" d="M623.57,375.63l12-12.06a.49.49,0,0,1,.66,0l12.05,12.06h2a2,2,0,0,0-.4-.57L637.35,362.5a2,2,0,0,0-2.8,0L622,375.06a2,2,0,0,0-.4.57Z"/><path class="cls-4" d="M656.37,340.53l.06.15Z"/><path class="cls-4" d="M656.36,340.5a.91.91,0,0,0-.07-.14A.91.91,0,0,1,656.36,340.5Z"/><path class="cls-4" d="M656.37,341.49l-.08.14Z"/><path class="cls-4" d="M656.28,341.65l-.12.16Z"/><path class="cls-4" d="M656.43,341.31l-.06.16Z"/><path class="cls-4" d="M656.27,340.33l-.11-.15Z"/><path class="cls-4" d="M656.43,340.68l0,.19Z"/><path class="cls-4" d="M656.37,340.53v0Z"/><path class="cls-4" d="M656.43,341.31l0-.18Z"/><path class="cls-4" d="M656.29,341.63v0Z"/><path class="cls-4" d="M656.29,340.36l0,0Z"/><path class="cls-4" d="M656.37,341.47v0Z"/><path class="cls-4" d="M656.75,375.53l-.1-.11L640.19,359a.07.07,0,0,1,0-.1l16.46-16.46a2,2,0,0,0,.58-1.4,2,2,0,0,0-.58-1.41l-16-16a.74.74,0,0,1,0-1.05l15.39-15.39h-2.14L638.57,322.5a.78.78,0,0,0-.27.58.68.68,0,0,0,.05.29l0,0,.14.15a.52.52,0,0,0,.11.1l17,17a.47.47,0,0,1,0,.66l-17,17a.75.75,0,0,0-.27.58.64.64,0,0,0,.05.28l0,.05.15.14a.52.52,0,0,0,.1.11l16.29,16.29H657Z"/><path class="cls-4" d="M633.43,359.38l.15-.14,0-.05a.64.64,0,0,0,.05-.28.75.75,0,0,0-.27-.58l-17-17a.47.47,0,0,1,0-.66l17-17a.52.52,0,0,0,.11-.1l.14-.15,0,0a.68.68,0,0,0,.05-.29.78.78,0,0,0-.27-.58L618,307.17h-2.14l15.39,15.39a.74.74,0,0,1,0,1.05l-16,16a2,2,0,0,0-.58,1.41,2,2,0,0,0,.58,1.4l16.46,16.46a.07.07,0,0,1,0,.1l-16.46,16.46-.1.11-.21.25H617l16.29-16.29A.52.52,0,0,0,633.43,359.38Z"/><rect class="cls-4" x="625.16" y="415.71" width="19.59" height="19.59" rx="8.06" transform="translate(486.85 -324.35) rotate(45)"/><polygon class="cls-4" points="615.42 427.76 612.67 427.76 632.69 447.78 632.69 445.03 615.42 427.76"/><polygon class="cls-4" points="632.69 405.97 632.69 403.22 612.67 423.24 615.42 423.24 632.69 405.97"/><polygon class="cls-4" points="654.48 423.24 657.23 423.24 637.21 403.22 637.21 405.97 654.48 423.24"/><polygon class="cls-4" points="654.48 427.76 637.21 445.03 637.21 447.78 657.23 427.76 654.48 427.76"/><rect class="cls-4" x="631" y="501.44" width="9.9" height="9.9" rx="4.95" transform="translate(544.34 -301.36) rotate(45)"/><path class="cls-4" d="M648.33,472.17l-12.05,12.05a.49.49,0,0,1-.66,0l-12-12.05h-2a2,2,0,0,0,.4.56l12.56,12.56a2,2,0,0,0,2.8,0l12.56-12.56a2,2,0,0,0,.4-.56Z"/><path class="cls-4" d="M623.57,540.63l12-12.06a.49.49,0,0,1,.66,0l12.05,12.06h2a2,2,0,0,0-.4-.57L637.35,527.5a2,2,0,0,0-2.8,0L622,540.06a2,2,0,0,0-.4.57Z"/><path class="cls-4" d="M656.37,505.53l.06.15Z"/><path class="cls-4" d="M656.36,505.5a.91.91,0,0,0-.07-.14A.91.91,0,0,1,656.36,505.5Z"/><path class="cls-4" d="M656.37,506.49l-.08.14Z"/><path class="cls-4" d="M656.28,506.65l-.12.16Z"/><path class="cls-4" d="M656.43,506.31l-.06.16Z"/><path class="cls-4" d="M656.27,505.33l-.11-.15Z"/><path class="cls-4" d="M656.43,505.68l0,.19Z"/><path class="cls-4" d="M656.37,505.53v0Z"/><path class="cls-4" d="M656.43,506.31l0-.18Z"/><path class="cls-4" d="M656.29,506.63v0Z"/><path class="cls-4" d="M656.29,505.36l0,0Z"/><path class="cls-4" d="M656.37,506.47v0Z"/><path class="cls-4" d="M656.75,540.53l-.1-.11L640.19,524a.07.07,0,0,1,0-.1l16.46-16.46a2,2,0,0,0,.58-1.4,2,2,0,0,0-.58-1.41l-16-16a.74.74,0,0,1,0-1.05l15.39-15.39h-2.14L638.57,487.5a.78.78,0,0,0-.27.58.68.68,0,0,0,.05.29l0,0,.14.15a.52.52,0,0,0,.11.1l17,17a.47.47,0,0,1,0,.66l-17,17a.75.75,0,0,0-.27.58.64.64,0,0,0,.05.28l0,0,.15.14a.52.52,0,0,0,.1.11l16.29,16.29H657Z"/><path class="cls-4" d="M633.43,524.38l.15-.14,0,0a.64.64,0,0,0,.05-.28.75.75,0,0,0-.27-.58l-17-17a.47.47,0,0,1,0-.66l17-17a.52.52,0,0,0,.11-.1l.14-.15,0,0a.68.68,0,0,0,.05-.29.78.78,0,0,0-.27-.58L618,472.17h-2.14l15.39,15.39a.74.74,0,0,1,0,1.05l-16,16a2,2,0,0,0-.58,1.41,2,2,0,0,0,.58,1.4l16.46,16.46a.07.07,0,0,1,0,.1l-16.46,16.46-.1.11-.21.25H617l16.29-16.29A.52.52,0,0,0,633.43,524.38Z"/><rect class="cls-4" x="625.16" y="586.71" width="19.59" height="19.59" rx="8.06" transform="translate(607.76 -274.27) rotate(45)"/><polygon class="cls-4" points="615.42 598.76 612.67 598.76 632.69 618.78 632.69 616.03 615.42 598.76"/><polygon class="cls-4" points="632.69 576.97 632.69 574.22 612.67 594.24 615.42 594.24 632.69 576.97"/><polygon class="cls-4" points="654.48 594.24 657.23 594.24 637.21 574.22 637.21 576.97 654.48 594.24"/><polygon class="cls-4" points="654.48 598.76 637.21 616.03 637.21 618.78 657.23 598.76 654.48 598.76"/><rect class="cls-4" x="631" y="672.44" width="9.9" height="9.9" rx="4.95" transform="translate(665.26 -251.28) rotate(45)"/><path class="cls-4" d="M648.33,643.17l-12.05,12.05a.49.49,0,0,1-.66,0l-12-12.05h-2a2,2,0,0,0,.4.56l12.56,12.56a2,2,0,0,0,2.8,0l12.56-12.56a2,2,0,0,0,.4-.56Z"/><path class="cls-4" d="M623.57,711.63l12-12.06a.49.49,0,0,1,.66,0l12.05,12.06h2a2,2,0,0,0-.4-.57L637.35,698.5a2,2,0,0,0-2.8,0L622,711.06a2,2,0,0,0-.4.57Z"/><path class="cls-4" d="M656.37,676.53l.06.15Z"/><path class="cls-4" d="M656.36,676.5a.91.91,0,0,0-.07-.14A.91.91,0,0,1,656.36,676.5Z"/><path class="cls-4" d="M656.37,677.49l-.08.14Z"/><path class="cls-4" d="M656.28,677.65l-.12.16Z"/><path class="cls-4" d="M656.43,677.31l-.06.16Z"/><path class="cls-4" d="M656.27,676.33l-.11-.15Z"/><path class="cls-4" d="M656.43,676.68l0,.19Z"/><path class="cls-4" d="M656.37,676.53v0Z"/><path class="cls-4" d="M656.43,677.31l0-.18Z"/><path class="cls-4" d="M656.29,677.63v0Z"/><path class="cls-4" d="M656.29,676.36l0,0Z"/><path class="cls-4" d="M656.37,677.47v0Z"/><path class="cls-4" d="M656.75,711.53l-.1-.11L640.19,695a.07.07,0,0,1,0-.1l16.46-16.46a2,2,0,0,0,.58-1.4,2,2,0,0,0-.58-1.41l-16-16a.74.74,0,0,1,0-1.05l15.39-15.39h-2.14L638.57,658.5a.78.78,0,0,0-.27.58.68.68,0,0,0,.05.29l0,0,.14.15a.52.52,0,0,0,.11.1l17,17a.47.47,0,0,1,0,.66l-17,17a.75.75,0,0,0-.27.58.64.64,0,0,0,.05.28l0,0,.15.14a.52.52,0,0,0,.1.11l16.29,16.29H657Z"/><path class="cls-4" d="M633.43,695.38l.15-.14,0,0a.64.64,0,0,0,.05-.28.75.75,0,0,0-.27-.58l-17-17a.47.47,0,0,1,0-.66l17-17a.52.52,0,0,0,.11-.1l.14-.15,0,0a.68.68,0,0,0,.05-.29.78.78,0,0,0-.27-.58L618,643.17h-2.14l15.39,15.39a.74.74,0,0,1,0,1.05l-16,16a2,2,0,0,0-.58,1.41,2,2,0,0,0,.58,1.4l16.46,16.46a.07.07,0,0,1,0,.1l-16.46,16.46-.1.11-.21.25H617l16.29-16.29A.52.52,0,0,0,633.43,695.38Z"/><rect class="cls-4" x="625.16" y="751.71" width="19.59" height="19.59" rx="8.06" transform="translate(724.43 -225.94) rotate(45)"/><polygon class="cls-4" points="615.42 763.76 612.67 763.76 632.69 783.78 632.69 781.03 615.42 763.76"/><polygon class="cls-4" points="632.69 741.97 632.69 739.22 612.67 759.24 615.42 759.24 632.69 741.97"/><polygon class="cls-4" points="654.48 759.24 657.23 759.24 637.21 739.22 637.21 741.97 654.48 759.24"/><polygon class="cls-4" points="654.48 763.76 637.21 781.03 637.21 783.78 657.23 763.76 654.48 763.76"/><rect class="cls-4" x="631" y="837.44" width="9.9" height="9.9" rx="4.95" transform="translate(781.93 -202.95) rotate(45)"/><path class="cls-4" d="M648.33,808.17l-12.05,12.05a.49.49,0,0,1-.66,0l-12-12.05h-2a2,2,0,0,0,.4.56l12.56,12.56a2,2,0,0,0,2.8,0l12.56-12.56a2,2,0,0,0,.4-.56Z"/><path class="cls-4" d="M623.57,876.63l12-12.06a.49.49,0,0,1,.66,0l12.05,12.06h2a2,2,0,0,0-.4-.57L637.35,863.5a2,2,0,0,0-2.8,0L622,876.06a2,2,0,0,0-.4.57Z"/><path class="cls-4" d="M656.37,841.53l.06.15Z"/><path class="cls-4" d="M656.36,841.5a.91.91,0,0,0-.07-.14A.91.91,0,0,1,656.36,841.5Z"/><path class="cls-4" d="M656.37,842.49l-.08.14Z"/><path class="cls-4" d="M656.28,842.65l-.12.16Z"/><path class="cls-4" d="M656.43,842.31l-.06.16Z"/><path class="cls-4" d="M656.27,841.33l-.11-.15Z"/><path class="cls-4" d="M656.43,841.68l0,.19Z"/><path class="cls-4" d="M656.37,841.53v0Z"/><path class="cls-4" d="M656.43,842.31l0-.18Z"/><path class="cls-4" d="M656.29,842.63v0Z"/><path class="cls-4" d="M656.29,841.36l0,0Z"/><path class="cls-4" d="M656.37,842.47v0Z"/><path class="cls-4" d="M656.75,876.53l-.1-.11L640.19,860a.07.07,0,0,1,0-.1l16.46-16.46a2,2,0,0,0,.58-1.4,2,2,0,0,0-.58-1.41l-16-16a.74.74,0,0,1,0-1.05l15.39-15.39h-2.14L638.57,823.5a.78.78,0,0,0-.27.58.68.68,0,0,0,.05.29l0,0,.14.15a.52.52,0,0,0,.11.1l17,17a.47.47,0,0,1,0,.66l-17,17a.75.75,0,0,0-.27.58.64.64,0,0,0,.05.28l0,0,.15.14a.52.52,0,0,0,.1.11l16.29,16.29H657Z"/><path class="cls-4" d="M633.43,860.38l.15-.14,0,0a.64.64,0,0,0,.05-.28.75.75,0,0,0-.27-.58l-17-17a.47.47,0,0,1,0-.66l17-17a.52.52,0,0,0,.11-.1l.14-.15,0,0a.68.68,0,0,0,.05-.29.78.78,0,0,0-.27-.58L618,808.17h-2.14l15.39,15.39a.74.74,0,0,1,0,1.05l-16,16a2,2,0,0,0-.58,1.41,2,2,0,0,0,.58,1.4l16.46,16.46a.07.07,0,0,1,0,.1l-16.46,16.46-.1.11-.21.25H617l16.29-16.29A.52.52,0,0,0,633.43,860.38Z"/><rect class="cls-4" x="625.16" y="922.71" width="19.59" height="19.59" rx="8.06" transform="translate(845.35 -175.85) rotate(45)"/><polygon class="cls-4" points="615.42 934.76 612.67 934.76 632.69 954.78 632.69 952.03 615.42 934.76"/><polygon class="cls-4" points="632.69 912.97 632.69 910.22 612.67 930.24 615.42 930.24 632.69 912.97"/><polygon class="cls-4" points="654.48 930.24 657.23 930.24 637.21 910.22 637.21 912.97 654.48 930.24"/><polygon class="cls-4" points="654.48 934.76 637.21 952.03 637.21 954.78 657.23 934.76 654.48 934.76"/><rect class="cls-4" x="631" y="1008.44" width="9.9" height="9.9" rx="4.95" transform="translate(902.84 -152.87) rotate(45)"/><path class="cls-4" d="M648.33,979.17l-12.05,12.05a.49.49,0,0,1-.66,0l-12-12.05h-2a2,2,0,0,0,.4.56l12.56,12.56a2,2,0,0,0,2.8,0l12.56-12.56a2,2,0,0,0,.4-.56Z"/><path class="cls-4" d="M623.57,1047.63l12-12.06a.49.49,0,0,1,.66,0l12.05,12.06h2a2,2,0,0,0-.4-.57l-12.56-12.56a2,2,0,0,0-2.8,0L622,1047.06a2,2,0,0,0-.4.57Z"/><path class="cls-4" d="M656.37,1012.53l.06.15Z"/><path class="cls-4" d="M656.36,1012.5a.91.91,0,0,0-.07-.14A.91.91,0,0,1,656.36,1012.5Z"/><path class="cls-4" d="M656.37,1013.49l-.08.14Z"/><path class="cls-4" d="M656.28,1013.65l-.12.16Z"/><path class="cls-4" d="M656.43,1013.31l-.06.16Z"/><path class="cls-4" d="M656.27,1012.33l-.11-.15Z"/><path class="cls-4" d="M656.43,1012.68l0,.19Z"/><path class="cls-4" d="M656.37,1012.53v0Z"/><path class="cls-4" d="M656.43,1013.31l0-.18Z"/><path class="cls-4" d="M656.29,1013.63v0Z"/><path class="cls-4" d="M656.29,1012.36l0,0Z"/><path class="cls-4" d="M656.37,1013.47v0Z"/><path class="cls-4" d="M656.75,1047.53l-.1-.11L640.19,1031a.07.07,0,0,1,0-.1l16.46-16.46a2,2,0,0,0,.58-1.4,2,2,0,0,0-.58-1.41l-16-16a.74.74,0,0,1,0-1.05l15.39-15.39h-2.14L638.57,994.5a.78.78,0,0,0-.27.58.68.68,0,0,0,.05.29l0,0,.14.15a.52.52,0,0,0,.11.1l17,17a.47.47,0,0,1,0,.66l-17,17a.75.75,0,0,0-.27.58.64.64,0,0,0,.05.28l0,0,.15.14a.52.52,0,0,0,.1.11l16.29,16.29H657Z"/><path class="cls-4" d="M633.43,1031.38l.15-.14,0,0a.64.64,0,0,0,.05-.28.75.75,0,0,0-.27-.58l-17-17a.47.47,0,0,1,0-.66l17-17a.52.52,0,0,0,.11-.1l.14-.15,0,0a.68.68,0,0,0,.05-.29.78.78,0,0,0-.27-.58L618,979.17h-2.14l15.39,15.39a.74.74,0,0,1,0,1.05l-16,16a2,2,0,0,0-.58,1.41,2,2,0,0,0,.58,1.4l16.46,16.46a.07.07,0,0,1,0,.1l-16.46,16.46-.1.11-.21.25H617l16.29-16.29A.52.52,0,0,0,633.43,1031.38Z"/><rect class="cls-4" x="625.16" y="1087.71" width="19.59" height="19.59" rx="8.06" transform="translate(962.02 -127.53) rotate(45)"/><polygon class="cls-4" points="615.42 1099.76 612.67 1099.76 632.69 1119.78 632.69 1117.03 615.42 1099.76"/><polygon class="cls-4" points="632.69 1077.97 632.69 1075.22 612.67 1095.24 615.42 1095.24 632.69 1077.97"/><polygon class="cls-4" points="654.48 1095.24 657.23 1095.24 637.21 1075.22 637.21 1077.97 654.48 1095.24"/><polygon class="cls-4" points="654.48 1099.76 637.21 1117.03 637.21 1119.78 657.23 1099.76 654.48 1099.76"/><path class="cls-4" d="M731.15,43.74h-43v-53h43Zm-39.77-3.23h36.54V-6H691.38Z"/><path class="cls-4" d="M706.12,29.57c-1.82-12.44,2-19.48,5.55-23.2a18.57,18.57,0,0,1,8.39-5.17l.6,2.51a16.39,16.39,0,0,0-7.21,4.54c-4.5,4.81-6.1,11.85-4.77,21Z"/><polygon class="cls-4" points="707.4 63.26 689.77 80.89 707.4 80.89 707.4 63.26"/><polygon class="cls-4" points="711.9 80.89 729.53 80.89 711.9 63.26 711.9 80.89"/><polygon class="cls-4" points="689.77 85.39 707.4 103.02 707.4 85.39 689.77 85.39"/><polygon class="cls-4" points="711.9 103.02 729.53 85.39 711.9 85.39 711.9 103.02"/><rect class="cls-4" x="709.02" y="63.26" width="0.72" height="18.08"/><rect class="cls-4" x="709.02" y="84.94" width="0.72" height="18.08"/><rect class="cls-4" x="689.77" y="82.78" width="17.81" height="0.72"/><rect class="cls-4" x="711.18" y="82.78" width="18.35" height="0.72"/><circle class="cls-4" cx="709.34" cy="83.18" r="0.94"/><rect class="cls-4" x="689.77" y="117.25" width="39.77" height="3.23"/><rect class="cls-4" x="689.77" y="129.21" width="39.77" height="3.23"/><rect class="cls-4" x="689.77" y="141.17" width="39.77" height="3.23"/><path class="cls-4" d="M731.15,208.74h-43v-53h43Zm-39.77-3.23h36.54V159H691.38Z"/><path class="cls-4" d="M706.12,194.57c-1.82-12.44,2-19.48,5.55-23.2a18.57,18.57,0,0,1,8.39-5.17l.6,2.51a16.39,16.39,0,0,0-7.21,4.54c-4.5,4.81-6.1,11.85-4.77,20.95Z"/><polygon class="cls-4" points="707.4 234.26 689.77 251.89 707.4 251.89 707.4 234.26"/><polygon class="cls-4" points="711.9 251.89 729.53 251.89 711.9 234.26 711.9 251.89"/><polygon class="cls-4" points="689.77 256.39 707.4 274.02 707.4 256.39 689.77 256.39"/><polygon class="cls-4" points="711.9 274.02 729.53 256.39 711.9 256.39 711.9 274.02"/><rect class="cls-4" x="709.02" y="234.26" width="0.72" height="18.08"/><rect class="cls-4" x="709.02" y="255.94" width="0.72" height="18.08"/><rect class="cls-4" x="689.77" y="253.78" width="17.81" height="0.72"/><rect class="cls-4" x="711.18" y="253.78" width="18.35" height="0.72"/><circle class="cls-4" cx="709.34" cy="254.18" r="0.94"/><rect class="cls-4" x="689.77" y="288.25" width="39.77" height="3.23"/><rect class="cls-4" x="689.77" y="300.21" width="39.77" height="3.23"/><rect class="cls-4" x="689.77" y="312.17" width="39.77" height="3.23"/><path class="cls-4" d="M731.15,379.74h-43v-53h43Zm-39.77-3.23h36.54V330H691.38Z"/><path class="cls-4" d="M706.12,365.57c-1.82-12.44,2-19.48,5.55-23.2a18.57,18.57,0,0,1,8.39-5.17l.6,2.51a16.39,16.39,0,0,0-7.21,4.54c-4.5,4.81-6.1,11.85-4.77,20.95Z"/><polygon class="cls-4" points="707.4 399.26 689.77 416.89 707.4 416.89 707.4 399.26"/><polygon class="cls-4" points="711.9 416.89 729.53 416.89 711.9 399.26 711.9 416.89"/><polygon class="cls-4" points="689.77 421.39 707.4 439.02 707.4 421.39 689.77 421.39"/><polygon class="cls-4" points="711.9 439.02 729.53 421.39 711.9 421.39 711.9 439.02"/><rect class="cls-4" x="709.02" y="399.26" width="0.72" height="18.08"/><rect class="cls-4" x="709.02" y="420.94" width="0.72" height="18.08"/><rect class="cls-4" x="689.77" y="418.78" width="17.81" height="0.72"/><rect class="cls-4" x="711.18" y="418.78" width="18.35" height="0.72"/><circle class="cls-4" cx="709.34" cy="419.18" r="0.94"/><rect class="cls-4" x="689.77" y="453.25" width="39.77" height="3.23"/><rect class="cls-4" x="689.77" y="465.21" width="39.77" height="3.23"/><rect class="cls-4" x="689.77" y="477.17" width="39.77" height="3.23"/><path class="cls-4" d="M731.15,544.74h-43v-53h43Zm-39.77-3.23h36.54V495H691.38Z"/><path class="cls-4" d="M706.12,530.57c-1.82-12.44,2-19.48,5.55-23.2a18.57,18.57,0,0,1,8.39-5.17l.6,2.51a16.39,16.39,0,0,0-7.21,4.54c-4.5,4.81-6.1,11.85-4.77,21Z"/><polygon class="cls-4" points="707.4 570.26 689.77 587.89 707.4 587.89 707.4 570.26"/><polygon class="cls-4" points="711.9 587.89 729.53 587.89 711.9 570.26 711.9 587.89"/><polygon class="cls-4" points="689.77 592.39 707.4 610.02 707.4 592.39 689.77 592.39"/><polygon class="cls-4" points="711.9 610.02 729.53 592.39 711.9 592.39 711.9 610.02"/><rect class="cls-4" x="709.02" y="570.26" width="0.72" height="18.08"/><rect class="cls-4" x="709.02" y="591.94" width="0.72" height="18.08"/><rect class="cls-4" x="689.77" y="589.78" width="17.81" height="0.72"/><rect class="cls-4" x="711.18" y="589.78" width="18.35" height="0.72"/><circle class="cls-4" cx="709.34" cy="590.18" r="0.94"/><rect class="cls-4" x="689.77" y="624.25" width="39.77" height="3.23"/><rect class="cls-4" x="689.77" y="636.21" width="39.77" height="3.23"/><rect class="cls-4" x="689.77" y="648.17" width="39.77" height="3.23"/><path class="cls-4" d="M731.15,715.74h-43v-53h43Zm-39.77-3.23h36.54V666H691.38Z"/><path class="cls-4" d="M706.12,701.57c-1.82-12.44,2-19.48,5.55-23.2a18.57,18.57,0,0,1,8.39-5.17l.6,2.51a16.39,16.39,0,0,0-7.21,4.54c-4.5,4.81-6.1,11.85-4.77,21Z"/><polygon class="cls-4" points="707.4 735.26 689.77 752.89 707.4 752.89 707.4 735.26"/><polygon class="cls-4" points="711.9 752.89 729.53 752.89 711.9 735.26 711.9 752.89"/><polygon class="cls-4" points="689.77 757.39 707.4 775.02 707.4 757.39 689.77 757.39"/><polygon class="cls-4" points="711.9 775.02 729.53 757.39 711.9 757.39 711.9 775.02"/><rect class="cls-4" x="709.02" y="735.26" width="0.72" height="18.08"/><rect class="cls-4" x="709.02" y="756.94" width="0.72" height="18.08"/><rect class="cls-4" x="689.77" y="754.78" width="17.81" height="0.72"/><rect class="cls-4" x="711.18" y="754.78" width="18.35" height="0.72"/><circle class="cls-4" cx="709.34" cy="755.18" r="0.94"/><rect class="cls-4" x="689.77" y="789.25" width="39.77" height="3.23"/><rect class="cls-4" x="689.77" y="801.21" width="39.77" height="3.23"/><rect class="cls-4" x="689.77" y="813.17" width="39.77" height="3.23"/><path class="cls-4" d="M731.15,880.74h-43v-53h43Zm-39.77-3.23h36.54V831H691.38Z"/><path class="cls-4" d="M706.12,866.57c-1.82-12.44,2-19.48,5.55-23.2a18.57,18.57,0,0,1,8.39-5.17l.6,2.51a16.39,16.39,0,0,0-7.21,4.54c-4.5,4.81-6.1,11.85-4.77,21Z"/><polygon class="cls-4" points="707.4 906.26 689.77 923.89 707.4 923.89 707.4 906.26"/><polygon class="cls-4" points="711.9 923.89 729.53 923.89 711.9 906.26 711.9 923.89"/><polygon class="cls-4" points="689.77 928.39 707.4 946.02 707.4 928.39 689.77 928.39"/><polygon class="cls-4" points="711.9 946.02 729.53 928.39 711.9 928.39 711.9 946.02"/><rect class="cls-4" x="709.02" y="906.26" width="0.72" height="18.08"/><rect class="cls-4" x="709.02" y="927.94" width="0.72" height="18.08"/><rect class="cls-4" x="689.77" y="925.78" width="17.81" height="0.72"/><rect class="cls-4" x="711.18" y="925.78" width="18.35" height="0.72"/><circle class="cls-4" cx="709.34" cy="926.18" r="0.94"/><rect class="cls-4" x="689.77" y="960.25" width="39.77" height="3.23"/><rect class="cls-4" x="689.77" y="972.21" width="39.77" height="3.23"/><rect class="cls-4" x="689.77" y="984.17" width="39.77" height="3.23"/><path class="cls-4" d="M731.15,1051.74h-43v-53h43Zm-39.77-3.23h36.54V1002H691.38Z"/><path class="cls-4" d="M706.12,1037.57c-1.82-12.44,2-19.48,5.55-23.2a18.57,18.57,0,0,1,8.39-5.17l.6,2.51a16.39,16.39,0,0,0-7.21,4.54c-4.5,4.81-6.1,11.85-4.77,21Z"/><polygon class="cls-4" points="707.4 1071.26 689.77 1088.89 707.4 1088.89 707.4 1071.26"/><polygon class="cls-4" points="711.9 1088.89 729.53 1088.89 711.9 1071.26 711.9 1088.89"/><polygon class="cls-4" points="689.77 1093.39 707.4 1111.02 707.4 1093.39 689.77 1093.39"/><polygon class="cls-4" points="711.9 1111.02 729.53 1093.39 711.9 1093.39 711.9 1111.02"/><rect class="cls-4" x="709.02" y="1071.26" width="0.72" height="18.08"/><rect class="cls-4" x="709.02" y="1092.94" width="0.72" height="18.08"/><rect class="cls-4" x="689.77" y="1090.78" width="17.81" height="0.72"/><rect class="cls-4" x="711.18" y="1090.78" width="18.35" height="0.72"/><circle class="cls-4" cx="709.34" cy="1091.18" r="0.94"/></g></svg>