<svg xmlns="http://www.w3.org/2000/svg" xmlns:xlink="http://www.w3.org/1999/xlink" viewBox="0 0 1115 743"><defs><style>.cls-1{fill:none;}.cls-2{isolation:isolate;}.cls-3,.cls-9{fill:#d3762e;}.cls-4{clip-path:url(#clip-path);}.cls-5{fill:#581620;}.cls-6{fill:#7a6a26;}.cls-7{fill:#ffc18d;}.cls-8{fill:#9b1d32;}.cls-9{mix-blend-mode:multiply;opacity:0.25;}</style><clipPath id="clip-path"><rect class="cls-1" y="-1" width="1115" height="744"/></clipPath></defs><g class="cls-2"><g id="Calque_1" data-name="Calque 1"><rect class="cls-3" y="-1" width="1115" height="744"/><g class="cls-4"><polygon class="cls-5" points="-8.9 47.77 -45.07 -4.99 -8.9 -55.26 27 -4.99 -8.9 47.77"/><polygon class="cls-5" points="85.52 47.77 49.35 -4.99 85.52 -55.26 121.41 -4.99 85.52 47.77"/><polygon class="cls-5" points="179.94 47.77 143.76 -4.99 179.94 -55.26 215.83 -4.99 179.94 47.77"/><polygon class="cls-5" points="274.35 47.77 238.18 -4.99 274.35 -55.26 310.25 -4.99 274.35 47.77"/><polygon class="cls-5" points="368.77 47.77 332.6 -4.99 368.77 -55.26 404.67 -4.99 368.77 47.77"/><polygon class="cls-5" points="463.19 47.77 427.02 -4.99 463.19 -55.26 499.08 -4.99 463.19 47.77"/><polygon class="cls-5" points="557.61 47.77 521.43 -4.99 557.61 -55.26 593.5 -4.99 557.61 47.77"/><polygon class="cls-5" points="652.02 47.77 615.85 -4.99 652.02 -55.26 687.91 -4.99 652.02 47.77"/><polygon class="cls-5" points="746.44 47.77 710.27 -4.99 746.44 -55.26 782.33 -4.99 746.44 47.77"/><polygon class="cls-5" points="840.86 47.77 804.68 -4.99 840.86 -55.26 876.75 -4.99 840.86 47.77"/><polygon class="cls-5" points="935.27 47.77 899.1 -4.99 935.27 -55.26 971.17 -4.99 935.27 47.77"/><polygon class="cls-5" points="1029.69 47.77 993.52 -4.99 1029.69 -55.26 1065.58 -4.99 1029.69 47.77"/><polygon class="cls-5" points="1124.11 47.77 1087.93 -4.99 1124.11 -55.26 1160 -4.99 1124.11 47.77"/><polygon class="cls-5" points="-8.9 197.87 -45.07 145.1 -8.9 94.84 27 145.1 -8.9 197.87"/><polygon class="cls-5" points="85.52 197.87 49.35 145.1 85.52 94.84 121.41 145.1 85.52 197.87"/><polygon class="cls-5" points="179.94 197.87 143.76 145.1 179.94 94.84 215.83 145.1 179.94 197.87"/><polygon class="cls-5" points="274.35 197.87 238.18 145.1 274.35 94.84 310.25 145.1 274.35 197.87"/><polygon class="cls-5" points="368.77 197.87 332.6 145.1 368.77 94.84 404.67 145.1 368.77 197.87"/><polygon class="cls-5" points="463.19 197.87 427.02 145.1 463.19 94.84 499.08 145.1 463.19 197.87"/><polygon class="cls-5" points="557.61 197.87 521.43 145.1 557.61 94.84 593.5 145.1 557.61 197.87"/><polygon class="cls-5" points="652.02 197.87 615.85 145.1 652.02 94.84 687.91 145.1 652.02 197.87"/><polygon class="cls-5" points="746.44 197.87 710.27 145.1 746.44 94.84 782.33 145.1 746.44 197.87"/><polygon class="cls-5" points="840.86 197.87 804.68 145.1 840.86 94.84 876.75 145.1 840.86 197.87"/><polygon class="cls-5" points="935.27 197.87 899.1 145.1 935.27 94.84 971.17 145.1 935.27 197.87"/><polygon class="cls-5" points="1029.69 197.87 993.52 145.1 1029.69 94.84 1065.58 145.1 1029.69 197.87"/><polygon class="cls-5" points="1124.11 197.87 1087.93 145.1 1124.11 94.84 1160 145.1 1124.11 197.87"/><polygon class="cls-6" points="-8.9 347.97 -45.07 295.2 -8.9 244.94 27 295.2 -8.9 347.97"/><polygon class="cls-6" points="85.52 347.97 49.35 295.2 85.52 244.94 121.41 295.2 85.52 347.97"/><polygon class="cls-6" points="179.94 347.97 143.76 295.2 179.94 244.94 215.83 295.2 179.94 347.97"/><polygon class="cls-6" points="274.35 347.97 238.18 295.2 274.35 244.94 310.25 295.2 274.35 347.97"/><polygon class="cls-6" points="368.77 347.97 332.6 295.2 368.77 244.94 404.67 295.2 368.77 347.97"/><polygon class="cls-6" points="463.19 347.97 427.02 295.2 463.19 244.94 499.08 295.2 463.19 347.97"/><polygon class="cls-6" points="557.61 347.97 521.43 295.2 557.61 244.94 593.5 295.2 557.61 347.97"/><polygon class="cls-6" points="652.02 347.97 615.85 295.2 652.02 244.94 687.91 295.2 652.02 347.97"/><polygon class="cls-6" points="746.44 347.97 710.27 295.2 746.44 244.94 782.33 295.2 746.44 347.97"/><polygon class="cls-6" points="840.86 347.97 804.68 295.2 840.86 244.94 876.75 295.2 840.86 347.97"/><polygon class="cls-6" points="935.27 347.97 899.1 295.2 935.27 244.94 971.17 295.2 935.27 347.97"/><polygon class="cls-6" points="1029.69 347.97 993.52 295.2 1029.69 244.94 1065.58 295.2 1029.69 347.97"/><polygon class="cls-6" points="1124.11 347.97 1087.93 295.2 1124.11 244.94 1160 295.2 1124.11 347.97"/><polygon class="cls-5" points="-8.9 498.06 -45.07 445.3 -8.9 395.03 27 445.3 -8.9 498.06"/><polygon class="cls-5" points="85.52 498.06 49.35 445.3 85.52 395.03 121.41 445.3 85.52 498.06"/><polygon class="cls-5" points="179.94 498.06 143.76 445.3 179.94 395.03 215.83 445.3 179.94 498.06"/><polygon class="cls-5" points="274.35 498.06 238.18 445.3 274.35 395.03 310.25 445.3 274.35 498.06"/><polygon class="cls-5" points="368.77 498.06 332.6 445.3 368.77 395.03 404.67 445.3 368.77 498.06"/><polygon class="cls-5" points="463.19 498.06 427.02 445.3 463.19 395.03 499.08 445.3 463.19 498.06"/><polygon class="cls-5" points="557.61 498.06 521.43 445.3 557.61 395.03 593.5 445.3 557.61 498.06"/><polygon class="cls-5" points="652.02 498.06 615.85 445.3 652.02 395.03 687.91 445.3 652.02 498.06"/><polygon class="cls-5" points="746.44 498.06 710.27 445.3 746.44 395.03 782.33 445.3 746.44 498.06"/><polygon class="cls-5" points="840.86 498.06 804.68 445.3 840.86 395.03 876.75 445.3 840.86 498.06"/><polygon class="cls-5" points="935.27 498.06 899.1 445.3 935.27 395.03 971.17 445.3 935.27 498.06"/><polygon class="cls-5" points="1029.69 498.06 993.52 445.3 1029.69 395.03 1065.58 445.3 1029.69 498.06"/><polygon class="cls-5" points="1124.11 498.06 1087.93 445.3 1124.11 395.03 1160 445.3 1124.11 498.06"/><polygon class="cls-6" points="-8.9 648.16 -45.07 595.39 -8.9 545.13 27 595.39 -8.9 648.16"/><polygon class="cls-6" points="85.52 648.16 49.35 595.39 85.52 545.13 121.41 595.39 85.52 648.16"/><polygon class="cls-6" points="179.94 648.16 143.76 595.39 179.94 545.13 215.83 595.39 179.94 648.16"/><polygon class="cls-6" points="274.35 648.16 238.18 595.39 274.35 545.13 310.25 595.39 274.35 648.16"/><polygon class="cls-6" points="368.77 648.16 332.6 595.39 368.77 545.13 404.67 595.39 368.77 648.16"/><polygon class="cls-6" points="463.19 648.16 427.02 595.39 463.19 545.13 499.08 595.39 463.19 648.16"/><polygon class="cls-6" points="557.61 648.16 521.43 595.39 557.61 545.13 593.5 595.39 557.61 648.16"/><polygon class="cls-6" points="652.02 648.16 615.85 595.39 652.02 545.13 687.91 595.39 652.02 648.16"/><polygon class="cls-6" points="746.44 648.16 710.27 595.39 746.44 545.13 782.33 595.39 746.44 648.16"/><polygon class="cls-6" points="840.86 648.16 804.68 595.39 840.86 545.13 876.75 595.39 840.86 648.16"/><polygon class="cls-6" points="935.27 648.16 899.1 595.39 935.27 545.13 971.17 595.39 935.27 648.16"/><polygon class="cls-6" points="1029.69 648.16 993.52 595.39 1029.69 545.13 1065.58 595.39 1029.69 648.16"/><polygon class="cls-6" points="1124.11 648.16 1087.93 595.39 1124.11 545.13 1160 595.39 1124.11 648.16"/><polygon class="cls-5" points="-8.9 798.26 -45.07 745.49 -8.9 695.23 27 745.49 -8.9 798.26"/><polygon class="cls-5" points="85.52 798.26 49.35 745.49 85.52 695.23 121.41 745.49 85.52 798.26"/><polygon class="cls-5" points="179.94 798.26 143.76 745.49 179.94 695.23 215.83 745.49 179.94 798.26"/><polygon class="cls-5" points="274.35 798.26 238.18 745.49 274.35 695.23 310.25 745.49 274.35 798.26"/><polygon class="cls-5" points="368.77 798.26 332.6 745.49 368.77 695.23 404.67 745.49 368.77 798.26"/><polygon class="cls-5" points="463.19 798.26 427.02 745.49 463.19 695.23 499.08 745.49 463.19 798.26"/><polygon class="cls-5" points="557.61 798.26 521.43 745.49 557.61 695.23 593.5 745.49 557.61 798.26"/><polygon class="cls-5" points="652.02 798.26 615.85 745.49 652.02 695.23 687.91 745.49 652.02 798.26"/><polygon class="cls-5" points="746.44 798.26 710.27 745.49 746.44 695.23 782.33 745.49 746.44 798.26"/><polygon class="cls-5" points="840.86 798.26 804.68 745.49 840.86 695.23 876.75 745.49 840.86 798.26"/><polygon class="cls-5" points="935.27 798.26 899.1 745.49 935.27 695.23 971.17 745.49 935.27 798.26"/><polygon class="cls-5" points="1029.69 798.26 993.52 745.49 1029.69 695.23 1065.58 745.49 1029.69 798.26"/><polygon class="cls-5" points="1124.11 798.26 1087.93 745.49 1124.11 695.23 1160 745.49 1124.11 798.26"/><circle class="cls-7" cx="227.92" cy="222.23" r="18.1"/><circle class="cls-8" cx="133.92" cy="222.23" r="18.1"/><circle class="cls-7" cx="39.92" cy="222.23" r="18.1"/><circle class="cls-8" cx="321.42" cy="222.23" r="18.1"/><circle class="cls-7" cx="414.14" cy="222.23" r="18.1"/><circle class="cls-8" cx="508.72" cy="222.23" r="18.1"/><circle class="cls-7" cx="607" cy="222.23" r="18.1"/><circle class="cls-8" cx="701.59" cy="222.23" r="18.1"/><circle class="cls-7" cx="793.95" cy="222.23" r="18.1"/><circle class="cls-8" cx="888.54" cy="222.23" r="18.1"/><circle class="cls-7" cx="983.54" cy="222.23" r="18.1"/><circle class="cls-8" cx="1078.54" cy="222.23" r="18.1"/><circle class="cls-8" cx="227.92" cy="371.5" r="18.1"/><circle class="cls-7" cx="133.92" cy="371.5" r="18.1"/><circle class="cls-8" cx="39.92" cy="371.5" r="18.1"/><circle class="cls-7" cx="321.42" cy="371.5" r="18.1"/><circle class="cls-8" cx="414.14" cy="371.5" r="18.1"/><circle class="cls-7" cx="508.72" cy="371.5" r="18.1"/><circle class="cls-8" cx="607" cy="371.5" r="18.1"/><circle class="cls-7" cx="701.59" cy="371.5" r="18.1"/><circle class="cls-8" cx="793.95" cy="371.5" r="18.1"/><circle class="cls-7" cx="888.54" cy="371.5" r="18.1"/><circle class="cls-8" cx="983.54" cy="371.5" r="18.1"/><circle class="cls-7" cx="1078.54" cy="371.5" r="18.1"/><circle class="cls-8" cx="227.92" cy="669.5" r="18.1"/><circle class="cls-7" cx="133.92" cy="669.5" r="18.1"/><circle class="cls-8" cx="39.92" cy="669.5" r="18.1"/><circle class="cls-7" cx="321.42" cy="669.5" r="18.1"/><circle class="cls-8" cx="414.14" cy="669.5" r="18.1"/><circle class="cls-7" cx="508.72" cy="669.5" r="18.1"/><circle class="cls-8" cx="607" cy="669.5" r="18.1"/><circle class="cls-7" cx="701.59" cy="669.5" r="18.1"/><circle class="cls-8" cx="793.95" cy="669.5" r="18.1"/><circle class="cls-7" cx="888.54" cy="669.5" r="18.1"/><circle class="cls-8" cx="983.54" cy="669.5" r="18.1"/><circle class="cls-7" cx="1078.54" cy="669.5" r="18.1"/><circle class="cls-7" cx="227.92" cy="526.68" r="18.1"/><circle class="cls-8" cx="133.92" cy="526.68" r="18.1"/><circle class="cls-7" cx="39.92" cy="526.68" r="18.1"/><circle class="cls-8" cx="321.42" cy="526.68" r="18.1"/><circle class="cls-7" cx="414.14" cy="526.68" r="18.1"/><circle class="cls-8" cx="508.72" cy="526.68" r="18.1"/><circle class="cls-7" cx="607" cy="526.68" r="18.1"/><circle class="cls-8" cx="701.59" cy="526.68" r="18.1"/><circle class="cls-7" cx="793.95" cy="526.68" r="18.1"/><circle class="cls-7" cx="983.95" cy="526.68" r="18.1"/><circle class="cls-8" cx="888.54" cy="526.68" r="18.1"/><circle class="cls-8" cx="1078.54" cy="526.68" r="18.1"/><circle class="cls-8" cx="227.92" cy="75.13" r="18.1"/><circle class="cls-7" cx="133.92" cy="75.13" r="18.1"/><circle class="cls-8" cx="39.92" cy="75.13" r="18.1"/><circle class="cls-7" cx="321.42" cy="75.13" r="18.1"/><circle class="cls-8" cx="414.14" cy="75.13" r="18.1"/><circle class="cls-7" cx="508.72" cy="75.13" r="18.1"/><circle class="cls-8" cx="607" cy="75.13" r="18.1"/><circle class="cls-7" cx="701.59" cy="75.13" r="18.1"/><circle class="cls-8" cx="793.95" cy="75.13" r="18.1"/><circle class="cls-7" cx="888.54" cy="75.13" r="18.1"/><circle class="cls-8" cx="983.54" cy="75.13" r="18.1"/><circle class="cls-7" cx="1078.54" cy="75.13" r="18.1"/></g><path class="cls-9" d="M0-1S224,76,259,288,476,502.31,609,534.16s305.08,3.63,374.54,117.24S1115,743,1115,743V-1Z"/></g></g></svg>