<svg id="Calque_1" data-name="Calque 1" xmlns="http://www.w3.org/2000/svg" xmlns:xlink="http://www.w3.org/1999/xlink" viewBox="0 0 1115 743"><defs><style>.cls-1{fill:none;}.cls-2{clip-path:url(#clip-path);}.cls-3{opacity:0.17;}.cls-4{opacity:0.6;}.cls-5{opacity:0.63;}</style><clipPath id="clip-path"><rect class="cls-1" x="-29" y="-17.6" width="1173" height="778.19"/></clipPath></defs><g class="cls-2"><g class="cls-3"><g class="cls-4"><path class="cls-5" d="M226.58,768.08,196,737.46l30.62-30.62,30.62,30.62Zm-29.91-30.62,29.91,29.91,29.91-29.91-29.91-29.91Z"/><path class="cls-5" d="M263.26,731.4l-30.62-30.62,30.62-30.61,30.61,30.61Zm-29.91-30.62,29.91,29.91,29.91-29.91-29.91-29.91Z"/><path class="cls-5" d="M299.94,768.08l-30.62-30.62,30.62-30.62,30.61,30.62ZM270,737.46l29.91,29.91,29.91-29.91-29.91-29.91Z"/><path class="cls-5" d="M299.94,694.72l-30.62-30.61,30.62-30.62,30.61,30.62ZM270,664.11,299.94,694l29.91-29.91L299.94,634.2Z"/><path class="cls-5" d="M336.61,731.4,306,700.78l30.61-30.61,30.62,30.61ZM306.7,700.78l29.91,29.91,29.91-29.91-29.91-29.91Z"/><path class="cls-5" d="M373.29,768.08l-30.62-30.62,30.62-30.62,30.62,30.62Zm-29.91-30.62,29.91,29.91,29.91-29.91-29.91-29.91Z"/><path class="cls-5" d="M336.61,658,306,627.43l30.61-30.62,30.62,30.62ZM306.7,627.43l29.91,29.91,29.91-29.91-29.91-29.91Z"/><path class="cls-5" d="M373.29,694.72l-30.62-30.61,30.62-30.62,30.62,30.62Zm-29.91-30.61L373.29,694l29.91-29.91L373.29,634.2Z"/><path class="cls-5" d="M410,731.4l-30.62-30.62L410,670.17l30.62,30.61Zm-29.91-30.62L410,730.69l29.91-29.91L410,670.87Z"/><path class="cls-5" d="M446.65,768.08,416,737.46l30.62-30.62,30.61,30.62Zm-29.91-30.62,29.91,29.91,29.91-29.91-29.91-29.91Z"/><path class="cls-5" d="M373.29,621.37l-30.62-30.62,30.62-30.62,30.62,30.62Zm-29.91-30.62,29.91,29.91,29.91-29.91-29.91-29.91Z"/><path class="cls-5" d="M410,658l-30.62-30.61L410,596.81l30.62,30.62Zm-29.91-30.61L410,657.34l29.91-29.91L410,597.52Z"/><path class="cls-5" d="M446.65,694.72,416,664.11l30.62-30.62,30.61,30.62Zm-29.91-30.61L446.65,694l29.91-29.91L446.65,634.2Z"/><path class="cls-5" d="M483.33,731.4l-30.62-30.62,30.62-30.61,30.61,30.61Zm-29.91-30.62,29.91,29.91,29.91-29.91-29.91-29.91Z"/><path class="cls-5" d="M520,768.08l-30.61-30.62L520,706.84l30.62,30.62Zm-29.91-30.62L520,767.37l29.91-29.91L520,707.55Z"/><path class="cls-5" d="M410,584.69l-30.62-30.62L410,523.45l30.62,30.62Zm-29.91-30.62L410,584l29.91-29.91L410,524.16Z"/><path class="cls-5" d="M446.65,621.37,416,590.75l30.62-30.62,30.61,30.62Zm-29.91-30.62,29.91,29.91,29.91-29.91-29.91-29.91Z"/><path class="cls-5" d="M483.33,658l-30.62-30.61,30.62-30.62,30.61,30.62Zm-29.91-30.61,29.91,29.91,29.91-29.91-29.91-29.91Z"/><path class="cls-5" d="M520,694.72l-30.61-30.61L520,633.49l30.62,30.62Zm-29.91-30.61L520,694l29.91-29.91L520,634.2Z"/><path class="cls-5" d="M556.68,731.4l-30.62-30.62,30.62-30.61,30.62,30.61Zm-29.91-30.62,29.91,29.91,29.91-29.91-29.91-29.91Z"/><path class="cls-5" d="M593.36,768.08l-30.62-30.62,30.62-30.62L624,737.46Zm-29.91-30.62,29.91,29.91,29.91-29.91-29.91-29.91Z"/><path class="cls-5" d="M446.65,548,416,517.39l30.62-30.61,30.61,30.61Zm-29.91-30.62,29.91,29.91,29.91-29.91-29.91-29.91Z"/><path class="cls-5" d="M483.33,584.69l-30.62-30.62,30.62-30.62,30.61,30.62Zm-29.91-30.62L483.33,584l29.91-29.91-29.91-29.91Z"/><path class="cls-5" d="M520,621.37l-30.61-30.62L520,560.13l30.62,30.62Zm-29.91-30.62L520,620.66l29.91-29.91L520,560.84Z"/><path class="cls-5" d="M556.68,658l-30.62-30.61,30.62-30.62,30.62,30.62Zm-29.91-30.61,29.91,29.91,29.91-29.91-29.91-29.91Z"/><path class="cls-5" d="M593.36,694.72l-30.62-30.61,30.62-30.62L624,664.11Zm-29.91-30.61L593.36,694l29.91-29.91L593.36,634.2Z"/><path class="cls-5" d="M630,731.4l-30.62-30.62L630,670.17l30.61,30.61Zm-29.91-30.62L630,730.69,660,700.78,630,670.87Z"/><path class="cls-5" d="M666.71,768.08,636.1,737.46l30.61-30.62,30.62,30.62Zm-29.9-30.62,29.9,29.91,29.91-29.91-29.91-29.91Z"/><path class="cls-5" d="M483.33,511.33l-30.62-30.62,30.62-30.61,30.61,30.61Zm-29.91-30.62,29.91,29.91,29.91-29.91-29.91-29.9Z"/><path class="cls-5" d="M520,548l-30.61-30.62L520,486.78l30.62,30.61Zm-29.91-30.62L520,547.3l29.91-29.91L520,487.48Z"/><path class="cls-5" d="M556.68,584.69l-30.62-30.62,30.62-30.62,30.62,30.62Zm-29.91-30.62L556.68,584l29.91-29.91-29.91-29.91Z"/><path class="cls-5" d="M593.36,621.37l-30.62-30.62,30.62-30.62L624,590.75Zm-29.91-30.62,29.91,29.91,29.91-29.91-29.91-29.91Z"/><path class="cls-5" d="M630,658l-30.62-30.61L630,596.81l30.61,30.62Zm-29.91-30.61L630,657.34,660,627.43,630,597.52Z"/><path class="cls-5" d="M666.71,694.72,636.1,664.11l30.61-30.62,30.62,30.62Zm-29.9-30.61L666.71,694l29.91-29.91L666.71,634.2Z"/><path class="cls-5" d="M703.39,731.4l-30.61-30.62,30.61-30.61L734,700.78Zm-29.91-30.62,29.91,29.91,29.91-29.91-29.91-29.91Z"/><path class="cls-5" d="M740.07,768.08l-30.62-30.62,30.62-30.62,30.62,30.62Zm-29.91-30.62,29.91,29.91L770,737.46l-29.91-29.91Z"/><path class="cls-5" d="M520,474.65,489.39,444,520,413.42,550.62,444ZM490.09,444,520,474,549.91,444,520,414.13Z"/><path class="cls-5" d="M556.68,511.33l-30.62-30.62,30.62-30.61,30.62,30.61Zm-29.91-30.62,29.91,29.91,29.91-29.91-29.91-29.9Z"/><path class="cls-5" d="M593.36,548l-30.62-30.62,30.62-30.61L624,517.39Zm-29.91-30.62,29.91,29.91,29.91-29.91-29.91-29.91Z"/><path class="cls-5" d="M630,584.69l-30.62-30.62L630,523.45l30.61,30.62Zm-29.91-30.62L630,584,660,554.07,630,524.16Z"/><path class="cls-5" d="M666.71,621.37,636.1,590.75l30.61-30.62,30.62,30.62Zm-29.9-30.62,29.9,29.91,29.91-29.91-29.91-29.91Z"/><path class="cls-5" d="M703.39,658l-30.61-30.61,30.61-30.62L734,627.43Zm-29.91-30.61,29.91,29.91,29.91-29.91-29.91-29.91Z"/><path class="cls-5" d="M740.07,694.72l-30.62-30.61,30.62-30.62,30.62,30.62Zm-29.91-30.61L740.07,694,770,664.11,740.07,634.2Z"/><path class="cls-5" d="M776.75,731.4l-30.62-30.62,30.62-30.61,30.62,30.61Zm-29.91-30.62,29.91,29.91,29.91-29.91-29.91-29.91Z"/><path class="cls-5" d="M813.43,768.08l-30.62-30.62,30.62-30.62L844,737.46Zm-29.91-30.62,29.91,29.91,29.91-29.91-29.91-29.91Z"/><path class="cls-5" d="M556.68,438l-30.62-30.62,30.62-30.62,30.62,30.62Zm-29.91-30.62,29.91,29.91,29.91-29.91-29.91-29.91Z"/><path class="cls-5" d="M593.36,474.65,562.74,444l30.62-30.62L624,444ZM563.45,444,593.36,474,623.27,444l-29.91-29.91Z"/><path class="cls-5" d="M630,511.33l-30.62-30.62L630,450.1l30.61,30.61Zm-29.91-30.62L630,510.62,660,480.71,630,450.81Z"/><path class="cls-5" d="M666.71,548,636.1,517.39l30.61-30.61,30.62,30.61Zm-29.9-30.62,29.9,29.91,29.91-29.91-29.91-29.91Z"/><path class="cls-5" d="M703.39,584.69l-30.61-30.62,30.61-30.62L734,554.07Zm-29.91-30.62L703.39,584l29.91-29.91-29.91-29.91Z"/><path class="cls-5" d="M740.07,621.37l-30.62-30.62,30.62-30.62,30.62,30.62Zm-29.91-30.62,29.91,29.91L770,590.75l-29.91-29.91Z"/><path class="cls-5" d="M776.75,658l-30.62-30.61,30.62-30.62,30.62,30.62Zm-29.91-30.61,29.91,29.91,29.91-29.91-29.91-29.91Z"/><path class="cls-5" d="M813.43,694.72l-30.62-30.61,30.62-30.62L844,664.11Zm-29.91-30.61L813.43,694l29.91-29.91L813.43,634.2Z"/><path class="cls-5" d="M850.11,731.4l-30.62-30.62,30.62-30.61,30.61,30.61ZM820.2,700.78l29.91,29.91L880,700.78l-29.91-29.91Z"/><path class="cls-5" d="M886.78,768.08l-30.61-30.62,30.61-30.62,30.62,30.62Zm-29.91-30.62,29.91,29.91,29.91-29.91-29.91-29.91Z"/><path class="cls-5" d="M593.36,401.3l-30.62-30.62,30.62-30.62L624,370.68Zm-29.91-30.62,29.91,29.91,29.91-29.91-29.91-29.91Z"/><path class="cls-5" d="M630,438l-30.62-30.62L630,376.74l30.61,30.62Zm-29.91-30.62L630,437.27,660,407.36,630,377.45Z"/><path class="cls-5" d="M666.71,474.65,636.1,444l30.61-30.62L697.33,444ZM636.81,444,666.71,474,696.62,444l-29.91-29.91Z"/><path class="cls-5" d="M703.39,511.33l-30.61-30.62,30.61-30.61L734,480.71Zm-29.91-30.62,29.91,29.91,29.91-29.91-29.91-29.9Z"/><path class="cls-5" d="M740.07,548l-30.62-30.62,30.62-30.61,30.62,30.61Zm-29.91-30.62,29.91,29.91L770,517.39l-29.91-29.91Z"/><path class="cls-5" d="M776.75,584.69l-30.62-30.62,30.62-30.62,30.62,30.62Zm-29.91-30.62L776.75,584l29.91-29.91-29.91-29.91Z"/><path class="cls-5" d="M813.43,621.37l-30.62-30.62,30.62-30.62L844,590.75Zm-29.91-30.62,29.91,29.91,29.91-29.91-29.91-29.91Z"/><path class="cls-5" d="M850.11,658l-30.62-30.61,30.62-30.62,30.61,30.62ZM820.2,627.43l29.91,29.91L880,627.43l-29.91-29.91Z"/><path class="cls-5" d="M886.78,694.72l-30.61-30.61,30.61-30.62,30.62,30.62Zm-29.91-30.61L886.78,694l29.91-29.91L886.78,634.2Z"/><path class="cls-5" d="M923.46,731.4l-30.62-30.62,30.62-30.61,30.62,30.61Zm-29.91-30.62,29.91,29.91,29.91-29.91-29.91-29.91Z"/><path class="cls-5" d="M960.14,768.08l-30.62-30.62,30.62-30.62,30.62,30.62Zm-29.91-30.62,29.91,29.91,29.91-29.91-29.91-29.91Z"/><path class="cls-5" d="M630,364.62,599.42,334,630,303.39,660.65,334ZM600.13,334,630,363.91,660,334,630,304.09Z"/><path class="cls-5" d="M666.71,401.3,636.1,370.68l30.61-30.62,30.62,30.62Zm-29.9-30.62,29.9,29.91,29.91-29.91-29.91-29.91Z"/><path class="cls-5" d="M703.39,438l-30.61-30.62,30.61-30.62L734,407.36Zm-29.91-30.62,29.91,29.91,29.91-29.91-29.91-29.91Z"/><path class="cls-5" d="M740.07,474.65,709.45,444l30.62-30.62L770.69,444ZM710.16,444,740.07,474,770,444l-29.91-29.91Z"/><path class="cls-5" d="M776.75,511.33l-30.62-30.62,30.62-30.61,30.62,30.61Zm-29.91-30.62,29.91,29.91,29.91-29.91-29.91-29.9Z"/><path class="cls-5" d="M813.43,548l-30.62-30.62,30.62-30.61L844,517.39Zm-29.91-30.62,29.91,29.91,29.91-29.91-29.91-29.91Z"/><path class="cls-5" d="M850.11,584.69l-30.62-30.62,30.62-30.62,30.61,30.62ZM820.2,554.07,850.11,584,880,554.07l-29.91-29.91Z"/><path class="cls-5" d="M886.78,621.37l-30.61-30.62,30.61-30.62,30.62,30.62Zm-29.91-30.62,29.91,29.91,29.91-29.91-29.91-29.91Z"/><path class="cls-5" d="M923.46,658l-30.62-30.61,30.62-30.62,30.62,30.62Zm-29.91-30.61,29.91,29.91,29.91-29.91-29.91-29.91Z"/><path class="cls-5" d="M960.14,694.72l-30.62-30.61,30.62-30.62,30.62,30.62Zm-29.91-30.61L960.14,694l29.91-29.91L960.14,634.2Z"/><path class="cls-5" d="M996.82,731.4,966.2,700.78l30.62-30.61,30.61,30.61Zm-29.91-30.62,29.91,29.91,29.91-29.91-29.91-29.91Z"/><path class="cls-5" d="M1033.5,768.08l-30.62-30.62,30.62-30.62,30.61,30.62Zm-29.92-30.62,29.92,29.91,29.91-29.91-29.91-29.91Z"/><path class="cls-5" d="M666.71,327.94,636.1,297.33l30.61-30.62,30.62,30.62Zm-29.9-30.61,29.9,29.91,29.91-29.91-29.91-29.91Z"/><path class="cls-5" d="M703.39,364.62,672.78,334l30.61-30.61L734,334ZM673.48,334l29.91,29.91L733.3,334l-29.91-29.91Z"/><path class="cls-5" d="M740.07,401.3l-30.62-30.62,30.62-30.62,30.62,30.62Zm-29.91-30.62,29.91,29.91L770,370.68l-29.91-29.91Z"/><path class="cls-5" d="M776.75,438l-30.62-30.62,30.62-30.62,30.62,30.62Zm-29.91-30.62,29.91,29.91,29.91-29.91-29.91-29.91Z"/><path class="cls-5" d="M813.43,474.65,782.81,444l30.62-30.62L844,444ZM783.52,444,813.43,474,843.34,444l-29.91-29.91Z"/><path class="cls-5" d="M850.11,511.33l-30.62-30.62,30.62-30.61,30.61,30.61ZM820.2,480.71l29.91,29.91L880,480.71l-29.91-29.9Z"/><path class="cls-5" d="M886.78,548l-30.61-30.62,30.61-30.61,30.62,30.61Zm-29.91-30.62,29.91,29.91,29.91-29.91-29.91-29.91Z"/><path class="cls-5" d="M923.46,584.69l-30.62-30.62,30.62-30.62,30.62,30.62Zm-29.91-30.62L923.46,584l29.91-29.91-29.91-29.91Z"/><path class="cls-5" d="M960.14,621.37l-30.62-30.62,30.62-30.62,30.62,30.62Zm-29.91-30.62,29.91,29.91,29.91-29.91-29.91-29.91Z"/><path class="cls-5" d="M996.82,658,966.2,627.43l30.62-30.62,30.61,30.62Zm-29.91-30.61,29.91,29.91,29.91-29.91-29.91-29.91Z"/><path class="cls-5" d="M1033.5,694.72l-30.62-30.61,30.62-30.62,30.61,30.62Zm-29.92-30.61L1033.5,694l29.91-29.91L1033.5,634.2Z"/><path class="cls-5" d="M1070.17,731.4l-30.61-30.62,30.61-30.61,30.62,30.61Zm-29.91-30.62,29.91,29.91,29.91-29.91-29.91-29.91Z"/><path class="cls-5" d="M1106.85,768.08l-30.62-30.62,30.62-30.62,30.62,30.62Zm-29.91-30.62,29.91,29.91,29.91-29.91-29.91-29.91Z"/><path class="cls-5" d="M703.39,291.26l-30.61-30.61L703.39,230,734,260.65Zm-29.91-30.61,29.91,29.91,29.91-29.91-29.91-29.91Z"/><path class="cls-5" d="M740.07,327.94l-30.62-30.61,30.62-30.62,30.62,30.62Zm-29.91-30.61,29.91,29.91L770,297.33l-29.91-29.91Z"/><path class="cls-5" d="M776.75,364.62,746.13,334l30.62-30.61L807.37,334ZM746.84,334l29.91,29.91L806.66,334l-29.91-29.91Z"/><path class="cls-5" d="M813.43,401.3l-30.62-30.62,30.62-30.62L844,370.68Zm-29.91-30.62,29.91,29.91,29.91-29.91-29.91-29.91Z"/><path class="cls-5" d="M850.11,438l-30.62-30.62,30.62-30.62,30.61,30.62ZM820.2,407.36l29.91,29.91L880,407.36l-29.91-29.91Z"/><path class="cls-5" d="M886.78,474.65,856.17,444l30.61-30.62L917.4,444ZM856.87,444,886.78,474,916.69,444l-29.91-29.91Z"/><path class="cls-5" d="M923.46,511.33l-30.62-30.62,30.62-30.61,30.62,30.61Zm-29.91-30.62,29.91,29.91,29.91-29.91-29.91-29.9Z"/><path class="cls-5" d="M960.14,548l-30.62-30.62,30.62-30.61,30.62,30.61Zm-29.91-30.62,29.91,29.91,29.91-29.91-29.91-29.91Z"/><path class="cls-5" d="M996.82,584.69,966.2,554.07l30.62-30.62,30.61,30.62Zm-29.91-30.62L996.82,584l29.91-29.91-29.91-29.91Z"/><path class="cls-5" d="M1033.5,621.37l-30.62-30.62,30.62-30.62,30.61,30.62Zm-29.92-30.62,29.92,29.91,29.91-29.91-29.91-29.91Z"/><path class="cls-5" d="M1070.17,658l-30.61-30.61,30.61-30.62,30.62,30.62Zm-29.91-30.61,29.91,29.91,29.91-29.91-29.91-29.91Z"/><path class="cls-5" d="M1106.85,694.72l-30.62-30.61,30.62-30.62,30.62,30.62Zm-29.91-30.61L1106.85,694l29.91-29.91-29.91-29.91Z"/><path class="cls-5" d="M1143.53,731.4l-30.62-30.62,30.62-30.61,30.62,30.61Zm-29.91-30.62,29.91,29.91,29.91-29.91-29.91-29.91Z"/><path class="cls-5" d="M740.07,254.59,709.45,224l30.62-30.62L770.69,224ZM710.16,224l29.91,29.91L770,224l-29.91-29.91Z"/><path class="cls-5" d="M776.75,291.26l-30.62-30.61L776.75,230l30.62,30.62Zm-29.91-30.61,29.91,29.91,29.91-29.91-29.91-29.91Z"/><path class="cls-5" d="M813.43,327.94l-30.62-30.61,30.62-30.62L844,297.33Zm-29.91-30.61,29.91,29.91,29.91-29.91-29.91-29.91Z"/><path class="cls-5" d="M850.11,364.62,819.49,334l30.62-30.61L880.72,334ZM820.2,334l29.91,29.91L880,334l-29.91-29.91Z"/><path class="cls-5" d="M886.78,401.3l-30.61-30.62,30.61-30.62,30.62,30.62Zm-29.91-30.62,29.91,29.91,29.91-29.91-29.91-29.91Z"/><path class="cls-5" d="M923.46,438l-30.62-30.62,30.62-30.62,30.62,30.62Zm-29.91-30.62,29.91,29.91,29.91-29.91-29.91-29.91Z"/><path class="cls-5" d="M960.14,474.65,929.52,444l30.62-30.62L990.76,444ZM930.23,444,960.14,474,990.05,444l-29.91-29.91Z"/><path class="cls-5" d="M996.82,511.33,966.2,480.71l30.62-30.61,30.61,30.61Zm-29.91-30.62,29.91,29.91,29.91-29.91-29.91-29.9Z"/><path class="cls-5" d="M1033.5,548l-30.62-30.62,30.62-30.61,30.61,30.61Zm-29.92-30.62,29.92,29.91,29.91-29.91-29.91-29.91Z"/><path class="cls-5" d="M1070.17,584.69l-30.61-30.62,30.61-30.62,30.62,30.62Zm-29.91-30.62L1070.17,584l29.91-29.91-29.91-29.91Z"/><path class="cls-5" d="M1106.85,621.37l-30.62-30.62,30.62-30.62,30.62,30.62Zm-29.91-30.62,29.91,29.91,29.91-29.91-29.91-29.91Z"/><path class="cls-5" d="M1143.53,658l-30.62-30.61,30.62-30.62,30.62,30.62Zm-29.91-30.61,29.91,29.91,29.91-29.91-29.91-29.91Z"/><path class="cls-5" d="M776.75,217.91l-30.62-30.62,30.62-30.62,30.62,30.62Zm-29.91-30.62,29.91,29.91,29.91-29.91-29.91-29.91Z"/><path class="cls-5" d="M813.43,254.59,782.81,224l30.62-30.62L844,224ZM783.52,224l29.91,29.91L843.34,224l-29.91-29.91Z"/><path class="cls-5" d="M850.11,291.26l-30.62-30.61L850.11,230l30.61,30.62ZM820.2,260.65l29.91,29.91L880,260.65l-29.91-29.91Z"/><path class="cls-5" d="M886.78,327.94l-30.61-30.61,30.61-30.62,30.62,30.62Zm-29.91-30.61,29.91,29.91,29.91-29.91-29.91-29.91Z"/><path class="cls-5" d="M923.46,364.62,892.84,334l30.62-30.61L954.08,334ZM893.55,334l29.91,29.91L953.37,334l-29.91-29.91Z"/><path class="cls-5" d="M960.14,401.3l-30.62-30.62,30.62-30.62,30.62,30.62Zm-29.91-30.62,29.91,29.91,29.91-29.91-29.91-29.91Z"/><path class="cls-5" d="M996.82,438,966.2,407.36l30.62-30.62,30.61,30.62Zm-29.91-30.62,29.91,29.91,29.91-29.91-29.91-29.91Z"/><path class="cls-5" d="M1033.5,474.65,1002.88,444l30.62-30.62L1064.11,444ZM1003.58,444,1033.5,474,1063.41,444l-29.91-29.91Z"/><path class="cls-5" d="M1070.17,511.33l-30.61-30.62,30.61-30.61,30.62,30.61Zm-29.91-30.62,29.91,29.91,29.91-29.91-29.91-29.9Z"/><path class="cls-5" d="M1106.85,548l-30.62-30.62,30.62-30.61,30.62,30.61Zm-29.91-30.62,29.91,29.91,29.91-29.91-29.91-29.91Z"/><path class="cls-5" d="M1143.53,584.69l-30.62-30.62,30.62-30.62,30.62,30.62Zm-29.91-30.62L1143.53,584l29.91-29.91-29.91-29.91Z"/><path class="cls-5" d="M813.43,181.23l-30.62-30.62L813.43,120,844,150.61Zm-29.91-30.62,29.91,29.91,29.91-29.91L813.43,120.7Z"/><path class="cls-5" d="M850.11,217.91l-30.62-30.62,30.62-30.62,30.61,30.62ZM820.2,187.29l29.91,29.91L880,187.29l-29.91-29.91Z"/><path class="cls-5" d="M886.78,254.59,856.17,224l30.61-30.62L917.4,224ZM856.87,224l29.91,29.91L916.69,224l-29.91-29.91Z"/><path class="cls-5" d="M923.46,291.26l-30.62-30.61L923.46,230l30.62,30.62Zm-29.91-30.61,29.91,29.91,29.91-29.91-29.91-29.91Z"/><path class="cls-5" d="M960.14,327.94l-30.62-30.61,30.62-30.62,30.62,30.62Zm-29.91-30.61,29.91,29.91,29.91-29.91-29.91-29.91Z"/><path class="cls-5" d="M996.82,364.62,966.2,334l30.62-30.61L1027.43,334ZM966.91,334l29.91,29.91L1026.73,334l-29.91-29.91Z"/><path class="cls-5" d="M1033.5,401.3l-30.62-30.62,30.62-30.62,30.61,30.62Zm-29.92-30.62,29.92,29.91,29.91-29.91-29.91-29.91Z"/><path class="cls-5" d="M1070.17,438l-30.61-30.62,30.61-30.62,30.62,30.62Zm-29.91-30.62,29.91,29.91,29.91-29.91-29.91-29.91Z"/><path class="cls-5" d="M1106.85,474.65,1076.23,444l30.62-30.62L1137.47,444ZM1076.94,444,1106.85,474,1136.76,444l-29.91-29.91Z"/><path class="cls-5" d="M1143.53,511.33l-30.62-30.62,30.62-30.61,30.62,30.61Zm-29.91-30.62,29.91,29.91,29.91-29.91-29.91-29.9Z"/><path class="cls-5" d="M850.11,144.55l-30.62-30.61,30.62-30.62,30.61,30.62ZM820.2,113.94l29.91,29.91L880,113.94,850.11,84Z"/><path class="cls-5" d="M886.78,181.23l-30.61-30.62L886.78,120l30.62,30.61Zm-29.91-30.62,29.91,29.91,29.91-29.91L886.78,120.7Z"/><path class="cls-5" d="M923.46,217.91l-30.62-30.62,30.62-30.62,30.62,30.62Zm-29.91-30.62,29.91,29.91,29.91-29.91-29.91-29.91Z"/><path class="cls-5" d="M960.14,254.59,929.52,224l30.62-30.62L990.76,224ZM930.23,224l29.91,29.91L990.05,224l-29.91-29.91Z"/><path class="cls-5" d="M996.82,291.26,966.2,260.65,996.82,230l30.61,30.62Zm-29.91-30.61,29.91,29.91,29.91-29.91-29.91-29.91Z"/><path class="cls-5" d="M1033.5,327.94l-30.62-30.61,30.62-30.62,30.61,30.62Zm-29.92-30.61,29.92,29.91,29.91-29.91-29.91-29.91Z"/><path class="cls-5" d="M1070.17,364.62,1039.56,334l30.61-30.61L1100.79,334ZM1040.26,334l29.91,29.91L1100.08,334l-29.91-29.91Z"/><path class="cls-5" d="M1106.85,401.3l-30.62-30.62,30.62-30.62,30.62,30.62Zm-29.91-30.62,29.91,29.91,29.91-29.91-29.91-29.91Z"/><path class="cls-5" d="M1143.53,438l-30.62-30.62,30.62-30.62,30.62,30.62Zm-29.91-30.62,29.91,29.91,29.91-29.91-29.91-29.91Z"/><path class="cls-5" d="M886.78,107.87,856.17,77.26l30.61-30.62L917.4,77.26ZM856.87,77.26l29.91,29.91,29.91-29.91L886.78,47.35Z"/><path class="cls-5" d="M923.46,144.55l-30.62-30.61,30.62-30.62,30.62,30.62Zm-29.91-30.61,29.91,29.91,29.91-29.91L923.46,84Z"/><path class="cls-5" d="M960.14,181.23l-30.62-30.62L960.14,120l30.62,30.61Zm-29.91-30.62,29.91,29.91,29.91-29.91L960.14,120.7Z"/><path class="cls-5" d="M996.82,217.91,966.2,187.29l30.62-30.62,30.61,30.62Zm-29.91-30.62,29.91,29.91,29.91-29.91-29.91-29.91Z"/><path class="cls-5" d="M1033.5,254.59,1002.88,224l30.62-30.62L1064.11,224ZM1003.58,224l29.92,29.91L1063.41,224l-29.91-29.91Z"/><path class="cls-5" d="M1070.17,291.26l-30.61-30.61L1070.17,230l30.62,30.62Zm-29.91-30.61,29.91,29.91,29.91-29.91-29.91-29.91Z"/><path class="cls-5" d="M1106.85,327.94l-30.62-30.61,30.62-30.62,30.62,30.62Zm-29.91-30.61,29.91,29.91,29.91-29.91-29.91-29.91Z"/><path class="cls-5" d="M1143.53,364.62,1112.91,334l30.62-30.61L1174.15,334ZM1113.62,334l29.91,29.91L1173.44,334l-29.91-29.91Z"/><path class="cls-5" d="M923.46,71.2,892.84,40.58,923.46,10l30.62,30.62ZM893.55,40.58l29.91,29.91,29.91-29.91L923.46,10.67Z"/><path class="cls-5" d="M960.14,107.87,929.52,77.26l30.62-30.62,30.62,30.62ZM930.23,77.26l29.91,29.91,29.91-29.91L960.14,47.35Z"/><path class="cls-5" d="M996.82,144.55,966.2,113.94l30.62-30.62,30.61,30.62Zm-29.91-30.61,29.91,29.91,29.91-29.91L996.82,84Z"/><path class="cls-5" d="M1033.5,181.23l-30.62-30.62L1033.5,120l30.61,30.61Zm-29.92-30.62,29.92,29.91,29.91-29.91L1033.5,120.7Z"/><path class="cls-5" d="M1070.17,217.91l-30.61-30.62,30.61-30.62,30.62,30.62Zm-29.91-30.62,29.91,29.91,29.91-29.91-29.91-29.91Z"/><path class="cls-5" d="M1106.85,254.59,1076.23,224l30.62-30.62L1137.47,224ZM1076.94,224l29.91,29.91L1136.76,224l-29.91-29.91Z"/><path class="cls-5" d="M1143.53,291.26l-30.62-30.61L1143.53,230l30.62,30.62Zm-29.91-30.61,29.91,29.91,29.91-29.91-29.91-29.91Z"/><path class="cls-5" d="M960.14,34.52,929.52,3.9l30.62-30.62L990.76,3.9ZM930.23,3.9l29.91,29.91L990.05,3.9,960.14-26Z"/><path class="cls-5" d="M996.82,71.2,966.2,40.58,996.82,10l30.61,30.62ZM966.91,40.58l29.91,29.91,29.91-29.91L996.82,10.67Z"/><path class="cls-5" d="M1033.5,107.87l-30.62-30.61,30.62-30.62,30.61,30.62Zm-29.92-30.61,29.92,29.91,29.91-29.91L1033.5,47.35Z"/><path class="cls-5" d="M1070.17,144.55l-30.61-30.61,30.61-30.62,30.62,30.62Zm-29.91-30.61,29.91,29.91,29.91-29.91L1070.17,84Z"/><path class="cls-5" d="M1106.85,181.23l-30.62-30.62L1106.85,120l30.62,30.61Zm-29.91-30.62,29.91,29.91,29.91-29.91-29.91-29.91Z"/><path class="cls-5" d="M1143.53,217.91l-30.62-30.62,30.62-30.62,30.62,30.62Zm-29.91-30.62,29.91,29.91,29.91-29.91-29.91-29.91Z"/><path class="cls-5" d="M1033.5,34.52,1002.88,3.9l30.62-30.62L1064.11,3.9ZM1003.58,3.9l29.92,29.91L1063.41,3.9,1033.5-26Z"/><path class="cls-5" d="M1070.17,71.2l-30.61-30.62L1070.17,10l30.62,30.62Zm-29.91-30.62,29.91,29.91,29.91-29.91-29.91-29.91Z"/><path class="cls-5" d="M1106.85,107.87l-30.62-30.61,30.62-30.62,30.62,30.62Zm-29.91-30.61,29.91,29.91,29.91-29.91-29.91-29.91Z"/><path class="cls-5" d="M1143.53,144.55l-30.62-30.61,30.62-30.62,30.62,30.62Zm-29.91-30.61,29.91,29.91,29.91-29.91L1143.53,84Z"/><path class="cls-5" d="M1106.85,34.52,1076.23,3.9l30.62-30.62L1137.47,3.9ZM1076.94,3.9l29.91,29.91L1136.76,3.9,1106.85-26Z"/><path class="cls-5" d="M1143.53,71.2l-30.62-30.62L1143.53,10l30.62,30.62Zm-29.91-30.62,29.91,29.91,29.91-29.91-29.91-29.91Z"/></g><g class="cls-4"><path class="cls-5" d="M-28.53,733l-30.62-30.62,30.62-30.62L2.09,702.42Zm-29.91-30.62,29.91,29.91L1.38,702.42l-29.91-29.91Z"/><path class="cls-5" d="M8.15,769.72-22.47,739.1,8.15,708.48,38.77,739.1ZM-21.76,739.1,8.15,769,38.06,739.1,8.15,709.19Z"/><path class="cls-5" d="M-28.53,659.68l-30.62-30.62,30.62-30.61L2.09,629.06Zm-29.91-30.62L-28.53,659,1.38,629.06l-29.91-29.91Z"/><path class="cls-5" d="M8.15,696.36l-30.62-30.62L8.15,635.13l30.62,30.61Zm-29.91-30.62L8.15,695.65l29.91-29.91L8.15,635.83Z"/><path class="cls-5" d="M44.83,733,14.21,702.42,44.83,671.8l30.61,30.62ZM14.92,702.42l29.91,29.91,29.91-29.91L44.83,672.51Z"/><path class="cls-5" d="M81.5,769.72,50.89,739.1,81.5,708.48l30.62,30.62ZM51.59,739.1,81.5,769l29.91-29.91L81.5,709.19Z"/><path class="cls-5" d="M-28.53,586.33l-30.62-30.62,30.62-30.62L2.09,555.71Zm-29.91-30.62,29.91,29.91L1.38,555.71-28.53,525.8Z"/><path class="cls-5" d="M8.15,623l-30.62-30.61L8.15,561.77l30.62,30.62Zm-29.91-30.61L8.15,622.3l29.91-29.91L8.15,562.48Z"/><path class="cls-5" d="M44.83,659.68,14.21,629.06l30.62-30.61,30.61,30.61ZM14.92,629.06,44.83,659l29.91-29.91L44.83,599.15Z"/><path class="cls-5" d="M81.5,696.36,50.89,665.74,81.5,635.13l30.62,30.61ZM51.59,665.74,81.5,695.65l29.91-29.91L81.5,635.83Z"/><path class="cls-5" d="M118.18,733,87.57,702.42l30.61-30.62,30.62,30.62ZM88.27,702.42l29.91,29.91,29.91-29.91-29.91-29.91Z"/><path class="cls-5" d="M154.86,769.72,124.24,739.1l30.62-30.62,30.62,30.62ZM125,739.1,154.86,769l29.91-29.91-29.91-29.91Z"/><path class="cls-5" d="M-28.53,513l-30.62-30.62,30.62-30.61L2.09,482.35Zm-29.91-30.62,29.91,29.91L1.38,482.35l-29.91-29.91Z"/><path class="cls-5" d="M8.15,549.65-22.47,519,8.15,488.41,38.77,519ZM-21.76,519,8.15,548.94,38.06,519,8.15,489.12Z"/><path class="cls-5" d="M44.83,586.33,14.21,555.71l30.62-30.62,30.61,30.62ZM14.92,555.71l29.91,29.91,29.91-29.91L44.83,525.8Z"/><path class="cls-5" d="M81.5,623,50.89,592.39,81.5,561.77l30.62,30.62ZM51.59,592.39,81.5,622.3l29.91-29.91L81.5,562.48Z"/><path class="cls-5" d="M118.18,659.68,87.57,629.06l30.61-30.61,30.62,30.61ZM88.27,629.06,118.18,659l29.91-29.91-29.91-29.91Z"/><path class="cls-5" d="M154.86,696.36l-30.62-30.62,30.62-30.61,30.62,30.61ZM125,665.74l29.91,29.91,29.91-29.91-29.91-29.91Z"/><path class="cls-5" d="M191.54,733l-30.62-30.62,30.62-30.62,30.62,30.62Zm-29.91-30.62,29.91,29.91,29.91-29.91-29.91-29.91Z"/><path class="cls-5" d="M-28.53,439.61-59.15,409l30.62-30.62L2.09,409ZM-58.44,409l29.91,29.91L1.38,409l-29.91-29.91Z"/><path class="cls-5" d="M8.15,476.29l-30.62-30.62L8.15,415.06l30.62,30.61Zm-29.91-30.62L8.15,475.58l29.91-29.91L8.15,415.76Z"/><path class="cls-5" d="M44.83,513,14.21,482.35l30.62-30.61,30.61,30.61ZM14.92,482.35l29.91,29.91,29.91-29.91L44.83,452.44Z"/><path class="cls-5" d="M81.5,549.65,50.89,519,81.5,488.41,112.12,519ZM51.59,519,81.5,548.94,111.41,519,81.5,489.12Z"/><path class="cls-5" d="M118.18,586.33,87.57,555.71l30.61-30.62,30.62,30.62ZM88.27,555.71l29.91,29.91,29.91-29.91L118.18,525.8Z"/><path class="cls-5" d="M154.86,623l-30.62-30.61,30.62-30.62,30.62,30.62ZM125,592.39l29.91,29.91,29.91-29.91-29.91-29.91Z"/><path class="cls-5" d="M191.54,659.68l-30.62-30.62,30.62-30.61,30.62,30.61Zm-29.91-30.62L191.54,659l29.91-29.91-29.91-29.91Z"/><path class="cls-5" d="M228.22,696.36,197.6,665.74l30.62-30.61,30.61,30.61Zm-29.91-30.62,29.91,29.91,29.91-29.91-29.91-29.91Z"/><path class="cls-5" d="M-28.53,366.26l-30.62-30.62L-28.53,305,2.09,335.64Zm-29.91-30.62,29.91,29.91L1.38,335.64l-29.91-29.91Z"/><path class="cls-5" d="M8.15,402.94l-30.62-30.62L8.15,341.7l30.62,30.62Zm-29.91-30.62L8.15,402.23l29.91-29.91L8.15,342.41Z"/><path class="cls-5" d="M44.83,439.61,14.21,409l30.62-30.62L75.44,409ZM14.92,409l29.91,29.91L74.74,409,44.83,379.09Z"/><path class="cls-5" d="M81.5,476.29,50.89,445.67,81.5,415.06l30.62,30.61ZM51.59,445.67,81.5,475.58l29.91-29.91L81.5,415.76Z"/><path class="cls-5" d="M118.18,513,87.57,482.35l30.61-30.61,30.62,30.61ZM88.27,482.35l29.91,29.91,29.91-29.91-29.91-29.91Z"/><path class="cls-5" d="M154.86,549.65,124.24,519l30.62-30.62L185.48,519ZM125,519l29.91,29.91L184.77,519l-29.91-29.91Z"/><path class="cls-5" d="M191.54,586.33l-30.62-30.62,30.62-30.62,30.62,30.62Zm-29.91-30.62,29.91,29.91,29.91-29.91L191.54,525.8Z"/><path class="cls-5" d="M228.22,623,197.6,592.39l30.62-30.62,30.61,30.62Zm-29.91-30.61,29.91,29.91,29.91-29.91-29.91-29.91Z"/><path class="cls-5" d="M264.89,659.68l-30.61-30.62,30.61-30.61,30.62,30.61ZM235,629.06,264.89,659l29.91-29.91-29.91-29.91Z"/><path class="cls-5" d="M-28.53,292.9l-30.62-30.61,30.62-30.62L2.09,262.29Zm-29.91-30.61,29.91,29.9,29.91-29.9-29.91-29.91Z"/><path class="cls-5" d="M8.15,329.58-22.47,299,8.15,268.35,38.77,299ZM-21.76,299,8.15,328.87,38.06,299,8.15,269.05Z"/><path class="cls-5" d="M44.83,366.26,14.21,335.64,44.83,305l30.61,30.62ZM14.92,335.64l29.91,29.91,29.91-29.91L44.83,305.73Z"/><path class="cls-5" d="M81.5,402.94,50.89,372.32,81.5,341.7l30.62,30.62ZM51.59,372.32,81.5,402.23l29.91-29.91L81.5,342.41Z"/><path class="cls-5" d="M118.18,439.61,87.57,409l30.61-30.62L148.8,409ZM88.27,409l29.91,29.91L148.09,409l-29.91-29.91Z"/><path class="cls-5" d="M154.86,476.29l-30.62-30.62,30.62-30.61,30.62,30.61ZM125,445.67l29.91,29.91,29.91-29.91-29.91-29.91Z"/><path class="cls-5" d="M191.54,513l-30.62-30.62,30.62-30.61,30.62,30.61Zm-29.91-30.62,29.91,29.91,29.91-29.91-29.91-29.91Z"/><path class="cls-5" d="M228.22,549.65,197.6,519l30.62-30.62L258.83,519ZM198.31,519l29.91,29.91L258.13,519l-29.91-29.91Z"/><path class="cls-5" d="M264.89,586.33l-30.61-30.62,30.61-30.62,30.62,30.62ZM235,555.71l29.91,29.91,29.91-29.91L264.89,525.8Z"/><path class="cls-5" d="M301.57,623,271,592.39l30.61-30.62,30.62,30.62Zm-29.91-30.61,29.91,29.91,29.91-29.91-29.91-29.91Z"/><path class="cls-5" d="M-28.53,219.55l-30.62-30.62,30.62-30.62L2.09,188.93Zm-29.91-30.62,29.91,29.91L1.38,188.93-28.53,159Z"/><path class="cls-5" d="M8.15,256.22l-30.62-30.61L8.15,195l30.62,30.62Zm-29.91-30.61L8.15,255.52l29.91-29.91L8.15,195.7Z"/><path class="cls-5" d="M44.83,292.9,14.21,262.29l30.62-30.62,30.61,30.62ZM14.92,262.29l29.91,29.9,29.91-29.9L44.83,232.38Z"/><path class="cls-5" d="M81.5,329.58,50.89,299,81.5,268.35,112.12,299ZM51.59,299,81.5,328.87,111.41,299,81.5,269.05Z"/><path class="cls-5" d="M118.18,366.26,87.57,335.64,118.18,305l30.62,30.62ZM88.27,335.64l29.91,29.91,29.91-29.91-29.91-29.91Z"/><path class="cls-5" d="M154.86,402.94l-30.62-30.62,30.62-30.62,30.62,30.62ZM125,372.32l29.91,29.91,29.91-29.91-29.91-29.91Z"/><path class="cls-5" d="M191.54,439.61,160.92,409l30.62-30.62L222.16,409ZM161.63,409l29.91,29.91L221.45,409l-29.91-29.91Z"/><path class="cls-5" d="M228.22,476.29,197.6,445.67l30.62-30.61,30.61,30.61Zm-29.91-30.62,29.91,29.91,29.91-29.91-29.91-29.91Z"/><path class="cls-5" d="M264.89,513l-30.61-30.62,30.61-30.61,30.62,30.61ZM235,482.35l29.91,29.91,29.91-29.91-29.91-29.91Z"/><path class="cls-5" d="M301.57,549.65,271,519l30.61-30.62L332.19,519ZM271.66,519l29.91,29.91L331.48,519l-29.91-29.91Z"/><path class="cls-5" d="M338.25,586.33l-30.62-30.62,30.62-30.62,30.62,30.62Zm-29.91-30.62,29.91,29.91,29.91-29.91L338.25,525.8Z"/><path class="cls-5" d="M-28.53,146.19l-30.62-30.62L-28.53,85,2.09,115.57Zm-29.91-30.62,29.91,29.91L1.38,115.57-28.53,85.66Z"/><path class="cls-5" d="M8.15,182.87l-30.62-30.62L8.15,121.63l30.62,30.62Zm-29.91-30.62L8.15,182.16l29.91-29.91L8.15,122.34Z"/><path class="cls-5" d="M44.83,219.55,14.21,188.93l30.62-30.62,30.61,30.62ZM14.92,188.93l29.91,29.91,29.91-29.91L44.83,159Z"/><path class="cls-5" d="M81.5,256.22,50.89,225.61,81.5,195l30.62,30.62ZM51.59,225.61,81.5,255.52l29.91-29.91L81.5,195.7Z"/><path class="cls-5" d="M118.18,292.9,87.57,262.29l30.61-30.62,30.62,30.62ZM88.27,262.29l29.91,29.9,29.91-29.9-29.91-29.91Z"/><path class="cls-5" d="M154.86,329.58,124.24,299l30.62-30.61L185.48,299ZM125,299l29.91,29.91L184.77,299l-29.91-29.91Z"/><path class="cls-5" d="M191.54,366.26l-30.62-30.62L191.54,305l30.62,30.62Zm-29.91-30.62,29.91,29.91,29.91-29.91-29.91-29.91Z"/><path class="cls-5" d="M228.22,402.94,197.6,372.32l30.62-30.62,30.61,30.62Zm-29.91-30.62,29.91,29.91,29.91-29.91-29.91-29.91Z"/><path class="cls-5" d="M264.89,439.61,234.28,409l30.61-30.62L295.51,409ZM235,409l29.91,29.91L294.8,409l-29.91-29.91Z"/><path class="cls-5" d="M301.57,476.29,271,445.67l30.61-30.61,30.62,30.61Zm-29.91-30.62,29.91,29.91,29.91-29.91-29.91-29.91Z"/><path class="cls-5" d="M338.25,513l-30.62-30.62,30.62-30.61,30.62,30.61Zm-29.91-30.62,29.91,29.91,29.91-29.91-29.91-29.91Z"/><path class="cls-5" d="M374.93,549.65,344.31,519l30.62-30.62L405.55,519ZM345,519l29.91,29.91L404.84,519l-29.91-29.91Z"/><path class="cls-5" d="M-28.53,72.83-59.15,42.22-28.53,11.6,2.09,42.22ZM-58.44,42.22l29.91,29.91L1.38,42.22-28.53,12.31Z"/><path class="cls-5" d="M8.15,109.51-22.47,78.89,8.15,48.28,38.77,78.89ZM-21.76,78.89,8.15,108.8,38.06,78.89,8.15,49Z"/><path class="cls-5" d="M44.83,146.19,14.21,115.57,44.83,85l30.61,30.61ZM14.92,115.57l29.91,29.91,29.91-29.91L44.83,85.66Z"/><path class="cls-5" d="M81.5,182.87,50.89,152.25,81.5,121.63l30.62,30.62ZM51.59,152.25,81.5,182.16l29.91-29.91L81.5,122.34Z"/><path class="cls-5" d="M118.18,219.55,87.57,188.93l30.61-30.62,30.62,30.62ZM88.27,188.93l29.91,29.91,29.91-29.91L118.18,159Z"/><path class="cls-5" d="M154.86,256.22l-30.62-30.61L154.86,195l30.62,30.62ZM125,225.61l29.91,29.91,29.91-29.91L154.86,195.7Z"/><path class="cls-5" d="M191.54,292.9l-30.62-30.61,30.62-30.62,30.62,30.62Zm-29.91-30.61,29.91,29.9,29.91-29.9-29.91-29.91Z"/><path class="cls-5" d="M228.22,329.58,197.6,299l30.62-30.61L258.83,299ZM198.31,299l29.91,29.91L258.13,299l-29.91-29.91Z"/><path class="cls-5" d="M264.89,366.26l-30.61-30.62L264.89,305l30.62,30.62ZM235,335.64l29.91,29.91,29.91-29.91-29.91-29.91Z"/><path class="cls-5" d="M301.57,402.94,271,372.32l30.61-30.62,30.62,30.62Zm-29.91-30.62,29.91,29.91,29.91-29.91-29.91-29.91Z"/><path class="cls-5" d="M338.25,439.61,307.63,409l30.62-30.62L368.87,409ZM308.34,409l29.91,29.91L368.16,409l-29.91-29.91Z"/><path class="cls-5" d="M374.93,476.29l-30.62-30.62,30.62-30.61,30.62,30.61ZM345,445.67l29.91,29.91,29.91-29.91-29.91-29.91Z"/><path class="cls-5" d="M411.61,513,381,482.35l30.62-30.61,30.61,30.61ZM381.7,482.35l29.91,29.91,29.91-29.91-29.91-29.91Z"/><path class="cls-5" d="M8.15,36.16-22.47,5.54,8.15-25.08,38.77,5.54ZM-21.76,5.54,8.15,35.45,38.06,5.54,8.15-24.37Z"/><path class="cls-5" d="M44.83,72.83,14.21,42.22,44.83,11.6,75.44,42.22ZM14.92,42.22,44.83,72.13,74.74,42.22,44.83,12.31Z"/><path class="cls-5" d="M81.5,109.51,50.89,78.89,81.5,48.28l30.62,30.61ZM51.59,78.89,81.5,108.8l29.91-29.91L81.5,49Z"/><path class="cls-5" d="M118.18,146.19,87.57,115.57,118.18,85l30.62,30.61ZM88.27,115.57l29.91,29.91,29.91-29.91L118.18,85.66Z"/><path class="cls-5" d="M154.86,182.87l-30.62-30.62,30.62-30.62,30.62,30.62ZM125,152.25l29.91,29.91,29.91-29.91-29.91-29.91Z"/><path class="cls-5" d="M191.54,219.55l-30.62-30.62,30.62-30.62,30.62,30.62Zm-29.91-30.62,29.91,29.91,29.91-29.91L191.54,159Z"/><path class="cls-5" d="M228.22,256.22,197.6,225.61,228.22,195l30.61,30.62Zm-29.91-30.61,29.91,29.91,29.91-29.91L228.22,195.7Z"/><path class="cls-5" d="M264.89,292.9l-30.61-30.61,30.61-30.62,30.62,30.62ZM235,262.29l29.91,29.9,29.91-29.9-29.91-29.91Z"/><path class="cls-5" d="M301.57,329.58,271,299l30.61-30.61L332.19,299ZM271.66,299l29.91,29.91L331.48,299l-29.91-29.91Z"/><path class="cls-5" d="M338.25,366.26l-30.62-30.62L338.25,305l30.62,30.62Zm-29.91-30.62,29.91,29.91,29.91-29.91-29.91-29.91Z"/><path class="cls-5" d="M374.93,402.94l-30.62-30.62,30.62-30.62,30.62,30.62ZM345,372.32l29.91,29.91,29.91-29.91-29.91-29.91Z"/><path class="cls-5" d="M411.61,439.61,381,409l30.62-30.62L442.22,409ZM381.7,409l29.91,29.91L441.52,409l-29.91-29.91Z"/><path class="cls-5" d="M448.28,476.29l-30.61-30.62,30.61-30.61,30.62,30.61Zm-29.91-30.62,29.91,29.91,29.91-29.91-29.91-29.91Z"/><path class="cls-5" d="M81.5,36.16,50.89,5.54,81.5-25.08,112.12,5.54ZM51.59,5.54,81.5,35.45,111.41,5.54,81.5-24.37Z"/><path class="cls-5" d="M118.18,72.83,87.57,42.22,118.18,11.6,148.8,42.22ZM88.27,42.22l29.91,29.91,29.91-29.91L118.18,12.31Z"/><path class="cls-5" d="M154.86,109.51,124.24,78.89l30.62-30.61,30.62,30.61ZM125,78.89l29.91,29.91,29.91-29.91L154.86,49Z"/><path class="cls-5" d="M191.54,146.19l-30.62-30.62L191.54,85l30.62,30.61Zm-29.91-30.62,29.91,29.91,29.91-29.91L191.54,85.66Z"/><path class="cls-5" d="M228.22,182.87,197.6,152.25l30.62-30.62,30.61,30.62Zm-29.91-30.62,29.91,29.91,29.91-29.91-29.91-29.91Z"/><path class="cls-5" d="M264.89,219.55l-30.61-30.62,30.61-30.62,30.62,30.62ZM235,188.93l29.91,29.91,29.91-29.91L264.89,159Z"/><path class="cls-5" d="M301.57,256.22,271,225.61,301.57,195l30.62,30.62Zm-29.91-30.61,29.91,29.91,29.91-29.91L301.57,195.7Z"/><path class="cls-5" d="M338.25,292.9l-30.62-30.61,30.62-30.62,30.62,30.62Zm-29.91-30.61,29.91,29.9,29.91-29.9-29.91-29.91Z"/><path class="cls-5" d="M374.93,329.58,344.31,299l30.62-30.61L405.55,299ZM345,299l29.91,29.91L404.84,299l-29.91-29.91Z"/><path class="cls-5" d="M411.61,366.26,381,335.64,411.61,305l30.61,30.62ZM381.7,335.64l29.91,29.91,29.91-29.91-29.91-29.91Z"/><path class="cls-5" d="M448.28,402.94l-30.61-30.62,30.61-30.62,30.62,30.62Zm-29.91-30.62,29.91,29.91,29.91-29.91-29.91-29.91Z"/><path class="cls-5" d="M485,439.61,454.35,409,485,378.38,515.58,409ZM455.05,409,485,438.91,514.87,409,485,379.09Z"/><path class="cls-5" d="M154.86,36.16,124.24,5.54l30.62-30.62L185.48,5.54ZM125,5.54l29.91,29.91L184.77,5.54,154.86-24.37Z"/><path class="cls-5" d="M191.54,72.83,160.92,42.22,191.54,11.6l30.62,30.62ZM161.63,42.22l29.91,29.91,29.91-29.91L191.54,12.31Z"/><path class="cls-5" d="M228.22,109.51,197.6,78.89l30.62-30.61,30.61,30.61ZM198.31,78.89l29.91,29.91,29.91-29.91L228.22,49Z"/><path class="cls-5" d="M264.89,146.19l-30.61-30.62L264.89,85l30.62,30.61ZM235,115.57l29.91,29.91,29.91-29.91L264.89,85.66Z"/><path class="cls-5" d="M301.57,182.87,271,152.25l30.61-30.62,30.62,30.62Zm-29.91-30.62,29.91,29.91,29.91-29.91-29.91-29.91Z"/><path class="cls-5" d="M338.25,219.55l-30.62-30.62,30.62-30.62,30.62,30.62Zm-29.91-30.62,29.91,29.91,29.91-29.91L338.25,159Z"/><path class="cls-5" d="M374.93,256.22l-30.62-30.61L374.93,195l30.62,30.62ZM345,225.61l29.91,29.91,29.91-29.91L374.93,195.7Z"/><path class="cls-5" d="M411.61,292.9,381,262.29l30.62-30.62,30.61,30.62ZM381.7,262.29l29.91,29.9,29.91-29.9-29.91-29.91Z"/><path class="cls-5" d="M448.28,329.58,417.67,299l30.61-30.61L478.9,299ZM418.37,299l29.91,29.91L478.19,299l-29.91-29.91Z"/><path class="cls-5" d="M485,366.26l-30.61-30.62L485,305l30.62,30.62Zm-29.91-30.62L485,365.55l29.91-29.91L485,305.73Z"/><path class="cls-5" d="M521.64,402.94,491,372.32l30.62-30.62,30.62,30.62Zm-29.91-30.62,29.91,29.91,29.91-29.91-29.91-29.91Z"/><path class="cls-5" d="M228.22,36.16,197.6,5.54l30.62-30.62L258.83,5.54ZM198.31,5.54l29.91,29.91L258.13,5.54,228.22-24.37Z"/><path class="cls-5" d="M264.89,72.83,234.28,42.22,264.89,11.6l30.62,30.62ZM235,42.22l29.91,29.91L294.8,42.22,264.89,12.31Z"/><path class="cls-5" d="M301.57,109.51,271,78.89l30.61-30.61,30.62,30.61ZM271.66,78.89l29.91,29.91,29.91-29.91L301.57,49Z"/><path class="cls-5" d="M338.25,146.19l-30.62-30.62L338.25,85l30.62,30.61Zm-29.91-30.62,29.91,29.91,29.91-29.91L338.25,85.66Z"/><path class="cls-5" d="M374.93,182.87l-30.62-30.62,30.62-30.62,30.62,30.62ZM345,152.25l29.91,29.91,29.91-29.91-29.91-29.91Z"/><path class="cls-5" d="M411.61,219.55,381,188.93l30.62-30.62,30.61,30.62ZM381.7,188.93l29.91,29.91,29.91-29.91L411.61,159Z"/><path class="cls-5" d="M448.28,256.22l-30.61-30.61L448.28,195l30.62,30.62Zm-29.91-30.61,29.91,29.91,29.91-29.91L448.28,195.7Z"/><path class="cls-5" d="M485,292.9l-30.61-30.61L485,231.67l30.62,30.62Zm-29.91-30.61L485,292.19l29.91-29.9L485,232.38Z"/><path class="cls-5" d="M521.64,329.58,491,299l30.62-30.61L552.26,299ZM491.73,299l29.91,29.91L551.55,299l-29.91-29.91Z"/><path class="cls-5" d="M558.32,366.26,527.7,335.64,558.32,305l30.62,30.62Zm-29.91-30.62,29.91,29.91,29.91-29.91-29.91-29.91Z"/><path class="cls-5" d="M301.57,36.16,271,5.54l30.61-30.62L332.19,5.54ZM271.66,5.54l29.91,29.91L331.48,5.54,301.57-24.37Z"/><path class="cls-5" d="M338.25,72.83,307.63,42.22,338.25,11.6l30.62,30.62ZM308.34,42.22l29.91,29.91,29.91-29.91L338.25,12.31Z"/><path class="cls-5" d="M374.93,109.51,344.31,78.89l30.62-30.61,30.62,30.61ZM345,78.89l29.91,29.91,29.91-29.91L374.93,49Z"/><path class="cls-5" d="M411.61,146.19,381,115.57,411.61,85l30.61,30.61ZM381.7,115.57l29.91,29.91,29.91-29.91L411.61,85.66Z"/><path class="cls-5" d="M448.28,182.87l-30.61-30.62,30.61-30.62,30.62,30.62Zm-29.91-30.62,29.91,29.91,29.91-29.91-29.91-29.91Z"/><path class="cls-5" d="M485,219.55l-30.61-30.62L485,158.31l30.62,30.62Zm-29.91-30.62L485,218.84l29.91-29.91L485,159Z"/><path class="cls-5" d="M521.64,256.22,491,225.61,521.64,195l30.62,30.62Zm-29.91-30.61,29.91,29.91,29.91-29.91L521.64,195.7Z"/><path class="cls-5" d="M558.32,292.9,527.7,262.29l30.62-30.62,30.62,30.62Zm-29.91-30.61,29.91,29.9,29.91-29.9-29.91-29.91Z"/><path class="cls-5" d="M595,329.58,564.38,299,595,268.35,625.61,299ZM565.09,299,595,328.87,624.91,299,595,269.05Z"/><path class="cls-5" d="M374.93,36.16,344.31,5.54l30.62-30.62L405.55,5.54ZM345,5.54l29.91,29.91L404.84,5.54,374.93-24.37Z"/><path class="cls-5" d="M411.61,72.83,381,42.22,411.61,11.6l30.61,30.62ZM381.7,42.22l29.91,29.91,29.91-29.91L411.61,12.31Z"/><path class="cls-5" d="M448.28,109.51,417.67,78.89l30.61-30.61L478.9,78.89ZM418.37,78.89l29.91,29.91,29.91-29.91L448.28,49Z"/><path class="cls-5" d="M485,146.19l-30.61-30.62L485,85l30.62,30.61Zm-29.91-30.62L485,145.48l29.91-29.91L485,85.66Z"/><path class="cls-5" d="M521.64,182.87,491,152.25l30.62-30.62,30.62,30.62Zm-29.91-30.62,29.91,29.91,29.91-29.91-29.91-29.91Z"/><path class="cls-5" d="M558.32,219.55,527.7,188.93l30.62-30.62,30.62,30.62Zm-29.91-30.62,29.91,29.91,29.91-29.91L558.32,159Z"/><path class="cls-5" d="M595,256.22l-30.62-30.61L595,195l30.61,30.62Zm-29.91-30.61L595,255.52l29.91-29.91L595,195.7Z"/><path class="cls-5" d="M631.67,292.9l-30.61-30.61,30.61-30.62,30.62,30.62Zm-29.91-30.61,29.91,29.9,29.91-29.9-29.91-29.91Z"/><path class="cls-5" d="M448.28,36.16,417.67,5.54l30.61-30.62L478.9,5.54ZM418.37,5.54l29.91,29.91L478.19,5.54,448.28-24.37Z"/><path class="cls-5" d="M485,72.83,454.35,42.22,485,11.6l30.62,30.62ZM455.05,42.22,485,72.13l29.91-29.91L485,12.31Z"/><path class="cls-5" d="M521.64,109.51,491,78.89l30.62-30.61,30.62,30.61ZM491.73,78.89l29.91,29.91,29.91-29.91L521.64,49Z"/><path class="cls-5" d="M558.32,146.19,527.7,115.57,558.32,85l30.62,30.61Zm-29.91-30.62,29.91,29.91,29.91-29.91L558.32,85.66Z"/><path class="cls-5" d="M595,182.87l-30.62-30.62L595,121.63l30.61,30.62Zm-29.91-30.62L595,182.16l29.91-29.91L595,122.34Z"/><path class="cls-5" d="M631.67,219.55l-30.61-30.62,30.61-30.62,30.62,30.62Zm-29.91-30.62,29.91,29.91,29.91-29.91L631.67,159Z"/><path class="cls-5" d="M668.35,256.22l-30.61-30.61L668.35,195,699,225.61Zm-29.91-30.61,29.91,29.91,29.91-29.91L668.35,195.7Z"/><path class="cls-5" d="M521.64,36.16,491,5.54l30.62-30.62L552.26,5.54ZM491.73,5.54l29.91,29.91L551.55,5.54,521.64-24.37Z"/><path class="cls-5" d="M558.32,72.83,527.7,42.22,558.32,11.6l30.62,30.62ZM528.41,42.22l29.91,29.91,29.91-29.91L558.32,12.31Z"/><path class="cls-5" d="M595,109.51,564.38,78.89,595,48.28l30.61,30.61ZM565.09,78.89,595,108.8l29.91-29.91L595,49Z"/><path class="cls-5" d="M631.67,146.19l-30.61-30.62L631.67,85l30.62,30.61Zm-29.91-30.62,29.91,29.91,29.91-29.91L631.67,85.66Z"/><path class="cls-5" d="M668.35,182.87l-30.61-30.62,30.61-30.62L699,152.25Zm-29.91-30.62,29.91,29.91,29.91-29.91-29.91-29.91Z"/><path class="cls-5" d="M705,219.55l-30.62-30.62L705,158.31l30.62,30.62Zm-29.91-30.62L705,218.84l29.91-29.91L705,159Z"/><path class="cls-5" d="M595,36.16,564.38,5.54,595-25.08,625.61,5.54ZM565.09,5.54,595,35.45,624.91,5.54,595-24.37Z"/><path class="cls-5" d="M631.67,72.83,601.06,42.22,631.67,11.6l30.62,30.62ZM601.76,42.22l29.91,29.91,29.91-29.91L631.67,12.31Z"/><path class="cls-5" d="M668.35,109.51,637.74,78.89l30.61-30.61L699,78.89ZM638.44,78.89l29.91,29.91,29.91-29.91L668.35,49Z"/><path class="cls-5" d="M705,146.19l-30.62-30.62L705,85l30.62,30.61Zm-29.91-30.62L705,145.48l29.91-29.91L705,85.66Z"/><path class="cls-5" d="M741.71,182.87l-30.62-30.62,30.62-30.62,30.62,30.62ZM711.8,152.25l29.91,29.91,29.91-29.91-29.91-29.91Z"/><path class="cls-5" d="M668.35,36.16,637.74,5.54l30.61-30.62L699,5.54ZM638.44,5.54l29.91,29.91L698.26,5.54,668.35-24.37Z"/><path class="cls-5" d="M705,72.83,674.41,42.22,705,11.6l30.62,30.62ZM675.12,42.22,705,72.13l29.91-29.91L705,12.31Z"/><path class="cls-5" d="M741.71,109.51,711.09,78.89l30.62-30.61,30.62,30.61ZM711.8,78.89l29.91,29.91,29.91-29.91L741.71,49Z"/><path class="cls-5" d="M778.39,146.19l-30.62-30.62L778.39,85,809,115.57Zm-29.91-30.62,29.91,29.91,29.91-29.91L778.39,85.66Z"/><path class="cls-5" d="M741.71,36.16,711.09,5.54l30.62-30.62L772.33,5.54ZM711.8,5.54l29.91,29.91L771.62,5.54,741.71-24.37Z"/><path class="cls-5" d="M778.39,72.83,747.77,42.22,778.39,11.6,809,42.22ZM748.48,42.22l29.91,29.91L808.3,42.22,778.39,12.31Z"/><path class="cls-5" d="M815.06,109.51,784.45,78.89l30.61-30.61,30.62,30.61ZM785.15,78.89l29.91,29.91L845,78.89,815.06,49Z"/><path class="cls-5" d="M815.06,36.16,784.45,5.54l30.61-30.62L845.68,5.54ZM785.15,5.54l29.91,29.91L845,5.54,815.06-24.37Z"/><path class="cls-5" d="M851.74,72.83,821.13,42.22,851.74,11.6l30.62,30.62ZM821.83,42.22l29.91,29.91,29.91-29.91L851.74,12.31Z"/><path class="cls-5" d="M888.42,36.16,857.8,5.54l30.62-30.62L919,5.54ZM858.51,5.54l29.91,29.91L918.33,5.54,888.42-24.37Z"/></g></g></g></svg>