<?xml version="1.0" encoding="utf-8"?>
<!-- Generator: Adobe Illustrator 26.5.0, SVG Export Plug-In . SVG Version: 6.00 Build 0)  -->
<svg version="1.1" id="Calque_1" xmlns="http://www.w3.org/2000/svg" xmlns:xlink="http://www.w3.org/1999/xlink" x="0px" y="0px"
	 viewBox="0 0 1115 295" style="enable-background:new 0 0 1115 295;" xml:space="preserve">
<style type="text/css">
	.st0{fill:#DEDEDE;}
	.st1{clip-path:url(#SVGID_00000070817118937802099170000012126336879308747156_);}
	.st2{fill:#C8BEB5;}
</style>
<rect x="1" y="0" class="st0" width="1115" height="295"/>
<g>
	<defs>
		<rect id="SVGID_1_" x="1" y="-451" width="1115" height="747"/>
	</defs>
	<clipPath id="SVGID_00000046334500313277442550000014200529835670251663_">
		<use xlink:href="#SVGID_1_"  style="overflow:visible;"/>
	</clipPath>
	<g style="clip-path:url(#SVGID_00000046334500313277442550000014200529835670251663_);">
		<g>
			<g>
				<g>
					<g>
						<g>
							<rect x="1113.7" y="19" class="st2" width="1.3" height="16.2"/>
							<rect x="1104.4" y="19" class="st2" width="1.3" height="16.2"/>
							<rect x="1095" y="19" class="st2" width="1.3" height="16.2"/>
							<rect x="1085.6" y="19" class="st2" width="1.3" height="16.2"/>
							<rect x="1044.2" y="19" class="st2" width="1.3" height="16.2"/>
							<rect x="1034.9" y="19" class="st2" width="1.3" height="16.2"/>
							<rect x="1025.4" y="19" class="st2" width="1.3" height="16.2"/>
							<rect x="1016" y="19" class="st2" width="1.3" height="16.2"/>
							<circle class="st2" cx="1077.5" cy="33.2" r="2.5"/>
							<circle class="st2" cx="1070.3" cy="25.5" r="2.5"/>
							<circle class="st2" cx="1065.6" cy="31.8" r="2.5"/>
							<circle class="st2" cx="1057.5" cy="30.7" r="2.5"/>
							<circle class="st2" cx="1060.6" cy="24.7" r="2.5"/>
							<circle class="st2" cx="1053.9" cy="20.5" r="2.5"/>
							<circle class="st2" cx="1075" cy="20.5" r="2.5"/>
							<circle class="st2" cx="1008" cy="33.2" r="2.5"/>
							<circle class="st2" cx="1000.8" cy="25.5" r="2.5"/>
							<circle class="st2" cx="996" cy="31.8" r="2.5"/>
							<circle class="st2" cx="988" cy="30.7" r="2.5"/>
							<circle class="st2" cx="991" cy="24.7" r="2.5"/>
							<circle class="st2" cx="984.4" cy="20.5" r="2.5"/>
							<circle class="st2" cx="1005.5" cy="20.5" r="2.5"/>
						</g>
						<g>
							<rect x="973.7" y="19" class="st2" width="1.3" height="16.2"/>
							<rect x="964.4" y="19" class="st2" width="1.3" height="16.2"/>
							<rect x="955" y="19" class="st2" width="1.3" height="16.2"/>
							<rect x="945.6" y="19" class="st2" width="1.3" height="16.2"/>
							<rect x="904.2" y="19" class="st2" width="1.3" height="16.2"/>
							<rect x="894.9" y="19" class="st2" width="1.3" height="16.2"/>
							<rect x="885.5" y="19" class="st2" width="1.3" height="16.2"/>
							<rect x="876.1" y="19" class="st2" width="1.3" height="16.2"/>
							<circle class="st2" cx="937.5" cy="33.2" r="2.5"/>
							<circle class="st2" cx="930.3" cy="25.5" r="2.5"/>
							<circle class="st2" cx="925.6" cy="31.8" r="2.5"/>
							<circle class="st2" cx="917.6" cy="30.7" r="2.5"/>
							<circle class="st2" cx="920.6" cy="24.7" r="2.5"/>
							<circle class="st2" cx="914" cy="20.5" r="2.5"/>
							<circle class="st2" cx="935" cy="20.5" r="2.5"/>
							<circle class="st2" cx="868" cy="33.2" r="2.5"/>
							<circle class="st2" cx="860.8" cy="25.5" r="2.5"/>
							<circle class="st2" cx="856.1" cy="31.8" r="2.5"/>
							<circle class="st2" cx="848" cy="30.7" r="2.5"/>
							<circle class="st2" cx="851.1" cy="24.7" r="2.5"/>
							<circle class="st2" cx="844.5" cy="20.5" r="2.5"/>
							<circle class="st2" cx="865.5" cy="20.5" r="2.5"/>
						</g>
						<g>
							<rect x="833.8" y="19" class="st2" width="1.3" height="16.2"/>
							<rect x="824.5" y="19" class="st2" width="1.3" height="16.2"/>
							<rect x="815" y="19" class="st2" width="1.3" height="16.2"/>
							<rect x="805.6" y="19" class="st2" width="1.3" height="16.2"/>
							<rect x="764.2" y="19" class="st2" width="1.3" height="16.2"/>
							<rect x="755" y="19" class="st2" width="1.3" height="16.2"/>
							<rect x="745.5" y="19" class="st2" width="1.3" height="16.2"/>
							<rect x="736.1" y="19" class="st2" width="1.3" height="16.2"/>
							<circle class="st2" cx="797.6" cy="33.2" r="2.5"/>
							<circle class="st2" cx="790.4" cy="25.5" r="2.5"/>
							<circle class="st2" cx="785.7" cy="31.8" r="2.5"/>
							<circle class="st2" cx="777.6" cy="30.7" r="2.5"/>
							<circle class="st2" cx="780.7" cy="24.7" r="2.5"/>
							<circle class="st2" cx="774" cy="20.5" r="2.5"/>
							<circle class="st2" cx="795.1" cy="20.5" r="2.5"/>
							<circle class="st2" cx="728" cy="33.2" r="2.5"/>
							<circle class="st2" cx="720.8" cy="25.5" r="2.5"/>
							<circle class="st2" cx="716.1" cy="31.8" r="2.5"/>
							<circle class="st2" cx="708.1" cy="30.7" r="2.5"/>
							<circle class="st2" cx="711.1" cy="24.7" r="2.5"/>
							<circle class="st2" cx="704.5" cy="20.5" r="2.5"/>
							<circle class="st2" cx="725.5" cy="20.5" r="2.5"/>
						</g>
						<g>
							<rect x="693.8" y="19" class="st2" width="1.3" height="16.2"/>
							<rect x="684.5" y="19" class="st2" width="1.3" height="16.2"/>
							<rect x="675.1" y="19" class="st2" width="1.3" height="16.2"/>
							<rect x="665.7" y="19" class="st2" width="1.3" height="16.2"/>
							<rect x="624.3" y="19" class="st2" width="1.3" height="16.2"/>
							<rect x="615" y="19" class="st2" width="1.3" height="16.2"/>
							<rect x="605.6" y="19" class="st2" width="1.3" height="16.2"/>
							<rect x="596.2" y="19" class="st2" width="1.3" height="16.2"/>
							<circle class="st2" cx="657.6" cy="33.2" r="2.5"/>
							<circle class="st2" cx="650.4" cy="25.5" r="2.5"/>
							<circle class="st2" cx="645.7" cy="31.8" r="2.5"/>
							<circle class="st2" cx="637.7" cy="30.7" r="2.5"/>
							<circle class="st2" cx="640.7" cy="24.7" r="2.5"/>
							<circle class="st2" cx="634.1" cy="20.5" r="2.5"/>
							<circle class="st2" cx="655.1" cy="20.5" r="2.5"/>
							<circle class="st2" cx="588.1" cy="33.2" r="2.5"/>
							<circle class="st2" cx="580.9" cy="25.5" r="2.5"/>
							<circle class="st2" cx="576.2" cy="31.8" r="2.5"/>
							<circle class="st2" cx="568.1" cy="30.7" r="2.5"/>
							<circle class="st2" cx="571.2" cy="24.7" r="2.5"/>
							<circle class="st2" cx="564.5" cy="20.5" r="2.5"/>
							<circle class="st2" cx="585.6" cy="20.5" r="2.5"/>
						</g>
					</g>
					<g>
						<g>
							<rect x="551.6" y="19" class="st2" width="1.3" height="16.2"/>
							<rect x="542.3" y="19" class="st2" width="1.3" height="16.2"/>
							<rect x="532.9" y="19" class="st2" width="1.3" height="16.2"/>
							<rect x="523.5" y="19" class="st2" width="1.3" height="16.2"/>
							<rect x="482.1" y="19" class="st2" width="1.3" height="16.2"/>
							<rect x="472.8" y="19" class="st2" width="1.3" height="16.2"/>
							<rect x="463.4" y="19" class="st2" width="1.3" height="16.2"/>
							<rect x="454" y="19" class="st2" width="1.3" height="16.2"/>
							<circle class="st2" cx="515.4" cy="33.2" r="2.5"/>
							<circle class="st2" cx="508.2" cy="25.5" r="2.5"/>
							<circle class="st2" cx="503.5" cy="31.8" r="2.5"/>
							<circle class="st2" cx="495.5" cy="30.7" r="2.5"/>
							<circle class="st2" cx="498.5" cy="24.7" r="2.5"/>
							<circle class="st2" cx="491.9" cy="20.5" r="2.5"/>
							<circle class="st2" cx="512.9" cy="20.5" r="2.5"/>
							<circle class="st2" cx="445.9" cy="33.2" r="2.5"/>
							<circle class="st2" cx="438.7" cy="25.5" r="2.5"/>
							<circle class="st2" cx="434" cy="31.8" r="2.5"/>
							<circle class="st2" cx="426" cy="30.7" r="2.5"/>
							<circle class="st2" cx="429" cy="24.7" r="2.5"/>
							<circle class="st2" cx="422.4" cy="20.5" r="2.5"/>
							<circle class="st2" cx="443.4" cy="20.5" r="2.5"/>
						</g>
						<g>
							<rect x="411.7" y="19" class="st2" width="1.3" height="16.2"/>
							<rect x="402.4" y="19" class="st2" width="1.3" height="16.2"/>
							<rect x="393" y="19" class="st2" width="1.3" height="16.2"/>
							<rect x="383.5" y="19" class="st2" width="1.3" height="16.2"/>
							<rect x="342.2" y="19" class="st2" width="1.3" height="16.2"/>
							<rect x="332.9" y="19" class="st2" width="1.3" height="16.2"/>
							<rect x="323.5" y="19" class="st2" width="1.3" height="16.2"/>
							<rect x="314" y="19" class="st2" width="1.3" height="16.2"/>
							<circle class="st2" cx="375.5" cy="33.2" r="2.5"/>
							<circle class="st2" cx="368.3" cy="25.5" r="2.5"/>
							<circle class="st2" cx="363.6" cy="31.8" r="2.5"/>
							<circle class="st2" cx="355.5" cy="30.7" r="2.5"/>
							<circle class="st2" cx="358.6" cy="24.7" r="2.5"/>
							<circle class="st2" cx="351.9" cy="20.5" r="2.5"/>
							<circle class="st2" cx="373" cy="20.5" r="2.5"/>
							<circle class="st2" cx="306" cy="33.2" r="2.5"/>
							<circle class="st2" cx="298.8" cy="25.5" r="2.5"/>
							<circle class="st2" cx="294" cy="31.8" r="2.5"/>
							<circle class="st2" cx="286" cy="30.7" r="2.5"/>
							<circle class="st2" cx="289" cy="24.7" r="2.5"/>
							<circle class="st2" cx="282.4" cy="20.5" r="2.5"/>
							<circle class="st2" cx="303.5" cy="20.5" r="2.5"/>
						</g>
						<g>
							<rect x="271.7" y="19" class="st2" width="1.3" height="16.2"/>
							<rect x="262.4" y="19" class="st2" width="1.3" height="16.2"/>
							<rect x="253" y="19" class="st2" width="1.3" height="16.2"/>
							<rect x="243.6" y="19" class="st2" width="1.3" height="16.2"/>
							<rect x="202.2" y="19" class="st2" width="1.3" height="16.2"/>
							<rect x="192.9" y="19" class="st2" width="1.3" height="16.2"/>
							<rect x="183.5" y="19" class="st2" width="1.3" height="16.2"/>
							<rect x="174.1" y="19" class="st2" width="1.3" height="16.2"/>
							<circle class="st2" cx="235.5" cy="33.2" r="2.5"/>
							<circle class="st2" cx="228.3" cy="25.5" r="2.5"/>
							<circle class="st2" cx="223.6" cy="31.8" r="2.5"/>
							<circle class="st2" cx="215.6" cy="30.7" r="2.5"/>
							<circle class="st2" cx="218.6" cy="24.7" r="2.5"/>
							<circle class="st2" cx="212" cy="20.5" r="2.5"/>
							<circle class="st2" cx="233" cy="20.5" r="2.5"/>
							<circle class="st2" cx="166" cy="33.2" r="2.5"/>
							<circle class="st2" cx="158.8" cy="25.5" r="2.5"/>
							<circle class="st2" cx="154.1" cy="31.8" r="2.5"/>
							<circle class="st2" cx="146.1" cy="30.7" r="2.5"/>
							<circle class="st2" cx="149.1" cy="24.7" r="2.5"/>
							<circle class="st2" cx="142.4" cy="20.5" r="2.5"/>
							<circle class="st2" cx="163.5" cy="20.5" r="2.5"/>
						</g>
						<g>
							<rect x="131.8" y="19" class="st2" width="1.3" height="16.2"/>
							<rect x="122.5" y="19" class="st2" width="1.3" height="16.2"/>
							<rect x="113.1" y="19" class="st2" width="1.3" height="16.2"/>
							<rect x="103.6" y="19" class="st2" width="1.3" height="16.2"/>
							<rect x="62.2" y="19" class="st2" width="1.3" height="16.2"/>
							<rect x="53" y="19" class="st2" width="1.3" height="16.2"/>
							<rect x="43.5" y="19" class="st2" width="1.3" height="16.2"/>
							<rect x="34.1" y="19" class="st2" width="1.3" height="16.2"/>
							<circle class="st2" cx="95.6" cy="33.2" r="2.5"/>
							<circle class="st2" cx="88.4" cy="25.5" r="2.5"/>
							<circle class="st2" cx="83.7" cy="31.8" r="2.5"/>
							<circle class="st2" cx="75.6" cy="30.7" r="2.5"/>
							<circle class="st2" cx="78.7" cy="24.7" r="2.5"/>
							<circle class="st2" cx="72" cy="20.5" r="2.5"/>
							<circle class="st2" cx="93.1" cy="20.5" r="2.5"/>
							<circle class="st2" cx="26" cy="33.2" r="2.5"/>
							<circle class="st2" cx="18.8" cy="25.5" r="2.5"/>
							<circle class="st2" cx="14.1" cy="31.8" r="2.5"/>
							<circle class="st2" cx="6.1" cy="30.7" r="2.5"/>
							<circle class="st2" cx="9.1" cy="24.7" r="2.5"/>
							<circle class="st2" cx="2.5" cy="20.5" r="2.5"/>
							<circle class="st2" cx="23.5" cy="20.5" r="2.5"/>
						</g>
					</g>
				</g>
				<g>
					<g>
						<g>
							<rect x="1113.7" y="1" class="st2" width="1.3" height="16.2"/>
							<rect x="1104.4" y="1" class="st2" width="1.3" height="16.2"/>
							<rect x="1095" y="1" class="st2" width="1.3" height="16.2"/>
							<rect x="1085.6" y="1" class="st2" width="1.3" height="16.2"/>
							<rect x="1044.2" y="1" class="st2" width="1.3" height="16.2"/>
							<rect x="1034.9" y="1" class="st2" width="1.3" height="16.2"/>
							<rect x="1025.4" y="1" class="st2" width="1.3" height="16.2"/>
							<rect x="1016" y="1" class="st2" width="1.3" height="16.2"/>
							<circle class="st2" cx="1077.5" cy="15.2" r="2.5"/>
							<circle class="st2" cx="1070.3" cy="7.5" r="2.5"/>
							<circle class="st2" cx="1065.6" cy="13.8" r="2.5"/>
							<circle class="st2" cx="1057.5" cy="12.7" r="2.5"/>
							<circle class="st2" cx="1060.6" cy="6.7" r="2.5"/>
							<circle class="st2" cx="1053.9" cy="2.5" r="2.5"/>
							<circle class="st2" cx="1075" cy="2.5" r="2.5"/>
							<circle class="st2" cx="1008" cy="15.2" r="2.5"/>
							<circle class="st2" cx="1000.8" cy="7.5" r="2.5"/>
							<circle class="st2" cx="996" cy="13.8" r="2.5"/>
							<circle class="st2" cx="988" cy="12.7" r="2.5"/>
							<circle class="st2" cx="991" cy="6.7" r="2.5"/>
							<circle class="st2" cx="984.4" cy="2.5" r="2.5"/>
							<circle class="st2" cx="1005.5" cy="2.5" r="2.5"/>
						</g>
						<g>
							<rect x="973.7" y="1" class="st2" width="1.3" height="16.2"/>
							<rect x="964.4" y="1" class="st2" width="1.3" height="16.2"/>
							<rect x="955" y="1" class="st2" width="1.3" height="16.2"/>
							<rect x="945.6" y="1" class="st2" width="1.3" height="16.2"/>
							<rect x="904.2" y="1" class="st2" width="1.3" height="16.2"/>
							<rect x="894.9" y="1" class="st2" width="1.3" height="16.2"/>
							<rect x="885.5" y="1" class="st2" width="1.3" height="16.2"/>
							<rect x="876.1" y="1" class="st2" width="1.3" height="16.2"/>
							<circle class="st2" cx="937.5" cy="15.2" r="2.5"/>
							<circle class="st2" cx="930.3" cy="7.5" r="2.5"/>
							<circle class="st2" cx="925.6" cy="13.8" r="2.5"/>
							<circle class="st2" cx="917.6" cy="12.7" r="2.5"/>
							<circle class="st2" cx="920.6" cy="6.7" r="2.5"/>
							<circle class="st2" cx="914" cy="2.5" r="2.5"/>
							<circle class="st2" cx="935" cy="2.5" r="2.5"/>
							<circle class="st2" cx="868" cy="15.2" r="2.5"/>
							<circle class="st2" cx="860.8" cy="7.5" r="2.5"/>
							<circle class="st2" cx="856.1" cy="13.8" r="2.5"/>
							<circle class="st2" cx="848" cy="12.7" r="2.5"/>
							<circle class="st2" cx="851.1" cy="6.7" r="2.5"/>
							<circle class="st2" cx="844.5" cy="2.5" r="2.5"/>
							<circle class="st2" cx="865.5" cy="2.5" r="2.5"/>
						</g>
						<g>
							<rect x="833.8" y="1" class="st2" width="1.3" height="16.2"/>
							<rect x="824.5" y="1" class="st2" width="1.3" height="16.2"/>
							<rect x="815" y="1" class="st2" width="1.3" height="16.2"/>
							<rect x="805.6" y="1" class="st2" width="1.3" height="16.2"/>
							<rect x="764.2" y="1" class="st2" width="1.3" height="16.2"/>
							<rect x="755" y="1" class="st2" width="1.3" height="16.2"/>
							<rect x="745.5" y="1" class="st2" width="1.3" height="16.2"/>
							<rect x="736.1" y="1" class="st2" width="1.3" height="16.2"/>
							<circle class="st2" cx="797.6" cy="15.2" r="2.5"/>
							<circle class="st2" cx="790.4" cy="7.5" r="2.5"/>
							<circle class="st2" cx="785.7" cy="13.8" r="2.5"/>
							<circle class="st2" cx="777.6" cy="12.7" r="2.5"/>
							<circle class="st2" cx="780.7" cy="6.7" r="2.5"/>
							<circle class="st2" cx="774" cy="2.5" r="2.5"/>
							<circle class="st2" cx="795.1" cy="2.5" r="2.5"/>
							<circle class="st2" cx="728" cy="15.2" r="2.5"/>
							<circle class="st2" cx="720.8" cy="7.5" r="2.5"/>
							<circle class="st2" cx="716.1" cy="13.8" r="2.5"/>
							<circle class="st2" cx="708.1" cy="12.7" r="2.5"/>
							<circle class="st2" cx="711.1" cy="6.7" r="2.5"/>
							<circle class="st2" cx="704.5" cy="2.5" r="2.5"/>
							<circle class="st2" cx="725.5" cy="2.5" r="2.5"/>
						</g>
						<g>
							<rect x="693.8" y="1" class="st2" width="1.3" height="16.2"/>
							<rect x="684.5" y="1" class="st2" width="1.3" height="16.2"/>
							<rect x="675.1" y="1" class="st2" width="1.3" height="16.2"/>
							<rect x="665.7" y="1" class="st2" width="1.3" height="16.2"/>
							<rect x="624.3" y="1" class="st2" width="1.3" height="16.2"/>
							<rect x="615" y="1" class="st2" width="1.3" height="16.2"/>
							<rect x="605.6" y="1" class="st2" width="1.3" height="16.2"/>
							<rect x="596.2" y="1" class="st2" width="1.3" height="16.2"/>
							<circle class="st2" cx="657.6" cy="15.2" r="2.5"/>
							<circle class="st2" cx="650.4" cy="7.5" r="2.5"/>
							<circle class="st2" cx="645.7" cy="13.8" r="2.5"/>
							<circle class="st2" cx="637.7" cy="12.7" r="2.5"/>
							<circle class="st2" cx="640.7" cy="6.7" r="2.5"/>
							<circle class="st2" cx="634.1" cy="2.5" r="2.5"/>
							<circle class="st2" cx="655.1" cy="2.5" r="2.5"/>
							<circle class="st2" cx="588.1" cy="15.2" r="2.5"/>
							<circle class="st2" cx="580.9" cy="7.5" r="2.5"/>
							<circle class="st2" cx="576.2" cy="13.8" r="2.5"/>
							<circle class="st2" cx="568.1" cy="12.7" r="2.5"/>
							<circle class="st2" cx="571.2" cy="6.7" r="2.5"/>
							<circle class="st2" cx="564.5" cy="2.5" r="2.5"/>
							<circle class="st2" cx="585.6" cy="2.5" r="2.5"/>
						</g>
					</g>
					<g>
						<g>
							<rect x="551.6" y="1" class="st2" width="1.3" height="16.2"/>
							<rect x="542.3" y="1" class="st2" width="1.3" height="16.2"/>
							<rect x="532.9" y="1" class="st2" width="1.3" height="16.2"/>
							<rect x="523.5" y="1" class="st2" width="1.3" height="16.2"/>
							<rect x="482.1" y="1" class="st2" width="1.3" height="16.2"/>
							<rect x="472.8" y="1" class="st2" width="1.3" height="16.2"/>
							<rect x="463.4" y="1" class="st2" width="1.3" height="16.2"/>
							<rect x="454" y="1" class="st2" width="1.3" height="16.2"/>
							<circle class="st2" cx="515.4" cy="15.2" r="2.5"/>
							<circle class="st2" cx="508.2" cy="7.5" r="2.5"/>
							<circle class="st2" cx="503.5" cy="13.8" r="2.5"/>
							<circle class="st2" cx="495.5" cy="12.7" r="2.5"/>
							<circle class="st2" cx="498.5" cy="6.7" r="2.5"/>
							<circle class="st2" cx="491.9" cy="2.5" r="2.5"/>
							<circle class="st2" cx="512.9" cy="2.5" r="2.5"/>
							<circle class="st2" cx="445.9" cy="15.2" r="2.5"/>
							<circle class="st2" cx="438.7" cy="7.5" r="2.5"/>
							<circle class="st2" cx="434" cy="13.8" r="2.5"/>
							<circle class="st2" cx="426" cy="12.7" r="2.5"/>
							<circle class="st2" cx="429" cy="6.7" r="2.5"/>
							<circle class="st2" cx="422.4" cy="2.5" r="2.5"/>
							<circle class="st2" cx="443.4" cy="2.5" r="2.5"/>
						</g>
						<g>
							<rect x="411.7" y="1" class="st2" width="1.3" height="16.2"/>
							<rect x="402.4" y="1" class="st2" width="1.3" height="16.2"/>
							<rect x="393" y="1" class="st2" width="1.3" height="16.2"/>
							<rect x="383.5" y="1" class="st2" width="1.3" height="16.2"/>
							<rect x="342.2" y="1" class="st2" width="1.3" height="16.2"/>
							<rect x="332.9" y="1" class="st2" width="1.3" height="16.2"/>
							<rect x="323.5" y="1" class="st2" width="1.3" height="16.2"/>
							<rect x="314" y="1" class="st2" width="1.3" height="16.2"/>
							<circle class="st2" cx="375.5" cy="15.2" r="2.5"/>
							<circle class="st2" cx="368.3" cy="7.5" r="2.5"/>
							<circle class="st2" cx="363.6" cy="13.8" r="2.5"/>
							<circle class="st2" cx="355.5" cy="12.7" r="2.5"/>
							<circle class="st2" cx="358.6" cy="6.7" r="2.5"/>
							<circle class="st2" cx="351.9" cy="2.5" r="2.5"/>
							<circle class="st2" cx="373" cy="2.5" r="2.5"/>
							<circle class="st2" cx="306" cy="15.2" r="2.5"/>
							<circle class="st2" cx="298.8" cy="7.5" r="2.5"/>
							<circle class="st2" cx="294" cy="13.8" r="2.5"/>
							<circle class="st2" cx="286" cy="12.7" r="2.5"/>
							<circle class="st2" cx="289" cy="6.7" r="2.5"/>
							<circle class="st2" cx="282.4" cy="2.5" r="2.5"/>
							<circle class="st2" cx="303.5" cy="2.5" r="2.5"/>
						</g>
						<g>
							<rect x="271.7" y="1" class="st2" width="1.3" height="16.2"/>
							<rect x="262.4" y="1" class="st2" width="1.3" height="16.2"/>
							<rect x="253" y="1" class="st2" width="1.3" height="16.2"/>
							<rect x="243.6" y="1" class="st2" width="1.3" height="16.2"/>
							<rect x="202.2" y="1" class="st2" width="1.3" height="16.2"/>
							<rect x="192.9" y="1" class="st2" width="1.3" height="16.2"/>
							<rect x="183.5" y="1" class="st2" width="1.3" height="16.2"/>
							<rect x="174.1" y="1" class="st2" width="1.3" height="16.2"/>
							<circle class="st2" cx="235.5" cy="15.2" r="2.5"/>
							<circle class="st2" cx="228.3" cy="7.5" r="2.5"/>
							<circle class="st2" cx="223.6" cy="13.8" r="2.5"/>
							<circle class="st2" cx="215.6" cy="12.7" r="2.5"/>
							<circle class="st2" cx="218.6" cy="6.7" r="2.5"/>
							<circle class="st2" cx="212" cy="2.5" r="2.5"/>
							<circle class="st2" cx="233" cy="2.5" r="2.5"/>
							<circle class="st2" cx="166" cy="15.2" r="2.5"/>
							<circle class="st2" cx="158.8" cy="7.5" r="2.5"/>
							<circle class="st2" cx="154.1" cy="13.8" r="2.5"/>
							<circle class="st2" cx="146.1" cy="12.7" r="2.5"/>
							<circle class="st2" cx="149.1" cy="6.7" r="2.5"/>
							<circle class="st2" cx="142.4" cy="2.5" r="2.5"/>
							<circle class="st2" cx="163.5" cy="2.5" r="2.5"/>
						</g>
						<g>
							<rect x="131.8" y="1" class="st2" width="1.3" height="16.2"/>
							<rect x="122.5" y="1" class="st2" width="1.3" height="16.2"/>
							<rect x="113.1" y="1" class="st2" width="1.3" height="16.2"/>
							<rect x="103.6" y="1" class="st2" width="1.3" height="16.2"/>
							<rect x="62.2" y="1" class="st2" width="1.3" height="16.2"/>
							<rect x="53" y="1" class="st2" width="1.3" height="16.2"/>
							<rect x="43.5" y="1" class="st2" width="1.3" height="16.2"/>
							<rect x="34.1" y="1" class="st2" width="1.3" height="16.2"/>
							<circle class="st2" cx="95.6" cy="15.2" r="2.5"/>
							<circle class="st2" cx="88.4" cy="7.5" r="2.5"/>
							<circle class="st2" cx="83.7" cy="13.8" r="2.5"/>
							<circle class="st2" cx="75.6" cy="12.7" r="2.5"/>
							<circle class="st2" cx="78.7" cy="6.7" r="2.5"/>
							<circle class="st2" cx="72" cy="2.5" r="2.5"/>
							<circle class="st2" cx="93.1" cy="2.5" r="2.5"/>
							<circle class="st2" cx="26" cy="15.2" r="2.5"/>
							<circle class="st2" cx="18.8" cy="7.5" r="2.5"/>
							<circle class="st2" cx="14.1" cy="13.8" r="2.5"/>
							<circle class="st2" cx="6.1" cy="12.7" r="2.5"/>
							<circle class="st2" cx="9.1" cy="6.7" r="2.5"/>
							<circle class="st2" cx="2.5" cy="2.5" r="2.5"/>
							<circle class="st2" cx="23.5" cy="2.5" r="2.5"/>
						</g>
					</g>
				</g>
			</g>
		</g>
		<g>
			<g>
				<g>
					<g>
						<g>
							<rect x="1113.7" y="278.3" class="st2" width="1.3" height="16.2"/>
							<rect x="1104.4" y="278.3" class="st2" width="1.3" height="16.2"/>
							<rect x="1095" y="278.3" class="st2" width="1.3" height="16.2"/>
							<rect x="1085.6" y="278.3" class="st2" width="1.3" height="16.2"/>
							<rect x="1044.2" y="278.3" class="st2" width="1.3" height="16.2"/>
							<rect x="1034.9" y="278.3" class="st2" width="1.3" height="16.2"/>
							<rect x="1025.4" y="278.3" class="st2" width="1.3" height="16.2"/>
							<rect x="1016" y="278.3" class="st2" width="1.3" height="16.2"/>
							<circle class="st2" cx="1077.5" cy="292.5" r="2.5"/>
							<circle class="st2" cx="1070.3" cy="284.8" r="2.5"/>
							<circle class="st2" cx="1065.6" cy="291.1" r="2.5"/>
							<circle class="st2" cx="1057.5" cy="290" r="2.5"/>
							<circle class="st2" cx="1060.6" cy="283.9" r="2.5"/>
							<circle class="st2" cx="1053.9" cy="279.8" r="2.5"/>
							<circle class="st2" cx="1075" cy="279.8" r="2.5"/>
							<circle class="st2" cx="1008" cy="292.5" r="2.5"/>
							<circle class="st2" cx="1000.8" cy="284.8" r="2.5"/>
							<circle class="st2" cx="996" cy="291.1" r="2.5"/>
							<circle class="st2" cx="988" cy="290" r="2.5"/>
							<circle class="st2" cx="991" cy="283.9" r="2.5"/>
							<circle class="st2" cx="984.4" cy="279.8" r="2.5"/>
							<circle class="st2" cx="1005.5" cy="279.8" r="2.5"/>
						</g>
						<g>
							<rect x="973.7" y="278.3" class="st2" width="1.3" height="16.2"/>
							<rect x="964.4" y="278.3" class="st2" width="1.3" height="16.2"/>
							<rect x="955" y="278.3" class="st2" width="1.3" height="16.2"/>
							<rect x="945.6" y="278.3" class="st2" width="1.3" height="16.2"/>
							<rect x="904.2" y="278.3" class="st2" width="1.3" height="16.2"/>
							<rect x="894.9" y="278.3" class="st2" width="1.3" height="16.2"/>
							<rect x="885.5" y="278.3" class="st2" width="1.3" height="16.2"/>
							<rect x="876.1" y="278.3" class="st2" width="1.3" height="16.2"/>
							<circle class="st2" cx="937.5" cy="292.5" r="2.5"/>
							<circle class="st2" cx="930.3" cy="284.8" r="2.5"/>
							<circle class="st2" cx="925.6" cy="291.1" r="2.5"/>
							<circle class="st2" cx="917.6" cy="290" r="2.5"/>
							<circle class="st2" cx="920.6" cy="283.9" r="2.5"/>
							<circle class="st2" cx="914" cy="279.8" r="2.5"/>
							<circle class="st2" cx="935" cy="279.8" r="2.5"/>
							<circle class="st2" cx="868" cy="292.5" r="2.5"/>
							<circle class="st2" cx="860.8" cy="284.8" r="2.5"/>
							<circle class="st2" cx="856.1" cy="291.1" r="2.5"/>
							<circle class="st2" cx="848" cy="290" r="2.5"/>
							<circle class="st2" cx="851.1" cy="283.9" r="2.5"/>
							<circle class="st2" cx="844.5" cy="279.8" r="2.5"/>
							<circle class="st2" cx="865.5" cy="279.8" r="2.5"/>
						</g>
						<g>
							<rect x="833.8" y="278.3" class="st2" width="1.3" height="16.2"/>
							<rect x="824.5" y="278.3" class="st2" width="1.3" height="16.2"/>
							<rect x="815" y="278.3" class="st2" width="1.3" height="16.2"/>
							<rect x="805.6" y="278.3" class="st2" width="1.3" height="16.2"/>
							<rect x="764.2" y="278.3" class="st2" width="1.3" height="16.2"/>
							<rect x="755" y="278.3" class="st2" width="1.3" height="16.2"/>
							<rect x="745.5" y="278.3" class="st2" width="1.3" height="16.2"/>
							<rect x="736.1" y="278.3" class="st2" width="1.3" height="16.2"/>
							<circle class="st2" cx="797.6" cy="292.5" r="2.5"/>
							<circle class="st2" cx="790.4" cy="284.8" r="2.5"/>
							<circle class="st2" cx="785.7" cy="291.1" r="2.5"/>
							<circle class="st2" cx="777.6" cy="290" r="2.5"/>
							<circle class="st2" cx="780.7" cy="283.9" r="2.5"/>
							<circle class="st2" cx="774" cy="279.8" r="2.5"/>
							<circle class="st2" cx="795.1" cy="279.8" r="2.5"/>
							<circle class="st2" cx="728" cy="292.5" r="2.5"/>
							<circle class="st2" cx="720.8" cy="284.8" r="2.5"/>
							<circle class="st2" cx="716.1" cy="291.1" r="2.5"/>
							<circle class="st2" cx="708.1" cy="290" r="2.5"/>
							<circle class="st2" cx="711.1" cy="283.9" r="2.5"/>
							<circle class="st2" cx="704.5" cy="279.8" r="2.5"/>
							<circle class="st2" cx="725.5" cy="279.8" r="2.5"/>
						</g>
						<g>
							<rect x="693.8" y="278.3" class="st2" width="1.3" height="16.2"/>
							<rect x="684.5" y="278.3" class="st2" width="1.3" height="16.2"/>
							<rect x="675.1" y="278.3" class="st2" width="1.3" height="16.2"/>
							<rect x="665.7" y="278.3" class="st2" width="1.3" height="16.2"/>
							<rect x="624.3" y="278.3" class="st2" width="1.3" height="16.2"/>
							<rect x="615" y="278.3" class="st2" width="1.3" height="16.2"/>
							<rect x="605.6" y="278.3" class="st2" width="1.3" height="16.2"/>
							<rect x="596.2" y="278.3" class="st2" width="1.3" height="16.2"/>
							<circle class="st2" cx="657.6" cy="292.5" r="2.5"/>
							<circle class="st2" cx="650.4" cy="284.8" r="2.5"/>
							<circle class="st2" cx="645.7" cy="291.1" r="2.5"/>
							<circle class="st2" cx="637.7" cy="290" r="2.5"/>
							<circle class="st2" cx="640.7" cy="283.9" r="2.5"/>
							<circle class="st2" cx="634.1" cy="279.8" r="2.5"/>
							<circle class="st2" cx="655.1" cy="279.8" r="2.5"/>
							<circle class="st2" cx="588.1" cy="292.5" r="2.5"/>
							<circle class="st2" cx="580.9" cy="284.8" r="2.5"/>
							<circle class="st2" cx="576.2" cy="291.1" r="2.5"/>
							<circle class="st2" cx="568.1" cy="290" r="2.5"/>
							<circle class="st2" cx="571.2" cy="283.9" r="2.5"/>
							<circle class="st2" cx="564.5" cy="279.8" r="2.5"/>
							<circle class="st2" cx="585.6" cy="279.8" r="2.5"/>
						</g>
					</g>
					<g>
						<g>
							<rect x="551.6" y="278.3" class="st2" width="1.3" height="16.2"/>
							<rect x="542.3" y="278.3" class="st2" width="1.3" height="16.2"/>
							<rect x="532.9" y="278.3" class="st2" width="1.3" height="16.2"/>
							<rect x="523.5" y="278.3" class="st2" width="1.3" height="16.2"/>
							<rect x="482.1" y="278.3" class="st2" width="1.3" height="16.2"/>
							<rect x="472.8" y="278.3" class="st2" width="1.3" height="16.2"/>
							<rect x="463.4" y="278.3" class="st2" width="1.3" height="16.2"/>
							<rect x="454" y="278.3" class="st2" width="1.3" height="16.2"/>
							<circle class="st2" cx="515.4" cy="292.5" r="2.5"/>
							<circle class="st2" cx="508.2" cy="284.8" r="2.5"/>
							<circle class="st2" cx="503.5" cy="291.1" r="2.5"/>
							<circle class="st2" cx="495.5" cy="290" r="2.5"/>
							<circle class="st2" cx="498.5" cy="283.9" r="2.5"/>
							<circle class="st2" cx="491.9" cy="279.8" r="2.5"/>
							<circle class="st2" cx="512.9" cy="279.8" r="2.5"/>
							<circle class="st2" cx="445.9" cy="292.5" r="2.5"/>
							<circle class="st2" cx="438.7" cy="284.8" r="2.5"/>
							<circle class="st2" cx="434" cy="291.1" r="2.5"/>
							<circle class="st2" cx="426" cy="290" r="2.5"/>
							<circle class="st2" cx="429" cy="283.9" r="2.5"/>
							<circle class="st2" cx="422.4" cy="279.8" r="2.5"/>
							<circle class="st2" cx="443.4" cy="279.8" r="2.5"/>
						</g>
						<g>
							<rect x="411.7" y="278.3" class="st2" width="1.3" height="16.2"/>
							<rect x="402.4" y="278.3" class="st2" width="1.3" height="16.2"/>
							<rect x="393" y="278.3" class="st2" width="1.3" height="16.2"/>
							<rect x="383.5" y="278.3" class="st2" width="1.3" height="16.2"/>
							<rect x="342.2" y="278.3" class="st2" width="1.3" height="16.2"/>
							<rect x="332.9" y="278.3" class="st2" width="1.3" height="16.2"/>
							<rect x="323.5" y="278.3" class="st2" width="1.3" height="16.2"/>
							<rect x="314" y="278.3" class="st2" width="1.3" height="16.2"/>
							<circle class="st2" cx="375.5" cy="292.5" r="2.5"/>
							<circle class="st2" cx="368.3" cy="284.8" r="2.5"/>
							<circle class="st2" cx="363.6" cy="291.1" r="2.5"/>
							<circle class="st2" cx="355.5" cy="290" r="2.5"/>
							<circle class="st2" cx="358.6" cy="283.9" r="2.5"/>
							<circle class="st2" cx="351.9" cy="279.8" r="2.5"/>
							<circle class="st2" cx="373" cy="279.8" r="2.5"/>
							<circle class="st2" cx="306" cy="292.5" r="2.5"/>
							<circle class="st2" cx="298.8" cy="284.8" r="2.5"/>
							<circle class="st2" cx="294" cy="291.1" r="2.5"/>
							<circle class="st2" cx="286" cy="290" r="2.5"/>
							<circle class="st2" cx="289" cy="283.9" r="2.5"/>
							<circle class="st2" cx="282.4" cy="279.8" r="2.5"/>
							<circle class="st2" cx="303.5" cy="279.8" r="2.5"/>
						</g>
						<g>
							<rect x="271.7" y="278.3" class="st2" width="1.3" height="16.2"/>
							<rect x="262.4" y="278.3" class="st2" width="1.3" height="16.2"/>
							<rect x="253" y="278.3" class="st2" width="1.3" height="16.2"/>
							<rect x="243.6" y="278.3" class="st2" width="1.3" height="16.2"/>
							<rect x="202.2" y="278.3" class="st2" width="1.3" height="16.2"/>
							<rect x="192.9" y="278.3" class="st2" width="1.3" height="16.2"/>
							<rect x="183.5" y="278.3" class="st2" width="1.3" height="16.2"/>
							<rect x="174.1" y="278.3" class="st2" width="1.3" height="16.2"/>
							<circle class="st2" cx="235.5" cy="292.5" r="2.5"/>
							<circle class="st2" cx="228.3" cy="284.8" r="2.5"/>
							<circle class="st2" cx="223.6" cy="291.1" r="2.5"/>
							<circle class="st2" cx="215.6" cy="290" r="2.5"/>
							<circle class="st2" cx="218.6" cy="283.9" r="2.5"/>
							<circle class="st2" cx="212" cy="279.8" r="2.5"/>
							<circle class="st2" cx="233" cy="279.8" r="2.5"/>
							<circle class="st2" cx="166" cy="292.5" r="2.5"/>
							<circle class="st2" cx="158.8" cy="284.8" r="2.5"/>
							<circle class="st2" cx="154.1" cy="291.1" r="2.5"/>
							<circle class="st2" cx="146.1" cy="290" r="2.5"/>
							<circle class="st2" cx="149.1" cy="283.9" r="2.5"/>
							<circle class="st2" cx="142.4" cy="279.8" r="2.5"/>
							<circle class="st2" cx="163.5" cy="279.8" r="2.5"/>
						</g>
						<g>
							<rect x="131.8" y="278.3" class="st2" width="1.3" height="16.2"/>
							<rect x="122.5" y="278.3" class="st2" width="1.3" height="16.2"/>
							<rect x="113.1" y="278.3" class="st2" width="1.3" height="16.2"/>
							<rect x="103.6" y="278.3" class="st2" width="1.3" height="16.2"/>
							<rect x="62.2" y="278.3" class="st2" width="1.3" height="16.2"/>
							<rect x="53" y="278.3" class="st2" width="1.3" height="16.2"/>
							<rect x="43.5" y="278.3" class="st2" width="1.3" height="16.2"/>
							<rect x="34.1" y="278.3" class="st2" width="1.3" height="16.2"/>
							<circle class="st2" cx="95.6" cy="292.5" r="2.5"/>
							<circle class="st2" cx="88.4" cy="284.8" r="2.5"/>
							<circle class="st2" cx="83.7" cy="291.1" r="2.5"/>
							<circle class="st2" cx="75.6" cy="290" r="2.5"/>
							<circle class="st2" cx="78.7" cy="283.9" r="2.5"/>
							<circle class="st2" cx="72" cy="279.8" r="2.5"/>
							<circle class="st2" cx="93.1" cy="279.8" r="2.5"/>
							<circle class="st2" cx="26" cy="292.5" r="2.5"/>
							<circle class="st2" cx="18.8" cy="284.8" r="2.5"/>
							<circle class="st2" cx="14.1" cy="291.1" r="2.5"/>
							<circle class="st2" cx="6.1" cy="290" r="2.5"/>
							<circle class="st2" cx="9.1" cy="283.9" r="2.5"/>
							<circle class="st2" cx="2.5" cy="279.8" r="2.5"/>
							<circle class="st2" cx="23.5" cy="279.8" r="2.5"/>
						</g>
					</g>
				</g>
				<g>
					<g>
						<g>
							<rect x="1113.7" y="260.3" class="st2" width="1.3" height="16.2"/>
							<rect x="1104.4" y="260.3" class="st2" width="1.3" height="16.2"/>
							<rect x="1095" y="260.3" class="st2" width="1.3" height="16.2"/>
							<rect x="1085.6" y="260.3" class="st2" width="1.3" height="16.2"/>
							<rect x="1044.2" y="260.3" class="st2" width="1.3" height="16.2"/>
							<rect x="1034.9" y="260.3" class="st2" width="1.3" height="16.2"/>
							<rect x="1025.4" y="260.3" class="st2" width="1.3" height="16.2"/>
							<rect x="1016" y="260.3" class="st2" width="1.3" height="16.2"/>
							<circle class="st2" cx="1077.5" cy="274.5" r="2.5"/>
							<circle class="st2" cx="1070.3" cy="266.8" r="2.5"/>
							<circle class="st2" cx="1065.6" cy="273.1" r="2.5"/>
							<circle class="st2" cx="1057.5" cy="272" r="2.5"/>
							<circle class="st2" cx="1060.6" cy="265.9" r="2.5"/>
							<circle class="st2" cx="1053.9" cy="261.8" r="2.5"/>
							<circle class="st2" cx="1075" cy="261.8" r="2.5"/>
							<circle class="st2" cx="1008" cy="274.5" r="2.5"/>
							<circle class="st2" cx="1000.8" cy="266.8" r="2.5"/>
							<circle class="st2" cx="996" cy="273.1" r="2.5"/>
							<circle class="st2" cx="988" cy="272" r="2.5"/>
							<circle class="st2" cx="991" cy="265.9" r="2.5"/>
							<circle class="st2" cx="984.4" cy="261.8" r="2.5"/>
							<circle class="st2" cx="1005.5" cy="261.8" r="2.5"/>
						</g>
						<g>
							<rect x="973.7" y="260.3" class="st2" width="1.3" height="16.2"/>
							<rect x="964.4" y="260.3" class="st2" width="1.3" height="16.2"/>
							<rect x="955" y="260.3" class="st2" width="1.3" height="16.2"/>
							<rect x="945.6" y="260.3" class="st2" width="1.3" height="16.2"/>
							<rect x="904.2" y="260.3" class="st2" width="1.3" height="16.2"/>
							<rect x="894.9" y="260.3" class="st2" width="1.3" height="16.2"/>
							<rect x="885.5" y="260.3" class="st2" width="1.3" height="16.2"/>
							<rect x="876.1" y="260.3" class="st2" width="1.3" height="16.2"/>
							<circle class="st2" cx="937.5" cy="274.5" r="2.5"/>
							<circle class="st2" cx="930.3" cy="266.8" r="2.5"/>
							<circle class="st2" cx="925.6" cy="273.1" r="2.5"/>
							<circle class="st2" cx="917.6" cy="272" r="2.5"/>
							<circle class="st2" cx="920.6" cy="265.9" r="2.5"/>
							<circle class="st2" cx="914" cy="261.8" r="2.5"/>
							<circle class="st2" cx="935" cy="261.8" r="2.5"/>
							<circle class="st2" cx="868" cy="274.5" r="2.5"/>
							<circle class="st2" cx="860.8" cy="266.8" r="2.5"/>
							<circle class="st2" cx="856.1" cy="273.1" r="2.5"/>
							<circle class="st2" cx="848" cy="272" r="2.5"/>
							<circle class="st2" cx="851.1" cy="265.9" r="2.5"/>
							<circle class="st2" cx="844.5" cy="261.8" r="2.5"/>
							<circle class="st2" cx="865.5" cy="261.8" r="2.5"/>
						</g>
						<g>
							<rect x="833.8" y="260.3" class="st2" width="1.3" height="16.2"/>
							<rect x="824.5" y="260.3" class="st2" width="1.3" height="16.2"/>
							<rect x="815" y="260.3" class="st2" width="1.3" height="16.2"/>
							<rect x="805.6" y="260.3" class="st2" width="1.3" height="16.2"/>
							<rect x="764.2" y="260.3" class="st2" width="1.3" height="16.2"/>
							<rect x="755" y="260.3" class="st2" width="1.3" height="16.2"/>
							<rect x="745.5" y="260.3" class="st2" width="1.3" height="16.2"/>
							<rect x="736.1" y="260.3" class="st2" width="1.3" height="16.2"/>
							<circle class="st2" cx="797.6" cy="274.5" r="2.5"/>
							<circle class="st2" cx="790.4" cy="266.8" r="2.5"/>
							<circle class="st2" cx="785.7" cy="273.1" r="2.5"/>
							<circle class="st2" cx="777.6" cy="272" r="2.5"/>
							<circle class="st2" cx="780.7" cy="265.9" r="2.5"/>
							<circle class="st2" cx="774" cy="261.8" r="2.5"/>
							<circle class="st2" cx="795.1" cy="261.8" r="2.5"/>
							<circle class="st2" cx="728" cy="274.5" r="2.5"/>
							<circle class="st2" cx="720.8" cy="266.8" r="2.5"/>
							<circle class="st2" cx="716.1" cy="273.1" r="2.5"/>
							<circle class="st2" cx="708.1" cy="272" r="2.5"/>
							<circle class="st2" cx="711.1" cy="265.9" r="2.5"/>
							<circle class="st2" cx="704.5" cy="261.8" r="2.5"/>
							<circle class="st2" cx="725.5" cy="261.8" r="2.5"/>
						</g>
						<g>
							<rect x="693.8" y="260.3" class="st2" width="1.3" height="16.2"/>
							<rect x="684.5" y="260.3" class="st2" width="1.3" height="16.2"/>
							<rect x="675.1" y="260.3" class="st2" width="1.3" height="16.2"/>
							<rect x="665.7" y="260.3" class="st2" width="1.3" height="16.2"/>
							<rect x="624.3" y="260.3" class="st2" width="1.3" height="16.2"/>
							<rect x="615" y="260.3" class="st2" width="1.3" height="16.2"/>
							<rect x="605.6" y="260.3" class="st2" width="1.3" height="16.2"/>
							<rect x="596.2" y="260.3" class="st2" width="1.3" height="16.2"/>
							<circle class="st2" cx="657.6" cy="274.5" r="2.5"/>
							<circle class="st2" cx="650.4" cy="266.8" r="2.5"/>
							<circle class="st2" cx="645.7" cy="273.1" r="2.5"/>
							<circle class="st2" cx="637.7" cy="272" r="2.5"/>
							<circle class="st2" cx="640.7" cy="265.9" r="2.5"/>
							<circle class="st2" cx="634.1" cy="261.8" r="2.5"/>
							<circle class="st2" cx="655.1" cy="261.8" r="2.5"/>
							<circle class="st2" cx="588.1" cy="274.5" r="2.5"/>
							<circle class="st2" cx="580.9" cy="266.8" r="2.5"/>
							<circle class="st2" cx="576.2" cy="273.1" r="2.5"/>
							<circle class="st2" cx="568.1" cy="272" r="2.5"/>
							<circle class="st2" cx="571.2" cy="265.9" r="2.5"/>
							<circle class="st2" cx="564.5" cy="261.8" r="2.5"/>
							<circle class="st2" cx="585.6" cy="261.8" r="2.5"/>
						</g>
					</g>
					<g>
						<g>
							<rect x="551.6" y="260.3" class="st2" width="1.3" height="16.2"/>
							<rect x="542.3" y="260.3" class="st2" width="1.3" height="16.2"/>
							<rect x="532.9" y="260.3" class="st2" width="1.3" height="16.2"/>
							<rect x="523.5" y="260.3" class="st2" width="1.3" height="16.2"/>
							<rect x="482.1" y="260.3" class="st2" width="1.3" height="16.2"/>
							<rect x="472.8" y="260.3" class="st2" width="1.3" height="16.2"/>
							<rect x="463.4" y="260.3" class="st2" width="1.3" height="16.2"/>
							<rect x="454" y="260.3" class="st2" width="1.3" height="16.2"/>
							<circle class="st2" cx="515.4" cy="274.5" r="2.5"/>
							<circle class="st2" cx="508.2" cy="266.8" r="2.5"/>
							<circle class="st2" cx="503.5" cy="273.1" r="2.5"/>
							<circle class="st2" cx="495.5" cy="272" r="2.5"/>
							<circle class="st2" cx="498.5" cy="265.9" r="2.5"/>
							<circle class="st2" cx="491.9" cy="261.8" r="2.5"/>
							<circle class="st2" cx="512.9" cy="261.8" r="2.5"/>
							<circle class="st2" cx="445.9" cy="274.5" r="2.5"/>
							<circle class="st2" cx="438.7" cy="266.8" r="2.5"/>
							<circle class="st2" cx="434" cy="273.1" r="2.5"/>
							<circle class="st2" cx="426" cy="272" r="2.5"/>
							<circle class="st2" cx="429" cy="265.9" r="2.5"/>
							<circle class="st2" cx="422.4" cy="261.8" r="2.5"/>
							<circle class="st2" cx="443.4" cy="261.8" r="2.5"/>
						</g>
						<g>
							<rect x="411.7" y="260.3" class="st2" width="1.3" height="16.2"/>
							<rect x="402.4" y="260.3" class="st2" width="1.3" height="16.2"/>
							<rect x="393" y="260.3" class="st2" width="1.3" height="16.2"/>
							<rect x="383.5" y="260.3" class="st2" width="1.3" height="16.2"/>
							<rect x="342.2" y="260.3" class="st2" width="1.3" height="16.2"/>
							<rect x="332.9" y="260.3" class="st2" width="1.3" height="16.2"/>
							<rect x="323.5" y="260.3" class="st2" width="1.3" height="16.2"/>
							<rect x="314" y="260.3" class="st2" width="1.3" height="16.2"/>
							<circle class="st2" cx="375.5" cy="274.5" r="2.5"/>
							<circle class="st2" cx="368.3" cy="266.8" r="2.5"/>
							<circle class="st2" cx="363.6" cy="273.1" r="2.5"/>
							<circle class="st2" cx="355.5" cy="272" r="2.5"/>
							<circle class="st2" cx="358.6" cy="265.9" r="2.5"/>
							<circle class="st2" cx="351.9" cy="261.8" r="2.5"/>
							<circle class="st2" cx="373" cy="261.8" r="2.5"/>
							<circle class="st2" cx="306" cy="274.5" r="2.5"/>
							<circle class="st2" cx="298.8" cy="266.8" r="2.5"/>
							<circle class="st2" cx="294" cy="273.1" r="2.5"/>
							<circle class="st2" cx="286" cy="272" r="2.5"/>
							<circle class="st2" cx="289" cy="265.9" r="2.5"/>
							<circle class="st2" cx="282.4" cy="261.8" r="2.5"/>
							<circle class="st2" cx="303.5" cy="261.8" r="2.5"/>
						</g>
						<g>
							<rect x="271.7" y="260.3" class="st2" width="1.3" height="16.2"/>
							<rect x="262.4" y="260.3" class="st2" width="1.3" height="16.2"/>
							<rect x="253" y="260.3" class="st2" width="1.3" height="16.2"/>
							<rect x="243.6" y="260.3" class="st2" width="1.3" height="16.2"/>
							<rect x="202.2" y="260.3" class="st2" width="1.3" height="16.2"/>
							<rect x="192.9" y="260.3" class="st2" width="1.3" height="16.2"/>
							<rect x="183.5" y="260.3" class="st2" width="1.3" height="16.2"/>
							<rect x="174.1" y="260.3" class="st2" width="1.3" height="16.2"/>
							<circle class="st2" cx="235.5" cy="274.5" r="2.5"/>
							<circle class="st2" cx="228.3" cy="266.8" r="2.5"/>
							<circle class="st2" cx="223.6" cy="273.1" r="2.5"/>
							<circle class="st2" cx="215.6" cy="272" r="2.5"/>
							<circle class="st2" cx="218.6" cy="265.9" r="2.5"/>
							<circle class="st2" cx="212" cy="261.8" r="2.5"/>
							<circle class="st2" cx="233" cy="261.8" r="2.5"/>
							<circle class="st2" cx="166" cy="274.5" r="2.5"/>
							<circle class="st2" cx="158.8" cy="266.8" r="2.5"/>
							<circle class="st2" cx="154.1" cy="273.1" r="2.5"/>
							<circle class="st2" cx="146.1" cy="272" r="2.5"/>
							<circle class="st2" cx="149.1" cy="265.9" r="2.5"/>
							<circle class="st2" cx="142.4" cy="261.8" r="2.5"/>
							<circle class="st2" cx="163.5" cy="261.8" r="2.5"/>
						</g>
						<g>
							<rect x="131.8" y="260.3" class="st2" width="1.3" height="16.2"/>
							<rect x="122.5" y="260.3" class="st2" width="1.3" height="16.2"/>
							<rect x="113.1" y="260.3" class="st2" width="1.3" height="16.2"/>
							<rect x="103.6" y="260.3" class="st2" width="1.3" height="16.2"/>
							<rect x="62.2" y="260.3" class="st2" width="1.3" height="16.2"/>
							<rect x="53" y="260.3" class="st2" width="1.3" height="16.2"/>
							<rect x="43.5" y="260.3" class="st2" width="1.3" height="16.2"/>
							<rect x="34.1" y="260.3" class="st2" width="1.3" height="16.2"/>
							<circle class="st2" cx="95.6" cy="274.5" r="2.5"/>
							<circle class="st2" cx="88.4" cy="266.8" r="2.5"/>
							<circle class="st2" cx="83.7" cy="273.1" r="2.5"/>
							<circle class="st2" cx="75.6" cy="272" r="2.5"/>
							<circle class="st2" cx="78.7" cy="265.9" r="2.5"/>
							<circle class="st2" cx="72" cy="261.8" r="2.5"/>
							<circle class="st2" cx="93.1" cy="261.8" r="2.5"/>
							<circle class="st2" cx="26" cy="274.5" r="2.5"/>
							<circle class="st2" cx="18.8" cy="266.8" r="2.5"/>
							<circle class="st2" cx="14.1" cy="273.1" r="2.5"/>
							<circle class="st2" cx="6.1" cy="272" r="2.5"/>
							<circle class="st2" cx="9.1" cy="265.9" r="2.5"/>
							<circle class="st2" cx="2.5" cy="261.8" r="2.5"/>
							<circle class="st2" cx="23.5" cy="261.8" r="2.5"/>
						</g>
					</g>
				</g>
			</g>
		</g>
	</g>
</g>
</svg>
