<svg xmlns="http://www.w3.org/2000/svg" viewBox="0 0 743 1115"><defs><style>.cls-1{isolation:isolate;}.cls-2{fill:#7a6a26;}.cls-3{fill:#581620;}.cls-4,.cls-7{fill:#d3762e;}.cls-5{fill:#a75210;}.cls-6{fill:#9b1d32;}.cls-7{mix-blend-mode:multiply;opacity:0.25;}</style></defs><g class="cls-1"><g id="Calque_1" data-name="Calque 1"><rect class="cls-2" x="4" width="739" height="1117"/><path class="cls-2" d="M410,559.5c0-83.12,3.33-163.12,9.48-238C409.22,196.93,391.14,86.63,367.57,0H293.71C331.38,138.75,355,338,355,559.5c0,220.39-23.39,418.84-60.75,557.5h74.14c23.2-86.29,41-195.66,51.13-319C413.35,723,410,642.81,410,559.5Z"/><path class="cls-3" d="M368.39,1117H470.75c-23.24-86.25-41.07-195.63-51.23-319C409.39,921.34,391.59,1030.71,368.39,1117Z"/><path class="cls-3" d="M471.29,0H367.57c23.57,86.63,41.65,196.93,51.91,321.53C429.71,197,447.76,86.67,471.29,0Z"/><path class="cls-4" d="M484,559c0-221.19,23.56-420.27,61.16-559H471.29c-23.53,86.67-41.58,197-51.81,321.53,6.17,75,9.52,155.16,9.52,238.47,0,83.12-3.33,163.12-9.48,238,10.16,123.4,28,232.78,51.23,319h74.14C507.45,978.32,484,779.66,484,559Z"/><path class="cls-4" d="M419.52,798c6.15-74.85,9.48-154.85,9.48-238,0-83.31-3.35-163.48-9.52-238.47-6.15,74.85-9.48,154.85-9.48,238C410,642.81,413.35,723,419.52,798Z"/><path class="cls-2" d="M619,0H545.16C507.56,138.73,484,337.81,484,559c0,220.66,23.45,419.32,60.89,558H619c-37.51-138.71-61-337.57-61-558.5S581.51,138.71,619,0Z"/><path class="cls-5" d="M632,558c0-220.66,23.45-419.32,60.89-558H619c-37.51,138.71-61,337.57-61,558.5s23.51,419.79,61,558.5h74.14C655.56,978.27,632,779.19,632,558Z"/><path class="cls-4" d="M743,106.36c-23.25,126.11-37,282.17-37,451.14s13.75,325,37,451.14V1117H693.16C655.56,978.27,632,779.19,632,558c0-220.66,23.45-419.32,60.89-558H743Z"/><path class="cls-6" d="M743,1008.64V106.36c-23.25,126.11-37,282.17-37,451.14S719.75,882.53,743,1008.64Z"/><path class="cls-3" d="M378.42,1117H276.05c23.24-86.25,41.07-195.63,51.23-319C337.42,921.34,355.21,1030.71,378.42,1117Z"/><path class="cls-3" d="M275.51,0H379.23c-23.57,86.63-41.65,196.93-51.91,321.53C317.09,197,299,86.67,275.51,0Z"/><path class="cls-4" d="M262.8,559c0-221.19-23.56-420.27-61.15-559h73.86C299,86.67,317.09,197,327.32,321.53c-6.17,75-9.52,155.16-9.52,238.47,0,83.12,3.33,163.12,9.48,238-10.16,123.4-28,232.78-51.23,319H201.92C239.35,978.32,262.8,779.66,262.8,559Z"/><path class="cls-4" d="M327.28,798c-6.15-74.85-9.48-154.85-9.48-238,0-83.31,3.35-163.48,9.52-238.47,6.15,74.85,9.48,154.85,9.48,238C336.8,642.81,333.46,723,327.28,798Z"/><path class="cls-2" d="M127.78,0h73.87c37.59,138.73,61.15,337.81,61.15,559,0,220.66-23.45,419.32-60.88,558H127.78c37.52-138.71,61-337.57,61-558.5S165.3,138.71,127.78,0Z"/><path class="cls-5" d="M114.8,558c0-220.66-23.45-419.32-60.88-558h73.86c37.52,138.71,61,337.57,61,558.5s-23.5,419.79-61,558.5H53.65C91.24,978.27,114.8,779.19,114.8,558Z"/><path class="cls-4" d="M3.8,106.36Q1.94,96.26,0,86.43,1.86,77,3.8,67.9Z"/><path class="cls-4" d="M3.8,106.36c23.25,126.11,37,282.17,37,451.14s-13.75,325-37,451.14V1117H53.64c37.6-138.73,61.16-337.81,61.16-559,0-220.66-23.45-419.32-60.89-558H3.8Z"/><path class="cls-6" d="M3.8,1008.64V106.36c23.25,126.11,37,282.17,37,451.14S27.05,882.53,3.8,1008.64Z"/><polyline class="cls-3" points="0 0 64.89 61.22 0 106.36 80.05 141.68 18.5 196.79 95.68 258.22 25.24 293.35 103.92 351.54 32.61 394.2 108.5 434.38 37 506.46 110.96 543 37 599.2 111 639.88 33.9 695.11 105.69 737.44 28.39 784.6 97.78 837.37 17.45 894.01 82.73 957.49 1.97 997.75 63.51 1061.11 0 1117"/><polyline class="cls-3" points="743 0 678.11 61.22 743 106.36 662.95 141.68 724.5 196.79 647.32 258.22 717.76 293.35 639.08 351.54 710.39 394.2 634.5 434.38 706 506.46 632.04 543 706 599.2 632 639.88 709.1 695.11 637.32 737.44 714.61 784.6 645.22 837.37 725.55 894.01 660.27 957.49 741.03 997.75 679.49 1061.11 743 1117"/><circle class="cls-3" cx="175.5" cy="30.5" r="13.5"/><circle class="cls-3" cx="195.5" cy="125.5" r="13.5"/><circle class="cls-3" cx="208.5" cy="234.5" r="13.5"/><circle class="cls-3" cx="216.5" cy="337.5" r="13.5"/><circle class="cls-3" cx="225.5" cy="461.5" r="13.5"/><circle class="cls-3" cx="225.5" cy="594.5" r="13.5"/><circle class="cls-3" cx="221.5" cy="721.5" r="13.5"/><circle class="cls-3" cx="208.5" cy="865.5" r="13.5"/><circle class="cls-3" cx="188.5" cy="984.5" r="13.5"/><circle class="cls-3" cx="168.5" cy="1084.5" r="13.5"/><circle class="cls-3" cx="574.5" cy="30.5" r="13.5"/><circle class="cls-3" cx="554.5" cy="125.5" r="13.5"/><circle class="cls-3" cx="541.5" cy="234.5" r="13.5"/><circle class="cls-3" cx="533.5" cy="337.5" r="13.5"/><circle class="cls-3" cx="524.5" cy="461.5" r="13.5"/><circle class="cls-3" cx="524.5" cy="594.5" r="13.5"/><circle class="cls-3" cx="528.5" cy="721.5" r="13.5"/><circle class="cls-3" cx="541.5" cy="865.5" r="13.5"/><circle class="cls-3" cx="561.5" cy="984.5" r="13.5"/><circle class="cls-3" cx="581.5" cy="1084.5" r="13.5"/><circle class="cls-3" cx="371.5" cy="557.5" r="19.5"/><path class="cls-7" d="M4,337.5s403.6,162.68,742.8,87.09v240S188,721.11,0,837.05Z"/></g></g></svg>