<?xml version="1.0" encoding="UTF-8"?>
<svg id="Calque_1" data-name="Calque 1" xmlns="http://www.w3.org/2000/svg" xmlns:xlink="http://www.w3.org/1999/xlink" viewBox="0 0 1115 743">
  <defs>
    <style>
      .cls-1 {
        fill: #c8beb5;
      }

      .cls-2 {
        fill: #dedede;
      }

      .cls-3 {
        clip-path: url(#clippath);
      }

      .cls-4 {
        fill: #f50;
      }

      .cls-5 {
        fill: none;
      }

      .cls-6 {
        fill: #4c2014;
      }
    </style>
    <clipPath id="clippath">
      <rect class="cls-5" x="185" y="-187" width="747" height="1115" transform="translate(929 -188) rotate(90)"/>
    </clipPath>
  </defs>
  <rect class="cls-2" x="1" y="-1" width="1115" height="747"/>
  <g class="cls-3">
    <g>
      <g>
        <g>
          <rect class="cls-1" x="1052.2" y="89.02" width="3.16" height="38.89"/>
          <rect class="cls-1" x="1029.86" y="89.02" width="3.16" height="38.89"/>
          <rect class="cls-1" x="1007.25" y="89.02" width="3.16" height="38.89"/>
          <rect class="cls-1" x="984.65" y="89.02" width="3.16" height="38.89"/>
          <circle class="cls-1" cx="1114.87" cy="112.37" r="5.98"/>
          <circle class="cls-1" cx="1103.56" cy="97.08" r="5.98"/>
          <circle class="cls-1" cx="1084.28" cy="99.74" r="5.98"/>
          <circle class="cls-1" cx="1091.6" cy="114.37" r="5.98"/>
          <circle class="cls-1" cx="1075.64" cy="124.34" r="5.98"/>
          <circle class="cls-1" cx="965.25" cy="93.76" r="5.98"/>
          <circle class="cls-1" cx="947.96" cy="112.37" r="5.98"/>
          <circle class="cls-1" cx="936.66" cy="97.08" r="5.98"/>
          <circle class="cls-1" cx="917.38" cy="99.74" r="5.98"/>
          <circle class="cls-1" cx="924.69" cy="114.37" r="5.98"/>
          <circle class="cls-1" cx="908.73" cy="124.34" r="5.98"/>
          <circle class="cls-1" cx="959.27" cy="124.34" r="5.98"/>
        </g>
        <g>
          <rect class="cls-1" x="883.09" y="89.02" width="3.16" height="38.89"/>
          <rect class="cls-1" x="860.75" y="89.02" width="3.16" height="38.89"/>
          <rect class="cls-1" x="838.15" y="89.02" width="3.16" height="38.89"/>
          <rect class="cls-1" x="815.54" y="89.02" width="3.16" height="38.89"/>
          <rect class="cls-1" x="716.2" y="89.02" width="3.16" height="38.89"/>
          <rect class="cls-1" x="693.86" y="89.02" width="3.16" height="38.89"/>
          <rect class="cls-1" x="671.25" y="89.02" width="3.16" height="38.89"/>
          <rect class="cls-1" x="648.65" y="89.02" width="3.16" height="38.89"/>
          <circle class="cls-1" cx="796.16" cy="93.76" r="5.98"/>
          <circle class="cls-1" cx="778.87" cy="112.37" r="5.98"/>
          <circle class="cls-1" cx="767.56" cy="97.08" r="5.98"/>
          <circle class="cls-1" cx="748.28" cy="99.74" r="5.98"/>
          <circle class="cls-1" cx="755.6" cy="114.37" r="5.98"/>
          <circle class="cls-1" cx="739.64" cy="124.34" r="5.98"/>
          <circle class="cls-1" cx="790.17" cy="124.34" r="5.98"/>
          <circle class="cls-1" cx="629.25" cy="93.76" r="5.98"/>
          <circle class="cls-1" cx="611.96" cy="112.37" r="5.98"/>
          <circle class="cls-1" cx="600.66" cy="97.08" r="5.98"/>
          <circle class="cls-1" cx="581.38" cy="99.74" r="5.98"/>
          <circle class="cls-1" cx="588.69" cy="114.37" r="5.98"/>
          <circle class="cls-1" cx="572.73" cy="124.34" r="5.98"/>
          <circle class="cls-1" cx="623.27" cy="124.34" r="5.98"/>
        </g>
        <g>
          <rect class="cls-1" x="547.09" y="89.02" width="3.16" height="38.89"/>
          <rect class="cls-1" x="524.75" y="89.02" width="3.16" height="38.89"/>
          <rect class="cls-1" x="502.15" y="89.02" width="3.16" height="38.89"/>
          <rect class="cls-1" x="479.54" y="89.02" width="3.16" height="38.89"/>
          <rect class="cls-1" x="380.2" y="89.02" width="3.16" height="38.89"/>
          <rect class="cls-1" x="357.86" y="89.02" width="3.16" height="38.89"/>
          <rect class="cls-1" x="335.25" y="89.02" width="3.16" height="38.89"/>
          <rect class="cls-1" x="312.65" y="89.02" width="3.16" height="38.89"/>
          <circle class="cls-1" cx="460.16" cy="93.76" r="5.98"/>
          <circle class="cls-1" cx="442.87" cy="112.37" r="5.98"/>
          <circle class="cls-1" cx="431.56" cy="97.08" r="5.98"/>
          <circle class="cls-1" cx="412.28" cy="99.74" r="5.98"/>
          <circle class="cls-1" cx="419.6" cy="114.37" r="5.98"/>
          <circle class="cls-1" cx="403.64" cy="124.34" r="5.98"/>
          <circle class="cls-1" cx="454.17" cy="124.34" r="5.98"/>
          <circle class="cls-1" cx="293.25" cy="93.76" r="5.98"/>
          <circle class="cls-1" cx="275.96" cy="112.37" r="5.98"/>
          <circle class="cls-1" cx="264.66" cy="97.08" r="5.98"/>
          <circle class="cls-1" cx="245.38" cy="99.74" r="5.98"/>
          <circle class="cls-1" cx="252.69" cy="114.37" r="5.98"/>
          <circle class="cls-1" cx="236.73" cy="124.34" r="5.98"/>
          <circle class="cls-1" cx="287.27" cy="124.34" r="5.98"/>
        </g>
        <g>
          <rect class="cls-1" x="211.09" y="89.02" width="3.16" height="38.89"/>
          <rect class="cls-1" x="188.75" y="89.02" width="3.16" height="38.89"/>
          <rect class="cls-1" x="166.15" y="89.02" width="3.16" height="38.89"/>
          <rect class="cls-1" x="143.54" y="89.02" width="3.16" height="38.89"/>
          <rect class="cls-1" x="44.2" y="89.02" width="3.16" height="38.89"/>
          <rect class="cls-1" x="21.86" y="89.02" width="3.16" height="38.89"/>
          <rect class="cls-1" x="-.75" y="89.02" width="3.16" height="38.89"/>
          <circle class="cls-1" cx="124.16" cy="93.76" r="5.98"/>
          <circle class="cls-1" cx="106.87" cy="112.37" r="5.98"/>
          <circle class="cls-1" cx="95.56" cy="97.08" r="5.98"/>
          <circle class="cls-1" cx="76.28" cy="99.74" r="5.98"/>
          <circle class="cls-1" cx="83.6" cy="114.37" r="5.98"/>
          <circle class="cls-1" cx="67.64" cy="124.34" r="5.98"/>
          <circle class="cls-1" cx="118.17" cy="124.34" r="5.98"/>
        </g>
      </g>
      <g>
        <g>
          <rect class="cls-1" x="1052.2" y="611.92" width="3.16" height="38.89"/>
          <rect class="cls-1" x="1029.86" y="611.92" width="3.16" height="38.89"/>
          <rect class="cls-1" x="1007.25" y="611.92" width="3.16" height="38.89"/>
          <rect class="cls-1" x="984.65" y="611.92" width="3.16" height="38.89"/>
          <circle class="cls-1" cx="1114.87" cy="635.27" r="5.98"/>
          <circle class="cls-1" cx="1103.56" cy="619.98" r="5.98"/>
          <circle class="cls-1" cx="1084.28" cy="622.64" r="5.98"/>
          <circle class="cls-1" cx="1091.6" cy="637.27" r="5.98"/>
          <circle class="cls-1" cx="1075.64" cy="647.24" r="5.98"/>
          <circle class="cls-1" cx="965.25" cy="616.66" r="5.98"/>
          <circle class="cls-1" cx="947.96" cy="635.27" r="5.98"/>
          <circle class="cls-1" cx="936.66" cy="619.98" r="5.98"/>
          <circle class="cls-1" cx="917.38" cy="622.64" r="5.98"/>
          <circle class="cls-1" cx="924.69" cy="637.27" r="5.98"/>
          <circle class="cls-1" cx="908.73" cy="647.24" r="5.98"/>
          <circle class="cls-1" cx="959.27" cy="647.24" r="5.98"/>
        </g>
        <g>
          <rect class="cls-1" x="883.09" y="611.92" width="3.16" height="38.89"/>
          <rect class="cls-1" x="860.75" y="611.92" width="3.16" height="38.89"/>
          <rect class="cls-1" x="838.15" y="611.92" width="3.16" height="38.89"/>
          <rect class="cls-1" x="815.54" y="611.92" width="3.16" height="38.89"/>
          <rect class="cls-1" x="716.2" y="611.92" width="3.16" height="38.89"/>
          <rect class="cls-1" x="693.86" y="611.92" width="3.16" height="38.89"/>
          <rect class="cls-1" x="671.25" y="611.92" width="3.16" height="38.89"/>
          <rect class="cls-1" x="648.65" y="611.92" width="3.16" height="38.89"/>
          <circle class="cls-1" cx="796.16" cy="616.66" r="5.98"/>
          <circle class="cls-1" cx="778.87" cy="635.27" r="5.98"/>
          <circle class="cls-1" cx="767.56" cy="619.98" r="5.98"/>
          <circle class="cls-1" cx="748.28" cy="622.64" r="5.98"/>
          <circle class="cls-1" cx="755.6" cy="637.27" r="5.98"/>
          <circle class="cls-1" cx="739.64" cy="647.24" r="5.98"/>
          <circle class="cls-1" cx="790.17" cy="647.24" r="5.98"/>
          <circle class="cls-1" cx="629.25" cy="616.66" r="5.98"/>
          <circle class="cls-1" cx="611.96" cy="635.27" r="5.98"/>
          <circle class="cls-1" cx="600.66" cy="619.98" r="5.98"/>
          <circle class="cls-1" cx="581.38" cy="622.64" r="5.98"/>
          <circle class="cls-1" cx="588.69" cy="637.27" r="5.98"/>
          <circle class="cls-1" cx="572.73" cy="647.24" r="5.98"/>
          <circle class="cls-1" cx="623.27" cy="647.24" r="5.98"/>
        </g>
        <g>
          <rect class="cls-1" x="547.09" y="611.92" width="3.16" height="38.89"/>
          <rect class="cls-1" x="524.75" y="611.92" width="3.16" height="38.89"/>
          <rect class="cls-1" x="502.15" y="611.92" width="3.16" height="38.89"/>
          <rect class="cls-1" x="479.54" y="611.92" width="3.16" height="38.89"/>
          <rect class="cls-1" x="380.2" y="611.92" width="3.16" height="38.89"/>
          <rect class="cls-1" x="357.86" y="611.92" width="3.16" height="38.89"/>
          <rect class="cls-1" x="335.25" y="611.92" width="3.16" height="38.89"/>
          <rect class="cls-1" x="312.65" y="611.92" width="3.16" height="38.89"/>
          <circle class="cls-1" cx="460.16" cy="616.66" r="5.98"/>
          <circle class="cls-1" cx="442.87" cy="635.27" r="5.98"/>
          <circle class="cls-1" cx="431.56" cy="619.98" r="5.98"/>
          <circle class="cls-1" cx="412.28" cy="622.64" r="5.98"/>
          <circle class="cls-1" cx="419.6" cy="637.27" r="5.98"/>
          <circle class="cls-1" cx="403.64" cy="647.24" r="5.98"/>
          <circle class="cls-1" cx="454.17" cy="647.24" r="5.98"/>
          <circle class="cls-1" cx="293.25" cy="616.66" r="5.98"/>
          <circle class="cls-1" cx="275.96" cy="635.27" r="5.98"/>
          <circle class="cls-1" cx="264.66" cy="619.98" r="5.98"/>
          <circle class="cls-1" cx="245.38" cy="622.64" r="5.98"/>
          <circle class="cls-1" cx="252.69" cy="637.27" r="5.98"/>
          <circle class="cls-1" cx="236.73" cy="647.24" r="5.98"/>
          <circle class="cls-1" cx="287.27" cy="647.24" r="5.98"/>
        </g>
        <g>
          <rect class="cls-1" x="211.09" y="611.92" width="3.16" height="38.89"/>
          <rect class="cls-1" x="188.75" y="611.92" width="3.16" height="38.89"/>
          <rect class="cls-1" x="166.15" y="611.92" width="3.16" height="38.89"/>
          <rect class="cls-1" x="143.54" y="611.92" width="3.16" height="38.89"/>
          <rect class="cls-1" x="44.2" y="611.92" width="3.16" height="38.89"/>
          <rect class="cls-1" x="21.86" y="611.92" width="3.16" height="38.89"/>
          <rect class="cls-1" x="-.75" y="611.92" width="3.16" height="38.89"/>
          <circle class="cls-1" cx="124.16" cy="616.66" r="5.98"/>
          <circle class="cls-1" cx="106.87" cy="635.27" r="5.98"/>
          <circle class="cls-1" cx="95.56" cy="619.98" r="5.98"/>
          <circle class="cls-1" cx="76.28" cy="622.64" r="5.98"/>
          <circle class="cls-1" cx="83.6" cy="637.27" r="5.98"/>
          <circle class="cls-1" cx="67.64" cy="647.24" r="5.98"/>
          <circle class="cls-1" cx="118.17" cy="647.24" r="5.98"/>
        </g>
      </g>
      <g>
        <g>
          <rect class="cls-6" x="1105.65" y="30.4" width="9.9" height="9.9" rx="4.95" ry="4.95" transform="translate(1920.92 -724.97) rotate(135)"/>
          <path class="cls-6" d="M1076.37,22.97l12.05,12.05c.18,.18,.18,.48,0,.66l-12.05,12.05v1.98c.21-.1,.4-.23,.57-.4l12.56-12.56c.39-.39,.58-.89,.58-1.4s-.19-1.02-.58-1.4l-12.56-12.56c-.17-.17-.36-.3-.57-.4v1.98Z"/>
          <path class="cls-6" d="M1111.47,55.77c-.05,.02-.1,.04-.15,.05,.05-.01,.1-.03,.15-.05Z"/>
          <path class="cls-6" d="M1111.5,55.76s.1-.05,.14-.08c-.05,.03-.09,.05-.14,.08Z"/>
          <path class="cls-6" d="M1110.51,55.77s-.1-.05-.14-.08c.05,.03,.09,.05,.14,.08Z"/>
          <path class="cls-6" d="M1110.35,55.68c-.05-.03-.1-.07-.15-.12,.05,.04,.1,.08,.15,.12Z"/>
          <path class="cls-6" d="M1110.69,55.83c-.05-.01-.1-.03-.16-.05,.05,.02,.1,.04,.16,.05Z"/>
          <path class="cls-6" d="M1111.67,55.67c.05-.03,.11-.07,.15-.12-.05,.04-.1,.08-.15,.12Z"/>
          <path class="cls-6" d="M1111.32,55.83c-.06,.02-.12,.03-.18,.03,.06,0,.12-.02,.18-.03Z"/>
          <path class="cls-6" d="M1111.47,55.77s.02,0,.02,0c0,0-.02,0-.02,0Z"/>
          <path class="cls-6" d="M1110.69,55.83c.06,.02,.12,.03,.18,.03-.06,0-.12-.02-.18-.03Z"/>
          <path class="cls-6" d="M1110.37,55.69s-.02,0-.02-.01c0,0,.02,0,.02,.01Z"/>
          <path class="cls-6" d="M1111.64,55.69s.02,0,.03-.01c0,0-.02,0-.03,.01Z"/>
          <path class="cls-6" d="M1110.53,55.77s-.01,0-.02,0c0,0,.01,0,.02,0Z"/>
          <path class="cls-6" d="M1076.47,56.15s.08-.07,.11-.1l16.46-16.46s.08-.03,.11,0l16.46,16.46c.37,.37,.87,.58,1.4,.58s1.03-.21,1.4-.58l15.98-15.98c.14-.14,.33-.22,.53-.22s.39,.08,.53,.22l15.39,15.39v-2.15l-15.34-15.34c-.14-.18-.35-.28-.58-.28-.1,0-.2,.02-.29,.06l-.04-.03-.14,.14s-.08,.07-.11,.11l-17,17c-.18,.18-.48,.18-.66,0l-17-17c-.14-.18-.35-.28-.58-.28-.1,0-.2,.02-.29,.06l-.04-.03-.15,.15s-.07,.07-.1,.1l-16.29,16.29v2.1l.25-.21Z"/>
          <path class="cls-6" d="M1092.62,32.83l.15,.15,.04-.03c.09,.04,.19,.06,.29,.06,.23,0,.44-.1,.58-.28l17-17c.18-.18,.48-.18,.66,0l17,17s.07,.08,.11,.11l.14,.14,.04-.03c.09,.04,.19,.06,.29,.06,.23,0,.44-.1,.58-.28l15.34-15.34v-2.15l-15.39,15.39c-.14,.14-.33,.22-.53,.22s-.39-.08-.53-.22l-15.98-15.98c-.37-.37-.87-.58-1.4-.58s-1.03,.21-1.4,.58l-16.46,16.46s-.08,.03-.11,0l-16.46-16.46s-.07-.07-.11-.1l-.25-.21v2.1l16.29,16.29s.07,.07,.1,.1Z"/>
        </g>
        <g>
          <g>
            <rect class="cls-4" x="1016.71" y="24.56" width="19.59" height="19.59" rx="8.06" ry="8.06" transform="translate(1776.63 -667.21) rotate(135)"/>
            <polygon class="cls-4" points="1024.24 14.82 1024.24 12.07 1004.22 32.09 1006.97 32.09 1024.24 14.82"/>
            <polygon class="cls-4" points="1046.03 32.09 1048.78 32.09 1028.76 12.07 1028.76 14.82 1046.03 32.09"/>
            <polygon class="cls-4" points="1028.76 53.88 1028.76 56.63 1048.78 36.61 1046.03 36.61 1028.76 53.88"/>
            <polygon class="cls-4" points="1024.24 53.88 1006.97 36.61 1004.22 36.61 1024.24 56.63 1024.24 53.88"/>
          </g>
          <g>
            <rect class="cls-6" x="940.65" y="30.4" width="9.9" height="9.9" rx="4.95" ry="4.95" transform="translate(1639.24 -608.3) rotate(135)"/>
            <path class="cls-6" d="M979.83,47.73l-12.05-12.05c-.18-.18-.18-.48,0-.66l12.05-12.05v-1.98c-.21,.1-.4,.23-.57,.4l-12.56,12.56c-.39,.39-.58,.89-.58,1.4s.19,1.02,.58,1.4l12.56,12.56c.17,.17,.36,.3,.57,.4v-1.98Z"/>
            <path class="cls-6" d="M911.37,22.97l12.05,12.05c.18,.18,.18,.48,0,.66l-12.05,12.05v1.98c.21-.1,.4-.23,.57-.4l12.56-12.56c.39-.39,.58-.89,.58-1.4s-.19-1.02-.58-1.4l-12.56-12.56c-.17-.17-.36-.3-.57-.4v1.98Z"/>
            <path class="cls-6" d="M946.47,55.77c-.05,.02-.1,.04-.15,.05,.05-.01,.1-.03,.15-.05Z"/>
            <path class="cls-6" d="M946.5,55.76s.1-.05,.14-.08c-.05,.03-.09,.05-.14,.08Z"/>
            <path class="cls-6" d="M945.51,55.77s-.1-.05-.14-.08c.05,.03,.09,.05,.14,.08Z"/>
            <path class="cls-6" d="M945.35,55.68c-.05-.03-.1-.07-.15-.12,.05,.04,.1,.08,.15,.12Z"/>
            <path class="cls-6" d="M945.69,55.83c-.05-.01-.1-.03-.16-.05,.05,.02,.1,.04,.16,.05Z"/>
            <path class="cls-6" d="M946.67,55.67c.05-.03,.11-.07,.15-.12-.05,.04-.1,.08-.15,.12Z"/>
            <path class="cls-6" d="M946.32,55.83c-.06,.02-.12,.03-.18,.03,.06,0,.12-.02,.18-.03Z"/>
            <path class="cls-6" d="M946.47,55.77s.02,0,.02,0c0,0-.02,0-.02,0Z"/>
            <path class="cls-6" d="M945.69,55.83c.06,.02,.12,.03,.18,.03-.06,0-.12-.02-.18-.03Z"/>
            <path class="cls-6" d="M945.37,55.69s-.02,0-.02-.01c0,0,.02,0,.02,.01Z"/>
            <path class="cls-6" d="M946.64,55.69s.02,0,.03-.01c0,0-.02,0-.03,.01Z"/>
            <path class="cls-6" d="M945.53,55.77s-.01,0-.02,0c0,0,.01,0,.02,0Z"/>
            <path class="cls-6" d="M911.47,56.15s.08-.07,.11-.1l16.46-16.46s.08-.03,.11,0l16.46,16.46c.37,.37,.87,.58,1.4,.58s1.03-.21,1.4-.58l15.98-15.98c.14-.14,.33-.22,.53-.22s.39,.08,.53,.22l15.39,15.39v-2.15l-15.34-15.34c-.14-.18-.35-.28-.58-.28-.1,0-.2,.02-.29,.06l-.04-.03-.14,.14s-.08,.07-.11,.11l-17,17c-.18,.18-.48,.18-.66,0l-17-17c-.14-.18-.35-.28-.58-.28-.1,0-.2,.02-.29,.06l-.04-.03-.15,.15s-.07,.07-.1,.1l-16.29,16.29v2.1l.25-.21Z"/>
            <path class="cls-6" d="M927.62,32.83l.15,.15,.04-.03c.09,.04,.19,.06,.29,.06,.23,0,.44-.1,.58-.28l17-17c.18-.18,.48-.18,.66,0l17,17s.07,.08,.11,.11l.14,.14,.04-.03c.09,.04,.19,.06,.29,.06,.23,0,.44-.1,.58-.28l15.34-15.34v-2.15l-15.39,15.39c-.14,.14-.33,.22-.53,.22s-.39-.08-.53-.22l-15.98-15.98c-.37-.37-.87-.58-1.4-.58s-1.03,.21-1.4,.58l-16.46,16.46s-.08,.03-.11,0l-16.46-16.46s-.07-.07-.11-.1l-.25-.21v2.1l16.29,16.29s.07,.07,.1,.1Z"/>
          </g>
        </g>
        <g>
          <g>
            <rect class="cls-4" x="845.71" y="24.56" width="19.59" height="19.59" rx="8.06" ry="8.06" transform="translate(1484.72 -546.29) rotate(135)"/>
            <polygon class="cls-4" points="853.24 14.82 853.24 12.07 833.22 32.09 835.97 32.09 853.24 14.82"/>
            <polygon class="cls-4" points="875.03 32.09 877.78 32.09 857.76 12.07 857.76 14.82 875.03 32.09"/>
            <polygon class="cls-4" points="857.76 53.88 857.76 56.63 877.78 36.61 875.03 36.61 857.76 53.88"/>
            <polygon class="cls-4" points="853.24 53.88 835.97 36.61 833.22 36.61 853.24 56.63 853.24 53.88"/>
          </g>
          <g>
            <rect class="cls-6" x="769.65" y="30.4" width="9.9" height="9.9" rx="4.95" ry="4.95" transform="translate(1347.33 -487.38) rotate(135)"/>
            <path class="cls-6" d="M808.83,47.73l-12.05-12.05c-.18-.18-.18-.48,0-.66l12.05-12.05v-1.98c-.21,.1-.4,.23-.57,.4l-12.56,12.56c-.39,.39-.58,.89-.58,1.4s.19,1.02,.58,1.4l12.56,12.56c.17,.17,.36,.3,.57,.4v-1.98Z"/>
            <path class="cls-6" d="M740.37,22.97l12.05,12.05c.18,.18,.18,.48,0,.66l-12.05,12.05v1.98c.21-.1,.4-.23,.57-.4l12.56-12.56c.39-.39,.58-.89,.58-1.4s-.19-1.02-.58-1.4l-12.56-12.56c-.17-.17-.36-.3-.57-.4v1.98Z"/>
            <path class="cls-6" d="M775.47,55.77c-.05,.02-.1,.04-.15,.05,.05-.01,.1-.03,.15-.05Z"/>
            <path class="cls-6" d="M775.5,55.76s.1-.05,.14-.08c-.05,.03-.09,.05-.14,.08Z"/>
            <path class="cls-6" d="M774.51,55.77s-.1-.05-.14-.08c.05,.03,.09,.05,.14,.08Z"/>
            <path class="cls-6" d="M774.35,55.68c-.05-.03-.1-.07-.15-.12,.05,.04,.1,.08,.15,.12Z"/>
            <path class="cls-6" d="M774.69,55.83c-.05-.01-.1-.03-.16-.05,.05,.02,.1,.04,.16,.05Z"/>
            <path class="cls-6" d="M775.67,55.67c.05-.03,.11-.07,.15-.12-.05,.04-.1,.08-.15,.12Z"/>
            <path class="cls-6" d="M775.32,55.83c-.06,.02-.12,.03-.18,.03,.06,0,.12-.02,.18-.03Z"/>
            <path class="cls-6" d="M775.47,55.77s.02,0,.02,0c0,0-.02,0-.02,0Z"/>
            <path class="cls-6" d="M774.69,55.83c.06,.02,.12,.03,.18,.03-.06,0-.12-.02-.18-.03Z"/>
            <path class="cls-6" d="M774.37,55.69s-.02,0-.02-.01c0,0,.02,0,.02,.01Z"/>
            <path class="cls-6" d="M775.64,55.69s.02,0,.03-.01c0,0-.02,0-.03,.01Z"/>
            <path class="cls-6" d="M774.53,55.77s-.01,0-.02,0c0,0,.01,0,.02,0Z"/>
            <path class="cls-6" d="M740.47,56.15s.08-.07,.11-.1l16.46-16.46s.08-.03,.11,0l16.46,16.46c.37,.37,.87,.58,1.4,.58s1.03-.21,1.4-.58l15.98-15.98c.14-.14,.33-.22,.53-.22s.39,.08,.53,.22l15.39,15.39v-2.15l-15.34-15.34c-.14-.18-.35-.28-.58-.28-.1,0-.2,.02-.29,.06l-.04-.03-.14,.14s-.08,.07-.11,.11l-17,17c-.18,.18-.48,.18-.66,0l-17-17c-.14-.18-.35-.28-.58-.28-.1,0-.2,.02-.29,.06l-.04-.03-.15,.15s-.07,.07-.1,.1l-16.29,16.29v2.1l.25-.21Z"/>
            <path class="cls-6" d="M756.62,32.83l.15,.15,.04-.03c.09,.04,.19,.06,.29,.06,.23,0,.44-.1,.58-.28l17-17c.18-.18,.48-.18,.66,0l17,17s.07,.08,.11,.11l.14,.14,.04-.03c.09,.04,.19,.06,.29,.06,.23,0,.44-.1,.58-.28l15.34-15.34v-2.15l-15.39,15.39c-.14,.14-.33,.22-.53,.22s-.39-.08-.53-.22l-15.98-15.98c-.37-.37-.87-.58-1.4-.58s-1.03,.21-1.4,.58l-16.46,16.46s-.08,.03-.11,0l-16.46-16.46s-.07-.07-.11-.1l-.25-.21v2.1l16.29,16.29s.07,.07,.1,.1Z"/>
          </g>
        </g>
        <g>
          <g>
            <rect class="cls-4" x="680.71" y="24.56" width="19.59" height="19.59" rx="8.06" ry="8.06" transform="translate(1203.05 -429.62) rotate(135)"/>
            <polygon class="cls-4" points="688.24 14.82 688.24 12.07 668.22 32.09 670.97 32.09 688.24 14.82"/>
            <polygon class="cls-4" points="710.03 32.09 712.78 32.09 692.76 12.07 692.76 14.82 710.03 32.09"/>
            <polygon class="cls-4" points="692.76 53.88 692.76 56.63 712.78 36.61 710.03 36.61 692.76 53.88"/>
            <polygon class="cls-4" points="688.24 53.88 670.97 36.61 668.22 36.61 688.24 56.63 688.24 53.88"/>
          </g>
          <g>
            <rect class="cls-6" x="604.65" y="30.4" width="9.9" height="9.9" rx="4.95" ry="4.95" transform="translate(1065.66 -370.71) rotate(135)"/>
            <path class="cls-6" d="M643.83,47.73l-12.05-12.05c-.18-.18-.18-.48,0-.66l12.05-12.05v-1.98c-.21,.1-.4,.23-.57,.4l-12.56,12.56c-.39,.39-.58,.89-.58,1.4s.19,1.02,.58,1.4l12.56,12.56c.17,.17,.36,.3,.57,.4v-1.98Z"/>
            <path class="cls-6" d="M575.37,22.97l12.05,12.05c.18,.18,.18,.48,0,.66l-12.05,12.05v1.98c.21-.1,.4-.23,.57-.4l12.56-12.56c.39-.39,.58-.89,.58-1.4s-.19-1.02-.58-1.4l-12.56-12.56c-.17-.17-.36-.3-.57-.4v1.98Z"/>
            <path class="cls-6" d="M610.47,55.77c-.05,.02-.1,.04-.15,.05,.05-.01,.1-.03,.15-.05Z"/>
            <path class="cls-6" d="M610.5,55.76s.1-.05,.14-.08c-.05,.03-.09,.05-.14,.08Z"/>
            <path class="cls-6" d="M609.51,55.77s-.1-.05-.14-.08c.05,.03,.09,.05,.14,.08Z"/>
            <path class="cls-6" d="M609.35,55.68c-.05-.03-.1-.07-.15-.12,.05,.04,.1,.08,.15,.12Z"/>
            <path class="cls-6" d="M609.69,55.83c-.05-.01-.1-.03-.16-.05,.05,.02,.1,.04,.16,.05Z"/>
            <path class="cls-6" d="M610.67,55.67c.05-.03,.11-.07,.15-.12-.05,.04-.1,.08-.15,.12Z"/>
            <path class="cls-6" d="M610.32,55.83c-.06,.02-.12,.03-.18,.03,.06,0,.12-.02,.18-.03Z"/>
            <path class="cls-6" d="M610.47,55.77s.02,0,.02,0c0,0-.02,0-.02,0Z"/>
            <path class="cls-6" d="M609.69,55.83c.06,.02,.12,.03,.18,.03-.06,0-.12-.02-.18-.03Z"/>
            <path class="cls-6" d="M609.37,55.69s-.02,0-.02-.01c0,0,.02,0,.02,.01Z"/>
            <path class="cls-6" d="M610.64,55.69s.02,0,.03-.01c0,0-.02,0-.03,.01Z"/>
            <path class="cls-6" d="M609.53,55.77s-.01,0-.02,0c0,0,.01,0,.02,0Z"/>
            <path class="cls-6" d="M575.47,56.15s.08-.07,.11-.1l16.46-16.46s.08-.03,.11,0l16.46,16.46c.37,.37,.87,.58,1.4,.58s1.03-.21,1.4-.58l15.98-15.98c.14-.14,.33-.22,.53-.22s.39,.08,.53,.22l15.39,15.39v-2.15l-15.34-15.34c-.14-.18-.35-.28-.58-.28-.1,0-.2,.02-.29,.06l-.04-.03-.14,.14s-.08,.07-.11,.11l-17,17c-.18,.18-.48,.18-.66,0l-17-17c-.14-.18-.35-.28-.58-.28-.1,0-.2,.02-.29,.06l-.04-.03-.15,.15s-.07,.07-.1,.1l-16.29,16.29v2.1l.25-.21Z"/>
            <path class="cls-6" d="M591.62,32.83l.15,.15,.04-.03c.09,.04,.19,.06,.29,.06,.23,0,.44-.1,.58-.28l17-17c.18-.18,.48-.18,.66,0l17,17s.07,.08,.11,.11l.14,.14,.04-.03c.09,.04,.19,.06,.29,.06,.23,0,.44-.1,.58-.28l15.34-15.34v-2.15l-15.39,15.39c-.14,.14-.33,.22-.53,.22s-.39-.08-.53-.22l-15.98-15.98c-.37-.37-.87-.58-1.4-.58s-1.03,.21-1.4,.58l-16.46,16.46s-.08,.03-.11,0l-16.46-16.46s-.07-.07-.11-.1l-.25-.21v2.1l16.29,16.29s.07,.07,.1,.1Z"/>
          </g>
        </g>
        <g>
          <rect class="cls-4" x="509.71" y="24.56" width="19.59" height="19.59" rx="8.06" ry="8.06" transform="translate(911.13 -308.7) rotate(135)"/>
          <polygon class="cls-4" points="517.24 14.82 517.24 12.07 497.22 32.09 499.97 32.09 517.24 14.82"/>
          <polygon class="cls-4" points="539.03 32.09 541.78 32.09 521.76 12.07 521.76 14.82 539.03 32.09"/>
          <polygon class="cls-4" points="521.76 53.88 521.76 56.63 541.78 36.61 539.03 36.61 521.76 53.88"/>
          <polygon class="cls-4" points="517.24 53.88 499.97 36.61 497.22 36.61 517.24 56.63 517.24 53.88"/>
        </g>
        <g>
          <rect class="cls-6" x="433.65" y="30.4" width="9.9" height="9.9" rx="4.95" ry="4.95" transform="translate(773.74 -249.79) rotate(135)"/>
          <path class="cls-6" d="M472.83,47.73l-12.05-12.05c-.18-.18-.18-.48,0-.66l12.05-12.05v-1.98c-.21,.1-.4,.23-.57,.4l-12.56,12.56c-.39,.39-.58,.89-.58,1.4s.19,1.02,.58,1.4l12.56,12.56c.17,.17,.36,.3,.57,.4v-1.98Z"/>
          <path class="cls-6" d="M404.37,22.97l12.05,12.05c.18,.18,.18,.48,0,.66l-12.05,12.05v1.98c.21-.1,.4-.23,.57-.4l12.56-12.56c.39-.39,.58-.89,.58-1.4s-.19-1.02-.58-1.4l-12.56-12.56c-.17-.17-.36-.3-.57-.4v1.98Z"/>
          <path class="cls-6" d="M439.47,55.77c-.05,.02-.1,.04-.15,.05,.05-.01,.1-.03,.15-.05Z"/>
          <path class="cls-6" d="M439.5,55.76s.1-.05,.14-.08c-.05,.03-.09,.05-.14,.08Z"/>
          <path class="cls-6" d="M438.51,55.77s-.1-.05-.14-.08c.05,.03,.09,.05,.14,.08Z"/>
          <path class="cls-6" d="M438.35,55.68c-.05-.03-.1-.07-.15-.12,.05,.04,.1,.08,.15,.12Z"/>
          <path class="cls-6" d="M438.69,55.83c-.05-.01-.1-.03-.16-.05,.05,.02,.1,.04,.16,.05Z"/>
          <path class="cls-6" d="M439.67,55.67c.05-.03,.11-.07,.15-.12-.05,.04-.1,.08-.15,.12Z"/>
          <path class="cls-6" d="M439.32,55.83c-.06,.02-.12,.03-.18,.03,.06,0,.12-.02,.18-.03Z"/>
          <path class="cls-6" d="M439.47,55.77s.02,0,.02,0c0,0-.02,0-.02,0Z"/>
          <path class="cls-6" d="M438.69,55.83c.06,.02,.12,.03,.18,.03-.06,0-.12-.02-.18-.03Z"/>
          <path class="cls-6" d="M438.37,55.69s-.02,0-.02-.01c0,0,.02,0,.02,.01Z"/>
          <path class="cls-6" d="M439.64,55.69s.02,0,.03-.01c0,0-.02,0-.03,.01Z"/>
          <path class="cls-6" d="M438.53,55.77s-.01,0-.02,0c0,0,.01,0,.02,0Z"/>
          <path class="cls-6" d="M404.47,56.15s.08-.07,.11-.1l16.46-16.46s.08-.03,.11,0l16.46,16.46c.37,.37,.87,.58,1.4,.58s1.03-.21,1.4-.58l15.98-15.98c.14-.14,.33-.22,.53-.22s.39,.08,.53,.22l15.39,15.39v-2.15l-15.34-15.34c-.14-.18-.35-.28-.58-.28-.1,0-.2,.02-.29,.06l-.04-.03-.14,.14s-.08,.07-.11,.11l-17,17c-.18,.18-.48,.18-.66,0l-17-17c-.14-.18-.35-.28-.58-.28-.1,0-.2,.02-.29,.06l-.04-.03-.15,.15s-.07,.07-.1,.1l-16.29,16.29v2.1l.25-.21Z"/>
          <path class="cls-6" d="M420.62,32.83l.15,.15,.04-.03c.09,.04,.19,.06,.29,.06,.23,0,.44-.1,.58-.28l17-17c.18-.18,.48-.18,.66,0l17,17s.07,.08,.11,.11l.14,.14,.04-.03c.09,.04,.19,.06,.29,.06,.23,0,.44-.1,.58-.28l15.34-15.34v-2.15l-15.39,15.39c-.14,.14-.33,.22-.53,.22s-.39-.08-.53-.22l-15.98-15.98c-.37-.37-.87-.58-1.4-.58s-1.03,.21-1.4,.58l-16.46,16.46s-.08,.03-.11,0l-16.46-16.46s-.07-.07-.11-.1l-.25-.21v2.1l16.29,16.29s.07,.07,.1,.1Z"/>
        </g>
        <g>
          <rect class="cls-4" x="344.71" y="24.56" width="19.59" height="19.59" rx="8.06" ry="8.06" transform="translate(629.46 -192.03) rotate(135)"/>
          <polygon class="cls-4" points="352.24 14.82 352.24 12.07 332.22 32.09 334.97 32.09 352.24 14.82"/>
          <polygon class="cls-4" points="374.03 32.09 376.78 32.09 356.76 12.07 356.76 14.82 374.03 32.09"/>
          <polygon class="cls-4" points="356.76 53.88 356.76 56.63 376.78 36.61 374.03 36.61 356.76 53.88"/>
          <polygon class="cls-4" points="352.24 53.88 334.97 36.61 332.22 36.61 352.24 56.63 352.24 53.88"/>
        </g>
        <g>
          <rect class="cls-6" x="268.65" y="30.4" width="9.9" height="9.9" rx="4.95" ry="4.95" transform="translate(492.07 -133.12) rotate(135)"/>
          <path class="cls-6" d="M307.83,47.73l-12.05-12.05c-.18-.18-.18-.48,0-.66l12.05-12.05v-1.98c-.21,.1-.4,.23-.57,.4l-12.56,12.56c-.39,.39-.58,.89-.58,1.4s.19,1.02,.58,1.4l12.56,12.56c.17,.17,.36,.3,.57,.4v-1.98Z"/>
          <path class="cls-6" d="M239.37,22.97l12.05,12.05c.18,.18,.18,.48,0,.66l-12.05,12.05v1.98c.21-.1,.4-.23,.57-.4l12.56-12.56c.39-.39,.58-.89,.58-1.4s-.19-1.02-.58-1.4l-12.56-12.56c-.17-.17-.36-.3-.57-.4v1.98Z"/>
          <path class="cls-6" d="M274.47,55.77c-.05,.02-.1,.04-.15,.05,.05-.01,.1-.03,.15-.05Z"/>
          <path class="cls-6" d="M274.5,55.76s.1-.05,.14-.08c-.05,.03-.09,.05-.14,.08Z"/>
          <path class="cls-6" d="M273.51,55.77s-.1-.05-.14-.08c.05,.03,.09,.05,.14,.08Z"/>
          <path class="cls-6" d="M273.35,55.68c-.05-.03-.1-.07-.15-.12,.05,.04,.1,.08,.15,.12Z"/>
          <path class="cls-6" d="M273.69,55.83c-.05-.01-.1-.03-.16-.05,.05,.02,.1,.04,.16,.05Z"/>
          <path class="cls-6" d="M274.67,55.67c.05-.03,.11-.07,.15-.12-.05,.04-.1,.08-.15,.12Z"/>
          <path class="cls-6" d="M274.32,55.83c-.06,.02-.12,.03-.18,.03,.06,0,.12-.02,.18-.03Z"/>
          <path class="cls-6" d="M274.47,55.77s.02,0,.02,0c0,0-.02,0-.02,0Z"/>
          <path class="cls-6" d="M273.69,55.83c.06,.02,.12,.03,.18,.03-.06,0-.12-.02-.18-.03Z"/>
          <path class="cls-6" d="M273.37,55.69s-.02,0-.02-.01c0,0,.02,0,.02,.01Z"/>
          <path class="cls-6" d="M274.64,55.69s.02,0,.03-.01c0,0-.02,0-.03,.01Z"/>
          <path class="cls-6" d="M273.53,55.77s-.01,0-.02,0c0,0,.01,0,.02,0Z"/>
          <path class="cls-6" d="M239.47,56.15s.08-.07,.11-.1l16.46-16.46s.08-.03,.11,0l16.46,16.46c.37,.37,.87,.58,1.4,.58s1.03-.21,1.4-.58l15.98-15.98c.14-.14,.33-.22,.53-.22s.39,.08,.53,.22l15.39,15.39v-2.15l-15.34-15.34c-.14-.18-.35-.28-.58-.28-.1,0-.2,.02-.29,.06l-.04-.03-.14,.14s-.08,.07-.11,.11l-17,17c-.18,.18-.48,.18-.66,0l-17-17c-.14-.18-.35-.28-.58-.28-.1,0-.2,.02-.29,.06l-.04-.03-.15,.15s-.07,.07-.1,.1l-16.29,16.29v2.1l.25-.21Z"/>
          <path class="cls-6" d="M255.62,32.83l.15,.15,.04-.03c.09,.04,.19,.06,.29,.06,.23,0,.44-.1,.58-.28l17-17c.18-.18,.48-.18,.66,0l17,17s.07,.08,.11,.11l.14,.14,.04-.03c.09,.04,.19,.06,.29,.06,.23,0,.44-.1,.58-.28l15.34-15.34v-2.15l-15.39,15.39c-.14,.14-.33,.22-.53,.22s-.39-.08-.53-.22l-15.98-15.98c-.37-.37-.87-.58-1.4-.58s-1.03,.21-1.4,.58l-16.46,16.46s-.08,.03-.11,0l-16.46-16.46s-.07-.07-.11-.1l-.25-.21v2.1l16.29,16.29s.07,.07,.1,.1Z"/>
        </g>
        <g>
          <rect class="cls-4" x="173.71" y="24.56" width="19.59" height="19.59" rx="8.06" ry="8.06" transform="translate(337.54 -71.11) rotate(135)"/>
          <polygon class="cls-4" points="181.24 14.82 181.24 12.07 161.22 32.09 163.97 32.09 181.24 14.82"/>
          <polygon class="cls-4" points="203.03 32.09 205.78 32.09 185.76 12.07 185.76 14.82 203.03 32.09"/>
          <polygon class="cls-4" points="185.76 53.88 185.76 56.63 205.78 36.61 203.03 36.61 185.76 53.88"/>
          <polygon class="cls-4" points="181.24 53.88 163.97 36.61 161.22 36.61 181.24 56.63 181.24 53.88"/>
        </g>
        <g>
          <rect class="cls-6" x="97.65" y="30.4" width="9.9" height="9.9" rx="4.95" ry="4.95" transform="translate(200.15 -12.21) rotate(135)"/>
          <path class="cls-6" d="M136.83,47.73l-12.05-12.05c-.18-.18-.18-.48,0-.66l12.05-12.05v-1.98c-.21,.1-.4,.23-.57,.4l-12.56,12.56c-.39,.39-.58,.89-.58,1.4s.19,1.02,.58,1.4l12.56,12.56c.17,.17,.36,.3,.57,.4v-1.98Z"/>
          <path class="cls-6" d="M68.37,22.97l12.05,12.05c.18,.18,.18,.48,0,.66l-12.05,12.05v1.98c.21-.1,.4-.23,.57-.4l12.56-12.56c.39-.39,.58-.89,.58-1.4s-.19-1.02-.58-1.4l-12.56-12.56c-.17-.17-.36-.3-.57-.4v1.98Z"/>
          <path class="cls-6" d="M103.47,55.77c-.05,.02-.1,.04-.15,.05,.05-.01,.1-.03,.15-.05Z"/>
          <path class="cls-6" d="M103.5,55.76s.1-.05,.14-.08c-.05,.03-.09,.05-.14,.08Z"/>
          <path class="cls-6" d="M102.51,55.77s-.1-.05-.14-.08c.05,.03,.09,.05,.14,.08Z"/>
          <path class="cls-6" d="M102.35,55.68c-.05-.03-.1-.07-.15-.12,.05,.04,.1,.08,.15,.12Z"/>
          <path class="cls-6" d="M102.69,55.83c-.05-.01-.1-.03-.16-.05,.05,.02,.1,.04,.16,.05Z"/>
          <path class="cls-6" d="M103.67,55.67c.05-.03,.11-.07,.15-.12-.05,.04-.1,.08-.15,.12Z"/>
          <path class="cls-6" d="M103.32,55.83c-.06,.02-.12,.03-.18,.03,.06,0,.12-.02,.18-.03Z"/>
          <path class="cls-6" d="M103.47,55.77s.02,0,.02,0c0,0-.02,0-.02,0Z"/>
          <path class="cls-6" d="M102.69,55.83c.06,.02,.12,.03,.18,.03-.06,0-.12-.02-.18-.03Z"/>
          <path class="cls-6" d="M102.37,55.69s-.02,0-.02-.01c0,0,.02,0,.02,.01Z"/>
          <path class="cls-6" d="M103.64,55.69s.02,0,.03-.01c0,0-.02,0-.03,.01Z"/>
          <path class="cls-6" d="M102.53,55.77s-.01,0-.02,0c0,0,.01,0,.02,0Z"/>
          <path class="cls-6" d="M68.47,56.15s.08-.07,.11-.1l16.46-16.46s.08-.03,.11,0l16.46,16.46c.37,.37,.87,.58,1.4,.58s1.03-.21,1.4-.58l15.98-15.98c.14-.14,.33-.22,.53-.22s.39,.08,.53,.22l15.39,15.39v-2.15l-15.34-15.34c-.14-.18-.35-.28-.58-.28-.1,0-.2,.02-.29,.06l-.04-.03-.14,.14s-.08,.07-.11,.11l-17,17c-.18,.18-.48,.18-.66,0l-17-17c-.14-.18-.35-.28-.58-.28-.1,0-.2,.02-.29,.06l-.04-.03-.15,.15s-.07,.07-.1,.1l-16.29,16.29v2.1l.25-.21Z"/>
          <path class="cls-6" d="M84.62,32.83l.15,.15,.04-.03c.09,.04,.19,.06,.29,.06,.23,0,.44-.1,.58-.28l17-17c.18-.18,.48-.18,.66,0l17,17s.07,.08,.11,.11l.14,.14,.04-.03c.09,.04,.19,.06,.29,.06,.23,0,.44-.1,.58-.28l15.34-15.34v-2.15l-15.39,15.39c-.14,.14-.33,.22-.53,.22s-.39-.08-.53-.22l-15.98-15.98c-.37-.37-.87-.58-1.4-.58s-1.03,.21-1.4,.58l-16.46,16.46s-.08,.03-.11,0l-16.46-16.46s-.07-.07-.11-.1l-.25-.21v2.1l16.29,16.29s.07,.07,.1,.1Z"/>
        </g>
        <g>
          <rect class="cls-4" x="8.71" y="24.56" width="19.59" height="19.59" rx="8.06" ry="8.06" transform="translate(55.87 45.56) rotate(135)"/>
          <polygon class="cls-4" points="16.24 14.82 16.24 12.07 -3.78 32.09 -1.03 32.09 16.24 14.82"/>
          <polygon class="cls-4" points="38.03 32.09 40.78 32.09 20.76 12.07 20.76 14.82 38.03 32.09"/>
          <polygon class="cls-4" points="20.76 53.88 20.76 56.63 40.78 36.61 38.03 36.61 20.76 53.88"/>
          <polygon class="cls-4" points="16.24 53.88 -1.03 36.61 -3.78 36.61 16.24 56.63 16.24 53.88"/>
        </g>
      </g>
      <g>
        <g>
          <rect class="cls-6" x="1.44" y="702.11" width="9.9" height="9.9" rx="4.95" ry="4.95" transform="translate(501.84 202.57) rotate(45)"/>
          <path class="cls-6" d="M40.63,694.68l-12.05,12.05c-.18,.18-.18,.48,0,.66l12.05,12.05v1.98c-.21-.1-.4-.23-.57-.4l-12.56-12.56c-.39-.39-.58-.89-.58-1.4s.19-1.02,.58-1.4l12.56-12.56c.17-.17,.36-.3,.57-.4v1.98Z"/>
          <path class="cls-6" d="M5.53,727.49c.05,.02,.1,.04,.15,.05-.05-.01-.1-.03-.15-.05Z"/>
          <path class="cls-6" d="M5.5,727.48s-.1-.05-.14-.08c.05,.03,.09,.05,.14,.08Z"/>
          <path class="cls-6" d="M6.49,727.48s.1-.05,.14-.08c-.05,.03-.09,.05-.14,.08Z"/>
          <path class="cls-6" d="M6.65,727.39c.05-.03,.1-.07,.15-.12-.05,.04-.1,.08-.15,.12Z"/>
          <path class="cls-6" d="M6.31,727.54c.05-.01,.1-.03,.16-.05-.05,.02-.1,.04-.16,.05Z"/>
          <path class="cls-6" d="M5.33,727.39c-.05-.03-.11-.07-.15-.12,.05,.04,.1,.08,.15,.12Z"/>
          <path class="cls-6" d="M5.68,727.54c.06,.02,.12,.03,.18,.03-.06,0-.12-.02-.18-.03Z"/>
          <path class="cls-6" d="M5.53,727.49s-.02,0-.02,0c0,0,.02,0,.02,0Z"/>
          <path class="cls-6" d="M6.31,727.54c-.06,.02-.12,.03-.18,.03,.06,0,.12-.02,.18-.03Z"/>
          <path class="cls-6" d="M6.63,727.4s.02,0,.02-.01c0,0-.02,0-.02,.01Z"/>
          <path class="cls-6" d="M5.36,727.4s-.02,0-.03-.01c0,0,.02,0,.03,.01Z"/>
          <path class="cls-6" d="M6.47,727.49s.01,0,.02,0c0,0-.01,0-.02,0Z"/>
          <path class="cls-6" d="M40.53,727.86s-.08-.07-.11-.1l-16.46-16.46s-.08-.03-.11,0l-16.46,16.46c-.37,.37-.87,.58-1.4,.58s-1.03-.21-1.4-.58l-15.98-15.98c-.14-.14-.33-.22-.53-.22s-.39,.08-.53,.22l-15.39,15.39v-2.15l15.34-15.34c.14-.18,.35-.28,.58-.28,.1,0,.2,.02,.29,.06l.04-.03,.14,.14s.08,.07,.11,.11l17,17c.18,.18,.48,.18,.66,0l17-17c.14-.18,.35-.28,.58-.28,.1,0,.2,.02,.29,.06l.04-.03,.15,.15s.07,.07,.1,.1l16.29,16.29v2.1l-.25-.21Z"/>
          <path class="cls-6" d="M24.38,704.55l-.15,.15-.04-.03c-.09,.04-.19,.06-.29,.06-.23,0-.44-.1-.58-.28l-17-17c-.18-.18-.48-.18-.66,0l-17,17s-.07,.08-.11,.11l-.14,.14-.04-.03c-.09,.04-.19,.06-.29,.06-.23,0-.44-.1-.58-.28l-15.34-15.34v-2.15l15.39,15.39c.14,.14,.33,.22,.53,.22s.39-.08,.53-.22l15.98-15.98c.37-.37,.87-.58,1.4-.58s1.03,.21,1.4,.58l16.46,16.46s.08,.03,.11,0l16.46-16.46s.07-.07,.11-.1l.25-.21v2.1l-16.29,16.29s-.07,.07-.1,.1Z"/>
        </g>
        <g>
          <g>
            <rect class="cls-4" x="80.71" y="696.27" width="19.59" height="19.59" rx="8.06" ry="8.06" transform="translate(525.77 142.81) rotate(45)"/>
            <polygon class="cls-4" points="92.76 686.54 92.76 683.79 112.78 703.81 110.03 703.81 92.76 686.54"/>
            <polygon class="cls-4" points="70.97 703.81 68.22 703.81 88.24 683.79 88.24 686.54 70.97 703.81"/>
            <polygon class="cls-4" points="88.24 725.59 88.24 728.34 68.22 708.32 70.97 708.32 88.24 725.59"/>
            <polygon class="cls-4" points="92.76 725.59 110.03 708.32 112.78 708.32 92.76 728.34 92.76 725.59"/>
          </g>
          <g>
            <rect class="cls-6" x="166.44" y="702.11" width="9.9" height="9.9" rx="4.95" ry="4.95" transform="translate(550.17 85.9) rotate(45)"/>
            <path class="cls-6" d="M137.17,719.44l12.05-12.05c.18-.18,.18-.48,0-.66l-12.05-12.05v-1.98c.21,.1,.4,.23,.57,.4l12.56,12.56c.39,.39,.58,.89,.58,1.4s-.19,1.02-.58,1.4l-12.56,12.56c-.17,.17-.36,.3-.57,.4v-1.98Z"/>
            <path class="cls-6" d="M205.63,694.68l-12.05,12.05c-.18,.18-.18,.48,0,.66l12.05,12.05v1.98c-.21-.1-.4-.23-.57-.4l-12.56-12.56c-.39-.39-.58-.89-.58-1.4s.19-1.02,.58-1.4l12.56-12.56c.17-.17,.36-.3,.57-.4v1.98Z"/>
            <path class="cls-6" d="M170.53,727.49c.05,.02,.1,.04,.15,.05-.05-.01-.1-.03-.15-.05Z"/>
            <path class="cls-6" d="M170.5,727.48s-.1-.05-.14-.08c.05,.03,.09,.05,.14,.08Z"/>
            <path class="cls-6" d="M171.49,727.48s.1-.05,.14-.08c-.05,.03-.09,.05-.14,.08Z"/>
            <path class="cls-6" d="M171.65,727.39c.05-.03,.1-.07,.15-.12-.05,.04-.1,.08-.15,.12Z"/>
            <path class="cls-6" d="M171.31,727.54c.05-.01,.1-.03,.16-.05-.05,.02-.1,.04-.16,.05Z"/>
            <path class="cls-6" d="M170.33,727.39c-.05-.03-.11-.07-.15-.12,.05,.04,.1,.08,.15,.12Z"/>
            <path class="cls-6" d="M170.68,727.54c.06,.02,.12,.03,.18,.03-.06,0-.12-.02-.18-.03Z"/>
            <path class="cls-6" d="M170.53,727.49s-.02,0-.02,0c0,0,.02,0,.02,0Z"/>
            <path class="cls-6" d="M171.31,727.54c-.06,.02-.12,.03-.18,.03,.06,0,.12-.02,.18-.03Z"/>
            <path class="cls-6" d="M171.63,727.4s.02,0,.02-.01c0,0-.02,0-.02,.01Z"/>
            <path class="cls-6" d="M170.36,727.4s-.02,0-.03-.01c0,0,.02,0,.03,.01Z"/>
            <path class="cls-6" d="M171.47,727.49s.01,0,.02,0c0,0-.01,0-.02,0Z"/>
            <path class="cls-6" d="M205.53,727.86s-.08-.07-.11-.1l-16.46-16.46s-.08-.03-.11,0l-16.46,16.46c-.37,.37-.87,.58-1.4,.58s-1.03-.21-1.4-.58l-15.98-15.98c-.14-.14-.33-.22-.53-.22s-.39,.08-.53,.22l-15.39,15.39v-2.15l15.34-15.34c.14-.18,.35-.28,.58-.28,.1,0,.2,.02,.29,.06l.04-.03,.14,.14s.08,.07,.11,.11l17,17c.18,.18,.48,.18,.66,0l17-17c.14-.18,.35-.28,.58-.28,.1,0,.2,.02,.29,.06l.04-.03,.15,.15s.07,.07,.1,.1l16.29,16.29v2.1l-.25-.21Z"/>
            <path class="cls-6" d="M189.38,704.55l-.15,.15-.04-.03c-.09,.04-.19,.06-.29,.06-.23,0-.44-.1-.58-.28l-17-17c-.18-.18-.48-.18-.66,0l-17,17s-.07,.08-.11,.11l-.14,.14-.04-.03c-.09,.04-.19,.06-.29,.06-.23,0-.44-.1-.58-.28l-15.34-15.34v-2.15l15.39,15.39c.14,.14,.33,.22,.53,.22s.39-.08,.53-.22l15.98-15.98c.37-.37,.87-.58,1.4-.58s1.03,.21,1.4,.58l16.46,16.46s.08,.03,.11,0l16.46-16.46s.07-.07,.11-.1l.25-.21v2.1l-16.29,16.29s-.07,.07-.1,.1Z"/>
          </g>
        </g>
        <g>
          <g>
            <rect class="cls-4" x="251.71" y="696.27" width="19.59" height="19.59" rx="8.06" ry="8.06" transform="translate(575.85 21.89) rotate(45)"/>
            <polygon class="cls-4" points="263.76 686.54 263.76 683.79 283.78 703.81 281.03 703.81 263.76 686.54"/>
            <polygon class="cls-4" points="241.97 703.81 239.22 703.81 259.24 683.79 259.24 686.54 241.97 703.81"/>
            <polygon class="cls-4" points="259.24 725.59 259.24 728.34 239.22 708.32 241.97 708.32 259.24 725.59"/>
            <polygon class="cls-4" points="263.76 725.59 281.03 708.32 283.78 708.32 263.76 728.34 263.76 725.59"/>
          </g>
          <g>
            <rect class="cls-6" x="337.44" y="702.11" width="9.9" height="9.9" rx="4.95" ry="4.95" transform="translate(600.25 -35.02) rotate(45)"/>
            <path class="cls-6" d="M308.17,719.44l12.05-12.05c.18-.18,.18-.48,0-.66l-12.05-12.05v-1.98c.21,.1,.4,.23,.57,.4l12.56,12.56c.39,.39,.58,.89,.58,1.4s-.19,1.02-.58,1.4l-12.56,12.56c-.17,.17-.36,.3-.57,.4v-1.98Z"/>
            <path class="cls-6" d="M376.63,694.68l-12.05,12.05c-.18,.18-.18,.48,0,.66l12.05,12.05v1.98c-.21-.1-.4-.23-.57-.4l-12.56-12.56c-.39-.39-.58-.89-.58-1.4s.19-1.02,.58-1.4l12.56-12.56c.17-.17,.36-.3,.57-.4v1.98Z"/>
            <path class="cls-6" d="M341.53,727.49c.05,.02,.1,.04,.15,.05-.05-.01-.1-.03-.15-.05Z"/>
            <path class="cls-6" d="M341.5,727.48s-.1-.05-.14-.08c.05,.03,.09,.05,.14,.08Z"/>
            <path class="cls-6" d="M342.49,727.48s.1-.05,.14-.08c-.05,.03-.09,.05-.14,.08Z"/>
            <path class="cls-6" d="M342.65,727.39c.05-.03,.1-.07,.15-.12-.05,.04-.1,.08-.15,.12Z"/>
            <path class="cls-6" d="M342.31,727.54c.05-.01,.1-.03,.16-.05-.05,.02-.1,.04-.16,.05Z"/>
            <path class="cls-6" d="M341.33,727.39c-.05-.03-.11-.07-.15-.12,.05,.04,.1,.08,.15,.12Z"/>
            <path class="cls-6" d="M341.68,727.54c.06,.02,.12,.03,.18,.03-.06,0-.12-.02-.18-.03Z"/>
            <path class="cls-6" d="M341.53,727.49s-.02,0-.02,0c0,0,.02,0,.02,0Z"/>
            <path class="cls-6" d="M342.31,727.54c-.06,.02-.12,.03-.18,.03,.06,0,.12-.02,.18-.03Z"/>
            <path class="cls-6" d="M342.63,727.4s.02,0,.02-.01c0,0-.02,0-.02,.01Z"/>
            <path class="cls-6" d="M341.36,727.4s-.02,0-.03-.01c0,0,.02,0,.03,.01Z"/>
            <path class="cls-6" d="M342.47,727.49s.01,0,.02,0c0,0-.01,0-.02,0Z"/>
            <path class="cls-6" d="M376.53,727.86s-.08-.07-.11-.1l-16.46-16.46s-.08-.03-.11,0l-16.46,16.46c-.37,.37-.87,.58-1.4,.58s-1.03-.21-1.4-.58l-15.98-15.98c-.14-.14-.33-.22-.53-.22s-.39,.08-.53,.22l-15.39,15.39v-2.15l15.34-15.34c.14-.18,.35-.28,.58-.28,.1,0,.2,.02,.29,.06l.04-.03,.14,.14s.08,.07,.11,.11l17,17c.18,.18,.48,.18,.66,0l17-17c.14-.18,.35-.28,.58-.28,.1,0,.2,.02,.29,.06l.04-.03,.15,.15s.07,.07,.1,.1l16.29,16.29v2.1l-.25-.21Z"/>
            <path class="cls-6" d="M360.38,704.55l-.15,.15-.04-.03c-.09,.04-.19,.06-.29,.06-.23,0-.44-.1-.58-.28l-17-17c-.18-.18-.48-.18-.66,0l-17,17s-.07,.08-.11,.11l-.14,.14-.04-.03c-.09,.04-.19,.06-.29,.06-.23,0-.44-.1-.58-.28l-15.34-15.34v-2.15l15.39,15.39c.14,.14,.33,.22,.53,.22s.39-.08,.53-.22l15.98-15.98c.37-.37,.87-.58,1.4-.58s1.03,.21,1.4,.58l16.46,16.46s.08,.03,.11,0l16.46-16.46s.07-.07,.11-.1l.25-.21v2.1l-16.29,16.29s-.07,.07-.1,.1Z"/>
          </g>
        </g>
        <g>
          <g>
            <rect class="cls-4" x="416.71" y="696.27" width="19.59" height="19.59" rx="8.06" ry="8.06" transform="translate(624.18 -94.78) rotate(45)"/>
            <polygon class="cls-4" points="428.76 686.54 428.76 683.79 448.78 703.81 446.03 703.81 428.76 686.54"/>
            <polygon class="cls-4" points="406.97 703.81 404.22 703.81 424.24 683.79 424.24 686.54 406.97 703.81"/>
            <polygon class="cls-4" points="424.24 725.59 424.24 728.34 404.22 708.32 406.97 708.32 424.24 725.59"/>
            <polygon class="cls-4" points="428.76 725.59 446.03 708.32 448.78 708.32 428.76 728.34 428.76 725.59"/>
          </g>
          <g>
            <rect class="cls-6" x="502.44" y="702.11" width="9.9" height="9.9" rx="4.95" ry="4.95" transform="translate(648.58 -151.69) rotate(45)"/>
            <path class="cls-6" d="M473.17,719.44l12.05-12.05c.18-.18,.18-.48,0-.66l-12.05-12.05v-1.98c.21,.1,.4,.23,.57,.4l12.56,12.56c.39,.39,.58,.89,.58,1.4s-.19,1.02-.58,1.4l-12.56,12.56c-.17,.17-.36,.3-.57,.4v-1.98Z"/>
            <path class="cls-6" d="M541.63,694.68l-12.05,12.05c-.18,.18-.18,.48,0,.66l12.05,12.05v1.98c-.21-.1-.4-.23-.57-.4l-12.56-12.56c-.39-.39-.58-.89-.58-1.4s.19-1.02,.58-1.4l12.56-12.56c.17-.17,.36-.3,.57-.4v1.98Z"/>
            <path class="cls-6" d="M506.53,727.49c.05,.02,.1,.04,.15,.05-.05-.01-.1-.03-.15-.05Z"/>
            <path class="cls-6" d="M506.5,727.48s-.1-.05-.14-.08c.05,.03,.09,.05,.14,.08Z"/>
            <path class="cls-6" d="M507.49,727.48s.1-.05,.14-.08c-.05,.03-.09,.05-.14,.08Z"/>
            <path class="cls-6" d="M507.65,727.39c.05-.03,.1-.07,.15-.12-.05,.04-.1,.08-.15,.12Z"/>
            <path class="cls-6" d="M507.31,727.54c.05-.01,.1-.03,.16-.05-.05,.02-.1,.04-.16,.05Z"/>
            <path class="cls-6" d="M506.33,727.39c-.05-.03-.11-.07-.15-.12,.05,.04,.1,.08,.15,.12Z"/>
            <path class="cls-6" d="M506.68,727.54c.06,.02,.12,.03,.18,.03-.06,0-.12-.02-.18-.03Z"/>
            <path class="cls-6" d="M506.53,727.49s-.02,0-.02,0c0,0,.02,0,.02,0Z"/>
            <path class="cls-6" d="M507.31,727.54c-.06,.02-.12,.03-.18,.03,.06,0,.12-.02,.18-.03Z"/>
            <path class="cls-6" d="M507.63,727.4s.02,0,.02-.01c0,0-.02,0-.02,.01Z"/>
            <path class="cls-6" d="M506.36,727.4s-.02,0-.03-.01c0,0,.02,0,.03,.01Z"/>
            <path class="cls-6" d="M507.47,727.49s.01,0,.02,0c0,0-.01,0-.02,0Z"/>
            <path class="cls-6" d="M541.53,727.86s-.08-.07-.11-.1l-16.46-16.46s-.08-.03-.11,0l-16.46,16.46c-.37,.37-.87,.58-1.4,.58s-1.03-.21-1.4-.58l-15.98-15.98c-.14-.14-.33-.22-.53-.22s-.39,.08-.53,.22l-15.39,15.39v-2.15l15.34-15.34c.14-.18,.35-.28,.58-.28,.1,0,.2,.02,.29,.06l.04-.03,.14,.14s.08,.07,.11,.11l17,17c.18,.18,.48,.18,.66,0l17-17c.14-.18,.35-.28,.58-.28,.1,0,.2,.02,.29,.06l.04-.03,.15,.15s.07,.07,.1,.1l16.29,16.29v2.1l-.25-.21Z"/>
            <path class="cls-6" d="M525.38,704.55l-.15,.15-.04-.03c-.09,.04-.19,.06-.29,.06-.23,0-.44-.1-.58-.28l-17-17c-.18-.18-.48-.18-.66,0l-17,17s-.07,.08-.11,.11l-.14,.14-.04-.03c-.09,.04-.19,.06-.29,.06-.23,0-.44-.1-.58-.28l-15.34-15.34v-2.15l15.39,15.39c.14,.14,.33,.22,.53,.22s.39-.08,.53-.22l15.98-15.98c.37-.37,.87-.58,1.4-.58s1.03,.21,1.4,.58l16.46,16.46s.08,.03,.11,0l16.46-16.46s.07-.07,.11-.1l.25-.21v2.1l-16.29,16.29s-.07,.07-.1,.1Z"/>
          </g>
        </g>
        <g>
          <rect class="cls-4" x="587.71" y="696.27" width="19.59" height="19.59" rx="8.06" ry="8.06" transform="translate(674.27 -215.7) rotate(45)"/>
          <polygon class="cls-4" points="599.76 686.54 599.76 683.79 619.78 703.81 617.03 703.81 599.76 686.54"/>
          <polygon class="cls-4" points="577.97 703.81 575.22 703.81 595.24 683.79 595.24 686.54 577.97 703.81"/>
          <polygon class="cls-4" points="595.24 725.59 595.24 728.34 575.22 708.32 577.97 708.32 595.24 725.59"/>
          <polygon class="cls-4" points="599.76 725.59 617.03 708.32 619.78 708.32 599.76 728.34 599.76 725.59"/>
        </g>
        <g>
          <rect class="cls-6" x="673.44" y="702.11" width="9.9" height="9.9" rx="4.95" ry="4.95" transform="translate(698.67 -272.6) rotate(45)"/>
          <path class="cls-6" d="M644.17,719.44l12.05-12.05c.18-.18,.18-.48,0-.66l-12.05-12.05v-1.98c.21,.1,.4,.23,.57,.4l12.56,12.56c.39,.39,.58,.89,.58,1.4s-.19,1.02-.58,1.4l-12.56,12.56c-.17,.17-.36,.3-.57,.4v-1.98Z"/>
          <path class="cls-6" d="M712.63,694.68l-12.05,12.05c-.18,.18-.18,.48,0,.66l12.05,12.05v1.98c-.21-.1-.4-.23-.57-.4l-12.56-12.56c-.39-.39-.58-.89-.58-1.4s.19-1.02,.58-1.4l12.56-12.56c.17-.17,.36-.3,.57-.4v1.98Z"/>
          <path class="cls-6" d="M677.53,727.49c.05,.02,.1,.04,.15,.05-.05-.01-.1-.03-.15-.05Z"/>
          <path class="cls-6" d="M677.5,727.48s-.1-.05-.14-.08c.05,.03,.09,.05,.14,.08Z"/>
          <path class="cls-6" d="M678.49,727.48s.1-.05,.14-.08c-.05,.03-.09,.05-.14,.08Z"/>
          <path class="cls-6" d="M678.65,727.39c.05-.03,.1-.07,.15-.12-.05,.04-.1,.08-.15,.12Z"/>
          <path class="cls-6" d="M678.31,727.54c.05-.01,.1-.03,.16-.05-.05,.02-.1,.04-.16,.05Z"/>
          <path class="cls-6" d="M677.33,727.39c-.05-.03-.11-.07-.15-.12,.05,.04,.1,.08,.15,.12Z"/>
          <path class="cls-6" d="M677.68,727.54c.06,.02,.12,.03,.18,.03-.06,0-.12-.02-.18-.03Z"/>
          <path class="cls-6" d="M677.53,727.49s-.02,0-.02,0c0,0,.02,0,.02,0Z"/>
          <path class="cls-6" d="M678.31,727.54c-.06,.02-.12,.03-.18,.03,.06,0,.12-.02,.18-.03Z"/>
          <path class="cls-6" d="M678.63,727.4s.02,0,.02-.01c0,0-.02,0-.02,.01Z"/>
          <path class="cls-6" d="M677.36,727.4s-.02,0-.03-.01c0,0,.02,0,.03,.01Z"/>
          <path class="cls-6" d="M678.47,727.49s.01,0,.02,0c0,0-.01,0-.02,0Z"/>
          <path class="cls-6" d="M712.53,727.86s-.08-.07-.11-.1l-16.46-16.46s-.08-.03-.11,0l-16.46,16.46c-.37,.37-.87,.58-1.4,.58s-1.03-.21-1.4-.58l-15.98-15.98c-.14-.14-.33-.22-.53-.22s-.39,.08-.53,.22l-15.39,15.39v-2.15l15.34-15.34c.14-.18,.35-.28,.58-.28,.1,0,.2,.02,.29,.06l.04-.03,.14,.14s.08,.07,.11,.11l17,17c.18,.18,.48,.18,.66,0l17-17c.14-.18,.35-.28,.58-.28,.1,0,.2,.02,.29,.06l.04-.03,.15,.15s.07,.07,.1,.1l16.29,16.29v2.1l-.25-.21Z"/>
          <path class="cls-6" d="M696.38,704.55l-.15,.15-.04-.03c-.09,.04-.19,.06-.29,.06-.23,0-.44-.1-.58-.28l-17-17c-.18-.18-.48-.18-.66,0l-17,17s-.07,.08-.11,.11l-.14,.14-.04-.03c-.09,.04-.19,.06-.29,.06-.23,0-.44-.1-.58-.28l-15.34-15.34v-2.15l15.39,15.39c.14,.14,.33,.22,.53,.22s.39-.08,.53-.22l15.98-15.98c.37-.37,.87-.58,1.4-.58s1.03,.21,1.4,.58l16.46,16.46s.08,.03,.11,0l16.46-16.46s.07-.07,.11-.1l.25-.21v2.1l-16.29,16.29s-.07,.07-.1,.1Z"/>
        </g>
        <g>
          <rect class="cls-4" x="752.71" y="696.27" width="19.59" height="19.59" rx="8.06" ry="8.06" transform="translate(722.59 -332.37) rotate(45)"/>
          <polygon class="cls-4" points="764.76 686.54 764.76 683.79 784.78 703.81 782.03 703.81 764.76 686.54"/>
          <polygon class="cls-4" points="742.97 703.81 740.22 703.81 760.24 683.79 760.24 686.54 742.97 703.81"/>
          <polygon class="cls-4" points="760.24 725.59 760.24 728.34 740.22 708.32 742.97 708.32 760.24 725.59"/>
          <polygon class="cls-4" points="764.76 725.59 782.03 708.32 784.78 708.32 764.76 728.34 764.76 725.59"/>
        </g>
        <g>
          <rect class="cls-6" x="838.44" y="702.11" width="9.9" height="9.9" rx="4.95" ry="4.95" transform="translate(746.99 -389.28) rotate(45)"/>
          <path class="cls-6" d="M809.17,719.44l12.05-12.05c.18-.18,.18-.48,0-.66l-12.05-12.05v-1.98c.21,.1,.4,.23,.57,.4l12.56,12.56c.39,.39,.58,.89,.58,1.4s-.19,1.02-.58,1.4l-12.56,12.56c-.17,.17-.36,.3-.57,.4v-1.98Z"/>
          <path class="cls-6" d="M877.63,694.68l-12.05,12.05c-.18,.18-.18,.48,0,.66l12.05,12.05v1.98c-.21-.1-.4-.23-.57-.4l-12.56-12.56c-.39-.39-.58-.89-.58-1.4s.19-1.02,.58-1.4l12.56-12.56c.17-.17,.36-.3,.57-.4v1.98Z"/>
          <path class="cls-6" d="M842.53,727.49c.05,.02,.1,.04,.15,.05-.05-.01-.1-.03-.15-.05Z"/>
          <path class="cls-6" d="M842.5,727.48s-.1-.05-.14-.08c.05,.03,.09,.05,.14,.08Z"/>
          <path class="cls-6" d="M843.49,727.48s.1-.05,.14-.08c-.05,.03-.09,.05-.14,.08Z"/>
          <path class="cls-6" d="M843.65,727.39c.05-.03,.1-.07,.15-.12-.05,.04-.1,.08-.15,.12Z"/>
          <path class="cls-6" d="M843.31,727.54c.05-.01,.1-.03,.16-.05-.05,.02-.1,.04-.16,.05Z"/>
          <path class="cls-6" d="M842.33,727.39c-.05-.03-.11-.07-.15-.12,.05,.04,.1,.08,.15,.12Z"/>
          <path class="cls-6" d="M842.68,727.54c.06,.02,.12,.03,.18,.03-.06,0-.12-.02-.18-.03Z"/>
          <path class="cls-6" d="M842.53,727.49s-.02,0-.02,0c0,0,.02,0,.02,0Z"/>
          <path class="cls-6" d="M843.31,727.54c-.06,.02-.12,.03-.18,.03,.06,0,.12-.02,.18-.03Z"/>
          <path class="cls-6" d="M843.63,727.4s.02,0,.02-.01c0,0-.02,0-.02,.01Z"/>
          <path class="cls-6" d="M842.36,727.4s-.02,0-.03-.01c0,0,.02,0,.03,.01Z"/>
          <path class="cls-6" d="M843.47,727.49s.01,0,.02,0c0,0-.01,0-.02,0Z"/>
          <path class="cls-6" d="M877.53,727.86s-.08-.07-.11-.1l-16.46-16.46s-.08-.03-.11,0l-16.46,16.46c-.37,.37-.87,.58-1.4,.58s-1.03-.21-1.4-.58l-15.98-15.98c-.14-.14-.33-.22-.53-.22s-.39,.08-.53,.22l-15.39,15.39v-2.15l15.34-15.34c.14-.18,.35-.28,.58-.28,.1,0,.2,.02,.29,.06l.04-.03,.14,.14s.08,.07,.11,.11l17,17c.18,.18,.48,.18,.66,0l17-17c.14-.18,.35-.28,.58-.28,.1,0,.2,.02,.29,.06l.04-.03,.15,.15s.07,.07,.1,.1l16.29,16.29v2.1l-.25-.21Z"/>
          <path class="cls-6" d="M861.38,704.55l-.15,.15-.04-.03c-.09,.04-.19,.06-.29,.06-.23,0-.44-.1-.58-.28l-17-17c-.18-.18-.48-.18-.66,0l-17,17s-.07,.08-.11,.11l-.14,.14-.04-.03c-.09,.04-.19,.06-.29,.06-.23,0-.44-.1-.58-.28l-15.34-15.34v-2.15l15.39,15.39c.14,.14,.33,.22,.53,.22s.39-.08,.53-.22l15.98-15.98c.37-.37,.87-.58,1.4-.58s1.03,.21,1.4,.58l16.46,16.46s.08,.03,.11,0l16.46-16.46s.07-.07,.11-.1l.25-.21v2.1l-16.29,16.29s-.07,.07-.1,.1Z"/>
        </g>
        <g>
          <rect class="cls-4" x="923.71" y="696.27" width="19.59" height="19.59" rx="8.06" ry="8.06" transform="translate(772.68 -453.28) rotate(45)"/>
          <polygon class="cls-4" points="935.76 686.54 935.76 683.79 955.78 703.81 953.03 703.81 935.76 686.54"/>
          <polygon class="cls-4" points="913.97 703.81 911.22 703.81 931.24 683.79 931.24 686.54 913.97 703.81"/>
          <polygon class="cls-4" points="931.24 725.59 931.24 728.34 911.22 708.32 913.97 708.32 931.24 725.59"/>
          <polygon class="cls-4" points="935.76 725.59 953.03 708.32 955.78 708.32 935.76 728.34 935.76 725.59"/>
        </g>
        <g>
          <rect class="cls-6" x="1009.44" y="702.11" width="9.9" height="9.9" rx="4.95" ry="4.95" transform="translate(797.08 -510.19) rotate(45)"/>
          <path class="cls-6" d="M980.17,719.44l12.05-12.05c.18-.18,.18-.48,0-.66l-12.05-12.05v-1.98c.21,.1,.4,.23,.57,.4l12.56,12.56c.39,.39,.58,.89,.58,1.4s-.19,1.02-.58,1.4l-12.56,12.56c-.17,.17-.36,.3-.57,.4v-1.98Z"/>
          <path class="cls-6" d="M1048.63,694.68l-12.05,12.05c-.18,.18-.18,.48,0,.66l12.05,12.05v1.98c-.21-.1-.4-.23-.57-.4l-12.56-12.56c-.39-.39-.58-.89-.58-1.4s.19-1.02,.58-1.4l12.56-12.56c.17-.17,.36-.3,.57-.4v1.98Z"/>
          <path class="cls-6" d="M1013.53,727.49c.05,.02,.1,.04,.15,.05-.05-.01-.1-.03-.15-.05Z"/>
          <path class="cls-6" d="M1013.5,727.48s-.1-.05-.14-.08c.05,.03,.09,.05,.14,.08Z"/>
          <path class="cls-6" d="M1014.49,727.48s.1-.05,.14-.08c-.05,.03-.09,.05-.14,.08Z"/>
          <path class="cls-6" d="M1014.65,727.39c.05-.03,.1-.07,.15-.12-.05,.04-.1,.08-.15,.12Z"/>
          <path class="cls-6" d="M1014.31,727.54c.05-.01,.1-.03,.16-.05-.05,.02-.1,.04-.16,.05Z"/>
          <path class="cls-6" d="M1013.33,727.39c-.05-.03-.11-.07-.15-.12,.05,.04,.1,.08,.15,.12Z"/>
          <path class="cls-6" d="M1013.68,727.54c.06,.02,.12,.03,.18,.03-.06,0-.12-.02-.18-.03Z"/>
          <path class="cls-6" d="M1013.53,727.49s-.02,0-.02,0c0,0,.02,0,.02,0Z"/>
          <path class="cls-6" d="M1014.31,727.54c-.06,.02-.12,.03-.18,.03,.06,0,.12-.02,.18-.03Z"/>
          <path class="cls-6" d="M1014.63,727.4s.02,0,.02-.01c0,0-.02,0-.02,.01Z"/>
          <path class="cls-6" d="M1013.36,727.4s-.02,0-.03-.01c0,0,.02,0,.03,.01Z"/>
          <path class="cls-6" d="M1014.47,727.49s.01,0,.02,0c0,0-.01,0-.02,0Z"/>
          <path class="cls-6" d="M1048.53,727.86s-.08-.07-.11-.1l-16.46-16.46s-.08-.03-.11,0l-16.46,16.46c-.37,.37-.87,.58-1.4,.58s-1.03-.21-1.4-.58l-15.98-15.98c-.14-.14-.33-.22-.53-.22s-.39,.08-.53,.22l-15.39,15.39v-2.15l15.34-15.34c.14-.18,.35-.28,.58-.28,.1,0,.2,.02,.29,.06l.04-.03,.14,.14s.08,.07,.11,.11l17,17c.18,.18,.48,.18,.66,0l17-17c.14-.18,.35-.28,.58-.28,.1,0,.2,.02,.29,.06l.04-.03,.15,.15s.07,.07,.1,.1l16.29,16.29v2.1l-.25-.21Z"/>
          <path class="cls-6" d="M1032.38,704.55l-.15,.15-.04-.03c-.09,.04-.19,.06-.29,.06-.23,0-.44-.1-.58-.28l-17-17c-.18-.18-.48-.18-.66,0l-17,17s-.07,.08-.11,.11l-.14,.14-.04-.03c-.09,.04-.19,.06-.29,.06-.23,0-.44-.1-.58-.28l-15.34-15.34v-2.15l15.39,15.39c.14,.14,.33,.22,.53,.22s.39-.08,.53-.22l15.98-15.98c.37-.37,.87-.58,1.4-.58s1.03,.21,1.4,.58l16.46,16.46s.08,.03,.11,0l16.46-16.46s.07-.07,.11-.1l.25-.21v2.1l-16.29,16.29s-.07,.07-.1,.1Z"/>
        </g>
        <g>
          <rect class="cls-4" x="1088.71" y="696.27" width="19.59" height="19.59" rx="8.06" ry="8.06" transform="translate(821.01 -569.96) rotate(45)"/>
          <polygon class="cls-4" points="1100.76 686.54 1100.76 683.79 1120.78 703.81 1118.03 703.81 1100.76 686.54"/>
          <polygon class="cls-4" points="1078.97 703.81 1076.22 703.81 1096.24 683.79 1096.24 686.54 1078.97 703.81"/>
          <polygon class="cls-4" points="1096.24 725.59 1096.24 728.34 1076.22 708.32 1078.97 708.32 1096.24 725.59"/>
          <polygon class="cls-4" points="1100.76 725.59 1118.03 708.32 1120.78 708.32 1100.76 728.34 1100.76 725.59"/>
        </g>
      </g>
    </g>
  </g>
</svg>