<svg id="Calque_1" data-name="Calque 1" xmlns="http://www.w3.org/2000/svg" xmlns:xlink="http://www.w3.org/1999/xlink" viewBox="0 0 743 1115"><defs><style>.cls-1{fill:none;}.cls-2{fill:#dedede;}.cls-3{clip-path:url(#clip-path);}.cls-4{fill:#c8beb5;}.cls-5{fill:#4c2014;}.cls-6{fill:#f50;}</style><clipPath id="clip-path"><rect class="cls-1" x="-2" width="747" height="1115"/></clipPath></defs><rect class="cls-2" width="747" height="1115"/><g class="cls-3"><rect class="cls-4" x="90.02" y="60.64" width="38.89" height="3.16"/><rect class="cls-4" x="90.02" y="82.98" width="38.89" height="3.16"/><rect class="cls-4" x="90.02" y="105.58" width="38.89" height="3.16"/><rect class="cls-4" x="90.02" y="128.19" width="38.89" height="3.16"/><circle class="cls-4" cx="113.37" cy="1.13" r="5.98"/><circle class="cls-4" cx="98.08" cy="12.44" r="5.98"/><circle class="cls-4" cx="100.74" cy="31.72" r="5.98"/><circle class="cls-4" cx="115.37" cy="24.4" r="5.98"/><circle class="cls-4" cx="125.34" cy="40.36" r="5.98"/><circle class="cls-4" cx="94.76" cy="150.75" r="5.98"/><circle class="cls-4" cx="113.37" cy="168.04" r="5.98"/><circle class="cls-4" cx="98.08" cy="179.34" r="5.98"/><circle class="cls-4" cx="100.74" cy="198.62" r="5.98"/><circle class="cls-4" cx="115.37" cy="191.31" r="5.98"/><circle class="cls-4" cx="125.34" cy="207.27" r="5.98"/><circle class="cls-4" cx="125.34" cy="156.73" r="5.98"/><rect class="cls-4" x="90.02" y="229.75" width="38.89" height="3.16"/><rect class="cls-4" x="90.02" y="252.09" width="38.89" height="3.16"/><rect class="cls-4" x="90.02" y="274.69" width="38.89" height="3.16"/><rect class="cls-4" x="90.02" y="297.3" width="38.89" height="3.16"/><rect class="cls-4" x="90.02" y="396.64" width="38.89" height="3.16"/><rect class="cls-4" x="90.02" y="418.98" width="38.89" height="3.16"/><rect class="cls-4" x="90.02" y="441.58" width="38.89" height="3.16"/><rect class="cls-4" x="90.02" y="464.19" width="38.89" height="3.16"/><circle class="cls-4" cx="94.76" cy="319.84" r="5.98"/><circle class="cls-4" cx="113.37" cy="337.13" r="5.98"/><circle class="cls-4" cx="98.08" cy="348.44" r="5.98"/><circle class="cls-4" cx="100.74" cy="367.72" r="5.98"/><circle class="cls-4" cx="115.37" cy="360.4" r="5.98"/><circle class="cls-4" cx="125.34" cy="376.36" r="5.98"/><circle class="cls-4" cx="125.34" cy="325.83" r="5.98"/><circle class="cls-4" cx="94.76" cy="486.75" r="5.98"/><circle class="cls-4" cx="113.37" cy="504.04" r="5.98"/><circle class="cls-4" cx="98.08" cy="515.34" r="5.98"/><circle class="cls-4" cx="100.74" cy="534.62" r="5.98"/><circle class="cls-4" cx="115.37" cy="527.31" r="5.98"/><circle class="cls-4" cx="125.34" cy="543.27" r="5.98"/><circle class="cls-4" cx="125.34" cy="492.73" r="5.98"/><rect class="cls-4" x="90.02" y="565.75" width="38.89" height="3.16"/><rect class="cls-4" x="90.02" y="588.09" width="38.89" height="3.16"/><rect class="cls-4" x="90.02" y="610.69" width="38.89" height="3.16"/><rect class="cls-4" x="90.02" y="633.3" width="38.89" height="3.16"/><rect class="cls-4" x="90.02" y="732.64" width="38.89" height="3.16"/><rect class="cls-4" x="90.02" y="754.98" width="38.89" height="3.16"/><rect class="cls-4" x="90.02" y="777.58" width="38.89" height="3.16"/><rect class="cls-4" x="90.02" y="800.19" width="38.89" height="3.16"/><circle class="cls-4" cx="94.76" cy="655.84" r="5.98"/><circle class="cls-4" cx="113.37" cy="673.13" r="5.98"/><circle class="cls-4" cx="98.08" cy="684.44" r="5.98"/><circle class="cls-4" cx="100.74" cy="703.72" r="5.98"/><circle class="cls-4" cx="115.37" cy="696.4" r="5.98"/><circle class="cls-4" cx="125.34" cy="712.36" r="5.98"/><circle class="cls-4" cx="125.34" cy="661.83" r="5.98"/><circle class="cls-4" cx="94.76" cy="822.75" r="5.98"/><circle class="cls-4" cx="113.37" cy="840.04" r="5.98"/><circle class="cls-4" cx="98.08" cy="851.34" r="5.98"/><circle class="cls-4" cx="100.74" cy="870.62" r="5.98"/><circle class="cls-4" cx="115.37" cy="863.31" r="5.98"/><circle class="cls-4" cx="125.34" cy="879.27" r="5.98"/><circle class="cls-4" cx="125.34" cy="828.73" r="5.98"/><rect class="cls-4" x="90.02" y="901.75" width="38.89" height="3.16"/><rect class="cls-4" x="90.02" y="924.09" width="38.89" height="3.16"/><rect class="cls-4" x="90.02" y="946.69" width="38.89" height="3.16"/><rect class="cls-4" x="90.02" y="969.3" width="38.89" height="3.16"/><rect class="cls-4" x="90.02" y="1068.64" width="38.89" height="3.16"/><rect class="cls-4" x="90.02" y="1090.98" width="38.89" height="3.16"/><rect class="cls-4" x="90.02" y="1113.58" width="38.89" height="3.16"/><circle class="cls-4" cx="94.76" cy="991.84" r="5.98"/><circle class="cls-4" cx="113.37" cy="1009.13" r="5.98"/><circle class="cls-4" cx="98.08" cy="1020.44" r="5.98"/><circle class="cls-4" cx="100.74" cy="1039.72" r="5.98"/><circle class="cls-4" cx="115.37" cy="1032.4" r="5.98"/><circle class="cls-4" cx="125.34" cy="1048.36" r="5.98"/><circle class="cls-4" cx="125.34" cy="997.83" r="5.98"/><rect class="cls-4" x="612.92" y="60.64" width="38.89" height="3.16"/><rect class="cls-4" x="612.92" y="82.98" width="38.89" height="3.16"/><rect class="cls-4" x="612.92" y="105.58" width="38.89" height="3.16"/><rect class="cls-4" x="612.92" y="128.19" width="38.89" height="3.16"/><circle class="cls-4" cx="636.27" cy="1.13" r="5.98"/><circle class="cls-4" cx="620.98" cy="12.44" r="5.98"/><circle class="cls-4" cx="623.64" cy="31.72" r="5.98"/><circle class="cls-4" cx="638.27" cy="24.4" r="5.98"/><circle class="cls-4" cx="648.24" cy="40.36" r="5.98"/><circle class="cls-4" cx="617.66" cy="150.75" r="5.98"/><circle class="cls-4" cx="636.27" cy="168.04" r="5.98"/><circle class="cls-4" cx="620.98" cy="179.34" r="5.98"/><circle class="cls-4" cx="623.64" cy="198.62" r="5.98"/><circle class="cls-4" cx="638.27" cy="191.31" r="5.98"/><circle class="cls-4" cx="648.24" cy="207.27" r="5.98"/><circle class="cls-4" cx="648.24" cy="156.73" r="5.98"/><rect class="cls-4" x="612.92" y="229.75" width="38.89" height="3.16"/><rect class="cls-4" x="612.92" y="252.09" width="38.89" height="3.16"/><rect class="cls-4" x="612.92" y="274.69" width="38.89" height="3.16"/><rect class="cls-4" x="612.92" y="297.3" width="38.89" height="3.16"/><rect class="cls-4" x="612.92" y="396.64" width="38.89" height="3.16"/><rect class="cls-4" x="612.92" y="418.98" width="38.89" height="3.16"/><rect class="cls-4" x="612.92" y="441.58" width="38.89" height="3.16"/><rect class="cls-4" x="612.92" y="464.19" width="38.89" height="3.16"/><circle class="cls-4" cx="617.66" cy="319.84" r="5.98"/><circle class="cls-4" cx="636.27" cy="337.13" r="5.98"/><circle class="cls-4" cx="620.98" cy="348.44" r="5.98"/><circle class="cls-4" cx="623.64" cy="367.72" r="5.98"/><circle class="cls-4" cx="638.27" cy="360.4" r="5.98"/><circle class="cls-4" cx="648.24" cy="376.36" r="5.98"/><circle class="cls-4" cx="648.24" cy="325.83" r="5.98"/><circle class="cls-4" cx="617.66" cy="486.75" r="5.98"/><circle class="cls-4" cx="636.27" cy="504.04" r="5.98"/><circle class="cls-4" cx="620.98" cy="515.34" r="5.98"/><circle class="cls-4" cx="623.64" cy="534.62" r="5.98"/><circle class="cls-4" cx="638.27" cy="527.31" r="5.98"/><circle class="cls-4" cx="648.24" cy="543.27" r="5.98"/><circle class="cls-4" cx="648.24" cy="492.73" r="5.98"/><rect class="cls-4" x="612.92" y="565.75" width="38.89" height="3.16"/><rect class="cls-4" x="612.92" y="588.09" width="38.89" height="3.16"/><rect class="cls-4" x="612.92" y="610.69" width="38.89" height="3.16"/><rect class="cls-4" x="612.92" y="633.3" width="38.89" height="3.16"/><rect class="cls-4" x="612.92" y="732.64" width="38.89" height="3.16"/><rect class="cls-4" x="612.92" y="754.98" width="38.89" height="3.16"/><rect class="cls-4" x="612.92" y="777.58" width="38.89" height="3.16"/><rect class="cls-4" x="612.92" y="800.19" width="38.89" height="3.16"/><circle class="cls-4" cx="617.66" cy="655.84" r="5.98"/><circle class="cls-4" cx="636.27" cy="673.13" r="5.98"/><circle class="cls-4" cx="620.98" cy="684.44" r="5.98"/><circle class="cls-4" cx="623.64" cy="703.72" r="5.98"/><circle class="cls-4" cx="638.27" cy="696.4" r="5.98"/><circle class="cls-4" cx="648.24" cy="712.36" r="5.98"/><circle class="cls-4" cx="648.24" cy="661.83" r="5.98"/><circle class="cls-4" cx="617.66" cy="822.75" r="5.98"/><circle class="cls-4" cx="636.27" cy="840.04" r="5.98"/><circle class="cls-4" cx="620.98" cy="851.34" r="5.98"/><circle class="cls-4" cx="623.64" cy="870.62" r="5.98"/><circle class="cls-4" cx="638.27" cy="863.31" r="5.98"/><circle class="cls-4" cx="648.24" cy="879.27" r="5.98"/><circle class="cls-4" cx="648.24" cy="828.73" r="5.98"/><rect class="cls-4" x="612.92" y="901.75" width="38.89" height="3.16"/><rect class="cls-4" x="612.92" y="924.09" width="38.89" height="3.16"/><rect class="cls-4" x="612.92" y="946.69" width="38.89" height="3.16"/><rect class="cls-4" x="612.92" y="969.3" width="38.89" height="3.16"/><rect class="cls-4" x="612.92" y="1068.64" width="38.89" height="3.16"/><rect class="cls-4" x="612.92" y="1090.98" width="38.89" height="3.16"/><rect class="cls-4" x="612.92" y="1113.58" width="38.89" height="3.16"/><circle class="cls-4" cx="617.66" cy="991.84" r="5.98"/><circle class="cls-4" cx="636.27" cy="1009.13" r="5.98"/><circle class="cls-4" cx="620.98" cy="1020.44" r="5.98"/><circle class="cls-4" cx="623.64" cy="1039.72" r="5.98"/><circle class="cls-4" cx="638.27" cy="1032.4" r="5.98"/><circle class="cls-4" cx="648.24" cy="1048.36" r="5.98"/><circle class="cls-4" cx="648.24" cy="997.83" r="5.98"/><rect class="cls-5" x="31.4" y="0.44" width="9.9" height="9.9" rx="4.95" transform="translate(14.46 -24.12) rotate(45)"/><path class="cls-5" d="M24,39.63,36,27.57a.49.49,0,0,1,.66,0l12,12.06h2a2,2,0,0,0-.4-.57L37.75,26.5a2,2,0,0,0-2.8,0L22.39,39.06a2,2,0,0,0-.4.57Z"/><path class="cls-5" d="M56.77,4.53l.06.15Z"/><path class="cls-5" d="M56.76,4.5a.91.91,0,0,0-.07-.14A.91.91,0,0,1,56.76,4.5Z"/><path class="cls-5" d="M56.77,5.49l-.08.14Z"/><path class="cls-5" d="M56.68,5.65l-.12.16Z"/><path class="cls-5" d="M56.83,5.31l-.06.16Z"/><path class="cls-5" d="M56.67,4.33l-.11-.15Z"/><path class="cls-5" d="M56.83,4.68l0,.19Z"/><path class="cls-5" d="M56.77,4.53v0Z"/><path class="cls-5" d="M56.83,5.31l0-.18Z"/><path class="cls-5" d="M56.69,5.63v0Z"/><path class="cls-5" d="M56.69,4.36l0,0Z"/><path class="cls-5" d="M56.77,5.47v0Z"/><path class="cls-5" d="M57.15,39.53l-.1-.11L40.59,23a.07.07,0,0,1,0-.1L57.05,6.4A2,2,0,0,0,57.63,5a2,2,0,0,0-.58-1.41l-16-16a.75.75,0,0,1-.22-.53.74.74,0,0,1,.22-.52L56.45-28.83H54.31L39-13.5a.78.78,0,0,0-.27.58.68.68,0,0,0,0,.29l0,0,.14.15a.52.52,0,0,0,.11.1l17,17a.47.47,0,0,1,0,.66l-17,17a.75.75,0,0,0-.27.58.64.64,0,0,0,0,.28l0,0,.15.14a.52.52,0,0,0,.1.11L55.26,39.78h2.1Z"/><path class="cls-5" d="M33.83,23.38l.15-.14,0,0a.64.64,0,0,0,0-.28.75.75,0,0,0-.27-.58l-17-17a.47.47,0,0,1,0-.66l17-17a.52.52,0,0,0,.11-.1l.14-.15,0,0a.68.68,0,0,0,0-.29.78.78,0,0,0-.27-.58L18.39-28.83H16.25L31.64-13.44a.74.74,0,0,1,.22.52.75.75,0,0,1-.22.53l-16,16A2,2,0,0,0,15.07,5a2,2,0,0,0,.58,1.4L32.11,22.86a.07.07,0,0,1,0,.1L15.65,39.42l-.1.11-.21.25h2.1L33.73,23.49A.52.52,0,0,0,33.83,23.38Z"/><rect class="cls-6" x="25.56" y="79.71" width="19.59" height="19.59" rx="8.06" transform="translate(73.64 1.22) rotate(45)"/><polygon class="cls-6" points="15.82 91.76 13.07 91.76 33.09 111.78 33.09 109.03 15.82 91.76"/><polygon class="cls-6" points="33.09 69.97 33.09 67.22 13.07 87.24 15.82 87.24 33.09 69.97"/><polygon class="cls-6" points="54.88 87.24 57.63 87.24 37.61 67.22 37.61 69.97 54.88 87.24"/><polygon class="cls-6" points="54.88 91.76 37.61 109.03 37.61 111.78 57.63 91.76 54.88 91.76"/><rect class="cls-5" x="31.4" y="165.44" width="9.9" height="9.9" rx="4.95" transform="translate(131.13 24.2) rotate(45)"/><path class="cls-5" d="M48.73,136.17l-12,12.05a.49.49,0,0,1-.66,0L24,136.17H22a2,2,0,0,0,.4.56L35,149.29a2,2,0,0,0,2.8,0l12.56-12.56a2,2,0,0,0,.4-.56Z"/><path class="cls-5" d="M24,204.63,36,192.57a.49.49,0,0,1,.66,0l12,12.06h2a2,2,0,0,0-.4-.57L37.75,191.5a2,2,0,0,0-2.8,0L22.39,204.06a2,2,0,0,0-.4.57Z"/><path class="cls-5" d="M56.77,169.53l.06.15Z"/><path class="cls-5" d="M56.76,169.5a.91.91,0,0,0-.07-.14A.91.91,0,0,1,56.76,169.5Z"/><path class="cls-5" d="M56.77,170.49l-.08.14Z"/><path class="cls-5" d="M56.68,170.65l-.12.16Z"/><path class="cls-5" d="M56.83,170.31l-.06.16Z"/><path class="cls-5" d="M56.67,169.33l-.11-.15Z"/><path class="cls-5" d="M56.83,169.68l0,.19Z"/><path class="cls-5" d="M56.77,169.53v0Z"/><path class="cls-5" d="M56.83,170.31l0-.18Z"/><path class="cls-5" d="M56.69,170.63v0Z"/><path class="cls-5" d="M56.69,169.36l0,0Z"/><path class="cls-5" d="M56.77,170.47v0Z"/><path class="cls-5" d="M57.15,204.53l-.1-.11L40.59,188a.07.07,0,0,1,0-.1L57.05,171.4a2,2,0,0,0,.58-1.4,2,2,0,0,0-.58-1.41l-16-16a.74.74,0,0,1,0-1.05l15.39-15.39H54.31L39,151.5a.78.78,0,0,0-.27.58.68.68,0,0,0,0,.29l0,0,.14.15a.52.52,0,0,0,.11.1l17,17a.47.47,0,0,1,0,.66l-17,17a.75.75,0,0,0-.27.58.64.64,0,0,0,0,.28l0,.05.15.14a.52.52,0,0,0,.1.11l16.29,16.29h2.1Z"/><path class="cls-5" d="M33.83,188.38l.15-.14,0-.05a.64.64,0,0,0,0-.28.75.75,0,0,0-.27-.58l-17-17a.47.47,0,0,1,0-.66l17-17a.52.52,0,0,0,.11-.1l.14-.15,0,0a.68.68,0,0,0,0-.29.78.78,0,0,0-.27-.58L18.39,136.17H16.25l15.39,15.39a.74.74,0,0,1,0,1.05l-16,16a2,2,0,0,0-.58,1.41,2,2,0,0,0,.58,1.4l16.46,16.46a.07.07,0,0,1,0,.1L15.65,204.42l-.1.11-.21.25h2.1l16.29-16.29A.52.52,0,0,0,33.83,188.38Z"/><rect class="cls-6" x="25.56" y="250.71" width="19.59" height="19.59" rx="8.06" transform="translate(194.56 51.3) rotate(45)"/><polygon class="cls-6" points="15.82 262.76 13.07 262.76 33.09 282.78 33.09 280.03 15.82 262.76"/><polygon class="cls-6" points="33.09 240.97 33.09 238.22 13.07 258.24 15.82 258.24 33.09 240.97"/><polygon class="cls-6" points="54.88 258.24 57.63 258.24 37.61 238.22 37.61 240.97 54.88 258.24"/><polygon class="cls-6" points="54.88 262.76 37.61 280.03 37.61 282.78 57.63 262.76 54.88 262.76"/><rect class="cls-5" x="31.4" y="336.44" width="9.9" height="9.9" rx="4.95" transform="translate(252.05 74.29) rotate(45)"/><path class="cls-5" d="M48.73,307.17l-12,12.05a.49.49,0,0,1-.66,0L24,307.17H22a2,2,0,0,0,.4.56L35,320.29a2,2,0,0,0,2.8,0l12.56-12.56a2,2,0,0,0,.4-.56Z"/><path class="cls-5" d="M24,375.63,36,363.57a.49.49,0,0,1,.66,0l12,12.06h2a2,2,0,0,0-.4-.57L37.75,362.5a2,2,0,0,0-2.8,0L22.39,375.06a2,2,0,0,0-.4.57Z"/><path class="cls-5" d="M56.77,340.53l.06.15Z"/><path class="cls-5" d="M56.76,340.5a.91.91,0,0,0-.07-.14A.91.91,0,0,1,56.76,340.5Z"/><path class="cls-5" d="M56.77,341.49l-.08.14Z"/><path class="cls-5" d="M56.68,341.65l-.12.16Z"/><path class="cls-5" d="M56.83,341.31l-.06.16Z"/><path class="cls-5" d="M56.67,340.33l-.11-.15Z"/><path class="cls-5" d="M56.83,340.68l0,.19Z"/><path class="cls-5" d="M56.77,340.53v0Z"/><path class="cls-5" d="M56.83,341.31l0-.18Z"/><path class="cls-5" d="M56.69,341.63v0Z"/><path class="cls-5" d="M56.69,340.36l0,0Z"/><path class="cls-5" d="M56.77,341.47v0Z"/><path class="cls-5" d="M57.15,375.53l-.1-.11L40.59,359a.07.07,0,0,1,0-.1L57.05,342.4a2,2,0,0,0,.58-1.4,2,2,0,0,0-.58-1.41l-16-16a.74.74,0,0,1,0-1.05l15.39-15.39H54.31L39,322.5a.78.78,0,0,0-.27.58.68.68,0,0,0,0,.29l0,0,.14.15a.52.52,0,0,0,.11.1l17,17a.47.47,0,0,1,0,.66l-17,17a.75.75,0,0,0-.27.58.64.64,0,0,0,0,.28l0,.05.15.14a.52.52,0,0,0,.1.11l16.29,16.29h2.1Z"/><path class="cls-5" d="M33.83,359.38l.15-.14,0-.05a.64.64,0,0,0,0-.28.75.75,0,0,0-.27-.58l-17-17a.47.47,0,0,1,0-.66l17-17a.52.52,0,0,0,.11-.1l.14-.15,0,0a.68.68,0,0,0,0-.29.78.78,0,0,0-.27-.58L18.39,307.17H16.25l15.39,15.39a.74.74,0,0,1,0,1.05l-16,16a2,2,0,0,0-.58,1.41,2,2,0,0,0,.58,1.4l16.46,16.46a.07.07,0,0,1,0,.1L15.65,375.42l-.1.11-.21.25h2.1l16.29-16.29A.52.52,0,0,0,33.83,359.38Z"/><rect class="cls-6" x="25.56" y="415.71" width="19.59" height="19.59" rx="8.06" transform="translate(311.23 99.63) rotate(45)"/><polygon class="cls-6" points="15.82 427.76 13.07 427.76 33.09 447.78 33.09 445.03 15.82 427.76"/><polygon class="cls-6" points="33.09 405.97 33.09 403.22 13.07 423.24 15.82 423.24 33.09 405.97"/><polygon class="cls-6" points="54.88 423.24 57.63 423.24 37.61 403.22 37.61 405.97 54.88 423.24"/><polygon class="cls-6" points="54.88 427.76 37.61 445.03 37.61 447.78 57.63 427.76 54.88 427.76"/><rect class="cls-5" x="31.4" y="501.44" width="9.9" height="9.9" rx="4.95" transform="translate(368.72 122.62) rotate(45)"/><path class="cls-5" d="M48.73,472.17l-12,12.05a.49.49,0,0,1-.66,0L24,472.17H22a2,2,0,0,0,.4.56L35,485.29a2,2,0,0,0,2.8,0l12.56-12.56a2,2,0,0,0,.4-.56Z"/><path class="cls-5" d="M24,540.63,36,528.57a.49.49,0,0,1,.66,0l12,12.06h2a2,2,0,0,0-.4-.57L37.75,527.5a2,2,0,0,0-2.8,0L22.39,540.06a2,2,0,0,0-.4.57Z"/><path class="cls-5" d="M56.77,505.53l.06.15Z"/><path class="cls-5" d="M56.76,505.5a.91.91,0,0,0-.07-.14A.91.91,0,0,1,56.76,505.5Z"/><path class="cls-5" d="M56.77,506.49l-.08.14Z"/><path class="cls-5" d="M56.68,506.65l-.12.16Z"/><path class="cls-5" d="M56.83,506.31l-.06.16Z"/><path class="cls-5" d="M56.67,505.33l-.11-.15Z"/><path class="cls-5" d="M56.83,505.68l0,.19Z"/><path class="cls-5" d="M56.77,505.53v0Z"/><path class="cls-5" d="M56.83,506.31l0-.18Z"/><path class="cls-5" d="M56.69,506.63v0Z"/><path class="cls-5" d="M56.69,505.36l0,0Z"/><path class="cls-5" d="M56.77,506.47v0Z"/><path class="cls-5" d="M57.15,540.53l-.1-.11L40.59,524a.07.07,0,0,1,0-.1L57.05,507.4a2,2,0,0,0,.58-1.4,2,2,0,0,0-.58-1.41l-16-16a.74.74,0,0,1,0-1.05l15.39-15.39H54.31L39,487.5a.78.78,0,0,0-.27.58.68.68,0,0,0,0,.29l0,0,.14.15a.52.52,0,0,0,.11.1l17,17a.47.47,0,0,1,0,.66l-17,17a.75.75,0,0,0-.27.58.64.64,0,0,0,0,.28l0,0,.15.14a.52.52,0,0,0,.1.11l16.29,16.29h2.1Z"/><path class="cls-5" d="M33.83,524.38l.15-.14,0,0a.64.64,0,0,0,0-.28.75.75,0,0,0-.27-.58l-17-17a.47.47,0,0,1,0-.66l17-17a.52.52,0,0,0,.11-.1l.14-.15,0,0a.68.68,0,0,0,0-.29.78.78,0,0,0-.27-.58L18.39,472.17H16.25l15.39,15.39a.74.74,0,0,1,0,1.05l-16,16a2,2,0,0,0-.58,1.41,2,2,0,0,0,.58,1.4l16.46,16.46a.07.07,0,0,1,0,.1L15.65,540.42l-.1.11-.21.25h2.1l16.29-16.29A.52.52,0,0,0,33.83,524.38Z"/><rect class="cls-6" x="25.56" y="586.71" width="19.59" height="19.59" rx="8.06" transform="translate(432.14 149.71) rotate(45)"/><polygon class="cls-6" points="15.82 598.76 13.07 598.76 33.09 618.78 33.09 616.03 15.82 598.76"/><polygon class="cls-6" points="33.09 576.97 33.09 574.22 13.07 594.24 15.82 594.24 33.09 576.97"/><polygon class="cls-6" points="54.88 594.24 57.63 594.24 37.61 574.22 37.61 576.97 54.88 594.24"/><polygon class="cls-6" points="54.88 598.76 37.61 616.03 37.61 618.78 57.63 598.76 54.88 598.76"/><rect class="cls-5" x="31.4" y="672.44" width="9.9" height="9.9" rx="4.95" transform="translate(489.64 172.7) rotate(45)"/><path class="cls-5" d="M48.73,643.17l-12,12.05a.49.49,0,0,1-.66,0L24,643.17H22a2,2,0,0,0,.4.56L35,656.29a2,2,0,0,0,2.8,0l12.56-12.56a2,2,0,0,0,.4-.56Z"/><path class="cls-5" d="M24,711.63,36,699.57a.49.49,0,0,1,.66,0l12,12.06h2a2,2,0,0,0-.4-.57L37.75,698.5a2,2,0,0,0-2.8,0L22.39,711.06a2,2,0,0,0-.4.57Z"/><path class="cls-5" d="M56.77,676.53l.06.15Z"/><path class="cls-5" d="M56.76,676.5l-.07-.14Z"/><path class="cls-5" d="M56.77,677.49l-.08.14Z"/><path class="cls-5" d="M56.68,677.65l-.12.16Z"/><path class="cls-5" d="M56.83,677.31l-.06.16Z"/><path class="cls-5" d="M56.67,676.33l-.11-.15Z"/><path class="cls-5" d="M56.83,676.68l0,.19Z"/><path class="cls-5" d="M56.77,676.53v0Z"/><path class="cls-5" d="M56.83,677.31l0-.18Z"/><path class="cls-5" d="M56.69,677.63v0Z"/><path class="cls-5" d="M56.69,676.36l0,0Z"/><path class="cls-5" d="M56.77,677.47v0Z"/><path class="cls-5" d="M57.15,711.53l-.1-.11L40.59,695a.07.07,0,0,1,0-.1L57.05,678.4a2,2,0,0,0,.58-1.4,2,2,0,0,0-.58-1.41l-16-16a.74.74,0,0,1,0-1.05l15.39-15.39H54.31L39,658.5a.78.78,0,0,0-.27.58.68.68,0,0,0,0,.29l0,0,.14.15a.52.52,0,0,0,.11.1l17,17a.47.47,0,0,1,0,.66l-17,17a.75.75,0,0,0-.27.58.64.64,0,0,0,0,.28l0,0,.15.14a.52.52,0,0,0,.1.11l16.29,16.29h2.1Z"/><path class="cls-5" d="M33.83,695.38l.15-.14,0,0a.64.64,0,0,0,0-.28.75.75,0,0,0-.27-.58l-17-17a.47.47,0,0,1,0-.66l17-17a.52.52,0,0,0,.11-.1l.14-.15,0,0a.68.68,0,0,0,0-.29.78.78,0,0,0-.27-.58L18.39,643.17H16.25l15.39,15.39a.74.74,0,0,1,0,1.05l-16,16a2,2,0,0,0-.58,1.41,2,2,0,0,0,.58,1.4l16.46,16.46a.07.07,0,0,1,0,.1L15.65,711.42l-.1.11-.21.25h2.1l16.29-16.29A.52.52,0,0,0,33.83,695.38Z"/><rect class="cls-6" x="25.56" y="751.71" width="19.59" height="19.59" rx="8.06" transform="translate(548.82 198.04) rotate(45)"/><polygon class="cls-6" points="15.82 763.76 13.07 763.76 33.09 783.78 33.09 781.03 15.82 763.76"/><polygon class="cls-6" points="33.09 741.97 33.09 739.22 13.07 759.24 15.82 759.24 33.09 741.97"/><polygon class="cls-6" points="54.88 759.24 57.63 759.24 37.61 739.22 37.61 741.97 54.88 759.24"/><polygon class="cls-6" points="54.88 763.76 37.61 781.03 37.61 783.78 57.63 763.76 54.88 763.76"/><rect class="cls-5" x="31.4" y="837.44" width="9.9" height="9.9" rx="4.95" transform="translate(606.31 221.03) rotate(45)"/><path class="cls-5" d="M48.73,808.17l-12,12.05a.49.49,0,0,1-.66,0L24,808.17H22a2,2,0,0,0,.4.56L35,821.29a2,2,0,0,0,2.8,0l12.56-12.56a2,2,0,0,0,.4-.56Z"/><path class="cls-5" d="M24,876.63,36,864.57a.49.49,0,0,1,.66,0l12,12.06h2a2,2,0,0,0-.4-.57L37.75,863.5a2,2,0,0,0-2.8,0L22.39,876.06a2,2,0,0,0-.4.57Z"/><path class="cls-5" d="M56.77,841.53l.06.15Z"/><path class="cls-5" d="M56.76,841.5l-.07-.14Z"/><path class="cls-5" d="M56.77,842.49l-.08.14Z"/><path class="cls-5" d="M56.68,842.65l-.12.16Z"/><path class="cls-5" d="M56.83,842.31l-.06.16Z"/><path class="cls-5" d="M56.67,841.33l-.11-.15Z"/><path class="cls-5" d="M56.83,841.68l0,.19Z"/><path class="cls-5" d="M56.77,841.53v0Z"/><path class="cls-5" d="M56.83,842.31l0-.18Z"/><path class="cls-5" d="M56.69,842.63v0Z"/><path class="cls-5" d="M56.69,841.36l0,0Z"/><path class="cls-5" d="M56.77,842.47v0Z"/><path class="cls-5" d="M57.15,876.53l-.1-.11L40.59,860a.07.07,0,0,1,0-.1L57.05,843.4a2,2,0,0,0,.58-1.4,2,2,0,0,0-.58-1.41l-16-16a.74.74,0,0,1,0-1.05l15.39-15.39H54.31L39,823.5a.78.78,0,0,0-.27.58.68.68,0,0,0,0,.29l0,0,.14.15a.52.52,0,0,0,.11.1l17,17a.47.47,0,0,1,0,.66l-17,17a.75.75,0,0,0-.27.58.64.64,0,0,0,0,.28l0,0,.15.14a.52.52,0,0,0,.1.11l16.29,16.29h2.1Z"/><path class="cls-5" d="M33.83,860.38l.15-.14,0,0a.64.64,0,0,0,0-.28.75.75,0,0,0-.27-.58l-17-17a.47.47,0,0,1,0-.66l17-17a.52.52,0,0,0,.11-.1l.14-.15,0,0a.68.68,0,0,0,0-.29.78.78,0,0,0-.27-.58L18.39,808.17H16.25l15.39,15.39a.74.74,0,0,1,0,1.05l-16,16a2,2,0,0,0-.58,1.41,2,2,0,0,0,.58,1.4l16.46,16.46a.07.07,0,0,1,0,.1L15.65,876.42l-.1.11-.21.25h2.1l16.29-16.29A.52.52,0,0,0,33.83,860.38Z"/><rect class="cls-6" x="25.56" y="922.71" width="19.59" height="19.59" rx="8.06" transform="translate(669.73 248.13) rotate(45)"/><polygon class="cls-6" points="15.82 934.76 13.07 934.76 33.09 954.78 33.09 952.03 15.82 934.76"/><polygon class="cls-6" points="33.09 912.97 33.09 910.22 13.07 930.24 15.82 930.24 33.09 912.97"/><polygon class="cls-6" points="54.88 930.24 57.63 930.24 37.61 910.22 37.61 912.97 54.88 930.24"/><polygon class="cls-6" points="54.88 934.76 37.61 952.03 37.61 954.78 57.63 934.76 54.88 934.76"/><rect class="cls-5" x="31.4" y="1008.44" width="9.9" height="9.9" rx="4.95" transform="translate(727.23 271.11) rotate(45)"/><path class="cls-5" d="M48.73,979.17l-12,12.05a.49.49,0,0,1-.66,0L24,979.17H22a2,2,0,0,0,.4.56L35,992.29a2,2,0,0,0,2.8,0l12.56-12.56a2,2,0,0,0,.4-.56Z"/><path class="cls-5" d="M24,1047.63,36,1035.57a.49.49,0,0,1,.66,0l12,12.06h2a2,2,0,0,0-.4-.57L37.75,1034.5a2,2,0,0,0-2.8,0l-12.56,12.56a2,2,0,0,0-.4.57Z"/><path class="cls-5" d="M56.77,1012.53l.06.15Z"/><path class="cls-5" d="M56.76,1012.5l-.07-.14Z"/><path class="cls-5" d="M56.77,1013.49l-.08.14Z"/><path class="cls-5" d="M56.68,1013.65l-.12.16Z"/><path class="cls-5" d="M56.83,1013.31l-.06.16Z"/><path class="cls-5" d="M56.67,1012.33l-.11-.15Z"/><path class="cls-5" d="M56.83,1012.68l0,.19Z"/><path class="cls-5" d="M56.77,1012.53v0Z"/><path class="cls-5" d="M56.83,1013.31l0-.18Z"/><path class="cls-5" d="M56.69,1013.63v0Z"/><path class="cls-5" d="M56.69,1012.36l0,0Z"/><path class="cls-5" d="M56.77,1013.47v0Z"/><path class="cls-5" d="M57.15,1047.53l-.1-.11L40.59,1031a.07.07,0,0,1,0-.1l16.46-16.46a2,2,0,0,0,.58-1.4,2,2,0,0,0-.58-1.41l-16-16a.74.74,0,0,1,0-1.05l15.39-15.39H54.31L39,994.5a.78.78,0,0,0-.27.58.68.68,0,0,0,0,.29l0,0,.14.15a.52.52,0,0,0,.11.1l17,17a.47.47,0,0,1,0,.66l-17,17a.75.75,0,0,0-.27.58.64.64,0,0,0,0,.28l0,0,.15.14a.52.52,0,0,0,.1.11l16.29,16.29h2.1Z"/><path class="cls-5" d="M33.83,1031.38l.15-.14,0,0a.64.64,0,0,0,0-.28.75.75,0,0,0-.27-.58l-17-17a.47.47,0,0,1,0-.66l17-17a.52.52,0,0,0,.11-.1l.14-.15,0,0a.68.68,0,0,0,0-.29.78.78,0,0,0-.27-.58L18.39,979.17H16.25l15.39,15.39a.74.74,0,0,1,0,1.05l-16,16a2,2,0,0,0-.58,1.41,2,2,0,0,0,.58,1.4l16.46,16.46a.07.07,0,0,1,0,.1l-16.46,16.46-.1.11-.21.25h2.1l16.29-16.29A.52.52,0,0,0,33.83,1031.38Z"/><rect class="cls-6" x="25.56" y="1087.71" width="19.59" height="19.59" rx="8.06" transform="translate(786.4 296.45) rotate(45)"/><polygon class="cls-6" points="15.82 1099.76 13.07 1099.76 33.09 1119.78 33.09 1117.03 15.82 1099.76"/><polygon class="cls-6" points="33.09 1077.97 33.09 1075.22 13.07 1095.24 15.82 1095.24 33.09 1077.97"/><polygon class="cls-6" points="54.88 1095.24 57.63 1095.24 37.61 1075.22 37.61 1077.97 54.88 1095.24"/><polygon class="cls-6" points="54.88 1099.76 37.61 1117.03 37.61 1119.78 57.63 1099.76 54.88 1099.76"/><rect class="cls-5" x="703.11" y="1104.65" width="9.9" height="9.9" rx="4.95" transform="translate(-577.22 825.67) rotate(-45)"/><path class="cls-5" d="M695.68,1075.37l12.06,12.06a.48.48,0,0,0,.65,0l12.05-12.06h2a2,2,0,0,1-.4.57l-12.56,12.56a1.94,1.94,0,0,1-1.4.58,2,2,0,0,1-1.4-.58l-12.56-12.56a2,2,0,0,1-.39-.57Z"/><path class="cls-5" d="M728.49,1110.47a.88.88,0,0,0,0-.15A.88.88,0,0,1,728.49,1110.47Z"/><path class="cls-5" d="M728.48,1110.5a1,1,0,0,1-.08.14A1,1,0,0,0,728.48,1110.5Z"/><path class="cls-5" d="M728.48,1109.51a1,1,0,0,0-.08-.14A1,1,0,0,1,728.48,1109.51Z"/><path class="cls-5" d="M728.39,1109.35a.61.61,0,0,0-.12-.16A.61.61,0,0,1,728.39,1109.35Z"/><path class="cls-5" d="M728.54,1109.69a1,1,0,0,0,0-.16A1,1,0,0,1,728.54,1109.69Z"/><path class="cls-5" d="M728.39,1110.67l-.12.15Z"/><path class="cls-5" d="M728.54,1110.32a.58.58,0,0,0,0-.19A.58.58,0,0,1,728.54,1110.32Z"/><path class="cls-5" d="M728.49,1110.47v0Z"/><path class="cls-5" d="M728.54,1109.69a.57.57,0,0,1,0,.18A.57.57,0,0,0,728.54,1109.69Z"/><path class="cls-5" d="M728.4,1109.37v0Z"/><path class="cls-5" d="M728.4,1110.64v0Z"/><path class="cls-5" d="M728.49,1109.53v0Z"/><path class="cls-5" d="M728.86,1075.47a.52.52,0,0,1-.1.11L712.3,1092a.07.07,0,0,0,0,.1l16.46,16.46a2,2,0,0,1,.58,1.4,2,2,0,0,1-.58,1.41l-16,16a.74.74,0,0,0,0,1l15.39,15.39H726l-15.34-15.33a.78.78,0,0,1-.27-.58.88.88,0,0,1,.05-.29l0,0,.15-.15.1-.1,17-17a.47.47,0,0,0,0-.66l-17-17a.72.72,0,0,1-.28-.58.64.64,0,0,1,.06-.28l0,0,.15-.14.1-.11L727,1075.22h2.1Z"/><path class="cls-5" d="M705.55,1091.62l.14.14,0,0a.64.64,0,0,1,.06.28.72.72,0,0,1-.28.58l-17,17a.47.47,0,0,0,0,.66l17,17a.52.52,0,0,1,.11.1l.14.15,0,0a.68.68,0,0,1,.06.29.75.75,0,0,1-.28.58l-15.34,15.33H688l15.39-15.39a.74.74,0,0,0,0-1l-16-16a2,2,0,0,1-.58-1.41,2,2,0,0,1,.58-1.4l16.45-16.46a.07.07,0,0,0,0-.1l-16.45-16.46a.52.52,0,0,1-.1-.11l-.22-.25h2.1l16.29,16.29Z"/><rect class="cls-6" x="697.27" y="1015.71" width="19.59" height="19.59" rx="8.06" transform="translate(-518.04 800.33) rotate(-45)"/><polygon class="cls-6" points="687.53 1023.24 684.79 1023.24 704.81 1003.22 704.81 1005.97 687.53 1023.24"/><polygon class="cls-6" points="704.81 1045.03 704.81 1047.78 684.79 1027.76 687.53 1027.76 704.81 1045.03"/><polygon class="cls-6" points="726.59 1027.76 729.34 1027.76 709.32 1047.78 709.32 1045.03 726.59 1027.76"/><polygon class="cls-6" points="726.59 1023.24 709.32 1005.97 709.32 1003.22 729.34 1023.24 726.59 1023.24"/><rect class="cls-5" x="703.11" y="939.65" width="9.9" height="9.9" rx="4.95" transform="translate(-460.55 777.34) rotate(-45)"/><path class="cls-5" d="M720.44,978.83l-12.05-12.05a.48.48,0,0,0-.65,0l-12.06,12.05h-2a2,2,0,0,1,.39-.56l12.56-12.56a2,2,0,0,1,1.4-.58,1.94,1.94,0,0,1,1.4.58L722,978.27a2,2,0,0,1,.4.56Z"/><path class="cls-5" d="M695.68,910.37l12.06,12.06a.48.48,0,0,0,.65,0l12.05-12.06h2a2,2,0,0,1-.4.57L709.46,923.5a1.94,1.94,0,0,1-1.4.58,2,2,0,0,1-1.4-.58L694.1,910.94a2,2,0,0,1-.39-.57Z"/><path class="cls-5" d="M728.49,945.47a.88.88,0,0,0,0-.15A.88.88,0,0,1,728.49,945.47Z"/><path class="cls-5" d="M728.48,945.5a1,1,0,0,1-.08.14A1,1,0,0,0,728.48,945.5Z"/><path class="cls-5" d="M728.48,944.51a1,1,0,0,0-.08-.14A1,1,0,0,1,728.48,944.51Z"/><path class="cls-5" d="M728.39,944.35a.61.61,0,0,0-.12-.16A.61.61,0,0,1,728.39,944.35Z"/><path class="cls-5" d="M728.54,944.69a1,1,0,0,0,0-.16A1,1,0,0,1,728.54,944.69Z"/><path class="cls-5" d="M728.39,945.67l-.12.15Z"/><path class="cls-5" d="M728.54,945.32a.58.58,0,0,0,0-.19A.58.58,0,0,1,728.54,945.32Z"/><path class="cls-5" d="M728.49,945.47v0Z"/><path class="cls-5" d="M728.54,944.69a.57.57,0,0,1,0,.18A.57.57,0,0,0,728.54,944.69Z"/><path class="cls-5" d="M728.4,944.37v0Z"/><path class="cls-5" d="M728.4,945.64v0Z"/><path class="cls-5" d="M728.49,944.53v0Z"/><path class="cls-5" d="M728.86,910.47a.52.52,0,0,1-.1.11L712.3,927a.07.07,0,0,0,0,.1l16.46,16.46a2,2,0,0,1,.58,1.4,2,2,0,0,1-.58,1.41l-16,16a.74.74,0,0,0,0,1.05l15.39,15.39H726L710.68,963.5a.78.78,0,0,1-.27-.58.88.88,0,0,1,.05-.29l0,0,.15-.15a.47.47,0,0,1,.1-.1l17-17a.47.47,0,0,0,0-.66l-17-17a.72.72,0,0,1-.28-.58.64.64,0,0,1,.06-.28l0,0,.15-.14.1-.11L727,910.22h2.1Z"/><path class="cls-5" d="M705.55,926.62l.14.14,0,0a.64.64,0,0,1,.06.28.72.72,0,0,1-.28.58l-17,17a.47.47,0,0,0,0,.66l17,17a.52.52,0,0,1,.11.1l.14.15,0,0a.68.68,0,0,1,.06.29.75.75,0,0,1-.28.58L690.1,978.83H688l15.39-15.39a.74.74,0,0,0,0-1.05l-16-16a2,2,0,0,1-.58-1.41,2,2,0,0,1,.58-1.4l16.45-16.46a.07.07,0,0,0,0-.1l-16.45-16.46a.52.52,0,0,1-.1-.11l-.22-.25h2.1l16.29,16.29Z"/><rect class="cls-6" x="697.27" y="844.71" width="19.59" height="19.59" rx="8.06" transform="translate(-397.13 750.25) rotate(-45)"/><polygon class="cls-6" points="687.53 852.24 684.79 852.24 704.81 832.22 704.81 834.97 687.53 852.24"/><polygon class="cls-6" points="704.81 874.03 704.81 876.78 684.79 856.76 687.53 856.76 704.81 874.03"/><polygon class="cls-6" points="726.59 856.76 729.34 856.76 709.32 876.78 709.32 874.03 726.59 856.76"/><polygon class="cls-6" points="726.59 852.24 709.32 834.97 709.32 832.22 729.34 852.24 726.59 852.24"/><rect class="cls-5" x="703.11" y="768.65" width="9.9" height="9.9" rx="4.95" transform="translate(-339.63 727.26) rotate(-45)"/><path class="cls-5" d="M720.44,807.83l-12.05-12.05a.48.48,0,0,0-.65,0l-12.06,12.05h-2a2,2,0,0,1,.39-.56l12.56-12.56a2,2,0,0,1,1.4-.58,1.94,1.94,0,0,1,1.4.58L722,807.27a2,2,0,0,1,.4.56Z"/><path class="cls-5" d="M695.68,739.37l12.06,12.06a.48.48,0,0,0,.65,0l12.05-12.06h2a2,2,0,0,1-.4.57L709.46,752.5a1.94,1.94,0,0,1-1.4.58,2,2,0,0,1-1.4-.58L694.1,739.94a2,2,0,0,1-.39-.57Z"/><path class="cls-5" d="M728.49,774.47a.88.88,0,0,0,0-.15A.88.88,0,0,1,728.49,774.47Z"/><path class="cls-5" d="M728.48,774.5a1,1,0,0,1-.08.14A1,1,0,0,0,728.48,774.5Z"/><path class="cls-5" d="M728.48,773.51a1,1,0,0,0-.08-.14A1,1,0,0,1,728.48,773.51Z"/><path class="cls-5" d="M728.39,773.35a.61.61,0,0,0-.12-.16A.61.61,0,0,1,728.39,773.35Z"/><path class="cls-5" d="M728.54,773.69a1,1,0,0,0,0-.16A1,1,0,0,1,728.54,773.69Z"/><path class="cls-5" d="M728.39,774.67l-.12.15Z"/><path class="cls-5" d="M728.54,774.32a.58.58,0,0,0,0-.19A.58.58,0,0,1,728.54,774.32Z"/><path class="cls-5" d="M728.49,774.47v0Z"/><path class="cls-5" d="M728.54,773.69a.57.57,0,0,1,0,.18A.57.57,0,0,0,728.54,773.69Z"/><path class="cls-5" d="M728.4,773.37v0Z"/><path class="cls-5" d="M728.4,774.64v0Z"/><path class="cls-5" d="M728.49,773.53v0Z"/><path class="cls-5" d="M728.86,739.47a.52.52,0,0,1-.1.11L712.3,756a.07.07,0,0,0,0,.1l16.46,16.46a2,2,0,0,1,.58,1.4,2,2,0,0,1-.58,1.41l-16,16a.74.74,0,0,0,0,1.05l15.39,15.39H726L710.68,792.5a.78.78,0,0,1-.27-.58.88.88,0,0,1,.05-.29l0,0,.15-.15a.47.47,0,0,1,.1-.1l17-17a.47.47,0,0,0,0-.66l-17-17a.72.72,0,0,1-.28-.58.64.64,0,0,1,.06-.28l0,0,.15-.14.1-.11L727,739.22h2.1Z"/><path class="cls-5" d="M705.55,755.62l.14.14,0,0a.64.64,0,0,1,.06.28.72.72,0,0,1-.28.58l-17,17a.47.47,0,0,0,0,.66l17,17a.52.52,0,0,1,.11.1l.14.15,0,0a.68.68,0,0,1,.06.29.75.75,0,0,1-.28.58L690.1,807.83H688l15.39-15.39a.74.74,0,0,0,0-1.05l-16-16a2,2,0,0,1-.58-1.41,2,2,0,0,1,.58-1.4l16.45-16.46a.07.07,0,0,0,0-.1l-16.45-16.46a.52.52,0,0,1-.1-.11l-.22-.25h2.1l16.29,16.29Z"/><rect class="cls-6" x="697.27" y="679.71" width="19.59" height="19.59" rx="8.06" transform="translate(-280.46 701.92) rotate(-45)"/><polygon class="cls-6" points="687.53 687.24 684.79 687.24 704.81 667.22 704.81 669.97 687.53 687.24"/><polygon class="cls-6" points="704.81 709.03 704.81 711.78 684.79 691.76 687.53 691.76 704.81 709.03"/><polygon class="cls-6" points="726.59 691.76 729.34 691.76 709.32 711.78 709.32 709.03 726.59 691.76"/><polygon class="cls-6" points="726.59 687.24 709.32 669.97 709.32 667.22 729.34 687.24 726.59 687.24"/><rect class="cls-5" x="703.11" y="603.65" width="9.9" height="9.9" rx="4.95" transform="translate(-222.96 678.93) rotate(-45)"/><path class="cls-5" d="M720.44,642.83l-12.05-12.05a.48.48,0,0,0-.65,0l-12.06,12.05h-2a2,2,0,0,1,.39-.56l12.56-12.56a2,2,0,0,1,1.4-.58,1.94,1.94,0,0,1,1.4.58L722,642.27a2,2,0,0,1,.4.56Z"/><path class="cls-5" d="M695.68,574.37l12.06,12.06a.48.48,0,0,0,.65,0l12.05-12.06h2a2,2,0,0,1-.4.57L709.46,587.5a1.94,1.94,0,0,1-1.4.58,2,2,0,0,1-1.4-.58L694.1,574.94a2,2,0,0,1-.39-.57Z"/><path class="cls-5" d="M728.49,609.47a.88.88,0,0,0,0-.15A.88.88,0,0,1,728.49,609.47Z"/><path class="cls-5" d="M728.48,609.5a1,1,0,0,1-.08.14A1,1,0,0,0,728.48,609.5Z"/><path class="cls-5" d="M728.48,608.51a1,1,0,0,0-.08-.14A1,1,0,0,1,728.48,608.51Z"/><path class="cls-5" d="M728.39,608.35a.61.61,0,0,0-.12-.16A.61.61,0,0,1,728.39,608.35Z"/><path class="cls-5" d="M728.54,608.69a1,1,0,0,0,0-.16A1,1,0,0,1,728.54,608.69Z"/><path class="cls-5" d="M728.39,609.67l-.12.15Z"/><path class="cls-5" d="M728.54,609.32a.58.58,0,0,0,0-.19A.58.58,0,0,1,728.54,609.32Z"/><path class="cls-5" d="M728.49,609.47v0Z"/><path class="cls-5" d="M728.54,608.69a.57.57,0,0,1,0,.18A.57.57,0,0,0,728.54,608.69Z"/><path class="cls-5" d="M728.4,608.37v0Z"/><path class="cls-5" d="M728.4,609.64v0Z"/><path class="cls-5" d="M728.49,608.53v0Z"/><path class="cls-5" d="M728.86,574.47a.52.52,0,0,1-.1.11L712.3,591a.07.07,0,0,0,0,.1l16.46,16.46a2,2,0,0,1,.58,1.4,2,2,0,0,1-.58,1.41l-16,16a.74.74,0,0,0,0,1.05l15.39,15.39H726L710.68,627.5a.78.78,0,0,1-.27-.58.88.88,0,0,1,.05-.29l0,0,.15-.15a.47.47,0,0,1,.1-.1l17-17a.47.47,0,0,0,0-.66l-17-17a.72.72,0,0,1-.28-.58.64.64,0,0,1,.06-.28l0,0,.15-.14.1-.11L727,574.22h2.1Z"/><path class="cls-5" d="M705.55,590.62l.14.14,0,0a.64.64,0,0,1,.06.28.72.72,0,0,1-.28.58l-17,17a.47.47,0,0,0,0,.66l17,17a.52.52,0,0,1,.11.1l.14.15,0,0a.68.68,0,0,1,.06.29.75.75,0,0,1-.28.58L690.1,642.83H688l15.39-15.39a.74.74,0,0,0,0-1.05l-16-16a2,2,0,0,1-.58-1.41,2,2,0,0,1,.58-1.4l16.45-16.46a.07.07,0,0,0,0-.1l-16.45-16.46a.52.52,0,0,1-.1-.11l-.22-.25h2.1l16.29,16.29Z"/><rect class="cls-6" x="697.27" y="508.71" width="19.59" height="19.59" rx="8.06" transform="translate(-159.54 651.83) rotate(-45)"/><polygon class="cls-6" points="687.53 516.24 684.79 516.24 704.81 496.22 704.81 498.97 687.53 516.24"/><polygon class="cls-6" points="704.81 538.03 704.81 540.78 684.79 520.76 687.53 520.76 704.81 538.03"/><polygon class="cls-6" points="726.59 520.76 729.34 520.76 709.32 540.78 709.32 538.03 726.59 520.76"/><polygon class="cls-6" points="726.59 516.24 709.32 498.97 709.32 496.22 729.34 516.24 726.59 516.24"/><rect class="cls-5" x="703.11" y="432.65" width="9.9" height="9.9" rx="4.95" transform="translate(-102.05 628.85) rotate(-45)"/><path class="cls-5" d="M720.44,471.83l-12.05-12.05a.48.48,0,0,0-.65,0l-12.06,12.05h-2a2,2,0,0,1,.39-.56l12.56-12.56a2,2,0,0,1,1.4-.58,1.94,1.94,0,0,1,1.4.58L722,471.27a2,2,0,0,1,.4.56Z"/><path class="cls-5" d="M695.68,403.37l12.06,12.06a.48.48,0,0,0,.65,0l12.05-12.06h2a2,2,0,0,1-.4.57L709.46,416.5a1.94,1.94,0,0,1-1.4.58,2,2,0,0,1-1.4-.58L694.1,403.94a2,2,0,0,1-.39-.57Z"/><path class="cls-5" d="M728.49,438.47a.88.88,0,0,0,0-.15A.88.88,0,0,1,728.49,438.47Z"/><path class="cls-5" d="M728.48,438.5a1,1,0,0,1-.08.14A1,1,0,0,0,728.48,438.5Z"/><path class="cls-5" d="M728.48,437.51a1,1,0,0,0-.08-.14A1,1,0,0,1,728.48,437.51Z"/><path class="cls-5" d="M728.39,437.35a.61.61,0,0,0-.12-.16A.61.61,0,0,1,728.39,437.35Z"/><path class="cls-5" d="M728.54,437.69a1,1,0,0,0,0-.16A1,1,0,0,1,728.54,437.69Z"/><path class="cls-5" d="M728.39,438.67l-.12.15Z"/><path class="cls-5" d="M728.54,438.32a.58.58,0,0,0,0-.19A.58.58,0,0,1,728.54,438.32Z"/><path class="cls-5" d="M728.49,438.47v0Z"/><path class="cls-5" d="M728.54,437.69a.57.57,0,0,1,0,.18A.57.57,0,0,0,728.54,437.69Z"/><path class="cls-5" d="M728.4,437.37v0Z"/><path class="cls-5" d="M728.4,438.64v0Z"/><path class="cls-5" d="M728.49,437.53v0Z"/><path class="cls-5" d="M728.86,403.47a.52.52,0,0,1-.1.11L712.3,420a.07.07,0,0,0,0,.1l16.46,16.46a2,2,0,0,1,.58,1.4,2,2,0,0,1-.58,1.41l-16,16a.74.74,0,0,0,0,1.05l15.39,15.39H726L710.68,456.5a.78.78,0,0,1-.27-.58.88.88,0,0,1,.05-.29l0,0,.15-.15.1-.1,17-17a.47.47,0,0,0,0-.66l-17-17a.72.72,0,0,1-.28-.58.64.64,0,0,1,.06-.28l0-.05.15-.14.1-.11L727,403.22h2.1Z"/><path class="cls-5" d="M705.55,419.62l.14.14,0,.05a.64.64,0,0,1,.06.28.72.72,0,0,1-.28.58l-17,17a.47.47,0,0,0,0,.66l17,17a.52.52,0,0,1,.11.1l.14.15,0,0a.68.68,0,0,1,.06.29.75.75,0,0,1-.28.58L690.1,471.83H688l15.39-15.39a.74.74,0,0,0,0-1.05l-16-16a2,2,0,0,1-.58-1.41,2,2,0,0,1,.58-1.4l16.45-16.46a.07.07,0,0,0,0-.1l-16.45-16.46a.52.52,0,0,1-.1-.11l-.22-.25h2.1l16.29,16.29Z"/><rect class="cls-6" x="697.27" y="343.71" width="19.59" height="19.59" rx="8.06" transform="translate(-42.87 603.51) rotate(-45)"/><polygon class="cls-6" points="687.53 351.24 684.79 351.24 704.81 331.22 704.81 333.97 687.53 351.24"/><polygon class="cls-6" points="704.81 373.03 704.81 375.78 684.79 355.76 687.53 355.76 704.81 373.03"/><polygon class="cls-6" points="726.59 355.76 729.34 355.76 709.32 375.78 709.32 373.03 726.59 355.76"/><polygon class="cls-6" points="726.59 351.24 709.32 333.97 709.32 331.22 729.34 351.24 726.59 351.24"/><rect class="cls-5" x="703.11" y="267.65" width="9.9" height="9.9" rx="4.95" transform="translate(14.63 580.52) rotate(-45)"/><path class="cls-5" d="M720.44,306.83l-12.05-12.05a.48.48,0,0,0-.65,0l-12.06,12.05h-2a2,2,0,0,1,.39-.56l12.56-12.56a2,2,0,0,1,1.4-.58,1.94,1.94,0,0,1,1.4.58L722,306.27a2,2,0,0,1,.4.56Z"/><path class="cls-5" d="M695.68,238.37l12.06,12.06a.48.48,0,0,0,.65,0l12.05-12.06h2a2,2,0,0,1-.4.57L709.46,251.5a1.94,1.94,0,0,1-1.4.58,2,2,0,0,1-1.4-.58L694.1,238.94a2,2,0,0,1-.39-.57Z"/><path class="cls-5" d="M728.49,273.47a.88.88,0,0,0,0-.15A.88.88,0,0,1,728.49,273.47Z"/><path class="cls-5" d="M728.48,273.5a1,1,0,0,1-.08.14A1,1,0,0,0,728.48,273.5Z"/><path class="cls-5" d="M728.48,272.51a1,1,0,0,0-.08-.14A1,1,0,0,1,728.48,272.51Z"/><path class="cls-5" d="M728.39,272.35a.61.61,0,0,0-.12-.16A.61.61,0,0,1,728.39,272.35Z"/><path class="cls-5" d="M728.54,272.69a1,1,0,0,0,0-.16A1,1,0,0,1,728.54,272.69Z"/><path class="cls-5" d="M728.39,273.67l-.12.15Z"/><path class="cls-5" d="M728.54,273.32a.58.58,0,0,0,0-.19A.58.58,0,0,1,728.54,273.32Z"/><path class="cls-5" d="M728.49,273.47v0Z"/><path class="cls-5" d="M728.54,272.69a.57.57,0,0,1,0,.18A.57.57,0,0,0,728.54,272.69Z"/><path class="cls-5" d="M728.4,272.37v0Z"/><path class="cls-5" d="M728.4,273.64v0Z"/><path class="cls-5" d="M728.49,272.53v0Z"/><path class="cls-5" d="M728.86,238.47a.52.52,0,0,1-.1.11L712.3,255a.07.07,0,0,0,0,.1l16.46,16.46a2,2,0,0,1,.58,1.4,2,2,0,0,1-.58,1.41l-16,16a.74.74,0,0,0,0,1.05l15.39,15.39H726L710.68,291.5a.78.78,0,0,1-.27-.58.88.88,0,0,1,.05-.29l0,0,.15-.15.1-.1,17-17a.47.47,0,0,0,0-.66l-17-17a.72.72,0,0,1-.28-.58.64.64,0,0,1,.06-.28l0-.05.15-.14.1-.11L727,238.22h2.1Z"/><path class="cls-5" d="M705.55,254.62l.14.14,0,.05a.64.64,0,0,1,.06.28.72.72,0,0,1-.28.58l-17,17a.47.47,0,0,0,0,.66l17,17a.52.52,0,0,1,.11.1l.14.15,0,0a.68.68,0,0,1,.06.29.75.75,0,0,1-.28.58L690.1,306.83H688l15.39-15.39a.74.74,0,0,0,0-1.05l-16-16a2,2,0,0,1-.58-1.41,2,2,0,0,1,.58-1.4l16.45-16.46a.07.07,0,0,0,0-.1l-16.45-16.46a.52.52,0,0,1-.1-.11l-.22-.25h2.1l16.29,16.29Z"/><rect class="cls-6" x="697.27" y="172.71" width="19.59" height="19.59" rx="8.06" transform="translate(78.05 553.42) rotate(-45)"/><polygon class="cls-6" points="687.53 180.24 684.79 180.24 704.81 160.22 704.81 162.97 687.53 180.24"/><polygon class="cls-6" points="704.81 202.03 704.81 204.78 684.79 184.76 687.53 184.76 704.81 202.03"/><polygon class="cls-6" points="726.59 184.76 729.34 184.76 709.32 204.78 709.32 202.03 726.59 184.76"/><polygon class="cls-6" points="726.59 180.24 709.32 162.97 709.32 160.22 729.34 180.24 726.59 180.24"/><rect class="cls-5" x="703.11" y="96.65" width="9.9" height="9.9" rx="4.95" transform="translate(135.54 530.44) rotate(-45)"/><path class="cls-5" d="M720.44,135.83l-12.05-12.05a.48.48,0,0,0-.65,0l-12.06,12.05h-2a2,2,0,0,1,.39-.56l12.56-12.56a2,2,0,0,1,1.4-.58,1.94,1.94,0,0,1,1.4.58L722,135.27a2,2,0,0,1,.4.56Z"/><path class="cls-5" d="M695.68,67.37l12.06,12.06a.48.48,0,0,0,.65,0l12.05-12.06h2a2,2,0,0,1-.4.57L709.46,80.5a1.94,1.94,0,0,1-1.4.58,2,2,0,0,1-1.4-.58L694.1,67.94a2,2,0,0,1-.39-.57Z"/><path class="cls-5" d="M728.49,102.47a.88.88,0,0,0,0-.15A.88.88,0,0,1,728.49,102.47Z"/><path class="cls-5" d="M728.48,102.5a1,1,0,0,1-.08.14A1,1,0,0,0,728.48,102.5Z"/><path class="cls-5" d="M728.48,101.51a1,1,0,0,0-.08-.14A1,1,0,0,1,728.48,101.51Z"/><path class="cls-5" d="M728.39,101.35a.61.61,0,0,0-.12-.16A.61.61,0,0,1,728.39,101.35Z"/><path class="cls-5" d="M728.54,101.69a1,1,0,0,0,0-.16A1,1,0,0,1,728.54,101.69Z"/><path class="cls-5" d="M728.39,102.67l-.12.15Z"/><path class="cls-5" d="M728.54,102.32a.58.58,0,0,0,0-.19A.58.58,0,0,1,728.54,102.32Z"/><path class="cls-5" d="M728.49,102.47v0Z"/><path class="cls-5" d="M728.54,101.69a.57.57,0,0,1,0,.18A.57.57,0,0,0,728.54,101.69Z"/><path class="cls-5" d="M728.4,101.37v0Z"/><path class="cls-5" d="M728.4,102.64s0,0,0,0S728.4,102.65,728.4,102.64Z"/><path class="cls-5" d="M728.49,101.53v0Z"/><path class="cls-5" d="M728.86,67.47a.52.52,0,0,1-.1.11L712.3,84a.07.07,0,0,0,0,.1l16.46,16.46a2,2,0,0,1,.58,1.4,2,2,0,0,1-.58,1.41l-16,16a.74.74,0,0,0,0,1l15.39,15.39H726L710.68,120.5a.78.78,0,0,1-.27-.58.88.88,0,0,1,.05-.29l0,0,.15-.15.1-.1,17-17a.47.47,0,0,0,0-.66l-17-17a.72.72,0,0,1-.28-.58.64.64,0,0,1,.06-.28l0,0,.15-.14.1-.11L727,67.22h2.1Z"/><path class="cls-5" d="M705.55,83.62l.14.14,0,0a.64.64,0,0,1,.06.28.72.72,0,0,1-.28.58l-17,17a.47.47,0,0,0,0,.66l17,17a.52.52,0,0,1,.11.1l.14.15,0,0a.68.68,0,0,1,.06.29.75.75,0,0,1-.28.58L690.1,135.83H688l15.39-15.39a.74.74,0,0,0,0-1l-16-16a2,2,0,0,1-.58-1.41,2,2,0,0,1,.58-1.4l16.45-16.46a.07.07,0,0,0,0-.1L687.37,67.58a.52.52,0,0,1-.1-.11l-.22-.25h2.1l16.29,16.29A.57.57,0,0,1,705.55,83.62Z"/><rect class="cls-6" x="697.27" y="7.71" width="19.59" height="19.59" rx="8.06" transform="translate(194.72 505.09) rotate(-45)"/><polygon class="cls-6" points="687.53 15.24 684.79 15.24 704.81 -4.78 704.81 -2.03 687.53 15.24"/><polygon class="cls-6" points="704.81 37.03 704.81 39.78 684.79 19.76 687.53 19.76 704.81 37.03"/><polygon class="cls-6" points="726.59 19.76 729.34 19.76 709.32 39.78 709.32 37.03 726.59 19.76"/><polygon class="cls-6" points="726.59 15.24 709.32 -2.03 709.32 -4.78 729.34 15.24 726.59 15.24"/></g></svg>