<svg id="Calque_1" data-name="Calque 1" xmlns="http://www.w3.org/2000/svg" xmlns:xlink="http://www.w3.org/1999/xlink" viewBox="0 0 1115 743"><defs><style>.cls-1{fill:none;}.cls-2{fill:#f50;}.cls-3{fill:#181222;}.cls-4{fill:#c8beb5;}.cls-5{clip-path:url(#clip-path);}.cls-6{fill:#191223;}</style><clipPath id="clip-path"><rect class="cls-1" x="741" y="-359" width="747" height="1115" transform="translate(498.25 -751.1) rotate(46.92)"/></clipPath></defs><rect class="cls-2" x="327.4" y="-84.37" width="1115" height="74.7" transform="translate(270.69 591.73) rotate(-43.08)"/><rect class="cls-3" x="378.42" y="-29.81" width="1115" height="74.7" transform="translate(247.18 641.29) rotate(-43.08)"/><rect class="cls-4" x="429.44" y="24.75" width="1115" height="74.7" transform="translate(223.67 690.85) rotate(-43.08)"/><rect class="cls-2" x="480.47" y="79.31" width="1115" height="74.7" transform="translate(200.16 740.41) rotate(-43.08)"/><rect class="cls-3" x="531.49" y="133.87" width="1115" height="74.7" transform="translate(176.65 789.97) rotate(-43.08)"/><rect class="cls-4" x="582.51" y="188.43" width="1115" height="74.7" transform="translate(153.14 839.53) rotate(-43.08)"/><rect class="cls-2" x="633.53" y="242.99" width="1115" height="74.7" transform="translate(129.63 889.09) rotate(-43.08)"/><rect class="cls-3" x="684.56" y="297.55" width="1115" height="74.7" transform="translate(106.12 938.65) rotate(-43.08)"/><rect class="cls-4" x="735.58" y="352.11" width="1115" height="74.7" transform="translate(82.61 988.21) rotate(-43.08)"/><rect class="cls-2" x="786.6" y="406.67" width="1115" height="74.7" transform="translate(59.1 1037.77) rotate(-43.08)"/><g class="cls-5"><rect class="cls-6" x="833.35" y="-20.21" width="3.23" height="39.77" transform="translate(225.34 570.22) rotate(-43.08)"/><rect class="cls-6" x="824.61" y="-12.04" width="3.23" height="39.77" transform="translate(217.4 566.45) rotate(-43.08)"/><rect class="cls-6" x="815.88" y="-3.87" width="3.23" height="39.77" transform="translate(209.46 562.69) rotate(-43.08)"/><path class="cls-3" d="M784,76.77,754.63,45.36,793.36,9.14l29.37,31.41ZM759.2,45.51l25,26.69,34-31.8L793.21,13.71Z"/><path class="cls-3" d="M777.26,48.81C785.1,39,792.87,37,798,37a18.57,18.57,0,0,1,9.51,2.59l-1.43,2.15a16.47,16.47,0,0,0-8.24-2.16c-6.58,0-12.82,3.63-18.56,10.82Z"/><polygon class="cls-6" points="753.53 72.75 728.61 71.91 740.65 84.79 753.53 72.75"/><polygon class="cls-6" points="743.73 88.08 755.77 100.96 756.61 76.03 743.73 88.08"/><polygon class="cls-6" points="725.32 74.98 724.49 99.91 737.37 87.86 725.32 74.98"/><polygon class="cls-6" points="727.56 103.19 752.48 104.03 740.44 91.15 727.56 103.19"/><rect class="cls-6" x="739.24" y="80.01" width="18.08" height="0.72" transform="translate(146.85 532.76) rotate(-43.08)"/><rect class="cls-6" x="723.4" y="94.82" width="18.08" height="0.72" transform="translate(132.46 525.94) rotate(-43.08)"/><rect class="cls-6" x="732.69" y="71.05" width="0.72" height="17.81" transform="translate(143.02 522.25) rotate(-43.08)"/><rect class="cls-6" x="747.5" y="86.61" width="0.72" height="18.35" transform="translate(136.2 536.63) rotate(-43.08)"/><circle class="cls-6" cx="740.3" cy="87.77" r="0.94"/><rect class="cls-6" x="712.84" y="92.49" width="3.23" height="39.77" transform="translate(115.87 518.29) rotate(-43.08)"/><rect class="cls-6" x="704.1" y="100.66" width="3.23" height="39.77" transform="translate(107.93 514.52) rotate(-43.08)"/><rect class="cls-6" x="695.36" y="108.83" width="3.23" height="39.77" transform="translate(99.99 510.76) rotate(-43.08)"/><path class="cls-3" d="M663.49,189.47l-29.37-31.41,38.73-36.22,29.37,31.41Zm-24.8-31.26,24.95,26.69,34-31.8-25-26.69Z"/><path class="cls-3" d="M656.75,161.51c7.84-9.83,15.6-11.84,20.73-11.8a18.44,18.44,0,0,1,9.51,2.6l-1.43,2.15a16.36,16.36,0,0,0-8.23-2.16c-6.59,0-12.83,3.63-18.56,10.82Z"/><polygon class="cls-6" points="628.63 189.54 603.71 188.71 615.76 201.59 628.63 189.54"/><polygon class="cls-6" points="618.83 204.88 630.87 217.75 631.71 192.83 618.83 204.88"/><polygon class="cls-6" points="600.42 191.78 599.59 216.71 612.47 204.66 600.42 191.78"/><polygon class="cls-6" points="602.66 219.99 627.59 220.83 615.54 207.95 602.66 219.99"/><rect class="cls-6" x="614.34" y="196.81" width="18.08" height="0.72" transform="translate(33.4 478.95) rotate(-43.08)"/><rect class="cls-6" x="598.5" y="211.62" width="18.08" height="0.72" transform="translate(19.01 472.12) rotate(-43.08)"/><rect class="cls-6" x="607.79" y="187.84" width="0.72" height="17.81" transform="translate(29.58 468.43) rotate(-43.08)"/><rect class="cls-6" x="622.6" y="203.41" width="0.72" height="18.35" transform="translate(22.75 482.82) rotate(-43.08)"/><circle class="cls-6" cx="615.4" cy="204.57" r="0.94"/><rect class="cls-6" x="587.94" y="209.29" width="3.23" height="39.77" transform="translate(2.42 464.47) rotate(-43.08)"/><rect class="cls-6" x="579.2" y="217.46" width="3.23" height="39.77" transform="translate(-5.52 460.7) rotate(-43.08)"/><rect class="cls-6" x="570.46" y="225.63" width="3.23" height="39.77" transform="translate(-13.45 456.94) rotate(-43.08)"/><path class="cls-3" d="M538.59,306.26l-29.37-31.4L548,238.64l29.37,31.41ZM513.79,275l25,26.68,34-31.79-25-26.69Z"/><path class="cls-3" d="M531.85,278.3c7.84-9.82,15.61-11.83,20.74-11.79a18.58,18.58,0,0,1,9.5,2.59l-1.43,2.16a16.25,16.25,0,0,0-8.23-2.16c-6.58,0-12.83,3.63-18.56,10.82Z"/><polygon class="cls-6" points="508.12 302.25 483.2 301.41 495.24 314.29 508.12 302.25"/><polygon class="cls-6" points="498.31 317.57 510.36 330.45 511.19 305.53 498.31 317.57"/><polygon class="cls-6" points="479.91 304.48 479.07 329.41 491.95 317.36 479.91 304.48"/><polygon class="cls-6" points="482.15 332.69 507.07 333.53 495.03 320.65 482.15 332.69"/><rect class="cls-6" x="493.83" y="309.51" width="18.08" height="0.72" transform="translate(-76.07 427.02) rotate(-43.08)"/><rect class="cls-6" x="477.99" y="324.32" width="18.08" height="0.72" transform="translate(-90.46 420.19) rotate(-43.08)"/><rect class="cls-6" x="487.28" y="300.54" width="0.72" height="17.81" transform="translate(-79.89 416.5) rotate(-43.08)"/><rect class="cls-6" x="502.09" y="316.11" width="0.72" height="18.35" transform="translate(-86.72 430.89) rotate(-43.08)"/><circle class="cls-6" cx="494.89" cy="317.27" r="0.94"/><rect class="cls-6" x="467.42" y="321.99" width="3.23" height="39.77" transform="translate(-107.05 412.54) rotate(-43.08)"/><rect class="cls-6" x="458.69" y="330.16" width="3.23" height="39.77" transform="translate(-114.99 408.77) rotate(-43.08)"/><rect class="cls-6" x="449.95" y="338.33" width="3.23" height="39.77" transform="translate(-122.92 405.01) rotate(-43.08)"/><path class="cls-3" d="M418.08,419l-29.37-31.4,38.73-36.22,29.37,31.41Zm-24.8-31.25,25,26.68,34-31.8-25-26.68Z"/><path class="cls-3" d="M411.33,391c7.85-9.82,15.61-11.83,20.74-11.79a18.68,18.68,0,0,1,9.51,2.59L440.15,384a16.31,16.31,0,0,0-8.24-2.16c-6.58,0-12.82,3.63-18.55,10.82Z"/><circle class="cls-4" cx="956.76" cy="8.99" r="5.98"/><rect class="cls-4" x="926.76" y="-5.62" width="3.16" height="38.89" transform="translate(240.85 637.81) rotate(-43.08)"/><rect class="cls-4" x="910.45" y="9.64" width="3.16" height="38.89" transform="translate(226.03 630.78) rotate(-43.08)"/><rect class="cls-4" x="893.93" y="25.08" width="3.16" height="38.89" transform="translate(211.03 623.66) rotate(-43.08)"/><rect class="cls-4" x="877.42" y="40.52" width="3.16" height="38.89" transform="translate(196.03 616.55) rotate(-43.08)"/><rect class="cls-4" x="804.87" y="108.37" width="3.16" height="38.89" transform="translate(130.12 585.29) rotate(-43.08)"/><rect class="cls-4" x="788.55" y="123.63" width="3.16" height="38.89" transform="translate(115.3 578.25) rotate(-43.08)"/><rect class="cls-4" x="772.04" y="139.07" width="3.16" height="38.89" transform="translate(100.3 571.14) rotate(-43.08)"/><rect class="cls-4" x="755.53" y="154.51" width="3.16" height="38.89" transform="translate(85.31 564.02) rotate(-43.08)"/><circle class="cls-4" cx="853.65" cy="63.54" r="5.98"/><circle class="cls-4" cx="853.74" cy="88.95" r="5.98"/><circle class="cls-4" cx="835.04" cy="85.5" r="5.98"/><circle class="cls-4" cx="822.77" cy="100.61" r="5.98"/><circle class="cls-4" cx="838.1" cy="106.3" r="5.98"/><circle class="cls-4" cx="833.26" cy="124.48" r="5.98"/><circle class="cls-4" cx="870.17" cy="89.97" r="5.98"/><circle class="cls-4" cx="731.74" cy="177.54" r="5.98"/><circle class="cls-4" cx="731.83" cy="202.95" r="5.98"/><circle class="cls-4" cx="713.13" cy="199.5" r="5.98"/><circle class="cls-4" cx="700.86" cy="214.61" r="5.98"/><circle class="cls-4" cx="716.19" cy="220.3" r="5.98"/><circle class="cls-4" cx="711.35" cy="238.48" r="5.98"/><circle class="cls-4" cx="748.26" cy="203.97" r="5.98"/><rect class="cls-4" x="681.35" y="223.88" width="3.16" height="38.89" transform="translate(17.93 532.06) rotate(-43.08)"/><rect class="cls-4" x="665.03" y="239.13" width="3.16" height="38.89" transform="translate(3.11 525.03) rotate(-43.08)"/><rect class="cls-4" x="648.52" y="254.57" width="3.16" height="38.89" transform="translate(-11.89 517.92) rotate(-43.08)"/><rect class="cls-4" x="632.01" y="270.01" width="3.16" height="38.89" transform="translate(-26.89 510.8) rotate(-43.08)"/><rect class="cls-4" x="559.45" y="337.87" width="3.16" height="38.89" transform="translate(-92.79 479.54) rotate(-43.08)"/><rect class="cls-4" x="543.14" y="353.12" width="3.16" height="38.89" transform="translate(-107.61 472.51) rotate(-43.08)"/><rect class="cls-4" x="526.63" y="368.56" width="3.16" height="38.89" transform="translate(-122.61 465.39) rotate(-43.08)"/><rect class="cls-4" x="510.12" y="384" width="3.16" height="38.89" transform="translate(-137.61 458.28) rotate(-43.08)"/><circle class="cls-4" cx="608.24" cy="293.04" r="5.98"/><circle class="cls-4" cx="608.32" cy="318.44" r="5.98"/><circle class="cls-4" cx="589.62" cy="314.99" r="5.98"/><circle class="cls-4" cx="577.36" cy="330.11" r="5.98"/><circle class="cls-4" cx="592.69" cy="335.8" r="5.98"/><circle class="cls-4" cx="587.85" cy="353.98" r="5.98"/><circle class="cls-4" cx="624.75" cy="319.47" r="5.98"/><circle class="cls-4" cx="486.33" cy="407.04" r="5.98"/><circle class="cls-4" cx="486.42" cy="432.45" r="5.98"/><circle class="cls-4" cx="467.72" cy="429" r="5.98"/><circle class="cls-4" cx="455.45" cy="444.11" r="5.98"/><circle class="cls-4" cx="470.78" cy="449.8" r="5.98"/><circle class="cls-4" cx="465.94" cy="467.98" r="5.98"/><circle class="cls-4" cx="502.85" cy="433.47" r="5.98"/><rect class="cls-6" x="1020" y="22.97" width="9.9" height="9.9" rx="4.95" transform="translate(1087.19 -995.52) rotate(91.92)"/><path class="cls-3" d="M1058.41,13.59l-17-.57a.48.48,0,0,1-.45-.48l.57-17-1.35-1.44a1.71,1.71,0,0,0-.14.67l-.6,17.76a2,2,0,0,0,.53,1.42,2,2,0,0,0,1.39.62l17.75.6a2,2,0,0,0,.68-.1Z"/><path class="cls-3" d="M991.5,42.26l17,.57a.47.47,0,0,1,.45.48l-.57,17,1.35,1.44a2.17,2.17,0,0,0,.14-.68l.6-17.75a2,2,0,0,0-.54-1.42,1.92,1.92,0,0,0-1.38-.62l-17.75-.6a1.9,1.9,0,0,0-.68.1Z"/><path class="cls-3" d="M1039.54,42.25s0,.1-.08.14S1039.51,42.3,1039.54,42.25Z"/><path class="cls-3" d="M1039.55,42.22a.66.66,0,0,0,0-.15A.66.66,0,0,1,1039.55,42.22Z"/><path class="cls-3" d="M1038.83,42.9l-.16,0Z"/><path class="cls-3" d="M1038.65,43l-.19,0Z"/><path class="cls-3" d="M1039,42.82l-.15.07Z"/><path class="cls-3" d="M1039.61,42a.58.58,0,0,0,0-.19A.58.58,0,0,1,1039.61,42Z"/><path class="cls-3" d="M1039.46,42.39a.83.83,0,0,1-.11.15A.58.58,0,0,0,1039.46,42.39Z"/><path class="cls-3" d="M1039.54,42.25v0Z"/><path class="cls-3" d="M1039,42.82l.16-.1Z"/><path class="cls-3" d="M1038.67,42.94h0Z"/><path class="cls-3" d="M1039.6,42.07v0Z"/><path class="cls-3" d="M1038.85,42.89h0Z"/><path class="cls-3" d="M1014.23,66.43c0-.05,0-.1,0-.15L1015,43a.07.07,0,0,1,.08-.07l23.26.78a2,2,0,0,0,1.42-.54,2,2,0,0,0,.63-1.38l.75-22.59a.75.75,0,0,1,.24-.52.69.69,0,0,1,.53-.2l21.76.73-1.47-1.57-21.68-.73a.74.74,0,0,0-.61.2.81.81,0,0,0-.17.24h0v.2a.86.86,0,0,0,0,.16l-.8,24a.47.47,0,0,1-.48.45l-24-.81a.73.73,0,0,0-.61.2.56.56,0,0,0-.17.24h-.06v.36l-.77,23,1.43,1.53Z"/><path class="cls-3" d="M1010.1,38.37h.2v-.05a.82.82,0,0,0,.25-.16.76.76,0,0,0,.24-.6l.8-24a.47.47,0,0,1,.48-.44l24,.8h.36v-.05a1,1,0,0,0,.25-.16.73.73,0,0,0,.23-.59l.73-21.68-1.47-1.57-.73,21.75a.72.72,0,0,1-.23.52.73.73,0,0,1-.54.2l-22.59-.75a2,2,0,0,0-1.42.53,2,2,0,0,0-.63,1.38l-.77,23.26s0,.08-.08.08L986,36h-.48l1.44,1.54,23,.77A.75.75,0,0,0,1010.1,38.37Z"/><rect class="cls-6" x="948.67" y="78.94" width="19.59" height="19.59" rx="8.06" transform="translate(1079.25 -866.21) rotate(91.92)"/><polygon class="cls-6" points="943.47 76.02 941.6 74.01 940.65 102.31 942.65 100.43 943.47 76.02"/><polygon class="cls-6" points="971.18 73.75 973.19 71.87 944.89 70.93 946.77 72.93 971.18 73.75"/><polygon class="cls-6" points="973.45 101.46 975.32 103.47 976.27 75.17 974.26 77.05 973.45 101.46"/><polygon class="cls-6" points="970.15 104.54 945.74 103.72 943.73 105.6 972.03 106.55 970.15 104.54"/><rect class="cls-6" x="895.11" y="139.77" width="9.9" height="9.9" rx="4.95" transform="translate(1074.84 -749.98) rotate(91.92)"/><path class="cls-3" d="M933.51,130.38l-17-.57a.47.47,0,0,1-.45-.48l.57-17-1.35-1.44a2.16,2.16,0,0,0-.14.67l-.6,17.75a2,2,0,0,0,.54,1.42,2,2,0,0,0,1.38.63l17.75.6a2.15,2.15,0,0,0,.68-.1Z"/><path class="cls-3" d="M866.6,159.06l17,.57a.47.47,0,0,1,.45.48l-.57,17,1.35,1.45a1.72,1.72,0,0,0,.14-.68l.6-17.75a2,2,0,0,0-1.91-2l-17.76-.59a1.76,1.76,0,0,0-.68.1Z"/><path class="cls-3" d="M914.64,159.05a1,1,0,0,1-.08.14A1,1,0,0,0,914.64,159.05Z"/><path class="cls-3" d="M914.65,159a.88.88,0,0,0,.05-.15A.88.88,0,0,1,914.65,159Z"/><path class="cls-3" d="M913.93,159.7l-.15,0Z"/><path class="cls-3" d="M913.75,159.74a.58.58,0,0,1-.19,0A.58.58,0,0,0,913.75,159.74Z"/><path class="cls-3" d="M914.1,159.62a.52.52,0,0,1-.15.07A.52.52,0,0,0,914.1,159.62Z"/><path class="cls-3" d="M914.71,158.84a1.29,1.29,0,0,0,0-.19A1.06,1.06,0,0,1,914.71,158.84Z"/><path class="cls-3" d="M914.56,159.19l-.11.15Z"/><path class="cls-3" d="M914.64,159.05v0Z"/><path class="cls-3" d="M914.1,159.62l.16-.1Z"/><path class="cls-3" d="M913.78,159.74h0Z"/><path class="cls-3" d="M914.7,158.87a0,0,0,0,0,0,0A0,0,0,0,1,914.7,158.87Z"/><path class="cls-3" d="M914,159.69h0Z"/><path class="cls-3" d="M889.33,183.23a.76.76,0,0,0,0-.15l.78-23.26a.09.09,0,0,1,.08-.08l23.26.78a2,2,0,0,0,2-1.91l.76-22.59a.73.73,0,0,1,.76-.72l21.76.73-1.47-1.57-21.67-.73a.75.75,0,0,0-.62.2.91.91,0,0,0-.17.23h-.05v.2a.38.38,0,0,0,0,.15l-.81,24a.47.47,0,0,1-.48.45l-24-.81a.74.74,0,0,0-.61.2.91.91,0,0,0-.17.23h-.06v.2a.76.76,0,0,0,0,.15l-.77,23,1.43,1.53Z"/><path class="cls-3" d="M885.2,155.17h.21v-.06a.61.61,0,0,0,.24-.15.73.73,0,0,0,.24-.6l.81-24a.46.46,0,0,1,.48-.45l24,.81a.75.75,0,0,0,.15,0h.2v-.05a.82.82,0,0,0,.25-.16.71.71,0,0,0,.23-.6l.73-21.67-1.46-1.57-.73,21.75a.73.73,0,0,1-.24.52.69.69,0,0,1-.53.2l-22.59-.76a2,2,0,0,0-1.42.54,2,2,0,0,0-.63,1.38l-.78,23.26a.08.08,0,0,1-.08.07l-23.26-.78h-.47l1.43,1.53,23,.78Z"/><rect class="cls-6" x="828.15" y="191.64" width="19.59" height="19.59" rx="8.06" transform="translate(1067.33 -629.29) rotate(91.92)"/><polygon class="cls-6" points="822.96 188.71 821.08 186.71 820.13 215 822.14 213.13 822.96 188.71"/><polygon class="cls-6" points="850.67 186.45 852.67 184.57 824.38 183.63 826.25 185.63 850.67 186.45"/><polygon class="cls-6" points="852.93 214.16 854.81 216.17 855.76 187.87 853.75 189.75 852.93 214.16"/><polygon class="cls-6" points="849.63 217.24 825.22 216.42 823.21 218.3 851.51 219.25 849.63 217.24"/><rect class="cls-6" x="774.59" y="252.47" width="9.9" height="9.9" rx="4.95" transform="translate(1062.93 -513.06) rotate(91.92)"/><path class="cls-3" d="M813,243.08l-17-.57a.47.47,0,0,1-.44-.48l.57-17-1.35-1.44a1.92,1.92,0,0,0-.15.67L794,242a2,2,0,0,0,1.91,2.05l17.75.59a2,2,0,0,0,.69-.09Z"/><path class="cls-3" d="M746.09,271.76l17,.57a.47.47,0,0,1,.45.48l-.57,17,1.35,1.45a2.17,2.17,0,0,0,.14-.68l.59-17.75a2,2,0,0,0-.53-1.42,2,2,0,0,0-1.38-.63l-17.75-.59a2,2,0,0,0-.69.09Z"/><path class="cls-3" d="M794.12,271.75s0,.09-.07.14S794.1,271.79,794.12,271.75Z"/><path class="cls-3" d="M794.14,271.72c0-.05,0-.1.05-.15S794.16,271.67,794.14,271.72Z"/><path class="cls-3" d="M793.42,272.39l-.16.05Z"/><path class="cls-3" d="M793.24,272.44a.65.65,0,0,1-.19,0A.65.65,0,0,0,793.24,272.44Z"/><path class="cls-3" d="M793.59,272.32l-.15.07Z"/><path class="cls-3" d="M794.2,271.54a1.25,1.25,0,0,0,0-.19A1.25,1.25,0,0,1,794.2,271.54Z"/><path class="cls-3" d="M794.05,271.89l-.11.15Z"/><path class="cls-3" d="M794.12,271.75l0,0Z"/><path class="cls-3" d="M793.59,272.32l.16-.1Z"/><path class="cls-3" d="M793.26,272.44h0Z"/><path class="cls-3" d="M794.19,271.57v0Z"/><path class="cls-3" d="M793.44,272.39h0Z"/><path class="cls-3" d="M768.82,295.93c0-.05,0-.1,0-.15l.78-23.26a.07.07,0,0,1,.08-.08l23.26.78a2,2,0,0,0,1.42-.53,2,2,0,0,0,.62-1.38l.76-22.59a.73.73,0,0,1,.24-.52.69.69,0,0,1,.53-.2l21.76.73-1.47-1.57-21.68-.73a.77.77,0,0,0-.78.43h-.06v.2a.76.76,0,0,0,0,.15l-.8,24a.48.48,0,0,1-.48.45l-24-.81a.75.75,0,0,0-.62.2.76.76,0,0,0-.17.23h0v.2a.38.38,0,0,0,0,.15l-.77,23,1.43,1.53Z"/><path class="cls-3" d="M764.69,267.87h.2v-.06a.73.73,0,0,0,.25-.15.77.77,0,0,0,.24-.6l.8-24a.46.46,0,0,1,.48-.45l24,.81h.36v0a.78.78,0,0,0,.24-.16.71.71,0,0,0,.24-.6l.73-21.68-1.47-1.56-.73,21.75a.76.76,0,0,1-.23.52.73.73,0,0,1-.54.2l-22.59-.76a2,2,0,0,0-1.42.54,2,2,0,0,0-.63,1.38l-.78,23.26a.07.07,0,0,1-.07.07l-23.26-.78h-.48l1.43,1.53,23,.78Z"/><rect class="cls-6" x="703.25" y="308.44" width="19.59" height="19.59" rx="8.06" transform="translate(1054.98 -383.75) rotate(91.92)"/><polygon class="cls-6" points="698.06 305.51 696.18 303.5 695.24 331.8 697.24 329.93 698.06 305.51"/><polygon class="cls-6" points="725.77 303.25 727.78 301.37 699.48 300.42 701.36 302.43 725.77 303.25"/><polygon class="cls-6" points="728.03 330.96 729.91 332.96 730.86 304.67 728.85 306.54 728.03 330.96"/><polygon class="cls-6" points="724.74 334.04 700.33 333.22 698.32 335.1 726.62 336.05 724.74 334.04"/><rect class="cls-6" x="649.69" y="369.27" width="9.9" height="9.9" rx="4.95" transform="translate(1050.58 -267.53) rotate(91.92)"/><path class="cls-3" d="M688.1,359.88l-17-.57a.47.47,0,0,1-.45-.48l.57-17-1.35-1.45a1.72,1.72,0,0,0-.14.68l-.6,17.75a2,2,0,0,0,1.92,2.05l17.75.59a2,2,0,0,0,.68-.09Z"/><path class="cls-3" d="M621.19,388.56l17,.57a.47.47,0,0,1,.45.48l-.57,17,1.35,1.44a1.91,1.91,0,0,0,.14-.67l.6-17.75a2,2,0,0,0-1.92-2.05l-17.75-.6a2.2,2.2,0,0,0-.68.1Z"/><path class="cls-3" d="M669.23,388.54a1.09,1.09,0,0,1-.08.15A1.09,1.09,0,0,0,669.23,388.54Z"/><path class="cls-3" d="M669.24,388.52a.88.88,0,0,0,0-.15A.88.88,0,0,1,669.24,388.52Z"/><path class="cls-3" d="M668.52,389.19l-.15,0Z"/><path class="cls-3" d="M668.34,389.24l-.19,0Z"/><path class="cls-3" d="M668.69,389.12l-.15.06Z"/><path class="cls-3" d="M669.3,388.34a.63.63,0,0,0,0-.19A.63.63,0,0,1,669.3,388.34Z"/><path class="cls-3" d="M669.15,388.69l-.11.15Z"/><path class="cls-3" d="M669.23,388.54v0Z"/><path class="cls-3" d="M668.69,389.12l.16-.1Z"/><path class="cls-3" d="M668.37,389.23h0Z"/><path class="cls-3" d="M669.29,388.37s0,0,0,0S669.29,388.36,669.29,388.37Z"/><path class="cls-3" d="M668.54,389.18h0Z"/><path class="cls-3" d="M643.92,412.72c0-.05,0-.1,0-.15l.78-23.26a.08.08,0,0,1,.08-.07l23.26.78a2,2,0,0,0,1.42-.53,2,2,0,0,0,.63-1.38l.75-22.6a.75.75,0,0,1,.24-.52.78.78,0,0,1,.53-.2l21.76.73L691.91,364l-21.68-.73a.76.76,0,0,0-.61.19.81.81,0,0,0-.17.24h-.05v.2a.76.76,0,0,0,0,.15l-.8,24a.46.46,0,0,1-.48.45l-24-.8a.75.75,0,0,0-.61.19.56.56,0,0,0-.17.24h-.06v.35l-.77,23,1.43,1.54Z"/><path class="cls-3" d="M639.79,384.67h.2v-.05a.79.79,0,0,0,.25-.15.77.77,0,0,0,.24-.6l.8-24a.47.47,0,0,1,.48-.45l24,.8h.35v-.06a.73.73,0,0,0,.25-.15.75.75,0,0,0,.23-.6l.73-21.68-1.47-1.57-.73,21.76a.74.74,0,0,1-.77.72l-22.59-.76a2,2,0,0,0-2,1.92L639,383.05a.08.08,0,0,1-.08.07l-23.26-.78h-.15l-.33,0,1.44,1.53,23,.77Z"/><rect class="cls-6" x="582.74" y="421.14" width="19.59" height="19.59" rx="8.06" transform="translate(1043.07 -146.83) rotate(91.92)"/><polygon class="cls-6" points="577.55 418.21 575.67 416.2 574.72 444.5 576.73 442.63 577.55 418.21"/><polygon class="cls-6" points="605.25 415.95 607.26 414.07 578.96 413.12 580.84 415.13 605.25 415.95"/><polygon class="cls-6" points="607.52 443.66 609.4 445.66 610.34 417.37 608.34 419.24 607.52 443.66"/><polygon class="cls-6" points="604.22 446.74 579.81 445.92 577.8 447.8 606.1 448.75 604.22 446.74"/><rect class="cls-6" x="529.18" y="481.97" width="9.9" height="9.9" rx="4.95" transform="translate(1038.66 -30.6) rotate(91.92)"/><path class="cls-3" d="M567.59,472.58l-17-.57a.48.48,0,0,1-.45-.48l.57-17-1.35-1.45a2.17,2.17,0,0,0-.14.68l-.59,17.75a2,2,0,0,0,.53,1.42,2,2,0,0,0,1.38.63l17.75.59a1.78,1.78,0,0,0,.69-.1Z"/><path class="cls-3" d="M500.67,501.26l17,.57a.47.47,0,0,1,.45.48l-.58,17,1.36,1.44a2.16,2.16,0,0,0,.14-.67l.59-17.75a2,2,0,0,0-.53-1.42,2,2,0,0,0-1.38-.63l-17.75-.6a2.26,2.26,0,0,0-.69.1Z"/><path class="cls-3" d="M548.71,501.24a1,1,0,0,1-.07.15A1,1,0,0,0,548.71,501.24Z"/><path class="cls-3" d="M548.73,501.22l0-.15Z"/><path class="cls-3" d="M548,501.89l-.16,0Z"/><path class="cls-3" d="M547.82,501.94l-.19,0Z"/><path class="cls-3" d="M548.18,501.82l-.15.06Z"/><path class="cls-3" d="M548.79,501l0-.19Z"/><path class="cls-3" d="M548.64,501.39l-.11.15Z"/><path class="cls-3" d="M548.71,501.24l0,0Z"/><path class="cls-3" d="M548.18,501.82l.15-.1Z"/><path class="cls-3" d="M547.85,501.93h0Z"/><path class="cls-3" d="M548.78,501.07a0,0,0,0,1,0,0A0,0,0,0,0,548.78,501.07Z"/><path class="cls-3" d="M548,501.88h0Z"/><path class="cls-3" d="M523.4,525.42s0-.1,0-.15L524.2,502a.07.07,0,0,1,.07-.07l23.26.78a2,2,0,0,0,1.42-.53,2,2,0,0,0,.63-1.39l.76-22.59a.78.78,0,0,1,.23-.52.82.82,0,0,1,.54-.2l21.75.73-1.46-1.56-21.68-.73a.74.74,0,0,0-.61.19.84.84,0,0,0-.18.24h0v.2a.76.76,0,0,0,0,.15l-.81,24a.46.46,0,0,1-.48.45l-24-.8a.77.77,0,0,0-.62.19.81.81,0,0,0-.17.24h0v.2a.76.76,0,0,0,0,.15l-.77,23,1.44,1.54Z"/><path class="cls-3" d="M519.27,497.37h.21v-.05a.92.92,0,0,0,.25-.15.76.76,0,0,0,.23-.6l.81-24a.46.46,0,0,1,.48-.45l24,.8h.35v-.06a.64.64,0,0,0,.25-.15.76.76,0,0,0,.24-.6l.72-21.68-1.46-1.57-.73,21.76a.75.75,0,0,1-.24.52.73.73,0,0,1-.53.2l-22.59-.76a1.93,1.93,0,0,0-1.42.54,2,2,0,0,0-.63,1.38l-.78,23.26a.07.07,0,0,1-.08.07L495.14,495H495l-.32,0,1.43,1.53,23,.77Z"/><rect class="cls-6" x="1111.31" y="26.67" width="3.23" height="39.77" transform="translate(268.25 772.71) rotate(-43.08)"/><rect class="cls-6" x="1102.58" y="34.84" width="3.23" height="39.77" transform="translate(260.32 768.95) rotate(-43.08)"/><rect class="cls-6" x="1093.84" y="43.01" width="3.23" height="39.77" transform="translate(252.38 765.18) rotate(-43.08)"/><path class="cls-3" d="M1062,123.65,1032.6,92.24,1071.33,56l29.37,31.4Zm-24.8-31.25,24.95,26.68,34-31.8-25-26.68Z"/><path class="cls-3" d="M1055.22,95.69c7.85-9.83,15.61-11.84,20.74-11.79a18.68,18.68,0,0,1,9.51,2.59L1084,88.64a16.42,16.42,0,0,0-8.24-2.16c-6.58,0-12.82,3.64-18.55,10.82Z"/><polygon class="cls-6" points="1027.11 123.73 1002.19 122.89 1014.23 135.77 1027.11 123.73"/><polygon class="cls-6" points="1017.31 139.06 1029.35 151.94 1030.19 127.02 1017.31 139.06"/><polygon class="cls-6" points="998.9 125.97 998.07 150.89 1010.95 138.85 998.9 125.97"/><polygon class="cls-6" points="1001.14 154.18 1026.07 155.01 1014.02 142.13 1001.14 154.18"/><rect class="cls-6" x="1012.82" y="130.99" width="18.08" height="0.72" transform="translate(185.79 733.37) rotate(-43.08)"/><rect class="cls-6" x="996.98" y="145.8" width="18.08" height="0.72" transform="translate(171.4 726.55) rotate(-43.08)"/><rect class="cls-6" x="1006.27" y="122.03" width="0.72" height="17.81" transform="translate(181.96 722.86) rotate(-43.08)"/><rect class="cls-6" x="1021.08" y="137.6" width="0.72" height="18.35" transform="translate(175.14 737.24) rotate(-43.08)"/><circle class="cls-6" cx="1013.88" cy="138.75" r="0.94"/><rect class="cls-6" x="986.42" y="143.47" width="3.23" height="39.77" transform="translate(154.81 718.9) rotate(-43.08)"/><rect class="cls-6" x="977.68" y="151.64" width="3.23" height="39.77" transform="translate(146.87 715.13) rotate(-43.08)"/><rect class="cls-6" x="968.94" y="159.81" width="3.23" height="39.77" transform="translate(138.93 711.37) rotate(-43.08)"/><path class="cls-3" d="M937.07,240.45,907.7,209l38.73-36.21,29.37,31.4Zm-24.8-31.26,25,26.69,34-31.8-25-26.68Z"/><path class="cls-3" d="M930.33,212.49c7.84-9.83,15.6-11.84,20.74-11.79a18.47,18.47,0,0,1,9.5,2.59l-1.43,2.15a16.36,16.36,0,0,0-8.23-2.16c-6.58,0-12.83,3.64-18.56,10.82Z"/><polygon class="cls-6" points="906.6 236.43 881.67 235.59 893.72 248.47 906.6 236.43"/><polygon class="cls-6" points="896.79 251.76 908.84 264.64 909.67 239.71 896.79 251.76"/><polygon class="cls-6" points="878.39 238.67 877.55 263.59 890.43 251.55 878.39 238.67"/><polygon class="cls-6" points="880.63 266.88 905.55 267.71 893.51 254.83 880.63 266.88"/><rect class="cls-6" x="892.3" y="243.69" width="18.08" height="0.72" transform="translate(76.32 681.44) rotate(-43.08)"/><rect class="cls-6" x="876.47" y="258.5" width="18.08" height="0.72" transform="translate(61.93 674.62) rotate(-43.08)"/><rect class="cls-6" x="885.76" y="234.73" width="0.72" height="17.81" transform="translate(72.49 670.93) rotate(-43.08)"/><rect class="cls-6" x="900.57" y="250.3" width="0.72" height="18.35" transform="translate(65.67 685.31) rotate(-43.08)"/><circle class="cls-6" cx="893.36" cy="251.45" r="0.94"/><rect class="cls-6" x="865.9" y="256.17" width="3.23" height="39.77" transform="translate(45.34 666.97) rotate(-43.08)"/><rect class="cls-6" x="857.17" y="264.34" width="3.23" height="39.77" transform="translate(37.4 663.2) rotate(-43.08)"/><rect class="cls-6" x="848.43" y="272.51" width="3.23" height="39.77" transform="translate(29.46 659.44) rotate(-43.08)"/><path class="cls-3" d="M816.56,353.15l-29.37-31.41,38.72-36.22,29.37,31.41Zm-24.8-31.26,25,26.69,34-31.8-25-26.69Z"/><path class="cls-3" d="M809.81,325.19c7.84-9.83,15.61-11.84,20.74-11.79a18.57,18.57,0,0,1,9.51,2.59l-1.43,2.15a16.47,16.47,0,0,0-8.24-2.16c-6.58,0-12.82,3.64-18.56,10.82Z"/><polygon class="cls-6" points="781.7 353.23 756.78 352.39 768.82 365.27 781.7 353.23"/><polygon class="cls-6" points="771.89 368.56 783.94 381.44 784.77 356.51 771.89 368.56"/><polygon class="cls-6" points="753.49 355.46 752.66 380.39 765.54 368.34 753.49 355.46"/><polygon class="cls-6" points="755.73 383.67 780.65 384.51 768.61 371.63 755.73 383.67"/><rect class="cls-6" x="767.41" y="360.49" width="18.08" height="0.72" transform="translate(-37.13 627.62) rotate(-43.08)"/><rect class="cls-6" x="751.57" y="375.3" width="18.08" height="0.72" transform="matrix(0.73, -0.68, 0.68, 0.73, -51.52, 620.8)"/><rect class="cls-6" x="760.86" y="351.53" width="0.72" height="17.81" transform="translate(-40.96 617.11) rotate(-43.08)"/><rect class="cls-6" x="775.67" y="367.09" width="0.72" height="18.35" transform="translate(-47.78 631.49) rotate(-43.08)"/><circle class="cls-6" cx="768.47" cy="368.25" r="0.94"/><rect class="cls-6" x="741.01" y="372.97" width="3.23" height="39.77" transform="translate(-68.11 613.15) rotate(-43.08)"/><rect class="cls-6" x="732.27" y="381.14" width="3.23" height="39.77" transform="translate(-76.05 609.38) rotate(-43.08)"/><rect class="cls-6" x="723.53" y="389.31" width="3.23" height="39.77" transform="translate(-83.99 605.62) rotate(-43.08)"/><path class="cls-3" d="M691.66,470l-29.37-31.41L701,402.32l29.37,31.41Zm-24.8-31.26,24.95,26.69,34-31.8-25-26.69Z"/><path class="cls-3" d="M684.91,442c7.85-9.82,15.61-11.83,20.74-11.79a18.64,18.64,0,0,1,9.51,2.59l-1.43,2.16a16.29,16.29,0,0,0-8.23-2.16c-6.59,0-12.83,3.63-18.56,10.82Z"/><polygon class="cls-6" points="661.19 465.93 636.26 465.09 648.31 477.97 661.19 465.93"/><polygon class="cls-6" points="651.38 481.26 663.42 494.14 664.26 469.21 651.38 481.26"/><polygon class="cls-6" points="632.98 468.16 632.14 493.09 645.02 481.04 632.98 468.16"/><polygon class="cls-6" points="635.21 496.37 660.14 497.21 648.09 484.33 635.21 496.37"/><rect class="cls-6" x="646.89" y="473.19" width="18.08" height="0.72" transform="translate(-146.6 575.69) rotate(-43.08)"/><rect class="cls-6" x="631.06" y="488" width="18.08" height="0.72" transform="translate(-160.99 568.87) rotate(-43.08)"/><rect class="cls-6" x="640.34" y="464.23" width="0.72" height="17.81" transform="translate(-150.42 565.18) rotate(-43.08)"/><rect class="cls-6" x="655.15" y="479.79" width="0.72" height="18.35" transform="translate(-157.25 579.56) rotate(-43.08)"/><circle class="cls-6" cx="647.95" cy="480.95" r="0.94"/><rect class="cls-6" x="620.49" y="485.67" width="3.23" height="39.77" transform="translate(-177.58 561.22) rotate(-43.08)"/><rect class="cls-6" x="611.75" y="493.84" width="3.23" height="39.77" transform="translate(-185.52 557.45) rotate(-43.08)"/><rect class="cls-6" x="603.02" y="502.01" width="3.23" height="39.77" transform="translate(-193.45 553.69) rotate(-43.08)"/><path class="cls-3" d="M571.14,582.64l-29.37-31.4L580.5,515l29.37,31.41Zm-24.8-31.25,25,26.69,34-31.8-24.95-26.69Z"/><path class="cls-3" d="M564.4,554.68c7.84-9.82,15.61-11.83,20.74-11.79a18.68,18.68,0,0,1,9.51,2.59l-1.43,2.16a16.35,16.35,0,0,0-8.24-2.16c-6.58,0-12.82,3.63-18.56,10.82Z"/><circle class="cls-4" cx="1111.61" cy="133.68" r="5.98"/><circle class="cls-4" cx="1099.34" cy="148.8" r="5.98"/><circle class="cls-4" cx="1114.67" cy="154.48" r="5.98"/><circle class="cls-4" cx="1109.83" cy="172.67" r="5.98"/><rect class="cls-4" x="1079.83" y="158.06" width="3.16" height="38.89" transform="translate(170.31 786.49) rotate(-43.08)"/><rect class="cls-4" x="1063.51" y="173.32" width="3.16" height="38.89" transform="translate(155.49 779.46) rotate(-43.08)"/><rect class="cls-4" x="1047" y="188.76" width="3.16" height="38.89" transform="translate(140.5 772.34) rotate(-43.08)"/><rect class="cls-4" x="1030.49" y="204.2" width="3.16" height="38.89" transform="translate(125.5 765.23) rotate(-43.08)"/><rect class="cls-4" x="957.93" y="272.05" width="3.16" height="38.89" transform="translate(59.59 733.96) rotate(-43.08)"/><rect class="cls-4" x="941.62" y="287.31" width="3.16" height="38.89" transform="translate(44.77 726.93) rotate(-43.08)"/><rect class="cls-4" x="925.11" y="302.75" width="3.16" height="38.89" transform="translate(29.77 719.82) rotate(-43.08)"/><rect class="cls-4" x="908.59" y="318.19" width="3.16" height="38.89" transform="translate(14.78 712.7) rotate(-43.08)"/><circle class="cls-4" cx="1006.71" cy="227.22" r="5.98"/><circle class="cls-4" cx="1006.8" cy="252.63" r="5.98"/><circle class="cls-4" cx="988.1" cy="249.18" r="5.98"/><circle class="cls-4" cx="975.83" cy="264.29" r="5.98"/><circle class="cls-4" cx="991.17" cy="269.98" r="5.98"/><circle class="cls-4" cx="986.32" cy="288.16" r="5.98"/><circle class="cls-4" cx="1023.23" cy="253.65" r="5.98"/><circle class="cls-4" cx="884.81" cy="341.22" r="5.98"/><circle class="cls-4" cx="884.9" cy="366.63" r="5.98"/><circle class="cls-4" cx="866.19" cy="363.18" r="5.98"/><circle class="cls-4" cx="853.93" cy="378.29" r="5.98"/><circle class="cls-4" cx="869.26" cy="383.98" r="5.98"/><circle class="cls-4" cx="864.42" cy="402.17" r="5.98"/><circle class="cls-4" cx="901.33" cy="367.65" r="5.98"/><rect class="cls-4" x="834.42" y="387.56" width="3.16" height="38.89" transform="translate(-52.6 680.74) rotate(-43.08)"/><rect class="cls-4" x="818.1" y="402.81" width="3.16" height="38.89" transform="translate(-67.42 673.71) rotate(-43.08)"/><rect class="cls-4" x="801.59" y="418.25" width="3.16" height="38.89" transform="translate(-82.42 666.59) rotate(-43.08)"/><rect class="cls-4" x="785.08" y="433.7" width="3.16" height="38.89" transform="translate(-97.42 659.48) rotate(-43.08)"/><rect class="cls-4" x="712.52" y="501.55" width="3.16" height="38.89" transform="translate(-163.33 628.21) rotate(-43.08)"/><rect class="cls-4" x="696.21" y="516.8" width="3.16" height="38.89" transform="translate(-178.15 621.18) rotate(-43.08)"/><rect class="cls-4" x="679.69" y="532.25" width="3.16" height="38.89" transform="translate(-193.14 614.07) rotate(-43.08)"/><rect class="cls-4" x="663.18" y="547.69" width="3.16" height="38.89" transform="translate(-208.14 606.95) rotate(-43.08)"/><circle class="cls-4" cx="761.3" cy="456.72" r="5.98"/><circle class="cls-4" cx="761.39" cy="482.13" r="5.98"/><circle class="cls-4" cx="742.69" cy="478.68" r="5.98"/><circle class="cls-4" cx="730.42" cy="493.79" r="5.98"/><circle class="cls-4" cx="745.76" cy="499.48" r="5.98"/><circle class="cls-4" cx="740.91" cy="517.66" r="5.98"/><circle class="cls-4" cx="777.82" cy="483.15" r="5.98"/><circle class="cls-4" cx="639.39" cy="570.72" r="5.98"/><circle class="cls-4" cx="639.48" cy="596.13" r="5.98"/><circle class="cls-4" cx="620.78" cy="592.68" r="5.98"/><circle class="cls-4" cx="608.52" cy="607.79" r="5.98"/><circle class="cls-4" cx="623.85" cy="613.48" r="5.98"/><circle class="cls-4" cx="619.01" cy="631.66" r="5.98"/><circle class="cls-4" cx="655.91" cy="597.15" r="5.98"/><rect class="cls-6" x="1101.73" y="242.62" width="19.59" height="19.59" rx="8.06" transform="translate(1401.03 -850.03) rotate(91.92)"/><polygon class="cls-6" points="1096.54 239.7 1094.66 237.69 1093.71 265.99 1095.72 264.11 1096.54 239.7"/><polygon class="cls-6" points="1124.25 237.43 1126.26 235.56 1097.96 234.61 1099.84 236.61 1124.25 237.43"/><polygon class="cls-6" points="1123.22 268.22 1098.8 267.4 1096.8 269.28 1125.09 270.23 1123.22 268.22"/><rect class="cls-6" x="1048.17" y="303.45" width="9.9" height="9.9" rx="4.95" transform="translate(1396.62 -733.8) rotate(91.92)"/><path class="cls-3" d="M1086.58,294.07l-17-.58a.47.47,0,0,1-.45-.47l.57-17-1.35-1.44a1.71,1.71,0,0,0-.14.67l-.6,17.75a2,2,0,0,0,1.91,2.05l17.76.6a2.24,2.24,0,0,0,.68-.1Z"/><path class="cls-3" d="M1019.67,322.74l17,.57a.47.47,0,0,1,.45.48l-.57,17,1.35,1.45a2.17,2.17,0,0,0,.14-.68l.6-17.75a2,2,0,0,0-.54-1.42,2,2,0,0,0-1.38-.63L1019,321.2a1.9,1.9,0,0,0-.68.1Z"/><path class="cls-3" d="M1067.71,322.73l-.08.14Z"/><path class="cls-3" d="M1067.72,322.7a.88.88,0,0,0,0-.15A.88.88,0,0,1,1067.72,322.7Z"/><path class="cls-3" d="M1067,323.38l-.16,0Z"/><path class="cls-3" d="M1066.82,323.43l-.19,0Z"/><path class="cls-3" d="M1067.17,323.3l-.15.07Z"/><path class="cls-3" d="M1067.78,322.52a.58.58,0,0,0,0-.19A.58.58,0,0,1,1067.78,322.52Z"/><path class="cls-3" d="M1067.63,322.87l-.11.15Z"/><path class="cls-3" d="M1067.71,322.73v0Z"/><path class="cls-3" d="M1067.17,323.3l.16-.1Z"/><path class="cls-3" d="M1066.84,323.42h0Z"/><path class="cls-3" d="M1067.77,322.55v0Z"/><path class="cls-3" d="M1067,323.37h0Z"/><path class="cls-3" d="M1042.4,346.91c0-.05,0-.1,0-.15l.78-23.26a.09.09,0,0,1,.08-.08l23.26.78a2,2,0,0,0,1.42-.53,2,2,0,0,0,.63-1.38l.75-22.59a.73.73,0,0,1,.24-.52.69.69,0,0,1,.53-.2l21.76.73-1.47-1.57-21.68-.73a.74.74,0,0,0-.61.2.81.81,0,0,0-.17.24h0v.2a.81.81,0,0,0,0,.16l-.8,24a.47.47,0,0,1-.48.45l-24-.81a.73.73,0,0,0-.61.2.76.76,0,0,0-.18.23h0v.35l-.77,23,1.43,1.53Z"/><path class="cls-3" d="M1038.27,318.85h.2v-.06a.64.64,0,0,0,.25-.15.76.76,0,0,0,.24-.6l.8-24a.47.47,0,0,1,.48-.45l24,.81h.36v-.05a1,1,0,0,0,.25-.16.74.74,0,0,0,.23-.6l.73-21.67-1.47-1.57-.73,21.75a.72.72,0,0,1-.23.52.73.73,0,0,1-.54.2l-22.59-.75a2,2,0,0,0-1.42.53,2,2,0,0,0-.63,1.38l-.77,23.26s0,.08-.08.07l-23.26-.78h-.48l1.44,1.54,23,.77Z"/><rect class="cls-6" x="981.22" y="355.32" width="19.59" height="19.59" rx="8.06" transform="translate(1389.12 -613.11) rotate(91.92)"/><polygon class="cls-6" points="976.02 352.39 974.15 350.39 973.2 378.69 975.21 376.81 976.02 352.39"/><polygon class="cls-6" points="1003.73 350.13 1005.74 348.25 977.44 347.31 979.32 349.31 1003.73 350.13"/><polygon class="cls-6" points="1006 377.84 1007.87 379.85 1008.82 351.55 1006.82 353.43 1006 377.84"/><polygon class="cls-6" points="1002.7 380.92 978.29 380.1 976.28 381.98 1004.58 382.93 1002.7 380.92"/><rect class="cls-6" x="927.66" y="416.15" width="9.9" height="9.9" rx="4.95" transform="translate(1384.71 -496.88) rotate(91.92)"/><path class="cls-3" d="M966.07,406.76l-17-.57a.47.47,0,0,1-.45-.48l.57-17-1.35-1.44a2.16,2.16,0,0,0-.14.67l-.59,17.75a2,2,0,0,0,.53,1.42,2,2,0,0,0,1.38.63l17.75.6a2.26,2.26,0,0,0,.69-.1Z"/><path class="cls-3" d="M899.15,435.44l17,.57a.47.47,0,0,1,.44.48l-.57,17,1.35,1.45a1.93,1.93,0,0,0,.15-.68l.59-17.75a2,2,0,0,0-1.91-2.05l-17.75-.59a1.78,1.78,0,0,0-.69.1Z"/><path class="cls-3" d="M947.19,435.43c0,.05-.05.09-.07.14S947.17,435.48,947.19,435.43Z"/><path class="cls-3" d="M947.2,435.4l.06-.15Z"/><path class="cls-3" d="M946.49,436.08l-.16,0Z"/><path class="cls-3" d="M946.3,436.12a1.08,1.08,0,0,1-.19,0A1.08,1.08,0,0,0,946.3,436.12Z"/><path class="cls-3" d="M946.66,436l-.15.07Z"/><path class="cls-3" d="M947.26,435.22a1.06,1.06,0,0,0,0-.19A1.06,1.06,0,0,1,947.26,435.22Z"/><path class="cls-3" d="M947.12,435.57a1.58,1.58,0,0,1-.12.15A1.58,1.58,0,0,0,947.12,435.57Z"/><path class="cls-3" d="M947.19,435.43v0Z"/><path class="cls-3" d="M946.66,436l.15-.1Z"/><path class="cls-3" d="M946.33,436.12h0Z"/><path class="cls-3" d="M947.26,435.25v0Z"/><path class="cls-3" d="M946.51,436.07h0Z"/><path class="cls-3" d="M921.88,459.61c0-.05,0-.1,0-.15l.77-23.26s0-.08.08-.08l23.26.78a2,2,0,0,0,2-1.91l.76-22.59a.72.72,0,0,1,.23-.52.73.73,0,0,1,.54-.2l21.75.73-1.46-1.57-21.68-.73a.75.75,0,0,0-.62.2.81.81,0,0,0-.17.24h0v.2a.85.85,0,0,0,0,.16l-.81,24a.47.47,0,0,1-.48.45l-24-.81a.74.74,0,0,0-.61.2.91.91,0,0,0-.17.23h0v.21a.61.61,0,0,0,0,.14l-.77,23,1.44,1.53Z"/><path class="cls-3" d="M917.75,431.55H918v-.06a.61.61,0,0,0,.24-.15.73.73,0,0,0,.24-.6l.81-24a.46.46,0,0,1,.48-.45l24,.81h.35v0a.82.82,0,0,0,.25-.16.74.74,0,0,0,.24-.6l.72-21.67L943.88,383l-.73,21.75a.73.73,0,0,1-.24.52.69.69,0,0,1-.53.2l-22.59-.76a2,2,0,0,0-1.42.54,2,2,0,0,0-.63,1.38L917,429.93a.08.08,0,0,1-.08.07l-23.26-.78h-.47l1.43,1.53,23,.78Z"/><rect class="cls-6" x="856.32" y="472.12" width="19.59" height="19.59" rx="8.06" transform="translate(1376.77 -367.57) rotate(91.92)"/><polygon class="cls-6" points="851.13 469.19 849.25 467.19 848.3 495.48 850.31 493.61 851.13 469.19"/><polygon class="cls-6" points="878.84 466.93 880.84 465.05 852.55 464.1 854.42 466.11 878.84 466.93"/><polygon class="cls-6" points="881.1 494.64 882.98 496.65 883.92 468.35 881.92 470.23 881.1 494.64"/><polygon class="cls-6" points="877.8 497.72 853.39 496.9 851.38 498.78 879.68 499.73 877.8 497.72"/><rect class="cls-6" x="802.76" y="532.95" width="9.9" height="9.9" rx="4.95" transform="translate(1372.36 -251.34) rotate(91.92)"/><path class="cls-3" d="M841.17,523.56l-17-.57a.47.47,0,0,1-.44-.48l.57-17L822.91,504a2,2,0,0,0-.15.68l-.59,17.75a2,2,0,0,0,1.91,2l17.75.59a2,2,0,0,0,.69-.09Z"/><path class="cls-3" d="M774.25,552.24l17,.57a.47.47,0,0,1,.45.48l-.57,17,1.35,1.45a2.23,2.23,0,0,0,.14-.68l.59-17.75a2,2,0,0,0-.53-1.42,2,2,0,0,0-1.38-.63l-17.75-.59a2,2,0,0,0-.69.09Z"/><path class="cls-3" d="M822.29,552.22a1,1,0,0,1-.07.15A1,1,0,0,0,822.29,552.22Z"/><path class="cls-3" d="M822.31,552.2c0-.05,0-.1.05-.15S822.33,552.15,822.31,552.2Z"/><path class="cls-3" d="M821.59,552.87l-.16,0Z"/><path class="cls-3" d="M821.41,552.92l-.19,0Z"/><path class="cls-3" d="M821.76,552.8l-.15.06Z"/><path class="cls-3" d="M822.37,552l0-.19Z"/><path class="cls-3" d="M822.22,552.37l-.11.15Z"/><path class="cls-3" d="M822.29,552.22l0,0Z"/><path class="cls-3" d="M821.76,552.8a.78.78,0,0,0,.15-.1Z"/><path class="cls-3" d="M821.43,552.92h0Z"/><path class="cls-3" d="M822.36,552.05v0Z"/><path class="cls-3" d="M821.61,552.86h0Z"/><path class="cls-3" d="M797,576.4s0-.1,0-.15l.78-23.26a.07.07,0,0,1,.07-.07l23.26.78a2,2,0,0,0,1.43-.53,2,2,0,0,0,.62-1.38l.76-22.59a.73.73,0,0,1,.24-.52.69.69,0,0,1,.53-.2l21.75.72L845,527.64l-21.68-.73a.73.73,0,0,0-.61.2.63.63,0,0,0-.17.23h-.06v.2a.76.76,0,0,0,0,.15l-.81,24a.45.45,0,0,1-.48.44l-24-.8a.75.75,0,0,0-.62.2.66.66,0,0,0-.17.23h-.05v.2a.38.38,0,0,0,0,.15l-.78,23,1.44,1.54Z"/><path class="cls-3" d="M792.86,548.35h.2v-.06a.73.73,0,0,0,.25-.15.76.76,0,0,0,.23-.6l.81-24a.46.46,0,0,1,.48-.45l24,.81h.36v0a.78.78,0,0,0,.24-.16.73.73,0,0,0,.24-.6l.73-21.68L819,499.84l-.73,21.75a.78.78,0,0,1-.23.52.73.73,0,0,1-.54.2l-22.59-.76a2,2,0,0,0-2,1.92l-.78,23.26a.07.07,0,0,1-.07.07L768.73,546h-.15l-.33,0,1.43,1.53,23,.77Z"/><rect class="cls-6" x="735.8" y="584.82" width="19.59" height="19.59" rx="8.06" transform="translate(1364.85 -130.65) rotate(91.92)"/><polygon class="cls-6" points="730.61 581.89 728.74 579.88 727.79 608.18 729.79 606.31 730.61 581.89"/><polygon class="cls-6" points="758.32 579.63 760.33 577.75 732.03 576.8 733.91 578.81 758.32 579.63"/><polygon class="cls-6" points="760.59 607.34 762.46 609.35 763.41 581.05 761.4 582.92 760.59 607.34"/><polygon class="cls-6" points="757.29 610.42 732.88 609.6 730.87 611.48 759.17 612.43 757.29 610.42"/><rect class="cls-6" x="682.25" y="645.65" width="9.9" height="9.9" rx="4.95" transform="translate(1360.45 -14.42) rotate(91.92)"/><path class="cls-3" d="M720.65,636.26l-17-.57a.47.47,0,0,1-.45-.48l.57-17-1.35-1.45a2.23,2.23,0,0,0-.14.68l-.6,17.75a2,2,0,0,0,.54,1.42,2,2,0,0,0,1.38.63l17.75.59a1.9,1.9,0,0,0,.68-.09Z"/><path class="cls-3" d="M653.74,664.94l17,.57a.47.47,0,0,1,.45.48l-.57,17,1.35,1.45a1.76,1.76,0,0,0,.14-.68l.6-17.75a2,2,0,0,0-.53-1.42,2,2,0,0,0-1.39-.63l-17.75-.59a2,2,0,0,0-.68.09Z"/><path class="cls-3" d="M701.78,664.92a1.09,1.09,0,0,1-.08.15A1.09,1.09,0,0,0,701.78,664.92Z"/><path class="cls-3" d="M701.79,664.9a.88.88,0,0,0,.05-.15A.88.88,0,0,1,701.79,664.9Z"/><path class="cls-3" d="M701.07,665.57l-.15,0Z"/><path class="cls-3" d="M700.89,665.62l-.19,0Z"/><path class="cls-3" d="M701.24,665.5l-.15.06Z"/><path class="cls-3" d="M701.85,664.72a1.29,1.29,0,0,0,0-.19A1.29,1.29,0,0,1,701.85,664.72Z"/><path class="cls-3" d="M701.7,665.07l-.11.15Z"/><path class="cls-3" d="M701.78,664.92v0Z"/><path class="cls-3" d="M701.24,665.5l.16-.1Z"/><path class="cls-3" d="M700.92,665.62h0Z"/><path class="cls-3" d="M701.84,664.75a0,0,0,0,0,0,0A0,0,0,0,1,701.84,664.75Z"/><path class="cls-3" d="M701.09,665.56h0Z"/><path class="cls-3" d="M676.47,689.1a.76.76,0,0,0,0-.15l.78-23.26a.08.08,0,0,1,.08-.07l23.26.78a2,2,0,0,0,2-1.91l.75-22.6a.77.77,0,0,1,.24-.51.71.71,0,0,1,.53-.2l21.76.72-1.47-1.56-21.67-.73a.75.75,0,0,0-.62.2.66.66,0,0,0-.17.23h0v.2a.38.38,0,0,0,0,.15l-.81,24a.46.46,0,0,1-.48.45l-24-.8a.76.76,0,0,0-.61.19.81.81,0,0,0-.17.24h-.06v.2a.76.76,0,0,0,0,.15l-.77,23,1.43,1.54Z"/><path class="cls-3" d="M672.34,661.05h.21V661a.61.61,0,0,0,.24-.15.74.74,0,0,0,.24-.6l.8-24a.47.47,0,0,1,.48-.45l24,.8h.35v-.06a.64.64,0,0,0,.25-.15.75.75,0,0,0,.23-.6l.73-21.68-1.47-1.56-.72,21.75a.75.75,0,0,1-.24.52.69.69,0,0,1-.53.2l-22.59-.76a2,2,0,0,0-2,1.92l-.78,23.26a.08.08,0,0,1-.08.07l-23.26-.78h-.15l-.33,0,1.44,1.53,23,.77Z"/><rect class="cls-6" x="1122.01" y="323.49" width="3.23" height="39.77" transform="translate(68.4 860.04) rotate(-43.08)"/><path class="cls-3" d="M1090.14,404.13l-29.37-31.41,38.72-36.21,29.38,31.4Zm-24.8-31.25,25,26.68,34-31.8-25-26.68Z"/><path class="cls-3" d="M1083.39,376.17c7.85-9.83,15.61-11.84,20.74-11.79a18.57,18.57,0,0,1,9.51,2.59l-1.43,2.15A16.42,16.42,0,0,0,1104,367c-6.58,0-12.82,3.64-18.56,10.82Z"/><polygon class="cls-6" points="1059.66 400.11 1034.74 399.27 1046.79 412.15 1059.66 400.11"/><polygon class="cls-6" points="1049.86 415.44 1061.9 428.32 1062.74 403.39 1049.86 415.44"/><polygon class="cls-6" points="1031.45 402.35 1030.62 427.27 1043.5 415.23 1031.45 402.35"/><polygon class="cls-6" points="1033.69 430.56 1058.62 431.39 1046.57 418.51 1033.69 430.56"/><rect class="cls-6" x="1045.37" y="407.37" width="18.08" height="0.72" transform="translate(5.79 830.12) rotate(-43.08)"/><rect class="cls-6" x="1029.53" y="422.18" width="18.08" height="0.72" transform="translate(-8.6 823.3) rotate(-43.08)"/><rect class="cls-6" x="1038.82" y="398.41" width="0.72" height="17.81" transform="translate(1.96 819.61) rotate(-43.08)"/><rect class="cls-6" x="1053.63" y="413.98" width="0.72" height="18.35" transform="translate(-4.86 833.99) rotate(-43.08)"/><circle class="cls-6" cx="1046.43" cy="415.13" r="0.94"/><rect class="cls-6" x="1018.97" y="419.85" width="3.23" height="39.77" transform="translate(-25.19 815.64) rotate(-43.08)"/><rect class="cls-6" x="1010.23" y="428.02" width="3.23" height="39.77" transform="translate(-33.13 811.88) rotate(-43.08)"/><rect class="cls-6" x="1001.49" y="436.19" width="3.23" height="39.77" transform="translate(-41.07 808.11) rotate(-43.08)"/><path class="cls-3" d="M969.62,516.83l-29.37-31.41L979,449.21l29.37,31.4Zm-24.8-31.26,25,26.69,34-31.8-24.95-26.68Z"/><path class="cls-3" d="M962.88,488.87c7.84-9.83,15.61-11.84,20.74-11.79a18.47,18.47,0,0,1,9.5,2.59l-1.43,2.15a16.36,16.36,0,0,0-8.23-2.16c-6.58,0-12.83,3.64-18.56,10.82Z"/><polygon class="cls-6" points="934.77 516.91 909.84 516.07 921.89 528.95 934.77 516.91"/><polygon class="cls-6" points="924.96 532.24 937.01 545.12 937.84 520.19 924.96 532.24"/><polygon class="cls-6" points="906.56 519.14 905.72 544.07 918.6 532.02 906.56 519.14"/><polygon class="cls-6" points="908.79 547.36 933.72 548.19 921.67 535.31 908.79 547.36"/><rect class="cls-6" x="920.47" y="524.17" width="18.08" height="0.72" transform="translate(-107.66 776.3) rotate(-43.08)"/><rect class="cls-6" x="904.64" y="538.98" width="18.08" height="0.72" transform="translate(-122.05 769.48) rotate(-43.08)"/><rect class="cls-6" x="913.92" y="515.21" width="0.72" height="17.81" transform="translate(-111.49 765.79) rotate(-43.08)"/><rect class="cls-6" x="928.73" y="530.77" width="0.72" height="18.35" transform="translate(-118.31 780.17) rotate(-43.08)"/><circle class="cls-6" cx="921.53" cy="531.93" r="0.94"/><rect class="cls-6" x="894.07" y="536.65" width="3.23" height="39.77" transform="translate(-138.64 761.82) rotate(-43.08)"/><rect class="cls-6" x="885.33" y="544.82" width="3.23" height="39.77" transform="translate(-146.58 758.06) rotate(-43.08)"/><rect class="cls-6" x="876.6" y="552.99" width="3.23" height="39.77" transform="translate(-154.52 754.29) rotate(-43.08)"/><path class="cls-3" d="M844.73,633.63l-29.37-31.41L854.08,566l29.37,31.41Zm-24.8-31.26,25,26.69,34-31.8-25-26.69Z"/><path class="cls-3" d="M838,605.67c7.84-9.83,15.61-11.84,20.74-11.8a18.52,18.52,0,0,1,9.51,2.6l-1.43,2.15a16.35,16.35,0,0,0-8.24-2.16c-6.58,0-12.82,3.63-18.56,10.82Z"/><polygon class="cls-6" points="814.25 629.61 789.33 628.77 801.37 641.65 814.25 629.61"/><polygon class="cls-6" points="804.45 644.94 816.49 657.82 817.33 632.89 804.45 644.94"/><polygon class="cls-6" points="786.04 631.84 785.21 656.77 798.09 644.72 786.04 631.84"/><polygon class="cls-6" points="788.28 660.05 813.21 660.89 801.16 648.01 788.28 660.05"/><rect class="cls-6" x="799.96" y="636.87" width="18.08" height="0.72" transform="translate(-217.13 724.37) rotate(-43.08)"/><rect class="cls-6" x="784.12" y="651.68" width="18.08" height="0.72" transform="translate(-231.52 717.55) rotate(-43.08)"/><rect class="cls-6" x="793.41" y="627.91" width="0.72" height="17.81" transform="translate(-220.95 713.86) rotate(-43.08)"/><rect class="cls-6" x="808.22" y="643.47" width="0.72" height="18.35" transform="translate(-227.78 728.24) rotate(-43.08)"/><circle class="cls-6" cx="801.02" cy="644.63" r="0.94"/><rect class="cls-6" x="773.56" y="649.35" width="3.23" height="39.77" transform="translate(-248.11 709.89) rotate(-43.08)"/><rect class="cls-6" x="764.82" y="657.52" width="3.23" height="39.77" transform="translate(-256.05 706.13) rotate(-43.08)"/><rect class="cls-6" x="756.08" y="665.69" width="3.23" height="39.77" transform="translate(-263.98 702.36) rotate(-43.08)"/><path class="cls-3" d="M724.21,746.33l-29.37-31.41,38.73-36.22,29.37,31.41Zm-24.8-31.26,25,26.69,34-31.8-25-26.69Z"/><path class="cls-3" d="M717.47,718.37c7.84-9.83,15.6-11.84,20.74-11.8a18.42,18.42,0,0,1,9.5,2.6l-1.43,2.15a16.25,16.25,0,0,0-8.23-2.16c-6.58,0-12.83,3.63-18.56,10.82Z"/><rect class="cls-4" x="1111" y="435.73" width="3.16" height="38.89" transform="translate(-10.94 882.64) rotate(-43.08)"/><rect class="cls-4" x="1094.68" y="450.99" width="3.16" height="38.89" transform="translate(-25.76 875.61) rotate(-43.08)"/><rect class="cls-4" x="1078.17" y="466.43" width="3.16" height="38.89" transform="translate(-40.76 868.5) rotate(-43.08)"/><rect class="cls-4" x="1061.66" y="481.87" width="3.16" height="38.89" transform="translate(-55.76 861.38) rotate(-43.08)"/><circle class="cls-4" cx="1037.87" cy="504.9" r="5.98"/><circle class="cls-4" cx="1037.96" cy="530.31" r="5.98"/><circle class="cls-4" cx="1019.26" cy="526.86" r="5.98"/><circle class="cls-4" cx="1006.99" cy="541.97" r="5.98"/><circle class="cls-4" cx="1022.33" cy="547.66" r="5.98"/><circle class="cls-4" cx="1017.48" cy="565.85" r="5.98"/><circle class="cls-4" cx="1054.39" cy="531.33" r="5.98"/><rect class="cls-4" x="987.48" y="551.24" width="3.16" height="38.89" transform="translate(-123.13 829.42) rotate(-43.08)"/><rect class="cls-4" x="971.17" y="566.49" width="3.16" height="38.89" transform="translate(-137.95 822.39) rotate(-43.08)"/><rect class="cls-4" x="954.66" y="581.94" width="3.16" height="38.89" transform="translate(-152.95 815.27) rotate(-43.08)"/><rect class="cls-4" x="938.14" y="597.38" width="3.16" height="38.89" transform="translate(-167.95 808.16) rotate(-43.08)"/><rect class="cls-4" x="865.59" y="665.23" width="3.16" height="38.89" transform="translate(-233.86 776.89) rotate(-43.08)"/><rect class="cls-4" x="849.27" y="680.49" width="3.16" height="38.89" transform="translate(-248.68 769.86) rotate(-43.08)"/><rect class="cls-4" x="832.76" y="695.93" width="3.16" height="38.89" transform="translate(-263.67 762.75) rotate(-43.08)"/><rect class="cls-4" x="816.25" y="711.37" width="3.16" height="38.89" transform="translate(-278.67 755.63) rotate(-43.08)"/><circle class="cls-4" cx="914.37" cy="620.4" r="5.98"/><circle class="cls-4" cx="914.46" cy="645.81" r="5.98"/><circle class="cls-4" cx="895.76" cy="642.36" r="5.98"/><circle class="cls-4" cx="883.49" cy="657.47" r="5.98"/><circle class="cls-4" cx="898.82" cy="663.16" r="5.98"/><circle class="cls-4" cx="893.98" cy="681.34" r="5.98"/><circle class="cls-4" cx="930.89" cy="646.83" r="5.98"/><circle class="cls-4" cx="792.46" cy="734.4" r="5.98"/><rect class="cls-6" x="1080.72" y="579.83" width="9.9" height="9.9" rx="4.95" transform="matrix(-0.03, 1, -1, -0.03, 1706.49, -480.7)"/><path class="cls-3" d="M1119.13,570.45l-17-.58a.47.47,0,0,1-.45-.47l.57-17-1.35-1.44a1.71,1.71,0,0,0-.14.67l-.6,17.75a2,2,0,0,0,1.92,2l17.75.6a2.24,2.24,0,0,0,.68-.1Z"/><path class="cls-3" d="M1052.22,599.12l17,.57a.47.47,0,0,1,.45.48l-.57,17,1.35,1.44a1.92,1.92,0,0,0,.14-.68l.6-17.75a2,2,0,0,0-1.92-2.05l-17.75-.59a1.93,1.93,0,0,0-.68.1Z"/><path class="cls-3" d="M1100.26,599.11a.64.64,0,0,1-.08.14A.64.64,0,0,0,1100.26,599.11Z"/><path class="cls-3" d="M1100.27,599.08a.88.88,0,0,0,0-.15A.66.66,0,0,1,1100.27,599.08Z"/><path class="cls-3" d="M1099.55,599.76l-.15,0Z"/><path class="cls-3" d="M1099.37,599.81l-.19,0Z"/><path class="cls-3" d="M1099.72,599.68l-.15.07Z"/><path class="cls-3" d="M1100.33,598.9a.58.58,0,0,0,0-.19A.58.58,0,0,1,1100.33,598.9Z"/><path class="cls-3" d="M1100.18,599.25l-.11.15Z"/><path class="cls-3" d="M1100.26,599.11v0Z"/><path class="cls-3" d="M1099.72,599.68l.16-.1Z"/><path class="cls-3" d="M1099.4,599.8h0Z"/><path class="cls-3" d="M1100.32,598.93v0Z"/><path class="cls-3" d="M1099.57,599.75h0Z"/><path class="cls-3" d="M1075,623.29s0-.1,0-.15l.78-23.26a.09.09,0,0,1,.08-.08l23.26.79a2,2,0,0,0,1.42-.54,2,2,0,0,0,.63-1.38l.75-22.59a.75.75,0,0,1,.24-.52.69.69,0,0,1,.53-.2l21.76.73-1.47-1.57-21.68-.73a.74.74,0,0,0-.61.2.81.81,0,0,0-.17.24h0v.2a.86.86,0,0,0,0,.16l-.8,24a.47.47,0,0,1-.48.45l-24-.81a.73.73,0,0,0-.61.2.6.6,0,0,0-.17.23h-.06v.35l-.77,23,1.43,1.53Z"/><path class="cls-3" d="M1070.82,595.23h.2v-.06a.64.64,0,0,0,.25-.15.76.76,0,0,0,.24-.6l.8-24a.47.47,0,0,1,.48-.45l24,.81h.35v0a1,1,0,0,0,.25-.16.74.74,0,0,0,.23-.6l.73-21.67-1.47-1.57-.73,21.75a.72.72,0,0,1-.23.52.73.73,0,0,1-.54.2l-22.59-.75a2,2,0,0,0-1.42.53,2,2,0,0,0-.62,1.38l-.78,23.26a.07.07,0,0,1-.08.07l-23.26-.78h-.48l1.44,1.54,23,.77Z"/><rect class="cls-6" x="1009.39" y="635.8" width="19.59" height="19.59" rx="8.06" transform="translate(1698.55 -351.39) rotate(91.92)"/><polygon class="cls-6" points="1004.19 632.87 1002.32 630.87 1001.37 659.16 1003.38 657.29 1004.19 632.87"/><polygon class="cls-6" points="1031.9 630.61 1033.91 628.73 1005.61 627.78 1007.49 629.79 1031.9 630.61"/><polygon class="cls-6" points="1034.17 658.32 1036.04 660.33 1036.99 632.03 1034.98 633.91 1034.17 658.32"/><polygon class="cls-6" points="1030.87 661.4 1006.46 660.58 1004.45 662.46 1032.75 663.41 1030.87 661.4"/><rect class="cls-6" x="955.83" y="696.63" width="9.9" height="9.9" rx="4.95" transform="translate(1694.14 -235.16) rotate(91.92)"/><path class="cls-3" d="M994.23,687.24l-17-.57a.47.47,0,0,1-.45-.48l.57-17L976,667.72a2.11,2.11,0,0,0-.14.67l-.6,17.75a2,2,0,0,0,1.92,2.05l17.75.59a1.9,1.9,0,0,0,.68-.09Z"/><path class="cls-3" d="M927.32,715.92l17,.57a.47.47,0,0,1,.44.48l-.57,17,1.35,1.45a1.93,1.93,0,0,0,.15-.68l.59-17.75a2,2,0,0,0-1.91-2l-17.75-.59a2,2,0,0,0-.69.09Z"/><path class="cls-3" d="M975.36,715.91l-.07.14Z"/><path class="cls-3" d="M975.37,715.88a.88.88,0,0,0,0-.15A.88.88,0,0,1,975.37,715.88Z"/><path class="cls-3" d="M974.65,716.55l-.15.05Z"/><path class="cls-3" d="M974.47,716.6a.58.58,0,0,1-.19,0A.58.58,0,0,0,974.47,716.6Z"/><path class="cls-3" d="M974.83,716.48l-.15.07Z"/><path class="cls-3" d="M975.43,715.7a1.29,1.29,0,0,0,0-.19A1.29,1.29,0,0,1,975.43,715.7Z"/><path class="cls-3" d="M975.29,716.05l-.12.15Z"/><path class="cls-3" d="M975.36,715.91v0Z"/><path class="cls-3" d="M974.83,716.48l.15-.1Z"/><path class="cls-3" d="M974.5,716.6h0Z"/><path class="cls-3" d="M975.42,715.73a0,0,0,0,0,0,0A0,0,0,0,1,975.42,715.73Z"/><path class="cls-3" d="M974.68,716.55h0Z"/><path class="cls-3" d="M950.05,740.09c0-.05,0-.1,0-.15l.77-23.26a.08.08,0,0,1,.08-.08l23.26.78a2,2,0,0,0,2.05-1.91l.76-22.59a.72.72,0,0,1,.23-.52.73.73,0,0,1,.54-.2l21.75.73L998,691.32l-21.67-.73a.75.75,0,0,0-.62.2.91.91,0,0,0-.17.23h-.05v.2a.75.75,0,0,0,0,.15l-.81,24a.47.47,0,0,1-.48.45l-24-.81a.74.74,0,0,0-.61.2.66.66,0,0,0-.17.23h-.06v.2a.76.76,0,0,0,0,.15l-.77,23,1.44,1.53Z"/><path class="cls-3" d="M945.92,712h.21V712a.61.61,0,0,0,.24-.15.74.74,0,0,0,.24-.6l.81-24a.46.46,0,0,1,.48-.45l24,.81a.75.75,0,0,0,.15,0h.2v-.05a.82.82,0,0,0,.25-.16.74.74,0,0,0,.24-.6l.72-21.68-1.46-1.56-.73,21.75a.73.73,0,0,1-.24.52.69.69,0,0,1-.53.2L948,685.23a2,2,0,0,0-1.42.54,2,2,0,0,0-.63,1.38l-.78,23.26a.08.08,0,0,1-.08.07l-23.26-.78h-.47l1.43,1.53,23,.77Z"/><polygon class="cls-6" points="911.39 743.31 913.4 741.43 885.1 740.48 886.98 742.49 911.39 743.31"/><path class="cls-3" d="M1122.69,680.51l-29.37-31.41,38.73-36.21,29.37,31.4Zm-24.8-31.25,24.95,26.68,34-31.8-25-26.68Z"/><polygon class="cls-6" points="1087.84 680.59 1062.91 679.75 1074.95 692.63 1087.84 680.59"/><polygon class="cls-6" points="1078.03 695.92 1090.07 708.8 1090.91 683.87 1078.03 695.92"/><polygon class="cls-6" points="1059.63 682.83 1058.79 707.75 1071.67 695.71 1059.63 682.83"/><polygon class="cls-6" points="1061.86 711.04 1086.79 711.87 1074.74 698.99 1061.86 711.04"/><rect class="cls-6" x="1073.54" y="687.85" width="18.08" height="0.72" transform="translate(-178.19 924.98) rotate(-43.08)"/><rect class="cls-6" x="1057.7" y="702.66" width="18.08" height="0.72" transform="translate(-192.58 918.16) rotate(-43.08)"/><rect class="cls-6" x="1066.99" y="678.89" width="0.72" height="17.81" transform="translate(-182.02 914.46) rotate(-43.08)"/><rect class="cls-6" x="1081.8" y="694.46" width="0.72" height="18.35" transform="translate(-188.84 928.85) rotate(-43.08)"/><circle class="cls-6" cx="1074.6" cy="695.61" r="0.94"/><rect class="cls-6" x="1047.14" y="700.33" width="3.23" height="39.77" transform="translate(-209.17 910.5) rotate(-43.08)"/><rect class="cls-6" x="1038.4" y="708.5" width="3.23" height="39.77" transform="translate(-217.11 906.74) rotate(-43.08)"/><rect class="cls-6" x="1029.66" y="716.67" width="3.23" height="39.77" transform="translate(-225.05 902.97) rotate(-43.08)"/><path class="cls-3" d="M997.79,797.31,968.42,765.9l38.73-36.22,29.37,31.41ZM973,766.05l25,26.69,34-31.8-25-26.69Z"/></g></svg>