<svg id="Calque_1" data-name="Calque 1" xmlns="http://www.w3.org/2000/svg" xmlns:xlink="http://www.w3.org/1999/xlink" viewBox="0 0 743 1115"><defs><style>.cls-1{fill:none;}.cls-2{fill:#dedede;}.cls-3{clip-path:url(#clip-path);}.cls-4{fill:#c8beb5;}.cls-5{fill:#4c2014;}.cls-6{fill:#fab81a;}</style><clipPath id="clip-path"><rect class="cls-1" x="-2" width="747" height="1115"/></clipPath></defs><rect class="cls-2" width="747" height="1115"/><g class="cls-3"><rect class="cls-4" x="90.02" y="60.64" width="38.89" height="3.16"/><rect class="cls-4" x="90.02" y="82.98" width="38.89" height="3.16"/><rect class="cls-4" x="90.02" y="105.58" width="38.89" height="3.16"/><rect class="cls-4" x="90.02" y="128.19" width="38.89" height="3.16"/><circle class="cls-4" cx="113.37" cy="1.13" r="5.98"/><circle class="cls-4" cx="98.08" cy="12.44" r="5.98"/><circle class="cls-4" cx="100.74" cy="31.72" r="5.98"/><circle class="cls-4" cx="115.37" cy="24.4" r="5.98"/><circle class="cls-4" cx="125.34" cy="40.36" r="5.98"/><circle class="cls-4" cx="94.76" cy="150.75" r="5.98"/><circle class="cls-4" cx="113.37" cy="168.04" r="5.98"/><circle class="cls-4" cx="98.08" cy="179.34" r="5.98"/><circle class="cls-4" cx="100.74" cy="198.62" r="5.98"/><circle class="cls-4" cx="115.37" cy="191.31" r="5.98"/><circle class="cls-4" cx="125.34" cy="207.27" r="5.98"/><circle class="cls-4" cx="125.34" cy="156.73" r="5.98"/><rect class="cls-4" x="90.02" y="229.75" width="38.89" height="3.16"/><rect class="cls-4" x="90.02" y="252.09" width="38.89" height="3.16"/><rect class="cls-4" x="90.02" y="274.69" width="38.89" height="3.16"/><rect class="cls-4" x="90.02" y="297.3" width="38.89" height="3.16"/><rect class="cls-4" x="90.02" y="396.64" width="38.89" height="3.16"/><rect class="cls-4" x="90.02" y="418.98" width="38.89" height="3.16"/><rect class="cls-4" x="90.02" y="441.58" width="38.89" height="3.16"/><rect class="cls-4" x="90.02" y="464.19" width="38.89" height="3.16"/><circle class="cls-4" cx="94.76" cy="319.84" r="5.98"/><circle class="cls-4" cx="113.37" cy="337.13" r="5.98"/><circle class="cls-4" cx="98.08" cy="348.44" r="5.98"/><circle class="cls-4" cx="100.74" cy="367.72" r="5.98"/><circle class="cls-4" cx="115.37" cy="360.4" r="5.98"/><circle class="cls-4" cx="125.34" cy="376.36" r="5.98"/><circle class="cls-4" cx="125.34" cy="325.83" r="5.98"/><circle class="cls-4" cx="94.76" cy="486.75" r="5.98"/><circle class="cls-4" cx="113.37" cy="504.04" r="5.98"/><circle class="cls-4" cx="98.08" cy="515.34" r="5.98"/><circle class="cls-4" cx="100.74" cy="534.62" r="5.98"/><circle class="cls-4" cx="115.37" cy="527.31" r="5.98"/><circle class="cls-4" cx="125.34" cy="543.27" r="5.98"/><circle class="cls-4" cx="125.34" cy="492.73" r="5.98"/><rect class="cls-4" x="90.02" y="565.75" width="38.89" height="3.16"/><rect class="cls-4" x="90.02" y="588.09" width="38.89" height="3.16"/><rect class="cls-4" x="90.02" y="610.69" width="38.89" height="3.16"/><rect class="cls-4" x="90.02" y="633.3" width="38.89" height="3.16"/><rect class="cls-4" x="90.02" y="732.64" width="38.89" height="3.16"/><rect class="cls-4" x="90.02" y="754.98" width="38.89" height="3.16"/><rect class="cls-4" x="90.02" y="777.58" width="38.89" height="3.16"/><rect class="cls-4" x="90.02" y="800.19" width="38.89" height="3.16"/><circle class="cls-4" cx="94.76" cy="655.84" r="5.98"/><circle class="cls-4" cx="113.37" cy="673.13" r="5.98"/><circle class="cls-4" cx="98.08" cy="684.44" r="5.98"/><circle class="cls-4" cx="100.74" cy="703.72" r="5.98"/><circle class="cls-4" cx="115.37" cy="696.4" r="5.98"/><circle class="cls-4" cx="125.34" cy="712.36" r="5.98"/><circle class="cls-4" cx="125.34" cy="661.83" r="5.98"/><circle class="cls-4" cx="94.76" cy="822.75" r="5.98"/><circle class="cls-4" cx="113.37" cy="840.04" r="5.98"/><circle class="cls-4" cx="98.08" cy="851.34" r="5.98"/><circle class="cls-4" cx="100.74" cy="870.62" r="5.98"/><circle class="cls-4" cx="115.37" cy="863.31" r="5.98"/><circle class="cls-4" cx="125.34" cy="879.27" r="5.98"/><circle class="cls-4" cx="125.34" cy="828.73" r="5.98"/><rect class="cls-4" x="90.02" y="901.75" width="38.89" height="3.16"/><rect class="cls-4" x="90.02" y="924.09" width="38.89" height="3.16"/><rect class="cls-4" x="90.02" y="946.69" width="38.89" height="3.16"/><rect class="cls-4" x="90.02" y="969.3" width="38.89" height="3.16"/><rect class="cls-4" x="90.02" y="1068.64" width="38.89" height="3.16"/><rect class="cls-4" x="90.02" y="1090.98" width="38.89" height="3.16"/><rect class="cls-4" x="90.02" y="1113.58" width="38.89" height="3.16"/><circle class="cls-4" cx="94.76" cy="991.84" r="5.98"/><circle class="cls-4" cx="113.37" cy="1009.13" r="5.98"/><circle class="cls-4" cx="98.08" cy="1020.44" r="5.98"/><circle class="cls-4" cx="100.74" cy="1039.72" r="5.98"/><circle class="cls-4" cx="115.37" cy="1032.4" r="5.98"/><circle class="cls-4" cx="125.34" cy="1048.36" r="5.98"/><circle class="cls-4" cx="125.34" cy="997.83" r="5.98"/><rect class="cls-5" x="31.4" y="0.44" width="9.9" height="9.9" rx="4.95" transform="translate(14.46 -24.12) rotate(45)"/><path class="cls-5" d="M24,39.63,36,27.57a.49.49,0,0,1,.66,0l12,12.06h2a2,2,0,0,0-.4-.57L37.75,26.5a2,2,0,0,0-2.8,0L22.39,39.06a2,2,0,0,0-.4.57Z"/><path class="cls-5" d="M56.77,4.53l.06.15Z"/><path class="cls-5" d="M56.76,4.5a.91.91,0,0,0-.07-.14A.91.91,0,0,1,56.76,4.5Z"/><path class="cls-5" d="M56.77,5.49l-.08.14Z"/><path class="cls-5" d="M56.68,5.65l-.12.16Z"/><path class="cls-5" d="M56.83,5.31l-.06.16Z"/><path class="cls-5" d="M56.67,4.33l-.11-.15Z"/><path class="cls-5" d="M56.83,4.68l0,.19Z"/><path class="cls-5" d="M56.77,4.53v0Z"/><path class="cls-5" d="M56.83,5.31l0-.18Z"/><path class="cls-5" d="M56.69,5.63v0Z"/><path class="cls-5" d="M56.69,4.36l0,0Z"/><path class="cls-5" d="M56.77,5.47v0Z"/><path class="cls-5" d="M57.15,39.53l-.1-.11L40.59,23a.07.07,0,0,1,0-.1L57.05,6.4A2,2,0,0,0,57.63,5a2,2,0,0,0-.58-1.41l-16-16a.75.75,0,0,1-.22-.53.74.74,0,0,1,.22-.52L56.45-28.83H54.31L39-13.5a.78.78,0,0,0-.27.58.68.68,0,0,0,0,.29l0,0,.14.15a.52.52,0,0,0,.11.1l17,17a.47.47,0,0,1,0,.66l-17,17a.75.75,0,0,0-.27.58.64.64,0,0,0,0,.28l0,0,.15.14a.52.52,0,0,0,.1.11L55.26,39.78h2.1Z"/><path class="cls-5" d="M33.83,23.38l.15-.14,0,0a.64.64,0,0,0,0-.28.75.75,0,0,0-.27-.58l-17-17a.47.47,0,0,1,0-.66l17-17a.52.52,0,0,0,.11-.1l.14-.15,0,0a.68.68,0,0,0,0-.29.78.78,0,0,0-.27-.58L18.39-28.83H16.25L31.64-13.44a.74.74,0,0,1,.22.52.75.75,0,0,1-.22.53l-16,16A2,2,0,0,0,15.07,5a2,2,0,0,0,.58,1.4L32.11,22.86a.07.07,0,0,1,0,.1L15.65,39.42l-.1.11-.21.25h2.1L33.73,23.49A.52.52,0,0,0,33.83,23.38Z"/><rect class="cls-6" x="25.56" y="79.71" width="19.59" height="19.59" rx="8.06" transform="translate(73.64 1.22) rotate(45)"/><polygon class="cls-6" points="15.82 91.76 13.07 91.76 33.09 111.78 33.09 109.03 15.82 91.76"/><polygon class="cls-6" points="33.09 69.97 33.09 67.22 13.07 87.24 15.82 87.24 33.09 69.97"/><polygon class="cls-6" points="54.88 87.24 57.63 87.24 37.61 67.22 37.61 69.97 54.88 87.24"/><polygon class="cls-6" points="54.88 91.76 37.61 109.03 37.61 111.78 57.63 91.76 54.88 91.76"/><rect class="cls-5" x="31.4" y="165.44" width="9.9" height="9.9" rx="4.95" transform="translate(131.13 24.2) rotate(45)"/><path class="cls-5" d="M48.73,136.17l-12,12.05a.49.49,0,0,1-.66,0L24,136.17H22a2,2,0,0,0,.4.56L35,149.29a2,2,0,0,0,2.8,0l12.56-12.56a2,2,0,0,0,.4-.56Z"/><path class="cls-5" d="M24,204.63,36,192.57a.49.49,0,0,1,.66,0l12,12.06h2a2,2,0,0,0-.4-.57L37.75,191.5a2,2,0,0,0-2.8,0L22.39,204.06a2,2,0,0,0-.4.57Z"/><path class="cls-5" d="M56.77,169.53l.06.15Z"/><path class="cls-5" d="M56.76,169.5a.91.91,0,0,0-.07-.14A.91.91,0,0,1,56.76,169.5Z"/><path class="cls-5" d="M56.77,170.49l-.08.14Z"/><path class="cls-5" d="M56.68,170.65l-.12.16Z"/><path class="cls-5" d="M56.83,170.31l-.06.16Z"/><path class="cls-5" d="M56.67,169.33l-.11-.15Z"/><path class="cls-5" d="M56.83,169.68l0,.19Z"/><path class="cls-5" d="M56.77,169.53v0Z"/><path class="cls-5" d="M56.83,170.31l0-.18Z"/><path class="cls-5" d="M56.69,170.63v0Z"/><path class="cls-5" d="M56.69,169.36l0,0Z"/><path class="cls-5" d="M56.77,170.47v0Z"/><path class="cls-5" d="M57.15,204.53l-.1-.11L40.59,188a.07.07,0,0,1,0-.1L57.05,171.4a2,2,0,0,0,.58-1.4,2,2,0,0,0-.58-1.41l-16-16a.74.74,0,0,1,0-1.05l15.39-15.39H54.31L39,151.5a.78.78,0,0,0-.27.58.68.68,0,0,0,0,.29l0,0,.14.15a.52.52,0,0,0,.11.1l17,17a.47.47,0,0,1,0,.66l-17,17a.75.75,0,0,0-.27.58.64.64,0,0,0,0,.28l0,.05.15.14a.52.52,0,0,0,.1.11l16.29,16.29h2.1Z"/><path class="cls-5" d="M33.83,188.38l.15-.14,0-.05a.64.64,0,0,0,0-.28.75.75,0,0,0-.27-.58l-17-17a.47.47,0,0,1,0-.66l17-17a.52.52,0,0,0,.11-.1l.14-.15,0,0a.68.68,0,0,0,0-.29.78.78,0,0,0-.27-.58L18.39,136.17H16.25l15.39,15.39a.74.74,0,0,1,0,1.05l-16,16a2,2,0,0,0-.58,1.41,2,2,0,0,0,.58,1.4l16.46,16.46a.07.07,0,0,1,0,.1L15.65,204.42l-.1.11-.21.25h2.1l16.29-16.29A.52.52,0,0,0,33.83,188.38Z"/><rect class="cls-6" x="25.56" y="250.71" width="19.59" height="19.59" rx="8.06" transform="translate(194.56 51.3) rotate(45)"/><polygon class="cls-6" points="15.82 262.76 13.07 262.76 33.09 282.78 33.09 280.03 15.82 262.76"/><polygon class="cls-6" points="33.09 240.97 33.09 238.22 13.07 258.24 15.82 258.24 33.09 240.97"/><polygon class="cls-6" points="54.88 258.24 57.63 258.24 37.61 238.22 37.61 240.97 54.88 258.24"/><polygon class="cls-6" points="54.88 262.76 37.61 280.03 37.61 282.78 57.63 262.76 54.88 262.76"/><rect class="cls-5" x="31.4" y="336.44" width="9.9" height="9.9" rx="4.95" transform="translate(252.05 74.29) rotate(45)"/><path class="cls-5" d="M48.73,307.17l-12,12.05a.49.49,0,0,1-.66,0L24,307.17H22a2,2,0,0,0,.4.56L35,320.29a2,2,0,0,0,2.8,0l12.56-12.56a2,2,0,0,0,.4-.56Z"/><path class="cls-5" d="M24,375.63,36,363.57a.49.49,0,0,1,.66,0l12,12.06h2a2,2,0,0,0-.4-.57L37.75,362.5a2,2,0,0,0-2.8,0L22.39,375.06a2,2,0,0,0-.4.57Z"/><path class="cls-5" d="M56.77,340.53l.06.15Z"/><path class="cls-5" d="M56.76,340.5a.91.91,0,0,0-.07-.14A.91.91,0,0,1,56.76,340.5Z"/><path class="cls-5" d="M56.77,341.49l-.08.14Z"/><path class="cls-5" d="M56.68,341.65l-.12.16Z"/><path class="cls-5" d="M56.83,341.31l-.06.16Z"/><path class="cls-5" d="M56.67,340.33l-.11-.15Z"/><path class="cls-5" d="M56.83,340.68l0,.19Z"/><path class="cls-5" d="M56.77,340.53v0Z"/><path class="cls-5" d="M56.83,341.31l0-.18Z"/><path class="cls-5" d="M56.69,341.63v0Z"/><path class="cls-5" d="M56.69,340.36l0,0Z"/><path class="cls-5" d="M56.77,341.47v0Z"/><path class="cls-5" d="M57.15,375.53l-.1-.11L40.59,359a.07.07,0,0,1,0-.1L57.05,342.4a2,2,0,0,0,.58-1.4,2,2,0,0,0-.58-1.41l-16-16a.74.74,0,0,1,0-1.05l15.39-15.39H54.31L39,322.5a.78.78,0,0,0-.27.58.68.68,0,0,0,0,.29l0,0,.14.15a.52.52,0,0,0,.11.1l17,17a.47.47,0,0,1,0,.66l-17,17a.75.75,0,0,0-.27.58.64.64,0,0,0,0,.28l0,.05.15.14a.52.52,0,0,0,.1.11l16.29,16.29h2.1Z"/><path class="cls-5" d="M33.83,359.38l.15-.14,0-.05a.64.64,0,0,0,0-.28.75.75,0,0,0-.27-.58l-17-17a.47.47,0,0,1,0-.66l17-17a.52.52,0,0,0,.11-.1l.14-.15,0,0a.68.68,0,0,0,0-.29.78.78,0,0,0-.27-.58L18.39,307.17H16.25l15.39,15.39a.74.74,0,0,1,0,1.05l-16,16a2,2,0,0,0-.58,1.41,2,2,0,0,0,.58,1.4l16.46,16.46a.07.07,0,0,1,0,.1L15.65,375.42l-.1.11-.21.25h2.1l16.29-16.29A.52.52,0,0,0,33.83,359.38Z"/><rect class="cls-6" x="25.56" y="415.71" width="19.59" height="19.59" rx="8.06" transform="translate(311.23 99.63) rotate(45)"/><polygon class="cls-6" points="15.82 427.76 13.07 427.76 33.09 447.78 33.09 445.03 15.82 427.76"/><polygon class="cls-6" points="33.09 405.97 33.09 403.22 13.07 423.24 15.82 423.24 33.09 405.97"/><polygon class="cls-6" points="54.88 423.24 57.63 423.24 37.61 403.22 37.61 405.97 54.88 423.24"/><polygon class="cls-6" points="54.88 427.76 37.61 445.03 37.61 447.78 57.63 427.76 54.88 427.76"/><rect class="cls-5" x="31.4" y="501.44" width="9.9" height="9.9" rx="4.95" transform="translate(368.72 122.62) rotate(45)"/><path class="cls-5" d="M48.73,472.17l-12,12.05a.49.49,0,0,1-.66,0L24,472.17H22a2,2,0,0,0,.4.56L35,485.29a2,2,0,0,0,2.8,0l12.56-12.56a2,2,0,0,0,.4-.56Z"/><path class="cls-5" d="M24,540.63,36,528.57a.49.49,0,0,1,.66,0l12,12.06h2a2,2,0,0,0-.4-.57L37.75,527.5a2,2,0,0,0-2.8,0L22.39,540.06a2,2,0,0,0-.4.57Z"/><path class="cls-5" d="M56.77,505.53l.06.15Z"/><path class="cls-5" d="M56.76,505.5a.91.91,0,0,0-.07-.14A.91.91,0,0,1,56.76,505.5Z"/><path class="cls-5" d="M56.77,506.49l-.08.14Z"/><path class="cls-5" d="M56.68,506.65l-.12.16Z"/><path class="cls-5" d="M56.83,506.31l-.06.16Z"/><path class="cls-5" d="M56.67,505.33l-.11-.15Z"/><path class="cls-5" d="M56.83,505.68l0,.19Z"/><path class="cls-5" d="M56.77,505.53v0Z"/><path class="cls-5" d="M56.83,506.31l0-.18Z"/><path class="cls-5" d="M56.69,506.63v0Z"/><path class="cls-5" d="M56.69,505.36l0,0Z"/><path class="cls-5" d="M56.77,506.47v0Z"/><path class="cls-5" d="M57.15,540.53l-.1-.11L40.59,524a.07.07,0,0,1,0-.1L57.05,507.4a2,2,0,0,0,.58-1.4,2,2,0,0,0-.58-1.41l-16-16a.74.74,0,0,1,0-1.05l15.39-15.39H54.31L39,487.5a.78.78,0,0,0-.27.58.68.68,0,0,0,0,.29l0,0,.14.15a.52.52,0,0,0,.11.1l17,17a.47.47,0,0,1,0,.66l-17,17a.75.75,0,0,0-.27.58.64.64,0,0,0,0,.28l0,0,.15.14a.52.52,0,0,0,.1.11l16.29,16.29h2.1Z"/><path class="cls-5" d="M33.83,524.38l.15-.14,0,0a.64.64,0,0,0,0-.28.75.75,0,0,0-.27-.58l-17-17a.47.47,0,0,1,0-.66l17-17a.52.52,0,0,0,.11-.1l.14-.15,0,0a.68.68,0,0,0,0-.29.78.78,0,0,0-.27-.58L18.39,472.17H16.25l15.39,15.39a.74.74,0,0,1,0,1.05l-16,16a2,2,0,0,0-.58,1.41,2,2,0,0,0,.58,1.4l16.46,16.46a.07.07,0,0,1,0,.1L15.65,540.42l-.1.11-.21.25h2.1l16.29-16.29A.52.52,0,0,0,33.83,524.38Z"/><rect class="cls-6" x="25.56" y="586.71" width="19.59" height="19.59" rx="8.06" transform="translate(432.14 149.71) rotate(45)"/><polygon class="cls-6" points="15.82 598.76 13.07 598.76 33.09 618.78 33.09 616.03 15.82 598.76"/><polygon class="cls-6" points="33.09 576.97 33.09 574.22 13.07 594.24 15.82 594.24 33.09 576.97"/><polygon class="cls-6" points="54.88 594.24 57.63 594.24 37.61 574.22 37.61 576.97 54.88 594.24"/><polygon class="cls-6" points="54.88 598.76 37.61 616.03 37.61 618.78 57.63 598.76 54.88 598.76"/><rect class="cls-5" x="31.4" y="672.44" width="9.9" height="9.9" rx="4.95" transform="translate(489.64 172.7) rotate(45)"/><path class="cls-5" d="M48.73,643.17l-12,12.05a.49.49,0,0,1-.66,0L24,643.17H22a2,2,0,0,0,.4.56L35,656.29a2,2,0,0,0,2.8,0l12.56-12.56a2,2,0,0,0,.4-.56Z"/><path class="cls-5" d="M24,711.63,36,699.57a.49.49,0,0,1,.66,0l12,12.06h2a2,2,0,0,0-.4-.57L37.75,698.5a2,2,0,0,0-2.8,0L22.39,711.06a2,2,0,0,0-.4.57Z"/><path class="cls-5" d="M56.77,676.53l.06.15Z"/><path class="cls-5" d="M56.76,676.5l-.07-.14Z"/><path class="cls-5" d="M56.77,677.49l-.08.14Z"/><path class="cls-5" d="M56.68,677.65l-.12.16Z"/><path class="cls-5" d="M56.83,677.31l-.06.16Z"/><path class="cls-5" d="M56.67,676.33l-.11-.15Z"/><path class="cls-5" d="M56.83,676.68l0,.19Z"/><path class="cls-5" d="M56.77,676.53v0Z"/><path class="cls-5" d="M56.83,677.31l0-.18Z"/><path class="cls-5" d="M56.69,677.63v0Z"/><path class="cls-5" d="M56.69,676.36l0,0Z"/><path class="cls-5" d="M56.77,677.47v0Z"/><path class="cls-5" d="M57.15,711.53l-.1-.11L40.59,695a.07.07,0,0,1,0-.1L57.05,678.4a2,2,0,0,0,.58-1.4,2,2,0,0,0-.58-1.41l-16-16a.74.74,0,0,1,0-1.05l15.39-15.39H54.31L39,658.5a.78.78,0,0,0-.27.58.68.68,0,0,0,0,.29l0,0,.14.15a.52.52,0,0,0,.11.1l17,17a.47.47,0,0,1,0,.66l-17,17a.75.75,0,0,0-.27.58.64.64,0,0,0,0,.28l0,0,.15.14a.52.52,0,0,0,.1.11l16.29,16.29h2.1Z"/><path class="cls-5" d="M33.83,695.38l.15-.14,0,0a.64.64,0,0,0,0-.28.75.75,0,0,0-.27-.58l-17-17a.47.47,0,0,1,0-.66l17-17a.52.52,0,0,0,.11-.1l.14-.15,0,0a.68.68,0,0,0,0-.29.78.78,0,0,0-.27-.58L18.39,643.17H16.25l15.39,15.39a.74.74,0,0,1,0,1.05l-16,16a2,2,0,0,0-.58,1.41,2,2,0,0,0,.58,1.4l16.46,16.46a.07.07,0,0,1,0,.1L15.65,711.42l-.1.11-.21.25h2.1l16.29-16.29A.52.52,0,0,0,33.83,695.38Z"/><rect class="cls-6" x="25.56" y="751.71" width="19.59" height="19.59" rx="8.06" transform="translate(548.82 198.04) rotate(45)"/><polygon class="cls-6" points="15.82 763.76 13.07 763.76 33.09 783.78 33.09 781.03 15.82 763.76"/><polygon class="cls-6" points="33.09 741.97 33.09 739.22 13.07 759.24 15.82 759.24 33.09 741.97"/><polygon class="cls-6" points="54.88 759.24 57.63 759.24 37.61 739.22 37.61 741.97 54.88 759.24"/><polygon class="cls-6" points="54.88 763.76 37.61 781.03 37.61 783.78 57.63 763.76 54.88 763.76"/><rect class="cls-5" x="31.4" y="837.44" width="9.9" height="9.9" rx="4.95" transform="translate(606.31 221.03) rotate(45)"/><path class="cls-5" d="M48.73,808.17l-12,12.05a.49.49,0,0,1-.66,0L24,808.17H22a2,2,0,0,0,.4.56L35,821.29a2,2,0,0,0,2.8,0l12.56-12.56a2,2,0,0,0,.4-.56Z"/><path class="cls-5" d="M24,876.63,36,864.57a.49.49,0,0,1,.66,0l12,12.06h2a2,2,0,0,0-.4-.57L37.75,863.5a2,2,0,0,0-2.8,0L22.39,876.06a2,2,0,0,0-.4.57Z"/><path class="cls-5" d="M56.77,841.53l.06.15Z"/><path class="cls-5" d="M56.76,841.5l-.07-.14Z"/><path class="cls-5" d="M56.77,842.49l-.08.14Z"/><path class="cls-5" d="M56.68,842.65l-.12.16Z"/><path class="cls-5" d="M56.83,842.31l-.06.16Z"/><path class="cls-5" d="M56.67,841.33l-.11-.15Z"/><path class="cls-5" d="M56.83,841.68l0,.19Z"/><path class="cls-5" d="M56.77,841.53v0Z"/><path class="cls-5" d="M56.83,842.31l0-.18Z"/><path class="cls-5" d="M56.69,842.63v0Z"/><path class="cls-5" d="M56.69,841.36l0,0Z"/><path class="cls-5" d="M56.77,842.47v0Z"/><path class="cls-5" d="M57.15,876.53l-.1-.11L40.59,860a.07.07,0,0,1,0-.1L57.05,843.4a2,2,0,0,0,.58-1.4,2,2,0,0,0-.58-1.41l-16-16a.74.74,0,0,1,0-1.05l15.39-15.39H54.31L39,823.5a.78.78,0,0,0-.27.58.68.68,0,0,0,0,.29l0,0,.14.15a.52.52,0,0,0,.11.1l17,17a.47.47,0,0,1,0,.66l-17,17a.75.75,0,0,0-.27.58.64.64,0,0,0,0,.28l0,0,.15.14a.52.52,0,0,0,.1.11l16.29,16.29h2.1Z"/><path class="cls-5" d="M33.83,860.38l.15-.14,0,0a.64.64,0,0,0,0-.28.75.75,0,0,0-.27-.58l-17-17a.47.47,0,0,1,0-.66l17-17a.52.52,0,0,0,.11-.1l.14-.15,0,0a.68.68,0,0,0,0-.29.78.78,0,0,0-.27-.58L18.39,808.17H16.25l15.39,15.39a.74.74,0,0,1,0,1.05l-16,16a2,2,0,0,0-.58,1.41,2,2,0,0,0,.58,1.4l16.46,16.46a.07.07,0,0,1,0,.1L15.65,876.42l-.1.11-.21.25h2.1l16.29-16.29A.52.52,0,0,0,33.83,860.38Z"/><rect class="cls-6" x="25.56" y="922.71" width="19.59" height="19.59" rx="8.06" transform="translate(669.73 248.13) rotate(45)"/><polygon class="cls-6" points="15.82 934.76 13.07 934.76 33.09 954.78 33.09 952.03 15.82 934.76"/><polygon class="cls-6" points="33.09 912.97 33.09 910.22 13.07 930.24 15.82 930.24 33.09 912.97"/><polygon class="cls-6" points="54.88 930.24 57.63 930.24 37.61 910.22 37.61 912.97 54.88 930.24"/><polygon class="cls-6" points="54.88 934.76 37.61 952.03 37.61 954.78 57.63 934.76 54.88 934.76"/><rect class="cls-5" x="31.4" y="1008.44" width="9.9" height="9.9" rx="4.95" transform="translate(727.23 271.11) rotate(45)"/><path class="cls-5" d="M48.73,979.17l-12,12.05a.49.49,0,0,1-.66,0L24,979.17H22a2,2,0,0,0,.4.56L35,992.29a2,2,0,0,0,2.8,0l12.56-12.56a2,2,0,0,0,.4-.56Z"/><path class="cls-5" d="M24,1047.63,36,1035.57a.49.49,0,0,1,.66,0l12,12.06h2a2,2,0,0,0-.4-.57L37.75,1034.5a2,2,0,0,0-2.8,0l-12.56,12.56a2,2,0,0,0-.4.57Z"/><path class="cls-5" d="M56.77,1012.53l.06.15Z"/><path class="cls-5" d="M56.76,1012.5l-.07-.14Z"/><path class="cls-5" d="M56.77,1013.49l-.08.14Z"/><path class="cls-5" d="M56.68,1013.65l-.12.16Z"/><path class="cls-5" d="M56.83,1013.31l-.06.16Z"/><path class="cls-5" d="M56.67,1012.33l-.11-.15Z"/><path class="cls-5" d="M56.83,1012.68l0,.19Z"/><path class="cls-5" d="M56.77,1012.53v0Z"/><path class="cls-5" d="M56.83,1013.31l0-.18Z"/><path class="cls-5" d="M56.69,1013.63v0Z"/><path class="cls-5" d="M56.69,1012.36l0,0Z"/><path class="cls-5" d="M56.77,1013.47v0Z"/><path class="cls-5" d="M57.15,1047.53l-.1-.11L40.59,1031a.07.07,0,0,1,0-.1l16.46-16.46a2,2,0,0,0,.58-1.4,2,2,0,0,0-.58-1.41l-16-16a.74.74,0,0,1,0-1.05l15.39-15.39H54.31L39,994.5a.78.78,0,0,0-.27.58.68.68,0,0,0,0,.29l0,0,.14.15a.52.52,0,0,0,.11.1l17,17a.47.47,0,0,1,0,.66l-17,17a.75.75,0,0,0-.27.58.64.64,0,0,0,0,.28l0,0,.15.14a.52.52,0,0,0,.1.11l16.29,16.29h2.1Z"/><path class="cls-5" d="M33.83,1031.38l.15-.14,0,0a.64.64,0,0,0,0-.28.75.75,0,0,0-.27-.58l-17-17a.47.47,0,0,1,0-.66l17-17a.52.52,0,0,0,.11-.1l.14-.15,0,0a.68.68,0,0,0,0-.29.78.78,0,0,0-.27-.58L18.39,979.17H16.25l15.39,15.39a.74.74,0,0,1,0,1.05l-16,16a2,2,0,0,0-.58,1.41,2,2,0,0,0,.58,1.4l16.46,16.46a.07.07,0,0,1,0,.1l-16.46,16.46-.1.11-.21.25h2.1l16.29-16.29A.52.52,0,0,0,33.83,1031.38Z"/><rect class="cls-6" x="25.56" y="1087.71" width="19.59" height="19.59" rx="8.06" transform="translate(786.4 296.45) rotate(45)"/><polygon class="cls-6" points="15.82 1099.76 13.07 1099.76 33.09 1119.78 33.09 1117.03 15.82 1099.76"/><polygon class="cls-6" points="33.09 1077.97 33.09 1075.22 13.07 1095.24 15.82 1095.24 33.09 1077.97"/><polygon class="cls-6" points="54.88 1095.24 57.63 1095.24 37.61 1075.22 37.61 1077.97 54.88 1095.24"/><polygon class="cls-6" points="54.88 1099.76 37.61 1117.03 37.61 1119.78 57.63 1099.76 54.88 1099.76"/><rect class="cls-6" x="687.62" y="60.64" width="38.89" height="3.16"/><rect class="cls-6" x="687.62" y="82.98" width="38.89" height="3.16"/><rect class="cls-6" x="687.62" y="105.58" width="38.89" height="3.16"/><rect class="cls-6" x="687.62" y="128.19" width="38.89" height="3.16"/><circle class="cls-5" cx="710.97" cy="1.13" r="5.98"/><circle class="cls-5" cx="695.68" cy="12.44" r="5.98"/><circle class="cls-5" cx="698.34" cy="31.72" r="5.98"/><circle class="cls-5" cx="712.97" cy="24.4" r="5.98"/><circle class="cls-5" cx="722.94" cy="40.36" r="5.98"/><circle class="cls-5" cx="692.36" cy="150.75" r="5.98"/><circle class="cls-5" cx="710.97" cy="168.04" r="5.98"/><circle class="cls-5" cx="695.68" cy="179.34" r="5.98"/><circle class="cls-5" cx="698.34" cy="198.62" r="5.98"/><circle class="cls-5" cx="712.97" cy="191.31" r="5.98"/><circle class="cls-5" cx="722.94" cy="207.27" r="5.98"/><circle class="cls-5" cx="722.94" cy="156.73" r="5.98"/><rect class="cls-6" x="687.62" y="229.75" width="38.89" height="3.16"/><rect class="cls-6" x="687.62" y="252.09" width="38.89" height="3.16"/><rect class="cls-6" x="687.62" y="274.69" width="38.89" height="3.16"/><rect class="cls-6" x="687.62" y="297.3" width="38.89" height="3.16"/><rect class="cls-6" x="687.62" y="396.64" width="38.89" height="3.16"/><rect class="cls-6" x="687.62" y="418.98" width="38.89" height="3.16"/><rect class="cls-6" x="687.62" y="441.58" width="38.89" height="3.16"/><rect class="cls-6" x="687.62" y="464.19" width="38.89" height="3.16"/><circle class="cls-5" cx="692.36" cy="319.84" r="5.98"/><circle class="cls-5" cx="710.97" cy="337.13" r="5.98"/><circle class="cls-5" cx="695.68" cy="348.44" r="5.98"/><circle class="cls-5" cx="698.34" cy="367.72" r="5.98"/><circle class="cls-5" cx="712.97" cy="360.4" r="5.98"/><circle class="cls-5" cx="722.94" cy="376.36" r="5.98"/><circle class="cls-5" cx="722.94" cy="325.83" r="5.98"/><circle class="cls-5" cx="692.36" cy="486.75" r="5.98"/><circle class="cls-5" cx="710.97" cy="504.04" r="5.98"/><circle class="cls-5" cx="695.68" cy="515.34" r="5.98"/><circle class="cls-5" cx="698.34" cy="534.62" r="5.98"/><circle class="cls-5" cx="712.97" cy="527.31" r="5.98"/><circle class="cls-5" cx="722.94" cy="543.27" r="5.98"/><circle class="cls-5" cx="722.94" cy="492.73" r="5.98"/><rect class="cls-6" x="687.62" y="565.75" width="38.89" height="3.16"/><rect class="cls-6" x="687.62" y="588.09" width="38.89" height="3.16"/><rect class="cls-6" x="687.62" y="610.69" width="38.89" height="3.16"/><rect class="cls-6" x="687.62" y="633.3" width="38.89" height="3.16"/><rect class="cls-6" x="687.62" y="732.64" width="38.89" height="3.16"/><rect class="cls-6" x="687.62" y="754.98" width="38.89" height="3.16"/><rect class="cls-6" x="687.62" y="777.58" width="38.89" height="3.16"/><rect class="cls-6" x="687.62" y="800.19" width="38.89" height="3.16"/><circle class="cls-5" cx="692.36" cy="655.84" r="5.98"/><circle class="cls-5" cx="710.97" cy="673.13" r="5.98"/><circle class="cls-5" cx="695.68" cy="684.44" r="5.98"/><circle class="cls-5" cx="698.34" cy="703.72" r="5.98"/><circle class="cls-5" cx="712.97" cy="696.4" r="5.98"/><circle class="cls-5" cx="722.94" cy="712.36" r="5.98"/><circle class="cls-5" cx="722.94" cy="661.83" r="5.98"/><circle class="cls-5" cx="692.36" cy="822.75" r="5.98"/><circle class="cls-5" cx="710.97" cy="840.04" r="5.98"/><circle class="cls-5" cx="695.68" cy="851.34" r="5.98"/><circle class="cls-5" cx="698.34" cy="870.62" r="5.98"/><circle class="cls-5" cx="712.97" cy="863.31" r="5.98"/><circle class="cls-5" cx="722.94" cy="879.27" r="5.98"/><circle class="cls-5" cx="722.94" cy="828.73" r="5.98"/><rect class="cls-6" x="687.62" y="901.75" width="38.89" height="3.16"/><rect class="cls-6" x="687.62" y="924.09" width="38.89" height="3.16"/><rect class="cls-6" x="687.62" y="946.69" width="38.89" height="3.16"/><rect class="cls-6" x="687.62" y="969.3" width="38.89" height="3.16"/><rect class="cls-6" x="687.62" y="1068.64" width="38.89" height="3.16"/><rect class="cls-6" x="687.62" y="1090.98" width="38.89" height="3.16"/><rect class="cls-6" x="687.62" y="1113.58" width="38.89" height="3.16"/><circle class="cls-5" cx="692.36" cy="991.84" r="5.98"/><circle class="cls-5" cx="710.97" cy="1009.13" r="5.98"/><circle class="cls-5" cx="695.68" cy="1020.44" r="5.98"/><circle class="cls-5" cx="698.34" cy="1039.72" r="5.98"/><circle class="cls-5" cx="712.97" cy="1032.4" r="5.98"/><circle class="cls-5" cx="722.94" cy="1048.36" r="5.98"/><circle class="cls-5" cx="722.94" cy="997.83" r="5.98"/><rect class="cls-4" x="629" y="0.44" width="9.9" height="9.9" rx="4.95" transform="translate(189.5 -446.69) rotate(45)"/><path class="cls-4" d="M621.57,39.63l12-12.06a.49.49,0,0,1,.66,0l12.05,12.06h2a2,2,0,0,0-.4-.57L635.35,26.5a2,2,0,0,0-2.8,0L620,39.06a2,2,0,0,0-.4.57Z"/><path class="cls-4" d="M654.37,4.53l.06.15Z"/><path class="cls-4" d="M654.36,4.5a.91.91,0,0,0-.07-.14A.91.91,0,0,1,654.36,4.5Z"/><path class="cls-4" d="M654.37,5.49l-.08.14Z"/><path class="cls-4" d="M654.28,5.65l-.12.16Z"/><path class="cls-4" d="M654.43,5.31l-.06.16Z"/><path class="cls-4" d="M654.27,4.33l-.11-.15Z"/><path class="cls-4" d="M654.43,4.68l0,.19Z"/><path class="cls-4" d="M654.37,4.53v0Z"/><path class="cls-4" d="M654.43,5.31l0-.18Z"/><path class="cls-4" d="M654.29,5.63v0Z"/><path class="cls-4" d="M654.29,4.36l0,0Z"/><path class="cls-4" d="M654.37,5.47v0Z"/><path class="cls-4" d="M654.75,39.53l-.1-.11L638.19,23a.07.07,0,0,1,0-.1L654.65,6.4a2,2,0,0,0,.58-1.4,2,2,0,0,0-.58-1.41l-16-16a.75.75,0,0,1-.22-.53.74.74,0,0,1,.22-.52l15.39-15.39h-2.14L636.57-13.5a.78.78,0,0,0-.27.58.68.68,0,0,0,.05.29l0,0,.14.15a.52.52,0,0,0,.11.1l17,17a.47.47,0,0,1,0,.66l-17,17a.75.75,0,0,0-.27.58.64.64,0,0,0,.05.28l0,0,.15.14a.52.52,0,0,0,.1.11l16.29,16.29H655Z"/><path class="cls-4" d="M631.43,23.38l.15-.14,0,0a.64.64,0,0,0,.05-.28.75.75,0,0,0-.27-.58l-17-17a.47.47,0,0,1,0-.66l17-17a.52.52,0,0,0,.11-.1l.14-.15,0,0a.68.68,0,0,0,.05-.29.78.78,0,0,0-.27-.58L616-28.83h-2.14l15.39,15.39a.74.74,0,0,1,.22.52.75.75,0,0,1-.22.53l-16,16A2,2,0,0,0,612.67,5a2,2,0,0,0,.58,1.4l16.46,16.46a.07.07,0,0,1,0,.1L613.25,39.42l-.1.11-.21.25H615l16.29-16.29A.52.52,0,0,0,631.43,23.38Z"/><rect class="cls-4" x="623.16" y="79.71" width="19.59" height="19.59" rx="8.06" transform="translate(248.67 -421.35) rotate(45)"/><polygon class="cls-4" points="613.42 91.76 610.67 91.76 630.69 111.78 630.69 109.03 613.42 91.76"/><polygon class="cls-4" points="630.69 69.97 630.69 67.22 610.67 87.24 613.42 87.24 630.69 69.97"/><polygon class="cls-4" points="652.48 87.24 655.23 87.24 635.21 67.22 635.21 69.97 652.48 87.24"/><polygon class="cls-4" points="652.48 91.76 635.21 109.03 635.21 111.78 655.23 91.76 652.48 91.76"/><rect class="cls-4" x="629" y="165.44" width="9.9" height="9.9" rx="4.95" transform="translate(306.17 -398.36) rotate(45)"/><path class="cls-4" d="M646.33,136.17l-12.05,12.05a.49.49,0,0,1-.66,0l-12-12.05h-2a2,2,0,0,0,.4.56l12.56,12.56a2,2,0,0,0,2.8,0l12.56-12.56a2,2,0,0,0,.4-.56Z"/><path class="cls-4" d="M621.57,204.63l12-12.06a.49.49,0,0,1,.66,0l12.05,12.06h2a2,2,0,0,0-.4-.57L635.35,191.5a2,2,0,0,0-2.8,0L620,204.06a2,2,0,0,0-.4.57Z"/><path class="cls-4" d="M654.37,169.53l.06.15Z"/><path class="cls-4" d="M654.36,169.5a.91.91,0,0,0-.07-.14A.91.91,0,0,1,654.36,169.5Z"/><path class="cls-4" d="M654.37,170.49l-.08.14Z"/><path class="cls-4" d="M654.28,170.65l-.12.16Z"/><path class="cls-4" d="M654.43,170.31l-.06.16Z"/><path class="cls-4" d="M654.27,169.33l-.11-.15Z"/><path class="cls-4" d="M654.43,169.68l0,.19Z"/><path class="cls-4" d="M654.37,169.53v0Z"/><path class="cls-4" d="M654.43,170.31l0-.18Z"/><path class="cls-4" d="M654.29,170.63v0Z"/><path class="cls-4" d="M654.29,169.36l0,0Z"/><path class="cls-4" d="M654.37,170.47v0Z"/><path class="cls-4" d="M654.75,204.53l-.1-.11L638.19,188a.07.07,0,0,1,0-.1l16.46-16.46a2,2,0,0,0,.58-1.4,2,2,0,0,0-.58-1.41l-16-16a.74.74,0,0,1,0-1.05l15.39-15.39h-2.14L636.57,151.5a.78.78,0,0,0-.27.58.68.68,0,0,0,.05.29l0,0,.14.15a.52.52,0,0,0,.11.1l17,17a.47.47,0,0,1,0,.66l-17,17a.75.75,0,0,0-.27.58.64.64,0,0,0,.05.28l0,.05.15.14a.52.52,0,0,0,.1.11l16.29,16.29H655Z"/><path class="cls-4" d="M631.43,188.38l.15-.14,0-.05a.64.64,0,0,0,.05-.28.75.75,0,0,0-.27-.58l-17-17a.47.47,0,0,1,0-.66l17-17a.52.52,0,0,0,.11-.1l.14-.15,0,0a.68.68,0,0,0,.05-.29.78.78,0,0,0-.27-.58L616,136.17h-2.14l15.39,15.39a.74.74,0,0,1,0,1.05l-16,16a2,2,0,0,0-.58,1.41,2,2,0,0,0,.58,1.4l16.46,16.46a.07.07,0,0,1,0,.1l-16.46,16.46-.1.11-.21.25H615l16.29-16.29A.52.52,0,0,0,631.43,188.38Z"/><rect class="cls-4" x="623.16" y="250.71" width="19.59" height="19.59" rx="8.06" transform="translate(369.59 -371.26) rotate(45)"/><polygon class="cls-4" points="613.42 262.76 610.67 262.76 630.69 282.78 630.69 280.03 613.42 262.76"/><polygon class="cls-4" points="630.69 240.97 630.69 238.22 610.67 258.24 613.42 258.24 630.69 240.97"/><polygon class="cls-4" points="652.48 258.24 655.23 258.24 635.21 238.22 635.21 240.97 652.48 258.24"/><polygon class="cls-4" points="652.48 262.76 635.21 280.03 635.21 282.78 655.23 262.76 652.48 262.76"/><rect class="cls-4" x="629" y="336.44" width="9.9" height="9.9" rx="4.95" transform="translate(427.08 -348.28) rotate(45)"/><path class="cls-4" d="M646.33,307.17l-12.05,12.05a.49.49,0,0,1-.66,0l-12-12.05h-2a2,2,0,0,0,.4.56l12.56,12.56a2,2,0,0,0,2.8,0l12.56-12.56a2,2,0,0,0,.4-.56Z"/><path class="cls-4" d="M621.57,375.63l12-12.06a.49.49,0,0,1,.66,0l12.05,12.06h2a2,2,0,0,0-.4-.57L635.35,362.5a2,2,0,0,0-2.8,0L620,375.06a2,2,0,0,0-.4.57Z"/><path class="cls-4" d="M654.37,340.53l.06.15Z"/><path class="cls-4" d="M654.36,340.5a.91.91,0,0,0-.07-.14A.91.91,0,0,1,654.36,340.5Z"/><path class="cls-4" d="M654.37,341.49l-.08.14Z"/><path class="cls-4" d="M654.28,341.65l-.12.16Z"/><path class="cls-4" d="M654.43,341.31l-.06.16Z"/><path class="cls-4" d="M654.27,340.33l-.11-.15Z"/><path class="cls-4" d="M654.43,340.68l0,.19Z"/><path class="cls-4" d="M654.37,340.53v0Z"/><path class="cls-4" d="M654.43,341.31l0-.18Z"/><path class="cls-4" d="M654.29,341.63v0Z"/><path class="cls-4" d="M654.29,340.36l0,0Z"/><path class="cls-4" d="M654.37,341.47v0Z"/><path class="cls-4" d="M654.75,375.53l-.1-.11L638.19,359a.07.07,0,0,1,0-.1l16.46-16.46a2,2,0,0,0,.58-1.4,2,2,0,0,0-.58-1.41l-16-16a.74.74,0,0,1,0-1.05l15.39-15.39h-2.14L636.57,322.5a.78.78,0,0,0-.27.58.68.68,0,0,0,.05.29l0,0,.14.15a.52.52,0,0,0,.11.1l17,17a.47.47,0,0,1,0,.66l-17,17a.75.75,0,0,0-.27.58.64.64,0,0,0,.05.28l0,.05.15.14a.52.52,0,0,0,.1.11l16.29,16.29H655Z"/><path class="cls-4" d="M631.43,359.38l.15-.14,0-.05a.64.64,0,0,0,.05-.28.75.75,0,0,0-.27-.58l-17-17a.47.47,0,0,1,0-.66l17-17a.52.52,0,0,0,.11-.1l.14-.15,0,0a.68.68,0,0,0,.05-.29.78.78,0,0,0-.27-.58L616,307.17h-2.14l15.39,15.39a.74.74,0,0,1,0,1.05l-16,16a2,2,0,0,0-.58,1.41,2,2,0,0,0,.58,1.4l16.46,16.46a.07.07,0,0,1,0,.1l-16.46,16.46-.1.11-.21.25H615l16.29-16.29A.52.52,0,0,0,631.43,359.38Z"/><rect class="cls-4" x="623.16" y="415.71" width="19.59" height="19.59" rx="8.06" transform="translate(486.26 -322.94) rotate(45)"/><polygon class="cls-4" points="613.42 427.76 610.67 427.76 630.69 447.78 630.69 445.03 613.42 427.76"/><polygon class="cls-4" points="630.69 405.97 630.69 403.22 610.67 423.24 613.42 423.24 630.69 405.97"/><polygon class="cls-4" points="652.48 423.24 655.23 423.24 635.21 403.22 635.21 405.97 652.48 423.24"/><polygon class="cls-4" points="652.48 427.76 635.21 445.03 635.21 447.78 655.23 427.76 652.48 427.76"/><rect class="cls-4" x="629" y="501.44" width="9.9" height="9.9" rx="4.95" transform="translate(543.76 -299.95) rotate(45)"/><path class="cls-4" d="M646.33,472.17l-12.05,12.05a.49.49,0,0,1-.66,0l-12-12.05h-2a2,2,0,0,0,.4.56l12.56,12.56a2,2,0,0,0,2.8,0l12.56-12.56a2,2,0,0,0,.4-.56Z"/><path class="cls-4" d="M621.57,540.63l12-12.06a.49.49,0,0,1,.66,0l12.05,12.06h2a2,2,0,0,0-.4-.57L635.35,527.5a2,2,0,0,0-2.8,0L620,540.06a2,2,0,0,0-.4.57Z"/><path class="cls-4" d="M654.37,505.53l.06.15Z"/><path class="cls-4" d="M654.36,505.5a.91.91,0,0,0-.07-.14A.91.91,0,0,1,654.36,505.5Z"/><path class="cls-4" d="M654.37,506.49l-.08.14Z"/><path class="cls-4" d="M654.28,506.65l-.12.16Z"/><path class="cls-4" d="M654.43,506.31l-.06.16Z"/><path class="cls-4" d="M654.27,505.33l-.11-.15Z"/><path class="cls-4" d="M654.43,505.68l0,.19Z"/><path class="cls-4" d="M654.37,505.53v0Z"/><path class="cls-4" d="M654.43,506.31l0-.18Z"/><path class="cls-4" d="M654.29,506.63v0Z"/><path class="cls-4" d="M654.29,505.36l0,0Z"/><path class="cls-4" d="M654.37,506.47v0Z"/><path class="cls-4" d="M654.75,540.53l-.1-.11L638.19,524a.07.07,0,0,1,0-.1l16.46-16.46a2,2,0,0,0,.58-1.4,2,2,0,0,0-.58-1.41l-16-16a.74.74,0,0,1,0-1.05l15.39-15.39h-2.14L636.57,487.5a.78.78,0,0,0-.27.58.68.68,0,0,0,.05.29l0,0,.14.15a.52.52,0,0,0,.11.1l17,17a.47.47,0,0,1,0,.66l-17,17a.75.75,0,0,0-.27.58.64.64,0,0,0,.05.28l0,0,.15.14a.52.52,0,0,0,.1.11l16.29,16.29H655Z"/><path class="cls-4" d="M631.43,524.38l.15-.14,0,0a.64.64,0,0,0,.05-.28.75.75,0,0,0-.27-.58l-17-17a.47.47,0,0,1,0-.66l17-17a.52.52,0,0,0,.11-.1l.14-.15,0,0a.68.68,0,0,0,.05-.29.78.78,0,0,0-.27-.58L616,472.17h-2.14l15.39,15.39a.74.74,0,0,1,0,1.05l-16,16a2,2,0,0,0-.58,1.41,2,2,0,0,0,.58,1.4l16.46,16.46a.07.07,0,0,1,0,.1l-16.46,16.46-.1.11-.21.25H615l16.29-16.29A.52.52,0,0,0,631.43,524.38Z"/><rect class="cls-4" x="623.16" y="586.71" width="19.59" height="19.59" rx="8.06" transform="translate(607.18 -272.85) rotate(45)"/><polygon class="cls-4" points="613.42 598.76 610.67 598.76 630.69 618.78 630.69 616.03 613.42 598.76"/><polygon class="cls-4" points="630.69 576.97 630.69 574.22 610.67 594.24 613.42 594.24 630.69 576.97"/><polygon class="cls-4" points="652.48 594.24 655.23 594.24 635.21 574.22 635.21 576.97 652.48 594.24"/><polygon class="cls-4" points="652.48 598.76 635.21 616.03 635.21 618.78 655.23 598.76 652.48 598.76"/><rect class="cls-4" x="629" y="672.44" width="9.9" height="9.9" rx="4.95" transform="translate(664.67 -249.87) rotate(45)"/><path class="cls-4" d="M646.33,643.17l-12.05,12.05a.49.49,0,0,1-.66,0l-12-12.05h-2a2,2,0,0,0,.4.56l12.56,12.56a2,2,0,0,0,2.8,0l12.56-12.56a2,2,0,0,0,.4-.56Z"/><path class="cls-4" d="M621.57,711.63l12-12.06a.49.49,0,0,1,.66,0l12.05,12.06h2a2,2,0,0,0-.4-.57L635.35,698.5a2,2,0,0,0-2.8,0L620,711.06a2,2,0,0,0-.4.57Z"/><path class="cls-4" d="M654.37,676.53l.06.15Z"/><path class="cls-4" d="M654.36,676.5a.91.91,0,0,0-.07-.14A.91.91,0,0,1,654.36,676.5Z"/><path class="cls-4" d="M654.37,677.49l-.08.14Z"/><path class="cls-4" d="M654.28,677.65l-.12.16Z"/><path class="cls-4" d="M654.43,677.31l-.06.16Z"/><path class="cls-4" d="M654.27,676.33l-.11-.15Z"/><path class="cls-4" d="M654.43,676.68l0,.19Z"/><path class="cls-4" d="M654.37,676.53v0Z"/><path class="cls-4" d="M654.43,677.31l0-.18Z"/><path class="cls-4" d="M654.29,677.63v0Z"/><path class="cls-4" d="M654.29,676.36l0,0Z"/><path class="cls-4" d="M654.37,677.47v0Z"/><path class="cls-4" d="M654.75,711.53l-.1-.11L638.19,695a.07.07,0,0,1,0-.1l16.46-16.46a2,2,0,0,0,.58-1.4,2,2,0,0,0-.58-1.41l-16-16a.74.74,0,0,1,0-1.05l15.39-15.39h-2.14L636.57,658.5a.78.78,0,0,0-.27.58.68.68,0,0,0,.05.29l0,0,.14.15a.52.52,0,0,0,.11.1l17,17a.47.47,0,0,1,0,.66l-17,17a.75.75,0,0,0-.27.58.64.64,0,0,0,.05.28l0,0,.15.14a.52.52,0,0,0,.1.11l16.29,16.29H655Z"/><path class="cls-4" d="M631.43,695.38l.15-.14,0,0a.64.64,0,0,0,.05-.28.75.75,0,0,0-.27-.58l-17-17a.47.47,0,0,1,0-.66l17-17a.52.52,0,0,0,.11-.1l.14-.15,0,0a.68.68,0,0,0,.05-.29.78.78,0,0,0-.27-.58L616,643.17h-2.14l15.39,15.39a.74.74,0,0,1,0,1.05l-16,16a2,2,0,0,0-.58,1.41,2,2,0,0,0,.58,1.4l16.46,16.46a.07.07,0,0,1,0,.1l-16.46,16.46-.1.11-.21.25H615l16.29-16.29A.52.52,0,0,0,631.43,695.38Z"/><rect class="cls-4" x="623.16" y="751.71" width="19.59" height="19.59" rx="8.06" transform="translate(723.85 -224.53) rotate(45)"/><polygon class="cls-4" points="613.42 763.76 610.67 763.76 630.69 783.78 630.69 781.03 613.42 763.76"/><polygon class="cls-4" points="630.69 741.97 630.69 739.22 610.67 759.24 613.42 759.24 630.69 741.97"/><polygon class="cls-4" points="652.48 759.24 655.23 759.24 635.21 739.22 635.21 741.97 652.48 759.24"/><polygon class="cls-4" points="652.48 763.76 635.21 781.03 635.21 783.78 655.23 763.76 652.48 763.76"/><rect class="cls-4" x="629" y="837.44" width="9.9" height="9.9" rx="4.95" transform="translate(781.34 -201.54) rotate(45)"/><path class="cls-4" d="M646.33,808.17l-12.05,12.05a.49.49,0,0,1-.66,0l-12-12.05h-2a2,2,0,0,0,.4.56l12.56,12.56a2,2,0,0,0,2.8,0l12.56-12.56a2,2,0,0,0,.4-.56Z"/><path class="cls-4" d="M621.57,876.63l12-12.06a.49.49,0,0,1,.66,0l12.05,12.06h2a2,2,0,0,0-.4-.57L635.35,863.5a2,2,0,0,0-2.8,0L620,876.06a2,2,0,0,0-.4.57Z"/><path class="cls-4" d="M654.37,841.53l.06.15Z"/><path class="cls-4" d="M654.36,841.5a.91.91,0,0,0-.07-.14A.91.91,0,0,1,654.36,841.5Z"/><path class="cls-4" d="M654.37,842.49l-.08.14Z"/><path class="cls-4" d="M654.28,842.65l-.12.16Z"/><path class="cls-4" d="M654.43,842.31l-.06.16Z"/><path class="cls-4" d="M654.27,841.33l-.11-.15Z"/><path class="cls-4" d="M654.43,841.68l0,.19Z"/><path class="cls-4" d="M654.37,841.53v0Z"/><path class="cls-4" d="M654.43,842.31l0-.18Z"/><path class="cls-4" d="M654.29,842.63v0Z"/><path class="cls-4" d="M654.29,841.36l0,0Z"/><path class="cls-4" d="M654.37,842.47v0Z"/><path class="cls-4" d="M654.75,876.53l-.1-.11L638.19,860a.07.07,0,0,1,0-.1l16.46-16.46a2,2,0,0,0,.58-1.4,2,2,0,0,0-.58-1.41l-16-16a.74.74,0,0,1,0-1.05l15.39-15.39h-2.14L636.57,823.5a.78.78,0,0,0-.27.58.68.68,0,0,0,.05.29l0,0,.14.15a.52.52,0,0,0,.11.1l17,17a.47.47,0,0,1,0,.66l-17,17a.75.75,0,0,0-.27.58.64.64,0,0,0,.05.28l0,0,.15.14a.52.52,0,0,0,.1.11l16.29,16.29H655Z"/><path class="cls-4" d="M631.43,860.38l.15-.14,0,0a.64.64,0,0,0,.05-.28.75.75,0,0,0-.27-.58l-17-17a.47.47,0,0,1,0-.66l17-17a.52.52,0,0,0,.11-.1l.14-.15,0,0a.68.68,0,0,0,.05-.29.78.78,0,0,0-.27-.58L616,808.17h-2.14l15.39,15.39a.74.74,0,0,1,0,1.05l-16,16a2,2,0,0,0-.58,1.41,2,2,0,0,0,.58,1.4l16.46,16.46a.07.07,0,0,1,0,.1l-16.46,16.46-.1.11-.21.25H615l16.29-16.29A.52.52,0,0,0,631.43,860.38Z"/><rect class="cls-4" x="623.16" y="922.71" width="19.59" height="19.59" rx="8.06" transform="translate(844.76 -174.44) rotate(45)"/><polygon class="cls-4" points="613.42 934.76 610.67 934.76 630.69 954.78 630.69 952.03 613.42 934.76"/><polygon class="cls-4" points="630.69 912.97 630.69 910.22 610.67 930.24 613.42 930.24 630.69 912.97"/><polygon class="cls-4" points="652.48 930.24 655.23 930.24 635.21 910.22 635.21 912.97 652.48 930.24"/><polygon class="cls-4" points="652.48 934.76 635.21 952.03 635.21 954.78 655.23 934.76 652.48 934.76"/><rect class="cls-4" x="629" y="1008.44" width="9.9" height="9.9" rx="4.95" transform="translate(902.26 -151.45) rotate(45)"/><path class="cls-4" d="M646.33,979.17l-12.05,12.05a.49.49,0,0,1-.66,0l-12-12.05h-2a2,2,0,0,0,.4.56l12.56,12.56a2,2,0,0,0,2.8,0l12.56-12.56a2,2,0,0,0,.4-.56Z"/><path class="cls-4" d="M621.57,1047.63l12-12.06a.49.49,0,0,1,.66,0l12.05,12.06h2a2,2,0,0,0-.4-.57l-12.56-12.56a2,2,0,0,0-2.8,0L620,1047.06a2,2,0,0,0-.4.57Z"/><path class="cls-4" d="M654.37,1012.53l.06.15Z"/><path class="cls-4" d="M654.36,1012.5a.91.91,0,0,0-.07-.14A.91.91,0,0,1,654.36,1012.5Z"/><path class="cls-4" d="M654.37,1013.49l-.08.14Z"/><path class="cls-4" d="M654.28,1013.65l-.12.16Z"/><path class="cls-4" d="M654.43,1013.31l-.06.16Z"/><path class="cls-4" d="M654.27,1012.33l-.11-.15Z"/><path class="cls-4" d="M654.43,1012.68l0,.19Z"/><path class="cls-4" d="M654.37,1012.53v0Z"/><path class="cls-4" d="M654.43,1013.31l0-.18Z"/><path class="cls-4" d="M654.29,1013.63v0Z"/><path class="cls-4" d="M654.29,1012.36l0,0Z"/><path class="cls-4" d="M654.37,1013.47v0Z"/><path class="cls-4" d="M654.75,1047.53l-.1-.11L638.19,1031a.07.07,0,0,1,0-.1l16.46-16.46a2,2,0,0,0,.58-1.4,2,2,0,0,0-.58-1.41l-16-16a.74.74,0,0,1,0-1.05l15.39-15.39h-2.14L636.57,994.5a.78.78,0,0,0-.27.58.68.68,0,0,0,.05.29l0,0,.14.15a.52.52,0,0,0,.11.1l17,17a.47.47,0,0,1,0,.66l-17,17a.75.75,0,0,0-.27.58.64.64,0,0,0,.05.28l0,0,.15.14a.52.52,0,0,0,.1.11l16.29,16.29H655Z"/><path class="cls-4" d="M631.43,1031.38l.15-.14,0,0a.64.64,0,0,0,.05-.28.75.75,0,0,0-.27-.58l-17-17a.47.47,0,0,1,0-.66l17-17a.52.52,0,0,0,.11-.1l.14-.15,0,0a.68.68,0,0,0,.05-.29.78.78,0,0,0-.27-.58L616,979.17h-2.14l15.39,15.39a.74.74,0,0,1,0,1.05l-16,16a2,2,0,0,0-.58,1.41,2,2,0,0,0,.58,1.4l16.46,16.46a.07.07,0,0,1,0,.1l-16.46,16.46-.1.11-.21.25H615l16.29-16.29A.52.52,0,0,0,631.43,1031.38Z"/><rect class="cls-4" x="623.16" y="1087.71" width="19.59" height="19.59" rx="8.06" transform="translate(961.44 -126.11) rotate(45)"/><polygon class="cls-4" points="613.42 1099.76 610.67 1099.76 630.69 1119.78 630.69 1117.03 613.42 1099.76"/><polygon class="cls-4" points="630.69 1077.97 630.69 1075.22 610.67 1095.24 613.42 1095.24 630.69 1077.97"/><polygon class="cls-4" points="652.48 1095.24 655.23 1095.24 635.21 1075.22 635.21 1077.97 652.48 1095.24"/><polygon class="cls-4" points="652.48 1099.76 635.21 1117.03 635.21 1119.78 655.23 1099.76 652.48 1099.76"/></g></svg>