<svg id="Calque_1" data-name="Calque 1" xmlns="http://www.w3.org/2000/svg" xmlns:xlink="http://www.w3.org/1999/xlink" viewBox="0 0 1115 743"><defs><style>.cls-1{fill:none;}.cls-2{fill:#f50;}.cls-3{fill:#181222;}.cls-4{fill:#c8beb5;}.cls-5{clip-path:url(#clip-path);}.cls-6{fill:#191223;}.cls-7{clip-path:url(#clip-path-2);}.cls-8{opacity:0.17;}</style><clipPath id="clip-path"><rect class="cls-1" x="130" y="290" width="747" height="1115" transform="translate(778.6 -99.12) rotate(46.92)"/></clipPath><clipPath id="clip-path-2"><rect class="cls-1" x="-1427" y="1356.4" width="1173" height="778.19"/></clipPath></defs><rect class="cls-2" x="-283.6" y="564.63" width="1115" height="74.7" transform="translate(-337.32 349.38) rotate(-43.08)"/><rect class="cls-3" x="-232.58" y="619.19" width="1115" height="74.7" transform="translate(-360.83 398.94) rotate(-43.08)"/><rect class="cls-4" x="-181.56" y="673.75" width="1115" height="74.7" transform="translate(-384.34 448.5) rotate(-43.08)"/><rect class="cls-2" x="-130.53" y="728.31" width="1115" height="74.7" transform="translate(-407.85 498.06) rotate(-43.08)"/><rect class="cls-3" x="-79.51" y="782.87" width="1115" height="74.7" transform="translate(-431.36 547.62) rotate(-43.08)"/><rect class="cls-4" x="-28.49" y="837.43" width="1115" height="74.7" transform="translate(-454.87 597.18) rotate(-43.08)"/><rect class="cls-2" x="22.53" y="891.99" width="1115" height="74.7" transform="translate(-478.38 646.74) rotate(-43.08)"/><rect class="cls-3" x="73.56" y="946.55" width="1115" height="74.7" transform="translate(-501.89 696.29) rotate(-43.08)"/><rect class="cls-4" x="124.58" y="1001.11" width="1115" height="74.7" transform="translate(-525.4 745.85) rotate(-43.08)"/><rect class="cls-2" x="175.6" y="1055.67" width="1115" height="74.7" transform="translate(-548.91 795.41) rotate(-43.08)"/><g class="cls-5"><polygon class="cls-6" points="753.87 150.05 728.95 149.22 740.99 162.1 753.87 150.05"/><polygon class="cls-6" points="744.06 165.38 756.11 178.26 756.94 153.34 744.06 165.38"/><polygon class="cls-6" points="725.66 152.29 724.83 177.22 737.71 165.17 725.66 152.29"/><polygon class="cls-6" points="727.9 180.5 752.82 181.34 740.78 168.46 727.9 180.5"/><rect class="cls-6" x="739.58" y="157.32" width="18.08" height="0.72" transform="translate(94.14 553.84) rotate(-43.08)"/><rect class="cls-6" x="723.74" y="172.13" width="18.08" height="0.72" transform="translate(79.75 547.01) rotate(-43.08)"/><rect class="cls-6" x="733.03" y="148.35" width="0.72" height="17.81" transform="translate(90.31 543.32) rotate(-43.08)"/><rect class="cls-6" x="747.84" y="163.92" width="0.72" height="18.35" transform="translate(83.49 557.71) rotate(-43.08)"/><circle class="cls-6" cx="740.64" cy="165.08" r="0.94"/><rect class="cls-6" x="713.17" y="169.8" width="3.23" height="39.77" transform="translate(63.16 539.36) rotate(-43.08)"/><rect class="cls-6" x="704.44" y="177.97" width="3.23" height="39.77" transform="translate(55.22 535.6) rotate(-43.08)"/><rect class="cls-6" x="695.7" y="186.14" width="3.23" height="39.77" transform="translate(47.28 531.83) rotate(-43.08)"/><path class="cls-3" d="M663.83,266.77l-29.37-31.4,38.73-36.22,29.37,31.41ZM639,235.52l25,26.68,34-31.8-25-26.68Z"/><path class="cls-3" d="M657.08,238.81C664.93,229,672.69,227,677.82,227a18.64,18.64,0,0,1,9.51,2.59l-1.43,2.16a16.19,16.19,0,0,0-8.24-2.16c-6.58,0-12.82,3.63-18.55,10.82Z"/><polygon class="cls-6" points="633.36 262.75 608.43 261.92 620.48 274.8 633.36 262.75"/><polygon class="cls-6" points="623.55 278.08 635.59 290.96 636.43 266.04 623.55 278.08"/><polygon class="cls-6" points="605.15 264.99 604.31 289.92 617.19 277.87 605.15 264.99"/><polygon class="cls-6" points="607.38 293.2 632.31 294.04 620.26 281.16 607.38 293.2"/><rect class="cls-6" x="619.06" y="270.01" width="18.08" height="0.72" transform="translate(-15.33 501.91) rotate(-43.08)"/><rect class="cls-6" x="603.23" y="284.82" width="18.08" height="0.72" transform="translate(-29.72 495.08) rotate(-43.08)"/><rect class="cls-6" x="612.51" y="261.05" width="0.72" height="17.81" transform="translate(-19.16 491.39) rotate(-43.08)"/><rect class="cls-6" x="627.32" y="276.62" width="0.72" height="18.35" transform="translate(-25.98 505.78) rotate(-43.08)"/><circle class="cls-6" cx="620.12" cy="277.78" r="0.94"/><rect class="cls-6" x="592.66" y="282.5" width="3.23" height="39.77" transform="translate(-46.31 487.43) rotate(-43.08)"/><rect class="cls-6" x="583.92" y="290.67" width="3.23" height="39.77" transform="translate(-54.25 483.67) rotate(-43.08)"/><rect class="cls-6" x="575.19" y="298.84" width="3.23" height="39.77" transform="translate(-62.18 479.9) rotate(-43.08)"/><path class="cls-3" d="M543.31,379.47l-29.37-31.4,38.73-36.22L582,343.26Zm-24.8-31.25,25,26.68,34-31.8-25-26.68Z"/><path class="cls-3" d="M536.57,351.51c7.84-9.83,15.61-11.84,20.74-11.79a18.68,18.68,0,0,1,9.51,2.59l-1.44,2.16a16.13,16.13,0,0,0-8.23-2.16c-6.58,0-12.83,3.63-18.56,10.82Z"/><polygon class="cls-6" points="508.46 379.55 483.54 378.72 495.58 391.6 508.46 379.55"/><polygon class="cls-6" points="498.65 394.88 510.7 407.76 511.53 382.84 498.65 394.88"/><polygon class="cls-6" points="480.25 381.79 479.41 406.71 492.29 394.67 480.25 381.79"/><polygon class="cls-6" points="482.49 410 507.41 410.83 495.37 397.95 482.49 410"/><rect class="cls-6" x="494.17" y="386.81" width="18.08" height="0.72" transform="translate(-128.78 448.09) rotate(-43.08)"/><rect class="cls-6" x="478.33" y="401.62" width="18.08" height="0.72" transform="translate(-143.17 441.26) rotate(-43.08)"/><rect class="cls-6" x="487.62" y="377.85" width="0.72" height="17.81" transform="translate(-132.6 437.57) rotate(-43.08)"/><rect class="cls-6" x="502.43" y="393.42" width="0.72" height="18.35" transform="translate(-139.43 451.96) rotate(-43.08)"/><circle class="cls-6" cx="495.23" cy="394.58" r="0.94"/><rect class="cls-6" x="467.76" y="399.29" width="3.23" height="39.77" transform="translate(-159.76 433.61) rotate(-43.08)"/><rect class="cls-6" x="459.03" y="407.46" width="3.23" height="39.77" transform="translate(-167.7 429.85) rotate(-43.08)"/><rect class="cls-6" x="450.29" y="415.63" width="3.23" height="39.77" transform="translate(-175.63 426.08) rotate(-43.08)"/><path class="cls-3" d="M418.42,496.27l-29.37-31.41,38.72-36.21,29.37,31.4ZM393.62,465l24.95,26.68,34-31.8-24.95-26.68Z"/><path class="cls-3" d="M411.67,468.31c7.84-9.83,15.61-11.84,20.74-11.79a18.68,18.68,0,0,1,9.51,2.59l-1.43,2.15a16.47,16.47,0,0,0-8.24-2.16c-6.58,0-12.82,3.64-18.56,10.82Z"/><polygon class="cls-6" points="387.94 492.25 363.02 491.42 375.06 504.3 387.94 492.25"/><polygon class="cls-6" points="378.14 507.58 390.18 520.46 391.02 495.54 378.14 507.58"/><polygon class="cls-6" points="359.73 494.49 358.9 519.41 371.78 507.37 359.73 494.49"/><polygon class="cls-6" points="361.97 522.7 386.9 523.53 374.85 510.65 361.97 522.7"/><rect class="cls-6" x="373.65" y="499.51" width="18.08" height="0.72" transform="translate(-238.25 396.16) rotate(-43.08)"/><rect class="cls-6" x="357.81" y="514.32" width="18.08" height="0.72" transform="translate(-252.64 389.33) rotate(-43.08)"/><rect class="cls-6" x="367.1" y="490.55" width="0.72" height="17.81" transform="translate(-242.07 385.64) rotate(-43.08)"/><rect class="cls-6" x="381.91" y="506.12" width="0.72" height="18.35" transform="translate(-248.9 400.03) rotate(-43.08)"/><circle class="cls-6" cx="374.71" cy="507.27" r="0.94"/><rect class="cls-6" x="347.25" y="511.99" width="3.23" height="39.77" transform="translate(-269.23 381.68) rotate(-43.08)"/><rect class="cls-6" x="338.51" y="520.16" width="3.23" height="39.77" transform="translate(-277.17 377.92) rotate(-43.08)"/><rect class="cls-6" x="329.77" y="528.33" width="3.23" height="39.77" transform="translate(-285.1 374.15) rotate(-43.08)"/><path class="cls-3" d="M297.9,609l-29.37-31.41,38.73-36.21,29.37,31.4Zm-24.8-31.25,25,26.68,34-31.8-24.95-26.68Z"/><path class="cls-3" d="M291.16,581c7.84-9.83,15.6-11.84,20.74-11.79a18.47,18.47,0,0,1,9.5,2.59L320,574a16.36,16.36,0,0,0-8.23-2.16c-6.58,0-12.83,3.64-18.56,10.82Z"/><polygon class="cls-6" points="263.05 609.05 238.12 608.21 250.17 621.09 263.05 609.05"/><polygon class="cls-6" points="253.24 624.38 265.29 637.26 266.12 612.33 253.24 624.38"/><polygon class="cls-6" points="234.84 611.28 234 636.21 246.88 624.16 234.84 611.28"/><polygon class="cls-6" points="237.07 639.5 262 640.33 249.95 627.45 237.07 639.5"/><rect class="cls-6" x="248.75" y="616.31" width="18.08" height="0.72" transform="translate(-351.7 342.34) rotate(-43.08)"/><rect class="cls-6" x="232.92" y="631.12" width="18.08" height="0.72" transform="translate(-366.08 335.52) rotate(-43.08)"/><rect class="cls-6" x="242.2" y="607.35" width="0.72" height="17.81" transform="translate(-355.52 331.82) rotate(-43.08)"/><rect class="cls-6" x="257.01" y="622.91" width="0.72" height="18.35" transform="translate(-362.35 346.21) rotate(-43.08)"/><circle class="cls-6" cx="249.81" cy="624.07" r="0.94"/><rect class="cls-6" x="222.35" y="628.79" width="3.23" height="39.77" transform="translate(-382.68 327.86) rotate(-43.08)"/><rect class="cls-6" x="213.61" y="636.96" width="3.23" height="39.77" transform="translate(-390.61 324.1) rotate(-43.08)"/><rect class="cls-6" x="204.88" y="645.13" width="3.23" height="39.77" transform="translate(-398.55 320.33) rotate(-43.08)"/><path class="cls-3" d="M173,725.77l-29.37-31.41,38.73-36.22,29.37,31.41Zm-24.8-31.26,25,26.69,34-31.8-24.95-26.69Z"/><path class="cls-3" d="M166.26,697.81C174.1,688,181.87,686,187,686a18.57,18.57,0,0,1,9.51,2.59l-1.43,2.15a16.47,16.47,0,0,0-8.24-2.16c-6.58,0-12.82,3.63-18.56,10.82Z"/><polygon class="cls-6" points="142.53 721.75 117.61 720.91 129.65 733.79 142.53 721.75"/><polygon class="cls-6" points="132.72 737.08 144.77 749.96 145.6 725.03 132.72 737.08"/><polygon class="cls-6" points="114.32 723.99 113.49 748.91 126.37 736.87 114.32 723.99"/><polygon class="cls-6" points="116.56 752.2 141.48 753.03 129.44 740.15 116.56 752.2"/><rect class="cls-6" x="128.24" y="729.01" width="18.08" height="0.72" transform="translate(-461.17 290.41) rotate(-43.08)"/><rect class="cls-6" x="112.4" y="743.82" width="18.08" height="0.72" transform="translate(-475.55 283.59) rotate(-43.08)"/><rect class="cls-6" x="121.69" y="720.05" width="0.72" height="17.81" transform="translate(-464.99 279.89) rotate(-43.08)"/><rect class="cls-6" x="136.5" y="735.61" width="0.72" height="18.35" transform="translate(-471.81 294.28) rotate(-43.08)"/><circle class="cls-6" cx="129.3" cy="736.77" r="0.94"/><rect class="cls-4" x="806.59" y="184.38" width="3.16" height="38.89" transform="translate(78.67 606.95) rotate(-43.08)"/><rect class="cls-4" x="790.27" y="199.64" width="3.16" height="38.89" transform="translate(63.85 599.92) rotate(-43.08)"/><rect class="cls-4" x="773.76" y="215.08" width="3.16" height="38.89" transform="translate(48.85 592.81) rotate(-43.08)"/><rect class="cls-4" x="757.25" y="230.52" width="3.16" height="38.89" transform="translate(33.85 585.69) rotate(-43.08)"/><rect class="cls-4" x="684.69" y="298.37" width="3.16" height="38.89" transform="translate(-32.06 554.43) rotate(-43.08)"/><rect class="cls-4" x="668.37" y="313.63" width="3.16" height="38.89" transform="translate(-46.88 547.4) rotate(-43.08)"/><rect class="cls-4" x="651.86" y="329.07" width="3.16" height="38.89" transform="translate(-61.87 540.28) rotate(-43.08)"/><rect class="cls-4" x="635.35" y="344.51" width="3.16" height="38.89" transform="translate(-76.87 533.17) rotate(-43.08)"/><circle class="cls-4" cx="733.47" cy="253.55" r="5.98"/><circle class="cls-4" cx="733.56" cy="278.95" r="5.98"/><circle class="cls-4" cx="714.86" cy="275.5" r="5.98"/><circle class="cls-4" cx="702.59" cy="290.62" r="5.98"/><circle class="cls-4" cx="717.93" cy="296.3" r="5.98"/><circle class="cls-4" cx="713.08" cy="314.49" r="5.98"/><circle class="cls-4" cx="749.99" cy="279.97" r="5.98"/><circle class="cls-4" cx="611.56" cy="367.55" r="5.98"/><circle class="cls-4" cx="611.65" cy="392.95" r="5.98"/><circle class="cls-4" cx="592.95" cy="389.5" r="5.98"/><circle class="cls-4" cx="580.69" cy="404.62" r="5.98"/><circle class="cls-4" cx="596.02" cy="410.31" r="5.98"/><circle class="cls-4" cx="591.18" cy="428.49" r="5.98"/><circle class="cls-4" cx="628.08" cy="393.97" r="5.98"/><rect class="cls-4" x="561.17" y="413.88" width="3.16" height="38.89" transform="translate(-144.25 501.2) rotate(-43.08)"/><rect class="cls-4" x="544.86" y="429.14" width="3.16" height="38.89" transform="translate(-159.07 494.17) rotate(-43.08)"/><rect class="cls-4" x="528.35" y="444.58" width="3.16" height="38.89" transform="translate(-174.07 487.06) rotate(-43.08)"/><rect class="cls-4" x="511.83" y="460.02" width="3.16" height="38.89" transform="translate(-189.07 479.94) rotate(-43.08)"/><rect class="cls-4" x="439.28" y="527.87" width="3.16" height="38.89" transform="translate(-254.97 448.68) rotate(-43.08)"/><rect class="cls-4" x="422.96" y="543.13" width="3.16" height="38.89" transform="translate(-269.79 441.65) rotate(-43.08)"/><rect class="cls-4" x="406.45" y="558.57" width="3.16" height="38.89" transform="translate(-284.79 434.53) rotate(-43.08)"/><rect class="cls-4" x="389.94" y="574.01" width="3.16" height="38.89" transform="translate(-299.79 427.42) rotate(-43.08)"/><circle class="cls-4" cx="488.06" cy="483.04" r="5.98"/><circle class="cls-4" cx="488.15" cy="508.45" r="5.98"/><circle class="cls-4" cx="469.45" cy="505" r="5.98"/><circle class="cls-4" cx="457.18" cy="520.11" r="5.98"/><circle class="cls-4" cx="472.51" cy="525.8" r="5.98"/><circle class="cls-4" cx="467.67" cy="543.99" r="5.98"/><circle class="cls-4" cx="504.58" cy="509.47" r="5.98"/><circle class="cls-4" cx="366.15" cy="597.05" r="5.98"/><circle class="cls-4" cx="366.24" cy="622.45" r="5.98"/><circle class="cls-4" cx="347.54" cy="619" r="5.98"/><circle class="cls-4" cx="335.27" cy="634.11" r="5.98"/><circle class="cls-4" cx="350.61" cy="639.8" r="5.98"/><circle class="cls-4" cx="345.76" cy="657.99" r="5.98"/><circle class="cls-4" cx="382.67" cy="623.47" r="5.98"/><rect class="cls-4" x="315.76" y="643.38" width="3.16" height="38.89" transform="translate(-367.17 395.46) rotate(-43.08)"/><rect class="cls-4" x="299.45" y="658.64" width="3.16" height="38.89" transform="translate(-381.99 388.43) rotate(-43.08)"/><rect class="cls-4" x="282.93" y="674.08" width="3.16" height="38.89" transform="translate(-396.99 381.31) rotate(-43.08)"/><rect class="cls-4" x="266.42" y="689.52" width="3.16" height="38.89" transform="translate(-411.99 374.2) rotate(-43.08)"/><circle class="cls-4" cx="242.65" cy="712.54" r="5.98"/><circle class="cls-4" cx="242.74" cy="737.95" r="5.98"/><circle class="cls-4" cx="224.04" cy="734.5" r="5.98"/><circle class="cls-4" cx="259.17" cy="738.97" r="5.98"/><rect class="cls-6" x="828.49" y="268.95" width="19.59" height="19.59" rx="8.06" transform="translate(1144.95 -549.73) rotate(91.92)"/><polygon class="cls-6" points="823.3 266.02 821.42 264.01 820.47 292.31 822.48 290.43 823.3 266.02"/><polygon class="cls-6" points="851.01 263.76 853.01 261.88 824.72 260.93 826.59 262.94 851.01 263.76"/><polygon class="cls-6" points="853.27 291.46 855.15 293.47 856.1 265.18 854.09 267.05 853.27 291.46"/><polygon class="cls-6" points="849.97 294.55 825.56 293.73 823.55 295.61 851.85 296.55 849.97 294.55"/><rect class="cls-6" x="774.93" y="329.78" width="9.9" height="9.9" rx="4.95" transform="translate(1140.54 -433.5) rotate(91.92)"/><path class="cls-3" d="M813.34,320.39l-17-.57a.49.49,0,0,1-.45-.48l.58-17-1.35-1.45a1.93,1.93,0,0,0-.15.68l-.59,17.75a2,2,0,0,0,1.91,2l17.75.59a2,2,0,0,0,.69-.1Z"/><path class="cls-3" d="M746.42,349.06l17,.58a.47.47,0,0,1,.45.47l-.57,17,1.35,1.44a2.16,2.16,0,0,0,.14-.67l.59-17.75a2,2,0,0,0-.53-1.42,2,2,0,0,0-1.38-.63l-17.75-.6a2.26,2.26,0,0,0-.69.1Z"/><path class="cls-3" d="M794.46,349.05a1,1,0,0,1-.07.15A1,1,0,0,0,794.46,349.05Z"/><path class="cls-3" d="M794.48,349s0-.1,0-.15S794.5,349,794.48,349Z"/><path class="cls-3" d="M793.76,349.7l-.16,0Z"/><path class="cls-3" d="M793.58,349.75l-.2,0Z"/><path class="cls-3" d="M793.93,349.63l-.15.06Z"/><path class="cls-3" d="M794.54,348.85l0-.19Z"/><path class="cls-3" d="M794.39,349.2l-.11.15Z"/><path class="cls-3" d="M794.46,349.05l0,0Z"/><path class="cls-3" d="M793.93,349.63l.15-.1Z"/><path class="cls-3" d="M793.6,349.74h0Z"/><path class="cls-3" d="M794.53,348.88a0,0,0,0,1,0,0A0,0,0,0,0,794.53,348.88Z"/><path class="cls-3" d="M793.78,349.69h0Z"/><path class="cls-3" d="M769.15,373.23a.77.77,0,0,0,0-.15l.78-23.26a.07.07,0,0,1,.07-.07l23.26.78a2,2,0,0,0,1.42-.53,2,2,0,0,0,.63-1.39l.76-22.59a.78.78,0,0,1,.23-.52.82.82,0,0,1,.54-.2l21.75.73-1.46-1.57-21.68-.72a.75.75,0,0,0-.61.19.66.66,0,0,0-.17.24h-.06v.2a.76.76,0,0,0,0,.15l-.81,24a.46.46,0,0,1-.48.45l-24-.8a.77.77,0,0,0-.62.19.81.81,0,0,0-.17.24h0v.21a.38.38,0,0,0,0,.15l-.78,23,1.44,1.54Z"/><path class="cls-3" d="M765,345.18h.21v-.05a.76.76,0,0,0,.25-.16.74.74,0,0,0,.23-.6l.81-24a.46.46,0,0,1,.48-.45l24,.8h.36v0a.61.61,0,0,0,.24-.15.77.77,0,0,0,.24-.6l.73-21.68-1.47-1.57-.73,21.76a.75.75,0,0,1-.24.52.78.78,0,0,1-.53.2l-22.59-.76a2,2,0,0,0-1.42.53,2,2,0,0,0-.63,1.39l-.78,23.26a.07.07,0,0,1-.07.07l-23.26-.78h-.16l-.32,0,1.43,1.53,23,.77Z"/><rect class="cls-6" x="707.97" y="381.65" width="19.59" height="19.59" rx="8.06" transform="translate(1133.03 -312.81) rotate(91.92)"/><polygon class="cls-6" points="702.78 378.72 700.9 376.71 699.96 405.01 701.97 403.13 702.78 378.72"/><polygon class="cls-6" points="730.49 376.46 732.5 374.58 704.2 373.63 706.08 375.64 730.49 376.46"/><polygon class="cls-6" points="732.75 404.17 734.63 406.17 735.58 377.87 733.57 379.75 732.75 404.17"/><polygon class="cls-6" points="729.46 407.25 705.05 406.43 703.04 408.31 731.34 409.25 729.46 407.25"/><rect class="cls-6" x="654.41" y="442.48" width="9.9" height="9.9" rx="4.95" transform="translate(1128.63 -196.58) rotate(91.92)"/><path class="cls-3" d="M692.82,433.09l-17-.57a.47.47,0,0,1-.45-.48l.57-17-1.35-1.44a2.17,2.17,0,0,0-.14.68l-.6,17.75a2,2,0,0,0,1.92,2.05l17.75.59a1.9,1.9,0,0,0,.68-.1Z"/><path class="cls-3" d="M625.91,461.76l17,.57a.48.48,0,0,1,.45.48l-.57,17,1.35,1.44a1.71,1.71,0,0,0,.14-.67l.6-17.75a2,2,0,0,0-.54-1.42,1.93,1.93,0,0,0-1.38-.63l-17.75-.6a2.24,2.24,0,0,0-.68.1Z"/><path class="cls-3" d="M674,461.75a.64.64,0,0,1-.08.14A.64.64,0,0,0,674,461.75Z"/><path class="cls-3" d="M674,461.73a.75.75,0,0,0,0-.16A.75.75,0,0,1,674,461.73Z"/><path class="cls-3" d="M673.24,462.4l-.15,0Z"/><path class="cls-3" d="M673.06,462.45l-.19,0Z"/><path class="cls-3" d="M673.41,462.33l-.15.06Z"/><path class="cls-3" d="M674,461.55a.69.69,0,0,0,0-.2A.69.69,0,0,1,674,461.55Z"/><path class="cls-3" d="M673.87,461.89a.91.91,0,0,1-.11.16A.91.91,0,0,0,673.87,461.89Z"/><path class="cls-3" d="M674,461.75v0Z"/><path class="cls-3" d="M673.41,462.33l.16-.1Z"/><path class="cls-3" d="M673.09,462.44h0Z"/><path class="cls-3" d="M674,461.57s0,0,0,0S674,461.57,674,461.57Z"/><path class="cls-3" d="M673.26,462.39h0Z"/><path class="cls-3" d="M648.64,485.93a.76.76,0,0,0,0-.15l.78-23.26a.08.08,0,0,1,.08-.07l23.26.78a1.93,1.93,0,0,0,1.42-.54,2,2,0,0,0,.63-1.38l.75-22.59a.75.75,0,0,1,.24-.52.79.79,0,0,1,.53-.2l21.76.73-1.47-1.57L675,436.44a.77.77,0,0,0-.62.19.81.81,0,0,0-.17.24h0v.2a.38.38,0,0,0,0,.15l-.81,24a.46.46,0,0,1-.48.45l-24-.8a.73.73,0,0,0-.61.19.66.66,0,0,0-.17.24H648v.21a.76.76,0,0,0,0,.15l-.77,23,1.43,1.54Z"/><path class="cls-3" d="M644.51,457.88h.21v-.05a.63.63,0,0,0,.24-.16.71.71,0,0,0,.24-.6l.8-24a.47.47,0,0,1,.48-.45l24,.8h.35v-.05a.73.73,0,0,0,.25-.15.76.76,0,0,0,.23-.6l.73-21.68-1.47-1.57-.72,21.76a.75.75,0,0,1-.24.52.79.79,0,0,1-.53.2l-22.59-.76a2,2,0,0,0-1.43.53,2,2,0,0,0-.62,1.39l-.78,23.26a.08.08,0,0,1-.08.07l-23.26-.78h-.15l-.33,0,1.44,1.53,23,.77Z"/><rect class="cls-6" x="583.08" y="498.45" width="19.59" height="19.59" rx="8.06" transform="matrix(-0.03, 1, -1, -0.03, 1120.68, -67.28)"/><polygon class="cls-6" points="577.89 495.52 576.01 493.51 575.06 521.81 577.07 519.93 577.89 495.52"/><polygon class="cls-6" points="605.59 493.25 607.6 491.38 579.3 490.43 581.18 492.44 605.59 493.25"/><polygon class="cls-6" points="607.86 520.96 609.73 522.97 610.68 494.67 608.67 496.55 607.86 520.96"/><polygon class="cls-6" points="604.56 524.04 580.15 523.23 578.14 525.1 606.44 526.05 604.56 524.04"/><rect class="cls-6" x="529.52" y="559.27" width="9.9" height="9.9" rx="4.95" transform="translate(1116.28 48.95) rotate(91.92)"/><path class="cls-3" d="M567.93,549.89l-17-.57a.48.48,0,0,1-.45-.48l.57-17-1.35-1.44a2.17,2.17,0,0,0-.14.68l-.59,17.75a2,2,0,0,0,.53,1.42,1.94,1.94,0,0,0,1.38.62l17.75.6a2,2,0,0,0,.69-.1Z"/><path class="cls-3" d="M501,578.56l17,.57a.47.47,0,0,1,.44.48l-.57,17,1.35,1.44a1.93,1.93,0,0,0,.15-.68l.59-17.75a2,2,0,0,0-.53-1.42,2,2,0,0,0-1.38-.62l-17.75-.6a2,2,0,0,0-.69.1Z"/><path class="cls-3" d="M549.05,578.55l-.07.14A.61.61,0,0,0,549.05,578.55Z"/><path class="cls-3" d="M549.06,578.53a1,1,0,0,0,.06-.16Z"/><path class="cls-3" d="M548.35,579.2l-.16,0Z"/><path class="cls-3" d="M548.16,579.25l-.19,0Z"/><path class="cls-3" d="M548.52,579.12l-.15.07Z"/><path class="cls-3" d="M549.13,578.34l0-.19Z"/><path class="cls-3" d="M549,578.69a.61.61,0,0,1-.12.15A.61.61,0,0,0,549,578.69Z"/><path class="cls-3" d="M549.05,578.55v0Z"/><path class="cls-3" d="M548.52,579.12l.15-.1Z"/><path class="cls-3" d="M548.19,579.24h0Z"/><path class="cls-3" d="M549.12,578.37a0,0,0,0,1,0,0A0,0,0,0,0,549.12,578.37Z"/><path class="cls-3" d="M548.37,579.19h0Z"/><path class="cls-3" d="M523.74,602.73c0-.05,0-.1,0-.15l.77-23.26s0-.08.08-.07l23.26.78a2,2,0,0,0,1.42-.54,2,2,0,0,0,.63-1.38l.76-22.59a.74.74,0,0,1,.77-.72l21.75.73L571.74,554l-21.68-.72a.74.74,0,0,0-.62.19.81.81,0,0,0-.17.24h0V554l-.81,24a.46.46,0,0,1-.48.45l-24-.81a.75.75,0,0,0-.62.2.81.81,0,0,0-.17.24h-.05v.21a.76.76,0,0,0,0,.15l-.77,23,1.44,1.53Z"/><path class="cls-3" d="M519.61,574.67h.21v0a.78.78,0,0,0,.24-.16.71.71,0,0,0,.24-.6l.81-24a.46.46,0,0,1,.48-.44l24,.8H546v-.05a.67.67,0,0,0,.25-.16.74.74,0,0,0,.24-.59l.72-21.68-1.46-1.57L545,547.92a.72.72,0,0,1-.24.51.69.69,0,0,1-.53.2l-22.59-.75a2,2,0,0,0-2,1.91l-.78,23.26a.09.09,0,0,1-.08.08l-23.26-.78H495l1.43,1.54,23,.77Z"/><rect class="cls-6" x="462.56" y="611.15" width="19.59" height="19.59" rx="8.06" transform="translate(1108.77 169.64) rotate(91.92)"/><polygon class="cls-6" points="457.37 608.22 455.49 606.21 454.55 634.51 456.55 632.63 457.37 608.22"/><polygon class="cls-6" points="485.08 605.95 487.09 604.08 458.79 603.13 460.67 605.14 485.08 605.95"/><polygon class="cls-6" points="487.34 633.66 489.22 635.67 490.17 607.37 488.16 609.25 487.34 633.66"/><polygon class="cls-6" points="484.05 636.74 459.63 635.92 457.63 637.8 485.93 638.75 484.05 636.74"/><rect class="cls-6" x="409" y="671.97" width="9.9" height="9.9" rx="4.95" transform="translate(1104.36 285.87) rotate(91.92)"/><path class="cls-3" d="M447.41,662.59l-17-.57a.48.48,0,0,1-.45-.48l.57-17-1.35-1.44a1.71,1.71,0,0,0-.14.67l-.6,17.76a2,2,0,0,0,.53,1.42,2,2,0,0,0,1.39.62l17.75.6a2,2,0,0,0,.68-.1Z"/><path class="cls-3" d="M380.5,691.26l17,.57a.47.47,0,0,1,.45.48l-.57,17,1.35,1.44a2.17,2.17,0,0,0,.14-.68l.6-17.75a2,2,0,0,0-.54-1.42,1.92,1.92,0,0,0-1.38-.62l-17.75-.6a1.9,1.9,0,0,0-.68.1Z"/><path class="cls-3" d="M428.54,691.25s-.05.1-.08.14S428.51,691.3,428.54,691.25Z"/><path class="cls-3" d="M428.55,691.22a.66.66,0,0,0,.05-.15A.66.66,0,0,1,428.55,691.22Z"/><path class="cls-3" d="M427.83,691.9l-.16,0Z"/><path class="cls-3" d="M427.65,692l-.19,0Z"/><path class="cls-3" d="M428,691.82l-.15.07Z"/><path class="cls-3" d="M428.61,691a.58.58,0,0,0,0-.19A.58.58,0,0,1,428.61,691Z"/><path class="cls-3" d="M428.46,691.39a.83.83,0,0,1-.11.15A.58.58,0,0,0,428.46,691.39Z"/><path class="cls-3" d="M428.54,691.25v0Z"/><path class="cls-3" d="M428,691.82l.16-.1Z"/><path class="cls-3" d="M427.67,691.94h0Z"/><path class="cls-3" d="M428.6,691.07s0,0,0,0S428.6,691.06,428.6,691.07Z"/><path class="cls-3" d="M427.85,691.89h0Z"/><path class="cls-3" d="M403.23,715.43s0-.1,0-.15L404,692a.07.07,0,0,1,.08-.07l23.26.78a2,2,0,0,0,1.42-.54,2,2,0,0,0,.63-1.38l.75-22.59a.75.75,0,0,1,.24-.52.69.69,0,0,1,.53-.2l21.76.73-1.47-1.57-21.68-.73a.74.74,0,0,0-.61.2.81.81,0,0,0-.17.24h-.05v.2a.86.86,0,0,0,0,.16l-.8,24a.47.47,0,0,1-.48.45l-24-.81a.73.73,0,0,0-.61.2.56.56,0,0,0-.17.24h-.06v.36l-.77,23,1.43,1.53Z"/><path class="cls-3" d="M399.1,687.37h.2v0a.82.82,0,0,0,.25-.16.76.76,0,0,0,.24-.6l.8-24a.47.47,0,0,1,.48-.44l24,.8h.36v0a1,1,0,0,0,.25-.16.73.73,0,0,0,.23-.59l.73-21.68-1.47-1.57-.73,21.75a.72.72,0,0,1-.23.52.73.73,0,0,1-.54.2l-22.59-.75a2,2,0,0,0-1.42.53,2,2,0,0,0-.63,1.38l-.77,23.26s0,.08-.08.08L375,685h-.48l1.44,1.54,23,.77Z"/><rect class="cls-6" x="337.67" y="727.94" width="19.59" height="19.59" rx="8.06" transform="translate(1096.42 415.18) rotate(91.92)"/><polygon class="cls-6" points="332.47 725.01 330.6 723.01 329.65 751.3 331.65 749.43 332.47 725.01"/><polygon class="cls-6" points="360.18 722.75 362.19 720.87 333.89 719.93 335.77 721.93 360.18 722.75"/><polygon class="cls-6" points="362.44 750.46 364.32 752.47 365.27 724.17 363.26 726.05 362.44 750.46"/><polygon class="cls-6" points="906.94 313.74 882.01 312.9 894.06 325.78 906.94 313.74"/><polygon class="cls-6" points="897.13 329.06 909.17 341.94 910.01 317.02 897.13 329.06"/><polygon class="cls-6" points="878.73 315.97 877.89 340.9 890.77 328.85 878.73 315.97"/><polygon class="cls-6" points="880.97 344.18 905.89 345.02 893.85 332.14 880.97 344.18"/><rect class="cls-6" x="892.64" y="321" width="18.08" height="0.72" transform="translate(23.61 702.52) rotate(-43.08)"/><rect class="cls-6" x="876.81" y="335.81" width="18.08" height="0.72" transform="translate(9.22 695.69) rotate(-43.08)"/><rect class="cls-6" x="886.09" y="312.03" width="0.72" height="17.81" transform="translate(19.78 692) rotate(-43.08)"/><rect class="cls-6" x="900.9" y="327.6" width="0.72" height="18.35" transform="translate(12.96 706.39) rotate(-43.08)"/><circle class="cls-6" cx="893.7" cy="328.76" r="0.94"/><rect class="cls-6" x="866.24" y="333.48" width="3.23" height="39.77" transform="translate(-7.37 688.04) rotate(-43.08)"/><rect class="cls-6" x="857.5" y="341.65" width="3.23" height="39.77" transform="translate(-15.31 684.27) rotate(-43.08)"/><rect class="cls-6" x="848.77" y="349.82" width="3.23" height="39.77" transform="translate(-23.25 680.51) rotate(-43.08)"/><path class="cls-3" d="M816.9,430.45l-29.37-31.4,38.72-36.22,29.37,31.41ZM792.09,399.2l25,26.68,34-31.8L826.1,367.4Z"/><path class="cls-3" d="M810.15,402.49c7.84-9.82,15.61-11.83,20.74-11.79a18.68,18.68,0,0,1,9.51,2.59L839,395.45a16.35,16.35,0,0,0-8.24-2.16c-6.58,0-12.82,3.63-18.56,10.82Z"/><polygon class="cls-6" points="786.42 426.43 761.5 425.6 773.54 438.48 786.42 426.43"/><polygon class="cls-6" points="776.62 441.76 788.66 454.64 789.5 429.72 776.62 441.76"/><polygon class="cls-6" points="758.21 428.67 757.38 453.6 770.26 441.55 758.21 428.67"/><polygon class="cls-6" points="760.45 456.88 785.38 457.72 773.33 444.84 760.45 456.88"/><rect class="cls-6" x="772.13" y="433.7" width="18.08" height="0.72" transform="translate(-85.86 650.59) rotate(-43.08)"/><rect class="cls-6" x="756.29" y="448.51" width="18.08" height="0.72" transform="translate(-100.25 643.76) rotate(-43.08)"/><rect class="cls-6" x="765.58" y="424.73" width="0.72" height="17.81" transform="translate(-89.69 640.07) rotate(-43.08)"/><rect class="cls-6" x="780.39" y="440.3" width="0.72" height="18.35" transform="translate(-96.51 654.46) rotate(-43.08)"/><circle class="cls-6" cx="773.19" cy="441.46" r="0.94"/><rect class="cls-6" x="745.73" y="446.18" width="3.23" height="39.77" transform="translate(-116.84 636.11) rotate(-43.08)"/><rect class="cls-6" x="736.99" y="454.35" width="3.23" height="39.77" transform="translate(-124.78 632.34) rotate(-43.08)"/><rect class="cls-6" x="728.25" y="462.52" width="3.23" height="39.77" transform="translate(-132.72 628.58) rotate(-43.08)"/><path class="cls-3" d="M696.38,543.15,667,511.75l38.73-36.22,29.37,31.41Zm-24.8-31.25,24.95,26.68,34-31.8-25-26.68Z"/><path class="cls-3" d="M689.64,515.19c7.84-9.83,15.6-11.83,20.74-11.79a18.58,18.58,0,0,1,9.5,2.59l-1.43,2.16a16.25,16.25,0,0,0-8.23-2.16c-6.58,0-12.83,3.63-18.56,10.82Z"/><polygon class="cls-6" points="661.53 543.23 636.6 542.4 648.65 555.28 661.53 543.23"/><polygon class="cls-6" points="651.72 558.56 663.76 571.44 664.6 546.52 651.72 558.56"/><polygon class="cls-6" points="633.32 545.47 632.48 570.39 645.36 558.35 633.32 545.47"/><polygon class="cls-6" points="635.55 573.68 660.48 574.51 648.43 561.63 635.55 573.68"/><rect class="cls-6" x="647.23" y="550.49" width="18.08" height="0.72" transform="translate(-199.31 596.77) rotate(-43.08)"/><rect class="cls-6" x="631.39" y="565.3" width="18.08" height="0.72" transform="translate(-213.7 589.94) rotate(-43.08)"/><rect class="cls-6" x="640.68" y="541.53" width="0.72" height="17.81" transform="translate(-203.14 586.25) rotate(-43.08)"/><rect class="cls-6" x="655.49" y="557.1" width="0.72" height="18.35" transform="translate(-209.96 600.64) rotate(-43.08)"/><circle class="cls-6" cx="648.29" cy="558.26" r="0.94"/><rect class="cls-6" x="620.83" y="562.97" width="3.23" height="39.77" transform="translate(-230.29 582.29) rotate(-43.08)"/><rect class="cls-6" x="612.09" y="571.14" width="3.23" height="39.77" transform="translate(-238.23 578.53) rotate(-43.08)"/><rect class="cls-6" x="603.35" y="579.32" width="3.23" height="39.77" transform="translate(-246.16 574.76) rotate(-43.08)"/><path class="cls-3" d="M571.48,660l-29.37-31.41,38.73-36.21,29.37,31.41Zm-24.8-31.25,25,26.68,34-31.8L580.69,596.9Z"/><path class="cls-3" d="M564.74,632c7.84-9.83,15.61-11.84,20.74-11.79a18.68,18.68,0,0,1,9.51,2.59l-1.44,2.15a16.36,16.36,0,0,0-8.23-2.16c-6.58,0-12.83,3.64-18.56,10.82Z"/><polygon class="cls-6" points="541.01 655.93 516.09 655.1 528.13 667.98 541.01 655.93"/><polygon class="cls-6" points="531.2 671.26 543.25 684.14 544.08 659.22 531.2 671.26"/><polygon class="cls-6" points="512.8 658.17 511.97 683.09 524.85 671.05 512.8 658.17"/><polygon class="cls-6" points="515.04 686.38 539.96 687.21 527.92 674.33 515.04 686.38"/><rect class="cls-6" x="526.72" y="663.19" width="18.08" height="0.72" transform="translate(-308.78 544.84) rotate(-43.08)"/><rect class="cls-6" x="510.88" y="678" width="18.08" height="0.72" transform="translate(-323.17 538.01) rotate(-43.08)"/><rect class="cls-6" x="520.17" y="654.23" width="0.72" height="17.81" transform="translate(-312.6 534.32) rotate(-43.08)"/><rect class="cls-6" x="534.98" y="669.8" width="0.72" height="18.35" transform="translate(-319.43 548.71) rotate(-43.08)"/><circle class="cls-6" cx="527.78" cy="670.96" r="0.94"/><rect class="cls-6" x="500.31" y="675.67" width="3.23" height="39.77" transform="translate(-339.76 530.36) rotate(-43.08)"/><rect class="cls-6" x="491.58" y="683.84" width="3.23" height="39.77" transform="translate(-347.7 526.59) rotate(-43.08)"/><rect class="cls-6" x="482.84" y="692.01" width="3.23" height="39.77" transform="translate(-355.63 522.83) rotate(-43.08)"/><path class="cls-3" d="M451,772.65,421.6,741.24,460.33,705l29.37,31.4Zm-24.8-31.25,24.95,26.68,34-31.8-25-26.68Z"/><path class="cls-3" d="M444.22,744.69c7.85-9.83,15.61-11.84,20.74-11.79a18.68,18.68,0,0,1,9.51,2.59L473,737.64a16.42,16.42,0,0,0-8.24-2.16c-6.58,0-12.82,3.64-18.55,10.82Z"/><rect class="cls-4" x="959.65" y="348.06" width="3.16" height="38.89" transform="translate(8.14 755.63) rotate(-43.08)"/><rect class="cls-4" x="943.34" y="363.32" width="3.16" height="38.89" transform="translate(-6.68 748.6) rotate(-43.08)"/><rect class="cls-4" x="926.82" y="378.76" width="3.16" height="38.89" transform="translate(-21.68 741.49) rotate(-43.08)"/><rect class="cls-4" x="910.31" y="394.2" width="3.16" height="38.89" transform="translate(-36.68 734.37) rotate(-43.08)"/><rect class="cls-4" x="837.76" y="462.06" width="3.16" height="38.89" transform="translate(-102.59 703.11) rotate(-43.08)"/><rect class="cls-4" x="821.44" y="477.31" width="3.16" height="38.89" transform="translate(-117.41 696.08) rotate(-43.08)"/><rect class="cls-4" x="804.93" y="492.75" width="3.16" height="38.89" transform="translate(-132.41 688.96) rotate(-43.08)"/><rect class="cls-4" x="788.42" y="508.19" width="3.16" height="38.89" transform="translate(-147.4 681.85) rotate(-43.08)"/><circle class="cls-4" cx="886.54" cy="417.23" r="5.98"/><circle class="cls-4" cx="886.63" cy="442.63" r="5.98"/><circle class="cls-4" cx="867.93" cy="439.18" r="5.98"/><circle class="cls-4" cx="855.66" cy="454.3" r="5.98"/><circle class="cls-4" cx="870.99" cy="459.99" r="5.98"/><circle class="cls-4" cx="866.15" cy="478.17" r="5.98"/><circle class="cls-4" cx="903.06" cy="443.65" r="5.98"/><circle class="cls-4" cx="764.63" cy="531.23" r="5.98"/><circle class="cls-4" cx="764.72" cy="556.63" r="5.98"/><circle class="cls-4" cx="746.02" cy="553.19" r="5.98"/><circle class="cls-4" cx="733.75" cy="568.3" r="5.98"/><circle class="cls-4" cx="749.08" cy="573.99" r="5.98"/><circle class="cls-4" cx="744.24" cy="592.17" r="5.98"/><circle class="cls-4" cx="781.15" cy="557.66" r="5.98"/><rect class="cls-4" x="714.24" y="577.56" width="3.16" height="38.89" transform="translate(-214.78 649.88) rotate(-43.08)"/><rect class="cls-4" x="697.92" y="592.82" width="3.16" height="38.89" transform="translate(-229.6 642.85) rotate(-43.08)"/><rect class="cls-4" x="681.41" y="608.26" width="3.16" height="38.89" transform="translate(-244.6 635.74) rotate(-43.08)"/><rect class="cls-4" x="664.9" y="623.7" width="3.16" height="38.89" transform="translate(-259.6 628.62) rotate(-43.08)"/><rect class="cls-4" x="592.34" y="691.55" width="3.16" height="38.89" transform="translate(-325.5 597.36) rotate(-43.08)"/><rect class="cls-4" x="576.03" y="706.81" width="3.16" height="38.89" transform="translate(-340.32 590.33) rotate(-43.08)"/><rect class="cls-4" x="559.52" y="722.25" width="3.16" height="38.89" transform="translate(-355.32 583.21) rotate(-43.08)"/><rect class="cls-4" x="543.01" y="737.69" width="3.16" height="38.89" transform="translate(-370.32 576.1) rotate(-43.08)"/><circle class="cls-4" cx="641.13" cy="646.72" r="5.98"/><circle class="cls-4" cx="641.21" cy="672.13" r="5.98"/><circle class="cls-4" cx="622.51" cy="668.68" r="5.98"/><circle class="cls-4" cx="610.25" cy="683.79" r="5.98"/><circle class="cls-4" cx="625.58" cy="689.48" r="5.98"/><circle class="cls-4" cx="620.74" cy="707.67" r="5.98"/><circle class="cls-4" cx="657.65" cy="673.15" r="5.98"/><rect class="cls-6" x="981.56" y="432.63" width="19.59" height="19.59" rx="8.06" transform="translate(1466.73 -533.55) rotate(91.92)"/><polygon class="cls-6" points="976.36 429.7 974.49 427.69 973.54 455.99 975.55 454.12 976.36 429.7"/><polygon class="cls-6" points="1004.07 427.44 1006.08 425.56 977.78 424.61 979.66 426.62 1004.07 427.44"/><polygon class="cls-6" points="1006.34 455.15 1008.21 457.15 1009.16 428.86 1007.15 430.73 1006.34 455.15"/><polygon class="cls-6" points="1003.04 458.23 978.63 457.41 976.62 459.29 1004.92 460.24 1003.04 458.23"/><rect class="cls-6" x="928" y="493.46" width="9.9" height="9.9" rx="4.95" transform="translate(1462.32 -417.32) rotate(91.92)"/><path class="cls-3" d="M966.4,484.07l-17-.57a.47.47,0,0,1-.45-.48l.57-17-1.35-1.45a2.17,2.17,0,0,0-.14.68L947.4,483a2,2,0,0,0,.54,1.42,2,2,0,0,0,1.38.63l17.75.59a1.7,1.7,0,0,0,.68-.1Z"/><path class="cls-3" d="M899.49,512.75l17,.57a.47.47,0,0,1,.45.48l-.57,17,1.35,1.44a1.92,1.92,0,0,0,.15-.67l.59-17.75a2,2,0,0,0-1.91-2.05l-17.76-.6a2.24,2.24,0,0,0-.68.1Z"/><path class="cls-3" d="M947.53,512.73a1.09,1.09,0,0,1-.08.15A1.09,1.09,0,0,0,947.53,512.73Z"/><path class="cls-3" d="M947.54,512.71a.88.88,0,0,0,.05-.15A.88.88,0,0,1,947.54,512.71Z"/><path class="cls-3" d="M946.82,513.38l-.15,0Z"/><path class="cls-3" d="M946.64,513.43l-.19,0Z"/><path class="cls-3" d="M947,513.31l-.15.06Z"/><path class="cls-3" d="M947.6,512.53a1.29,1.29,0,0,0,0-.19A1.29,1.29,0,0,1,947.6,512.53Z"/><path class="cls-3" d="M947.45,512.88l-.11.15Z"/><path class="cls-3" d="M947.53,512.73v0Z"/><path class="cls-3" d="M947,513.31l.16-.1Z"/><path class="cls-3" d="M946.67,513.42h0Z"/><path class="cls-3" d="M947.59,512.56a0,0,0,0,0,0,0A0,0,0,0,1,947.59,512.56Z"/><path class="cls-3" d="M946.84,513.37h0Z"/><path class="cls-3" d="M922.22,536.91a.76.76,0,0,0,0-.15L923,513.5a.08.08,0,0,1,.08-.07l23.26.78a2,2,0,0,0,1.42-.53,2,2,0,0,0,.63-1.39l.76-22.59a.74.74,0,0,1,.23-.52.82.82,0,0,1,.54-.2l21.75.73-1.47-1.56-21.67-.73a.77.77,0,0,0-.62.19.81.81,0,0,0-.17.24h0v.2a.75.75,0,0,0,0,.15l-.81,24a.46.46,0,0,1-.48.45l-24-.8a.76.76,0,0,0-.61.19.81.81,0,0,0-.17.24h-.06v.2a.76.76,0,0,0,0,.15l-.77,23,1.44,1.54Z"/><path class="cls-3" d="M918.09,508.86h.21v-.05a.75.75,0,0,0,.24-.15.74.74,0,0,0,.24-.6l.81-24a.46.46,0,0,1,.48-.45l24,.8h.35v-.06a.64.64,0,0,0,.25-.15.76.76,0,0,0,.24-.6l.72-21.68-1.46-1.57-.73,21.76a.75.75,0,0,1-.24.52.73.73,0,0,1-.53.2l-22.59-.76a1.92,1.92,0,0,0-1.42.54,2,2,0,0,0-.63,1.38l-.78,23.26a.08.08,0,0,1-.08.07L894,506.53h-.15l-.32,0,1.43,1.53,23,.77Z"/><rect class="cls-6" x="861.04" y="545.33" width="19.59" height="19.59" rx="8.06" transform="translate(1454.81 -296.63) rotate(91.92)"/><polygon class="cls-6" points="855.85 542.4 853.97 540.39 853.02 568.69 855.03 566.81 855.85 542.4"/><polygon class="cls-6" points="883.56 540.14 885.57 538.26 857.27 537.31 859.14 539.32 883.56 540.14"/><polygon class="cls-6" points="885.82 567.85 887.7 569.85 888.65 541.55 886.64 543.43 885.82 567.85"/><polygon class="cls-6" points="882.53 570.93 858.11 570.11 856.11 571.99 884.4 572.93 882.53 570.93"/><rect class="cls-6" x="807.48" y="606.16" width="9.9" height="9.9" rx="4.95" transform="translate(1450.41 -180.4) rotate(91.92)"/><path class="cls-3" d="M845.89,596.77l-17-.57a.47.47,0,0,1-.44-.48l.57-17-1.35-1.45a1.93,1.93,0,0,0-.15.68l-.59,17.75a2,2,0,0,0,1.91,2.05l17.75.59a1.78,1.78,0,0,0,.69-.1Z"/><path class="cls-3" d="M779,625.45l17,.57a.47.47,0,0,1,.45.48l-.57,17,1.35,1.44a2.16,2.16,0,0,0,.14-.67l.6-17.75a2,2,0,0,0-1.92-2l-17.75-.6a2.15,2.15,0,0,0-.68.1Z"/><path class="cls-3" d="M827,625.43l-.08.15Z"/><path class="cls-3" d="M827,625.41s0-.1.05-.15S827.05,625.36,827,625.41Z"/><path class="cls-3" d="M826.31,626.08l-.16,0Z"/><path class="cls-3" d="M826.13,626.13l-.19,0Z"/><path class="cls-3" d="M826.48,626l-.15.06Z"/><path class="cls-3" d="M827.09,625.23a1.48,1.48,0,0,0,0-.19A1.25,1.25,0,0,1,827.09,625.23Z"/><path class="cls-3" d="M826.94,625.58l-.11.15Z"/><path class="cls-3" d="M827,625.43v0Z"/><path class="cls-3" d="M826.48,626l.16-.1Z"/><path class="cls-3" d="M826.15,626.12h0Z"/><path class="cls-3" d="M827.08,625.26v0Z"/><path class="cls-3" d="M826.33,626.07h0Z"/><path class="cls-3" d="M801.71,649.61c0-.05,0-.1,0-.15l.78-23.26a.08.08,0,0,1,.08-.07l23.26.78a2,2,0,0,0,2-1.92l.76-22.59a.75.75,0,0,1,.24-.52.78.78,0,0,1,.53-.2l21.76.73-1.47-1.56L828,600.12a.75.75,0,0,0-.61.19.81.81,0,0,0-.17.24h-.06v.2a.76.76,0,0,0,0,.15l-.8,24a.47.47,0,0,1-.48.45l-24-.8a.77.77,0,0,0-.62.19.81.81,0,0,0-.17.24H801v.21a.75.75,0,0,0,0,.15l-.77,23,1.43,1.54Z"/><path class="cls-3" d="M797.58,621.56h.2v0a.79.79,0,0,0,.25-.15.77.77,0,0,0,.24-.6l.8-24a.46.46,0,0,1,.48-.45l24,.8H824V597a.61.61,0,0,0,.24-.15.73.73,0,0,0,.24-.6l.73-21.68L823.7,573,823,594.8a.74.74,0,0,1-.23.52.82.82,0,0,1-.54.2l-22.59-.76a2,2,0,0,0-1.42.53,2,2,0,0,0-.63,1.39l-.78,23.26a.07.07,0,0,1-.07.07l-23.26-.78h-.15l-.33,0,1.44,1.53,23,.77Z"/><rect class="cls-6" x="736.14" y="662.13" width="19.59" height="19.59" rx="8.06" transform="translate(1442.47 -51.09) rotate(91.92)"/><polygon class="cls-6" points="730.95 659.2 729.08 657.19 728.13 685.49 730.13 683.61 730.95 659.2"/><polygon class="cls-6" points="758.66 656.93 760.67 655.06 732.37 654.11 734.25 656.12 758.66 656.93"/><polygon class="cls-6" points="760.92 684.64 762.8 686.65 763.75 658.35 761.74 660.23 760.92 684.64"/><polygon class="cls-6" points="757.63 687.73 733.22 686.91 731.21 688.78 759.51 689.73 757.63 687.73"/><rect class="cls-6" x="682.58" y="722.95" width="9.9" height="9.9" rx="4.95" transform="translate(1438.06 65.13) rotate(91.92)"/><path class="cls-3" d="M721,713.57,704,713a.47.47,0,0,1-.45-.48l.57-17L702.73,694a1.92,1.92,0,0,0-.14.68l-.6,17.75a2,2,0,0,0,.54,1.42,1.92,1.92,0,0,0,1.38.62l17.75.6a1.93,1.93,0,0,0,.68-.1Z"/><path class="cls-3" d="M654.08,742.24l17,.57a.48.48,0,0,1,.45.48l-.57,17,1.35,1.44a1.72,1.72,0,0,0,.14-.68l.6-17.75a2,2,0,0,0-.54-1.42,1.92,1.92,0,0,0-1.38-.62l-17.75-.6a1.93,1.93,0,0,0-.68.1Z"/><path class="cls-3" d="M702.12,742.23a.64.64,0,0,1-.08.14A.64.64,0,0,0,702.12,742.23Z"/><path class="cls-3" d="M702.13,742.21a.75.75,0,0,0,0-.16A.75.75,0,0,1,702.13,742.21Z"/><path class="cls-3" d="M701.41,742.88l-.15,0Z"/><path class="cls-3" d="M701.23,742.93l-.19,0Z"/><path class="cls-3" d="M701.58,742.8l-.15.07Z"/><path class="cls-3" d="M702.19,742a.69.69,0,0,0,0-.2A.69.69,0,0,1,702.19,742Z"/><path class="cls-3" d="M702,742.37a.58.58,0,0,1-.11.15A.58.58,0,0,0,702,742.37Z"/><path class="cls-3" d="M702.12,742.23v0Z"/><path class="cls-3" d="M701.58,742.8l.16-.1Z"/><path class="cls-3" d="M701.26,742.92h0Z"/><path class="cls-3" d="M702.18,742.05v0Z"/><path class="cls-3" d="M701.43,742.87h0Z"/><path class="cls-3" d="M676.81,766.41a.76.76,0,0,0,0-.15L677.6,743a.08.08,0,0,1,.08-.07l23.26.78a2,2,0,0,0,2-1.92l.75-22.59a.75.75,0,0,1,.24-.52.73.73,0,0,1,.53-.2l21.76.73-1.47-1.57-21.68-.72a.76.76,0,0,0-.61.19.81.81,0,0,0-.17.24h-.05v.21a.38.38,0,0,0,0,.15l-.81,24a.46.46,0,0,1-.48.45l-24-.81a.73.73,0,0,0-.61.2.66.66,0,0,0-.17.24h-.06V742a.76.76,0,0,0,0,.15l-.77,23,1.43,1.53Z"/><path class="cls-3" d="M672.68,738.35h.21v-.05a.82.82,0,0,0,.25-.16.74.74,0,0,0,.24-.6l.8-24a.47.47,0,0,1,.48-.45l24,.8h.35v0a.92.92,0,0,0,.25-.15.76.76,0,0,0,.23-.6l.73-21.68-1.47-1.57-.73,21.76a.74.74,0,0,1-.23.52.81.81,0,0,1-.53.2l-22.6-.76a2,2,0,0,0-2,1.91l-.78,23.26a.09.09,0,0,1-.08.08L648.55,736h-.48l1.44,1.54,23,.77Z"/><polygon class="cls-6" points="1060 477.42 1035.08 476.58 1047.12 489.46 1060 477.42"/><polygon class="cls-6" points="1050.2 492.75 1062.24 505.63 1063.08 480.7 1050.2 492.75"/><polygon class="cls-6" points="1031.79 479.65 1030.96 504.58 1043.84 492.53 1031.79 479.65"/><polygon class="cls-6" points="1034.03 507.86 1058.96 508.7 1046.91 495.82 1034.03 507.86"/><rect class="cls-6" x="1045.71" y="484.68" width="18.08" height="0.72" transform="translate(-46.93 851.19) rotate(-43.08)"/><rect class="cls-6" x="1029.87" y="499.49" width="18.08" height="0.72" transform="translate(-61.31 844.37) rotate(-43.08)"/><rect class="cls-6" x="1039.16" y="475.72" width="0.72" height="17.81" transform="translate(-50.75 840.68) rotate(-43.08)"/><rect class="cls-6" x="1053.97" y="491.28" width="0.72" height="18.35" transform="translate(-57.57 855.06) rotate(-43.08)"/><circle class="cls-6" cx="1046.77" cy="492.44" r="0.94"/><rect class="cls-6" x="1019.31" y="497.16" width="3.23" height="39.77" transform="translate(-77.9 836.72) rotate(-43.08)"/><rect class="cls-6" x="1010.57" y="505.33" width="3.23" height="39.77" transform="translate(-85.84 832.95) rotate(-43.08)"/><rect class="cls-6" x="1001.83" y="513.5" width="3.23" height="39.77" transform="translate(-93.78 829.19) rotate(-43.08)"/><path class="cls-3" d="M970,594.13l-29.37-31.4,38.73-36.22,29.37,31.41Zm-24.8-31.25,25,26.69,34-31.8-25-26.69Z"/><path class="cls-3" d="M963.22,566.17c7.84-9.82,15.6-11.83,20.74-11.79a18.58,18.58,0,0,1,9.5,2.59L992,559.13A16.25,16.25,0,0,0,983.8,557c-6.58,0-12.83,3.63-18.56,10.82Z"/><polygon class="cls-6" points="939.49 590.12 914.57 589.28 926.61 602.16 939.49 590.12"/><polygon class="cls-6" points="929.68 605.45 941.73 618.33 942.56 593.4 929.68 605.45"/><polygon class="cls-6" points="911.28 592.35 910.44 617.28 923.32 605.23 911.28 592.35"/><polygon class="cls-6" points="913.52 620.56 938.44 621.4 926.4 608.52 913.52 620.56"/><rect class="cls-6" x="925.2" y="597.38" width="18.08" height="0.72" transform="translate(-156.39 799.26) rotate(-43.08)"/><rect class="cls-6" x="909.36" y="612.19" width="18.08" height="0.72" transform="translate(-170.78 792.44) rotate(-43.08)"/><rect class="cls-6" x="918.65" y="588.41" width="0.72" height="17.81" transform="translate(-160.22 788.75) rotate(-43.08)"/><rect class="cls-6" x="933.46" y="603.98" width="0.72" height="18.35" transform="translate(-167.04 803.13) rotate(-43.08)"/><circle class="cls-6" cx="926.26" cy="605.14" r="0.94"/><rect class="cls-6" x="898.79" y="609.86" width="3.23" height="39.77" transform="translate(-187.37 784.79) rotate(-43.08)"/><rect class="cls-6" x="890.06" y="618.03" width="3.23" height="39.77" transform="translate(-195.31 781.02) rotate(-43.08)"/><rect class="cls-6" x="881.32" y="626.2" width="3.23" height="39.77" transform="translate(-203.25 777.26) rotate(-43.08)"/><path class="cls-3" d="M849.45,706.83l-29.37-31.4,38.72-36.22,29.37,31.41Zm-24.8-31.25,25,26.68,34-31.79-25-26.69Z"/><path class="cls-3" d="M842.7,678.87c7.84-9.82,15.61-11.83,20.74-11.79a18.68,18.68,0,0,1,9.51,2.59l-1.43,2.16a16.35,16.35,0,0,0-8.24-2.16c-6.58,0-12.82,3.63-18.56,10.82Z"/><polygon class="cls-6" points="814.59 706.91 789.67 706.08 801.71 718.96 814.59 706.91"/><polygon class="cls-6" points="804.78 722.24 816.83 735.12 817.66 710.2 804.78 722.24"/><polygon class="cls-6" points="786.38 709.15 785.55 734.08 798.43 722.03 786.38 709.15"/><polygon class="cls-6" points="788.62 737.36 813.54 738.2 801.5 725.32 788.62 737.36"/><rect class="cls-6" x="800.3" y="714.17" width="18.08" height="0.72" transform="translate(-269.84 745.44) rotate(-43.08)"/><rect class="cls-6" x="784.46" y="728.98" width="18.08" height="0.72" transform="translate(-284.23 738.62) rotate(-43.08)"/><rect class="cls-6" x="793.75" y="705.21" width="0.72" height="17.81" transform="translate(-273.67 734.93) rotate(-43.08)"/><rect class="cls-6" x="808.56" y="720.78" width="0.72" height="18.35" transform="translate(-280.49 749.32) rotate(-43.08)"/><circle class="cls-6" cx="801.36" cy="721.94" r="0.94"/><rect class="cls-6" x="773.9" y="726.65" width="3.23" height="39.77" transform="translate(-300.82 730.97) rotate(-43.08)"/><rect class="cls-6" x="765.16" y="734.83" width="3.23" height="39.77" transform="translate(-308.76 727.2) rotate(-43.08)"/><rect class="cls-4" x="1112.72" y="511.75" width="3.16" height="38.89" transform="translate(-62.4 904.31) rotate(-43.08)"/><rect class="cls-4" x="1096.4" y="527" width="3.16" height="38.89" transform="translate(-77.22 897.28) rotate(-43.08)"/><rect class="cls-4" x="1079.89" y="542.44" width="3.16" height="38.89" transform="translate(-92.21 890.16) rotate(-43.08)"/><rect class="cls-4" x="1063.38" y="557.88" width="3.16" height="38.89" transform="translate(-107.21 883.05) rotate(-43.08)"/><rect class="cls-4" x="990.82" y="625.74" width="3.16" height="38.89" transform="matrix(0.73, -0.68, 0.68, 0.73, -173.12, 851.78)"/><rect class="cls-4" x="974.51" y="640.99" width="3.16" height="38.89" transform="translate(-187.94 844.75) rotate(-43.08)"/><rect class="cls-4" x="958" y="656.43" width="3.16" height="38.89" transform="translate(-202.94 837.64) rotate(-43.08)"/><rect class="cls-4" x="941.48" y="671.88" width="3.16" height="38.89" transform="translate(-217.93 830.52) rotate(-43.08)"/><circle class="cls-4" cx="1039.6" cy="580.91" r="5.98"/><circle class="cls-4" cx="1039.69" cy="606.31" r="5.98"/><circle class="cls-4" cx="1020.99" cy="602.87" r="5.98"/><circle class="cls-4" cx="1008.73" cy="617.98" r="5.98"/><circle class="cls-4" cx="1024.06" cy="623.67" r="5.98"/><circle class="cls-4" cx="1019.22" cy="641.85" r="5.98"/><circle class="cls-4" cx="1056.12" cy="607.34" r="5.98"/><circle class="cls-4" cx="917.7" cy="694.91" r="5.98"/><circle class="cls-4" cx="917.79" cy="720.32" r="5.98"/><circle class="cls-4" cx="899.09" cy="716.87" r="5.98"/><circle class="cls-4" cx="886.82" cy="731.98" r="5.98"/><circle class="cls-4" cx="902.15" cy="737.67" r="5.98"/><circle class="cls-4" cx="934.22" cy="721.34" r="5.98"/><rect class="cls-6" x="1081.06" y="657.14" width="9.9" height="9.9" rx="4.95" transform="translate(1784.1 -401.14) rotate(91.92)"/><path class="cls-3" d="M1119.47,647.75l-17-.57a.47.47,0,0,1-.45-.48l.57-17-1.35-1.45a1.76,1.76,0,0,0-.14.68l-.6,17.75a2,2,0,0,0,.53,1.42,2,2,0,0,0,1.39.63l17.75.59a2,2,0,0,0,.68-.09Z"/><path class="cls-3" d="M1052.56,676.43l17,.57a.47.47,0,0,1,.45.48l-.57,17,1.35,1.45a2.23,2.23,0,0,0,.14-.68l.6-17.75a2,2,0,0,0-.54-1.42,2,2,0,0,0-1.38-.63l-17.75-.59a1.9,1.9,0,0,0-.68.09Z"/><path class="cls-3" d="M1100.6,676.41l-.08.15Z"/><path class="cls-3" d="M1100.61,676.39a.88.88,0,0,0,.05-.15A.88.88,0,0,1,1100.61,676.39Z"/><path class="cls-3" d="M1099.89,677.06l-.16.05Z"/><path class="cls-3" d="M1099.71,677.11l-.19,0Z"/><path class="cls-3" d="M1100.06,677l-.15.06Z"/><path class="cls-3" d="M1100.67,676.21a.63.63,0,0,0,0-.19A.63.63,0,0,1,1100.67,676.21Z"/><path class="cls-3" d="M1100.52,676.56l-.11.15Z"/><path class="cls-3" d="M1100.6,676.41v0Z"/><path class="cls-3" d="M1100.06,677l.16-.1Z"/><path class="cls-3" d="M1099.73,677.11h0Z"/><path class="cls-3" d="M1100.66,676.24v0Z"/><path class="cls-3" d="M1099.91,677.05h0Z"/><path class="cls-3" d="M1075.29,700.59c0-.05,0-.1,0-.15l.78-23.26a.08.08,0,0,1,.08-.07l23.26.78a2,2,0,0,0,1.42-.53,2,2,0,0,0,.63-1.38l.75-22.6a.72.72,0,0,1,.24-.51.69.69,0,0,1,.53-.2l21.76.72-1.47-1.56-21.68-.73a.74.74,0,0,0-.61.2.66.66,0,0,0-.17.23h0v.2a.76.76,0,0,0,0,.15l-.8,24a.47.47,0,0,1-.48.45l-24-.8a.75.75,0,0,0-.61.19.56.56,0,0,0-.17.24h-.06v.35l-.77,23,1.43,1.54Z"/><path class="cls-3" d="M1071.16,672.54h.2v-.06a.64.64,0,0,0,.25-.15.77.77,0,0,0,.24-.6l.8-24a.47.47,0,0,1,.48-.45l24,.8h.36V648a.73.73,0,0,0,.25-.15.75.75,0,0,0,.23-.6l.73-21.68-1.47-1.56-.73,21.75a.74.74,0,0,1-.77.72l-22.59-.76a2,2,0,0,0-1.42.54,2,2,0,0,0-.63,1.38l-.77,23.26a.08.08,0,0,1-.08.07l-23.26-.78h-.15l-.33,0,1.44,1.53,23,.77Z"/><rect class="cls-6" x="1014.11" y="709.01" width="19.59" height="19.59" rx="8.06" transform="translate(1776.6 -280.45) rotate(91.92)"/><polygon class="cls-6" points="1008.92 706.08 1007.04 704.07 1006.09 732.37 1008.1 730.5 1008.92 706.08"/><polygon class="cls-6" points="1036.62 703.82 1038.63 701.94 1010.33 700.99 1012.21 703 1036.62 703.82"/><polygon class="cls-6" points="1038.89 731.53 1040.76 733.53 1041.71 705.24 1039.7 707.11 1038.89 731.53"/><polygon class="cls-6" points="1035.59 734.61 1011.18 733.79 1009.17 735.67 1037.47 736.62 1035.59 734.61"/><path class="cls-3" d="M999,760.45l-17-.57a.47.47,0,0,1-.45-.48l.57-17-1.35-1.45a2.17,2.17,0,0,0-.14.68L980,759.35a2,2,0,0,0,.53,1.42,2,2,0,0,0,1.38.63l17.75.59a2,2,0,0,0,.69-.09Z"/><path class="cls-3" d="M950.64,785.24h.21v0a.75.75,0,0,0,.24-.15.74.74,0,0,0,.24-.6l.81-24a.46.46,0,0,1,.48-.45l24,.8H977v-.06a.64.64,0,0,0,.25-.15.76.76,0,0,0,.24-.6l.72-21.68-1.46-1.57L976,758.48a.75.75,0,0,1-.24.52.69.69,0,0,1-.53.2l-22.59-.76a1.92,1.92,0,0,0-1.42.54,2,2,0,0,0-.63,1.38l-.78,23.26a.08.08,0,0,1-.08.07l-23.26-.78h-.15l-.32,0,1.43,1.53,23,.77Z"/><path class="cls-3" d="M1123,757.82l-29.37-31.41,38.73-36.22,29.37,31.41Zm-24.8-31.26,25,26.69,34-31.8-25-26.69Z"/></g></svg>