<?xml version="1.0" encoding="UTF-8"?>
<svg id="Calque_1" data-name="Calque 1" xmlns="http://www.w3.org/2000/svg" xmlns:xlink="http://www.w3.org/1999/xlink" viewBox="0 0 1115 743">
  <defs>
    <style>
      .cls-1 {
        fill: #181222;
      }

      .cls-2 {
        fill: #c8beb5;
      }

      .cls-3 {
        clip-path: url(#clippath);
      }

      .cls-4 {
        fill: #f50;
      }

      .cls-5 {
        fill: none;
      }

      .cls-6 {
        fill: #191223;
      }
    </style>
    <clipPath id="clippath">
      <rect class="cls-5" x="-1.28" y="-10.84" width="1117.57" height="1668.12" transform="translate(3.2 -2.16) rotate(.22)"/>
    </clipPath>
    <clipPath id="clippath-1">
      <rect class="cls-5" x="-1427" y="1356.4" width="1173" height="778.19"/>
    </clipPath>
  </defs>
  <rect class="cls-4" x="-779.46" y="765.39" width="1668.12" height="111.76" transform="translate(-766.88 872.68) rotate(-89.78)"/>
  <rect class="cls-1" x="-667.71" y="765.83" width="1668.12" height="111.76" transform="translate(-655.99 984.87) rotate(-89.78)"/>
  <rect class="cls-2" x="-555.95" y="766.26" width="1668.12" height="111.76" transform="translate(-545.1 1097.06) rotate(-89.78)"/>
  <rect class="cls-4" x="-444.19" y="766.69" width="1668.12" height="111.76" transform="translate(-434.21 1209.24) rotate(-89.78)"/>
  <rect class="cls-1" x="-332.44" y="767.13" width="1668.12" height="111.76" transform="translate(-323.32 1321.43) rotate(-89.78)"/>
  <rect class="cls-2" x="-220.68" y="767.56" width="1668.12" height="111.76" transform="translate(-212.43 1433.62) rotate(-89.78)"/>
  <rect class="cls-4" x="-108.93" y="767.99" width="1668.12" height="111.76" transform="translate(-101.55 1545.81) rotate(-89.78)"/>
  <rect class="cls-1" x="2.83" y="768.43" width="1668.12" height="111.76" transform="translate(9.34 1657.99) rotate(-89.78)"/>
  <rect class="cls-2" x="114.58" y="768.86" width="1668.12" height="111.76" transform="translate(120.23 1770.18) rotate(-89.78)"/>
  <rect class="cls-4" x="226.34" y="769.29" width="1668.12" height="111.76" transform="translate(231.12 1882.37) rotate(-89.78)"/>
  <g class="cls-3">
    <g>
      <g>
        <g>
          <path class="cls-1" d="M89.75,52.79l-64.33-.25,.31-79.33,64.33,.25-.31,79.33Zm-59.48-5.07l54.66,.21,.27-69.65-54.66-.21-.27,69.65Z"/>
          <path class="cls-1" d="M52.38,31.44c-2.65-18.62,3.13-29.14,8.44-34.68,5.83-6.08,12.3-7.63,12.58-7.69l.88,3.77c-.06,.01-5.77,1.42-10.8,6.75-6.76,7.16-9.2,17.69-7.26,31.31l-3.83,.55Z"/>
        </g>
        <g>
          <g>
            <polygon class="cls-6" points="54.1 81.84 27.62 108.12 54 108.22 54.1 81.84"/>
            <polygon class="cls-6" points="60.73 108.25 87.11 108.35 60.83 81.86 60.73 108.25"/>
            <polygon class="cls-6" points="27.59 114.85 53.87 141.33 53.97 114.95 27.59 114.85"/>
            <polygon class="cls-6" points="60.6 141.36 87.09 115.08 60.7 114.98 60.6 141.36"/>
            <rect class="cls-6" x="43.48" y="94.84" width="27.06" height="1.08" transform="translate(-38.59 152.02) rotate(-89.78)"/>
            <rect class="cls-6" x="43.36" y="127.28" width="27.06" height="1.08" transform="translate(-71.15 184.2) rotate(-89.78)"/>
            <rect class="cls-6" x="40.39" y="98.21" width="1.08" height="26.65" transform="translate(-70.76 152.03) rotate(-89.78)"/>
            <rect class="cls-6" x="72.83" y="97.93" width="1.08" height="27.46" transform="translate(-38.57 184.6) rotate(-89.78)"/>
            <circle class="cls-6" cx="56.88" cy="111.66" r="1.41"/>
          </g>
          <g>
            <rect class="cls-6" x="54.73" y="135.3" width="4.84" height="59.49" transform="translate(-108.12 221.55) rotate(-89.78)"/>
            <rect class="cls-6" x="54.66" y="153.2" width="4.84" height="59.49" transform="translate(-126.09 239.31) rotate(-89.78)"/>
            <rect class="cls-6" x="54.59" y="171.09" width="4.84" height="59.49" transform="translate(-144.05 257.06) rotate(-89.78)"/>
          </g>
          <g>
            <path class="cls-1" d="M88.79,299.64l-64.33-.25,.31-79.33,64.33,.25-.31,79.33Zm-59.48-5.07l54.66,.21,.27-69.65-54.66-.21-.27,69.65Z"/>
            <path class="cls-1" d="M51.43,278.29c-2.65-18.62,3.13-29.14,8.44-34.68,5.83-6.08,12.3-7.63,12.58-7.69l.88,3.77c-.06,.01-5.77,1.42-10.8,6.75-6.76,7.16-9.2,17.69-7.26,31.31l-3.83,.55Z"/>
          </g>
        </g>
        <g>
          <g>
            <polygon class="cls-6" points="53.11 337.66 26.63 363.94 53.01 364.05 53.11 337.66"/>
            <polygon class="cls-6" points="59.74 364.07 86.12 364.18 59.84 337.69 59.74 364.07"/>
            <polygon class="cls-6" points="26.6 370.67 52.88 397.16 52.98 370.78 26.6 370.67"/>
            <polygon class="cls-6" points="59.61 397.18 86.09 370.91 59.71 370.8 59.61 397.18"/>
            <rect class="cls-6" x="42.49" y="350.67" width="27.06" height="1.08" transform="translate(-295.4 405.86) rotate(-89.78)"/>
            <rect class="cls-6" x="42.36" y="383.1" width="27.06" height="1.08" transform="translate(-327.96 438.05) rotate(-89.78)"/>
            <rect class="cls-6" x="39.4" y="354.04" width="1.08" height="26.65" transform="translate(-327.58 405.87) rotate(-89.78)"/>
            <rect class="cls-6" x="71.84" y="353.76" width="1.08" height="27.46" transform="translate(-295.39 438.44) rotate(-89.78)"/>
            <circle class="cls-6" cx="55.89" cy="367.49" r="1.41"/>
          </g>
          <g>
            <rect class="cls-6" x="53.73" y="391.13" width="4.84" height="59.49" transform="translate(-364.94 475.39) rotate(-89.78)"/>
            <rect class="cls-6" x="53.66" y="409.02" width="4.84" height="59.49" transform="translate(-382.9 493.15) rotate(-89.78)"/>
            <rect class="cls-6" x="53.59" y="426.92" width="4.84" height="59.49" transform="translate(-400.87 510.91) rotate(-89.78)"/>
          </g>
          <g>
            <path class="cls-1" d="M87.8,555.46l-64.33-.25,.31-79.33,64.33,.25-.31,79.33Zm-59.48-5.07l54.66,.21,.27-69.65-54.66-.21-.27,69.65Z"/>
            <path class="cls-1" d="M50.43,534.12c-2.65-18.62,3.13-29.14,8.44-34.68,5.83-6.08,12.3-7.63,12.58-7.69l.88,3.77c-.06,.01-5.77,1.42-10.8,6.75-6.76,7.16-9.2,17.69-7.26,31.31l-3.83,.55Z"/>
          </g>
        </g>
        <g>
          <g>
            <polygon class="cls-6" points="52.15 584.52 25.67 610.79 52.05 610.9 52.15 584.52"/>
            <polygon class="cls-6" points="58.78 610.92 85.16 611.03 58.88 584.54 58.78 610.92"/>
            <polygon class="cls-6" points="25.64 617.52 51.92 644.01 52.02 617.63 25.64 617.52"/>
            <polygon class="cls-6" points="58.65 644.03 85.14 617.76 58.75 617.65 58.65 644.03"/>
            <rect class="cls-6" x="41.53" y="597.52" width="27.06" height="1.08" transform="translate(-543.2 650.79) rotate(-89.78)"/>
            <rect class="cls-6" x="41.41" y="629.95" width="27.06" height="1.08" transform="translate(-575.77 682.98) rotate(-89.78)"/>
            <rect class="cls-6" x="38.44" y="600.89" width="1.08" height="26.65" transform="translate(-575.38 650.81) rotate(-89.78)"/>
            <rect class="cls-6" x="70.88" y="600.61" width="1.08" height="27.46" transform="translate(-543.19 683.37) rotate(-89.78)"/>
            <circle class="cls-6" cx="54.93" cy="614.34" r="1.41"/>
          </g>
          <g>
            <rect class="cls-6" x="52.78" y="637.98" width="4.84" height="59.49" transform="translate(-612.74 720.33) rotate(-89.78)"/>
            <rect class="cls-6" x="52.71" y="655.87" width="4.84" height="59.49" transform="translate(-630.7 738.08) rotate(-89.78)"/>
            <rect class="cls-6" x="52.64" y="673.77" width="4.84" height="59.49" transform="translate(-648.67 755.84) rotate(-89.78)"/>
          </g>
          <g>
            <path class="cls-1" d="M86.84,802.31l-64.33-.25,.31-79.33,64.33,.25-.31,79.33Zm-59.48-5.07l54.66,.21,.27-69.65-54.66-.21-.27,69.65Z"/>
            <path class="cls-1" d="M49.48,780.97c-2.65-18.62,3.13-29.14,8.44-34.68,5.83-6.08,12.3-7.63,12.58-7.69l.88,3.77c-.06,.01-5.77,1.42-10.8,6.75-6.76,7.16-9.2,17.69-7.26,31.31l-3.83,.55Z"/>
          </g>
        </g>
      </g>
      <g>
        <g>
          <rect class="cls-2" x="165.99" y="51.64" width="4.73" height="58.19" transform="translate(86.97 248.77) rotate(-89.78)"/>
          <rect class="cls-2" x="165.86" y="85.06" width="4.73" height="58.19" transform="translate(53.42 281.93) rotate(-89.78)"/>
          <rect class="cls-2" x="165.72" y="118.88" width="4.73" height="58.19" transform="translate(19.47 315.49) rotate(-89.78)"/>
          <rect class="cls-2" x="165.59" y="152.7" width="4.73" height="58.19" transform="translate(-14.48 349.04) rotate(-89.78)"/>
          <circle class="cls-2" cx="151.61" cy="6.18" r="8.95"/>
          <circle class="cls-2" cx="155.48" cy="35.05" r="8.95"/>
          <circle class="cls-2" cx="177.41" cy="24.19" r="8.95"/>
          <circle class="cls-2" cx="192.23" cy="48.12" r="8.95"/>
          <circle class="cls-2" cx="145.84" cy="213.09" r="8.95"/>
          <circle class="cls-2" cx="173.59" cy="239.07" r="8.95"/>
          <circle class="cls-2" cx="150.64" cy="255.89" r="8.95"/>
          <circle class="cls-2" cx="154.51" cy="284.75" r="8.95"/>
          <circle class="cls-2" cx="176.44" cy="273.89" r="8.95"/>
          <circle class="cls-2" cx="191.27" cy="297.82" r="8.95"/>
          <circle class="cls-2" cx="191.56" cy="222.22" r="8.95"/>
        </g>
        <g>
          <rect class="cls-2" x="165" y="304.64" width="4.73" height="58.19" transform="translate(-167.01 499.8) rotate(-89.78)"/>
          <rect class="cls-2" x="164.87" y="338.06" width="4.73" height="58.19" transform="translate(-200.55 532.96) rotate(-89.78)"/>
          <rect class="cls-2" x="164.74" y="371.88" width="4.73" height="58.19" transform="translate(-234.51 566.52) rotate(-89.78)"/>
          <rect class="cls-2" x="164.61" y="405.7" width="4.73" height="58.19" transform="translate(-268.46 600.08) rotate(-89.78)"/>
          <rect class="cls-2" x="164.04" y="554.32" width="4.73" height="58.19" transform="translate(-417.65 747.55) rotate(-89.78)"/>
          <rect class="cls-2" x="163.91" y="587.73" width="4.73" height="58.19" transform="translate(-451.2 780.7) rotate(-89.78)"/>
          <rect class="cls-2" x="163.78" y="621.56" width="4.73" height="58.19" transform="translate(-485.15 814.26) rotate(-89.78)"/>
          <rect class="cls-2" x="163.64" y="655.38" width="4.73" height="58.19" transform="translate(-519.1 847.82) rotate(-89.78)"/>
          <circle class="cls-2" cx="144.85" cy="466.07" r="8.95"/>
          <circle class="cls-2" cx="172.61" cy="492.04" r="8.95"/>
          <circle class="cls-2" cx="149.66" cy="508.86" r="8.95"/>
          <circle class="cls-2" cx="153.53" cy="537.72" r="8.95"/>
          <circle class="cls-2" cx="175.46" cy="526.87" r="8.95"/>
          <circle class="cls-2" cx="190.28" cy="550.8" r="8.95"/>
          <circle class="cls-2" cx="190.58" cy="475.2" r="8.95"/>
          <circle class="cls-2" cx="143.89" cy="715.77" r="8.95"/>
          <circle class="cls-2" cx="171.64" cy="741.74" r="8.95"/>
          <circle class="cls-2" cx="189.61" cy="724.9" r="8.95"/>
        </g>
      </g>
      <g>
        <g>
          <rect class="cls-6" x="275.4" y="-11.25" width="14.81" height="14.81" rx="7.41" ry="7.41" transform="translate(80.89 -201.89) rotate(45.22)"/>
          <path class="cls-1" d="M264.09,47.3l18.1-17.96c.26-.26,.72-.26,.98,0l17.96,18.1h2.96c-.14-.3-.34-.59-.59-.84l-18.72-18.86c-.58-.58-1.33-.87-2.09-.88s-1.52,.28-2.1,.86l-18.86,18.72c-.25,.25-.45,.54-.6,.85h2.96Z"/>
          <path class="cls-1" d="M313.73,47.35c-.05-.06-.1-.11-.15-.17l-24.53-24.71s-.04-.12,0-.16l24.72-24.52c.56-.56,.87-1.3,.88-2.09s-.3-1.54-.86-2.1l-23.82-24c-.21-.21-.33-.49-.32-.79s.12-.58,.33-.79l23.12-22.94h-3.21s-23.03,22.84-23.03,22.84c-.26,.21-.42,.53-.42,.87,0,.15,.03,.3,.08,.43l-.05,.06,.21,.21c.05,.06,.1,.11,.16,.16l25.34,25.54c.27,.27,.27,.71,0,.98l-25.53,25.33c-.26,.21-.42,.53-.42,.87,0,.15,.03,.3,.08,.43l-.05,.07,.22,.22c.05,.06,.1,.11,.16,.16l24.27,24.46h3.14s-.32-.36-.32-.36Z"/>
          <path class="cls-1" d="M278.94,23.06l.22-.22-.05-.07c.06-.13,.09-.28,.09-.43,0-.34-.15-.66-.41-.87l-25.33-25.53c-.27-.27-.27-.71,0-.98l25.54-25.34c.06-.05,.11-.1,.16-.16l.21-.21-.05-.06c.06-.13,.09-.28,.09-.43,0-.34-.15-.66-.41-.87l-22.86-23.03h-3.21s22.94,23.1,22.94,23.1c.21,.21,.33,.49,.32,.79s-.12,.58-.33,.79l-24.01,23.82c-.56,.56-.87,1.3-.88,2.1,0,.79,.3,1.54,.86,2.1l24.53,24.71s.04,.12,0,.16l-24.72,24.52c-.05,.05-.1,.11-.15,.17l-.32,.37h3.14s24.46-24.26,24.46-24.26c.06-.05,.11-.1,.16-.16Z"/>
        </g>
        <g>
          <g>
            <rect class="cls-6" x="266.17" y="107.33" width="29.31" height="29.31" rx="12.05" ry="12.05" transform="translate(169.61 -163.28) rotate(45.22)"/>
            <polygon class="cls-6" points="251.6 125.24 247.49 125.23 277.32 155.3 277.34 151.18 251.6 125.24"/>
            <polygon class="cls-6" points="277.57 92.75 277.58 88.64 247.51 118.48 251.62 118.49 277.57 92.75"/>
            <polygon class="cls-6" points="310.05 118.72 314.17 118.74 284.33 88.67 284.31 92.78 310.05 118.72"/>
            <polygon class="cls-6" points="310.03 125.47 284.09 151.21 284.07 155.32 314.14 125.49 310.03 125.47"/>
          </g>
          <g>
            <rect class="cls-6" x="274.45" y="235.6" width="14.81" height="14.81" rx="7.41" ry="7.41" transform="translate(255.83 -128.23) rotate(45.22)"/>
            <path class="cls-1" d="M300.57,191.87l-18.1,17.96c-.26,.26-.72,.26-.98,0l-17.96-18.1h-2.96c.14,.3,.34,.59,.59,.84l18.72,18.86c.58,.58,1.33,.87,2.09,.88s1.52-.28,2.1-.86l18.86-18.72c.25-.25,.45-.54,.6-.85h-2.96Z"/>
            <path class="cls-1" d="M263.13,294.15l18.1-17.96c.26-.26,.72-.26,.98,0l17.96,18.1h2.96c-.14-.3-.34-.59-.59-.84l-18.72-18.86c-.58-.58-1.33-.87-2.09-.88s-1.52,.28-2.1,.86l-18.86,18.72c-.25,.25-.45,.54-.6,.85h2.96Z"/>
            <path class="cls-1" d="M312.41,241.83c.03,.08,.06,.15,.08,.23-.02-.08-.05-.15-.08-.23Z"/>
            <path class="cls-1" d="M312.4,241.8c-.03-.07-.07-.14-.11-.21,.04,.07,.08,.14,.11,.21Z"/>
            <path class="cls-1" d="M312.39,243.27c-.03,.07-.07,.14-.11,.21,.04-.07,.08-.14,.11-.21Z"/>
            <path class="cls-1" d="M312.26,243.52c-.05,.08-.11,.16-.17,.23,.06-.07,.12-.15,.17-.23Z"/>
            <path class="cls-1" d="M312.49,243c-.02,.08-.05,.16-.08,.23,.03-.08,.06-.15,.08-.23Z"/>
            <path class="cls-1" d="M312.26,241.54c-.05-.08-.11-.16-.18-.23,.07,.07,.12,.15,.18,.23Z"/>
            <path class="cls-1" d="M312.49,242.06c.02,.09,.04,.18,.05,.28,0-.09-.03-.19-.05-.28Z"/>
            <path class="cls-1" d="M312.41,241.83s0-.02-.01-.04c0,.01,0,.02,.01,.04Z"/>
            <path class="cls-1" d="M312.49,243c.02-.09,.04-.18,.05-.27-.01,.09-.03,.18-.05,.27Z"/>
            <path class="cls-1" d="M312.28,243.48s-.01,.02-.02,.03c0-.01,.01-.02,.02-.03Z"/>
            <path class="cls-1" d="M312.29,241.58s-.01-.03-.02-.04c0,.01,.01,.03,.02,.04Z"/>
            <path class="cls-1" d="M312.41,243.24s0,.02-.01,.03c0-.01,0-.02,.01-.03Z"/>
            <path class="cls-1" d="M312.77,294.2c-.05-.06-.1-.11-.15-.17l-24.53-24.71s-.04-.12,0-.16l24.72-24.52c.56-.56,.87-1.3,.88-2.09s-.3-1.54-.86-2.1l-23.82-24c-.21-.21-.33-.49-.32-.79s.12-.58,.33-.79l23.12-22.94h-3.21s-23.03,22.84-23.03,22.84c-.26,.21-.42,.53-.42,.87,0,.15,.03,.3,.08,.43l-.05,.06,.21,.21c.05,.06,.1,.11,.16,.16l25.34,25.54c.27,.27,.27,.71,0,.98l-25.53,25.33c-.26,.21-.42,.53-.42,.87,0,.15,.03,.3,.08,.43l-.05,.07,.22,.22c.05,.06,.1,.11,.16,.16l24.27,24.46h3.14s-.32-.36-.32-.36Z"/>
            <path class="cls-1" d="M277.99,269.91l.22-.22-.05-.07c.06-.13,.09-.28,.09-.43,0-.34-.15-.66-.41-.87l-25.33-25.53c-.27-.27-.27-.71,0-.98l25.54-25.34c.06-.05,.11-.1,.16-.16l.21-.21-.05-.06c.06-.13,.09-.28,.09-.43,0-.34-.15-.66-.41-.87l-22.86-23.03h-3.21s22.94,23.1,22.94,23.1c.21,.21,.33,.49,.32,.79s-.12,.58-.33,.79l-24.01,23.82c-.56,.56-.87,1.3-.88,2.1s.3,1.54,.86,2.1l24.53,24.71s.04,.12,0,.16l-24.72,24.52c-.05,.05-.1,.11-.15,.17l-.32,.37h3.14s24.46-24.26,24.46-24.26c.06-.05,.11-.1,.16-.16Z"/>
          </g>
        </g>
        <g>
          <g>
            <rect class="cls-6" x="265.18" y="363.16" width="29.31" height="29.31" rx="12.05" ry="12.05" transform="translate(350.92 -86.94) rotate(45.22)"/>
            <polygon class="cls-6" points="250.61 381.07 246.49 381.05 276.33 411.12 276.35 407.01 250.61 381.07"/>
            <polygon class="cls-6" points="276.57 348.58 276.59 344.47 246.52 374.3 250.63 374.32 276.57 348.58"/>
            <polygon class="cls-6" points="309.06 374.55 313.17 374.56 283.34 344.49 283.32 348.61 309.06 374.55"/>
            <polygon class="cls-6" points="309.04 381.3 283.1 407.04 283.08 411.15 313.15 381.31 309.04 381.3"/>
          </g>
          <g>
            <rect class="cls-6" x="273.45" y="491.43" width="14.81" height="14.81" rx="7.41" ry="7.41" transform="translate(437.13 -51.89) rotate(45.22)"/>
            <path class="cls-1" d="M299.58,447.7l-18.1,17.96c-.26,.26-.72,.26-.98,0l-17.96-18.1h-2.96c.14,.3,.34,.59,.59,.84l18.72,18.86c.58,.58,1.33,.87,2.09,.88,.76,0,1.52-.28,2.1-.86l18.86-18.72c.25-.25,.45-.54,.6-.85h-2.96Z"/>
            <path class="cls-1" d="M262.14,549.98l18.1-17.96c.26-.26,.72-.26,.98,0l17.96,18.1h2.96c-.14-.3-.34-.59-.59-.84l-18.72-18.86c-.58-.58-1.33-.87-2.09-.88-.76,0-1.52,.28-2.1,.86l-18.86,18.72c-.25,.25-.45,.54-.6,.85h2.96Z"/>
            <path class="cls-1" d="M311.42,497.66c.03,.08,.06,.15,.08,.23-.02-.08-.05-.15-.08-.23Z"/>
            <path class="cls-1" d="M311.41,497.62c-.03-.07-.07-.14-.11-.21,.04,.07,.08,.14,.11,.21Z"/>
            <path class="cls-1" d="M311.4,499.09c-.03,.07-.07,.14-.11,.21,.04-.07,.08-.14,.11-.21Z"/>
            <path class="cls-1" d="M311.27,499.34c-.05,.08-.11,.16-.17,.23,.06-.07,.12-.15,.17-.23Z"/>
            <path class="cls-1" d="M311.5,498.83c-.02,.08-.05,.16-.08,.23,.03-.08,.06-.15,.08-.23Z"/>
            <path class="cls-1" d="M311.27,497.37c-.05-.08-.11-.16-.18-.23,.07,.07,.12,.15,.18,.23Z"/>
            <path class="cls-1" d="M311.5,497.89c.02,.09,.04,.18,.05,.28,0-.09-.03-.19-.05-.28Z"/>
            <path class="cls-1" d="M311.42,497.66s0-.02-.01-.04c0,.01,0,.02,.01,.04Z"/>
            <path class="cls-1" d="M311.5,498.83c.02-.09,.04-.18,.05-.27-.01,.09-.03,.18-.05,.27Z"/>
            <path class="cls-1" d="M311.29,499.31s-.01,.02-.02,.03c0-.01,.01-.02,.02-.03Z"/>
            <path class="cls-1" d="M311.29,497.41s-.01-.03-.02-.04c0,.01,.01,.03,.02,.04Z"/>
            <path class="cls-1" d="M311.41,499.06s0,.02-.01,.03c0-.01,0-.02,.01-.03Z"/>
            <path class="cls-1" d="M311.78,550.03c-.05-.06-.1-.11-.15-.17l-24.53-24.71s-.04-.12,0-.16l24.72-24.52c.56-.56,.87-1.3,.88-2.09,0-.79-.3-1.54-.86-2.1l-23.82-24c-.21-.21-.33-.49-.32-.79s.12-.58,.33-.79l23.12-22.94h-3.21s-23.03,22.84-23.03,22.84c-.26,.21-.42,.53-.42,.87,0,.15,.03,.3,.08,.43l-.05,.06,.21,.21c.05,.06,.1,.11,.16,.16l25.34,25.54c.27,.27,.27,.71,0,.98l-25.53,25.33c-.26,.21-.42,.53-.42,.87,0,.15,.03,.3,.08,.43l-.05,.07,.22,.22c.05,.06,.1,.11,.16,.16l24.27,24.46h3.14s-.32-.36-.32-.36Z"/>
            <path class="cls-1" d="M276.99,525.73l.22-.22-.05-.07c.06-.13,.09-.28,.09-.43,0-.34-.15-.66-.41-.87l-25.33-25.53c-.27-.27-.27-.71,0-.98l25.54-25.34c.06-.05,.11-.1,.16-.16l.21-.21-.05-.06c.06-.13,.09-.28,.09-.43,0-.34-.15-.66-.41-.87l-22.86-23.03h-3.21s22.94,23.1,22.94,23.1c.21,.21,.33,.49,.32,.79s-.12,.58-.33,.79l-24.01,23.82c-.56,.56-.87,1.3-.88,2.1,0,.79,.3,1.54,.86,2.1l24.53,24.71s.04,.12,0,.16l-24.72,24.52c-.05,.05-.1,.11-.15,.17l-.32,.37h3.14s24.46-24.26,24.46-24.26c.06-.05,.11-.1,.16-.16Z"/>
          </g>
        </g>
        <g>
          <g>
            <rect class="cls-6" x="264.22" y="610.01" width="29.31" height="29.31" rx="12.05" ry="12.05" transform="translate(525.86 -13.28) rotate(45.22)"/>
            <polygon class="cls-6" points="249.65 627.92 245.54 627.9 275.37 657.97 275.39 653.86 249.65 627.92"/>
            <polygon class="cls-6" points="275.62 595.43 275.63 591.32 245.56 621.15 249.67 621.17 275.62 595.43"/>
            <polygon class="cls-6" points="308.1 621.4 312.22 621.41 282.38 591.34 282.36 595.46 308.1 621.4"/>
            <polygon class="cls-6" points="308.08 628.15 282.14 653.89 282.12 658 312.19 628.16 308.08 628.15"/>
          </g>
          <g>
            <rect class="cls-6" x="272.5" y="738.28" width="14.81" height="14.81" rx="7.41" ry="7.41" transform="translate(612.07 21.77) rotate(45.22)"/>
            <path class="cls-1" d="M298.62,694.55l-18.1,17.96c-.26,.26-.72,.26-.98,0l-17.96-18.1h-2.96c.14,.3,.34,.59,.59,.84l18.72,18.86c.58,.58,1.33,.87,2.09,.88,.76,0,1.52-.28,2.1-.86l18.86-18.72c.25-.25,.45-.54,.6-.85h-2.96Z"/>
            <path class="cls-1" d="M310.82,796.88c-.05-.06-.1-.11-.15-.17l-24.53-24.71s-.04-.12,0-.16l24.72-24.52c.56-.56,.87-1.3,.88-2.09s-.3-1.54-.86-2.1l-23.82-24c-.21-.21-.33-.49-.32-.79s.12-.58,.33-.79l23.12-22.94h-3.21s-23.03,22.84-23.03,22.84c-.26,.21-.42,.53-.42,.87,0,.15,.03,.3,.08,.43l-.05,.06,.21,.21c.05,.06,.1,.11,.16,.16l25.34,25.54c.27,.27,.27,.71,0,.98l-25.53,25.33c-.26,.21-.42,.53-.42,.87,0,.15,.03,.3,.08,.43l-.05,.07,.22,.22c.05,.06,.1,.11,.16,.16l24.27,24.46h3.14s-.32-.36-.32-.36Z"/>
            <path class="cls-1" d="M276.04,772.59l.22-.22-.05-.07c.06-.13,.09-.28,.09-.43,0-.34-.15-.66-.41-.87l-25.33-25.53c-.27-.27-.27-.71,0-.98l25.54-25.34c.06-.05,.11-.1,.16-.16l.21-.21-.05-.06c.06-.13,.09-.28,.09-.43,0-.34-.15-.66-.41-.87l-22.86-23.03h-3.21s22.94,23.1,22.94,23.1c.21,.21,.33,.49,.32,.79s-.12,.58-.33,.79l-24.01,23.82c-.56,.56-.87,1.3-.88,2.1s.3,1.54,.86,2.1l24.53,24.71s.04,.12,0,.16l-24.72,24.52c-.05,.05-.1,.11-.15,.17l-.32,.37h3.14s24.46-24.26,24.46-24.26c.06-.05,.11-.1,.16-.16Z"/>
          </g>
        </g>
      </g>
      <g>
        <g>
          <path class="cls-1" d="M425.01,54.09l-64.33-.25,.31-79.33,64.33,.25-.31,79.33Zm-59.48-5.07l54.66,.21,.27-69.65-54.66-.21-.27,69.65Z"/>
          <path class="cls-1" d="M387.65,32.74c-2.65-18.62,3.13-29.14,8.44-34.68,5.83-6.08,12.3-7.63,12.58-7.69l.88,3.77c-.06,.01-5.77,1.42-10.8,6.75-6.76,7.16-9.2,17.69-7.26,31.31l-3.83,.55Z"/>
        </g>
        <g>
          <g>
            <polygon class="cls-6" points="389.37 83.14 362.89 109.42 389.27 109.52 389.37 83.14"/>
            <polygon class="cls-6" points="396 109.55 422.38 109.65 396.1 83.16 396 109.55"/>
            <polygon class="cls-6" points="362.86 116.15 389.14 142.63 389.24 116.25 362.86 116.15"/>
            <polygon class="cls-6" points="395.87 142.66 422.35 116.38 395.97 116.28 395.87 142.66"/>
            <rect class="cls-6" x="378.75" y="96.14" width="27.06" height="1.08" transform="translate(294.08 488.58) rotate(-89.78)"/>
            <rect class="cls-6" x="378.62" y="128.58" width="27.06" height="1.08" transform="translate(261.52 520.77) rotate(-89.78)"/>
            <rect class="cls-6" x="375.66" y="99.51" width="1.08" height="26.65" transform="translate(261.9 488.59) rotate(-89.78)"/>
            <rect class="cls-6" x="408.1" y="99.23" width="1.08" height="27.46" transform="translate(294.09 521.16) rotate(-89.78)"/>
            <circle class="cls-6" cx="392.15" cy="112.96" r="1.41"/>
          </g>
          <g>
            <rect class="cls-6" x="389.99" y="136.6" width="4.84" height="59.49" transform="translate(224.54 558.11) rotate(-89.78)"/>
            <rect class="cls-6" x="389.92" y="154.5" width="4.84" height="59.49" transform="translate(206.58 575.87) rotate(-89.78)"/>
            <rect class="cls-6" x="389.85" y="172.39" width="4.84" height="59.49" transform="translate(188.61 593.63) rotate(-89.78)"/>
          </g>
          <g>
            <path class="cls-1" d="M424.06,300.94l-64.33-.25,.31-79.33,64.33,.25-.31,79.33Zm-59.48-5.07l54.66,.21,.27-69.65-54.66-.21-.27,69.65Z"/>
            <path class="cls-1" d="M386.69,279.59c-2.65-18.62,3.13-29.14,8.44-34.68,5.83-6.08,12.3-7.63,12.58-7.69l.88,3.77c-.06,.01-5.77,1.42-10.8,6.75-6.76,7.16-9.2,17.69-7.26,31.31l-3.83,.55Z"/>
          </g>
        </g>
        <g>
          <g>
            <polygon class="cls-6" points="388.38 338.97 361.89 365.24 388.27 365.35 388.38 338.97"/>
            <polygon class="cls-6" points="395 365.37 421.39 365.48 395.11 338.99 395 365.37"/>
            <polygon class="cls-6" points="361.87 371.97 388.15 398.46 388.25 372.08 361.87 371.97"/>
            <polygon class="cls-6" points="394.88 398.49 421.36 372.21 394.98 372.1 394.88 398.49"/>
            <rect class="cls-6" x="377.76" y="351.97" width="27.06" height="1.08" transform="translate(37.27 742.42) rotate(-89.78)"/>
            <rect class="cls-6" x="377.63" y="384.4" width="27.06" height="1.08" transform="translate(4.7 774.61) rotate(-89.78)"/>
            <rect class="cls-6" x="374.67" y="355.34" width="1.08" height="26.65" transform="translate(5.09 742.43) rotate(-89.78)"/>
            <rect class="cls-6" x="407.11" y="355.06" width="1.08" height="27.46" transform="translate(37.28 775) rotate(-89.78)"/>
            <circle class="cls-6" cx="391.16" cy="368.79" r="1.41"/>
          </g>
          <g>
            <rect class="cls-6" x="389" y="392.43" width="4.84" height="59.49" transform="translate(-32.27 811.95) rotate(-89.78)"/>
            <rect class="cls-6" x="388.93" y="410.32" width="4.84" height="59.49" transform="translate(-50.23 829.71) rotate(-89.78)"/>
            <rect class="cls-6" x="388.86" y="428.22" width="4.84" height="59.49" transform="translate(-68.2 847.47) rotate(-89.78)"/>
          </g>
          <g>
            <path class="cls-1" d="M423.06,556.76l-64.33-.25,.31-79.33,64.33,.25-.31,79.33Zm-59.48-5.07l54.66,.21,.27-69.65-54.66-.21-.27,69.65Z"/>
            <path class="cls-1" d="M385.7,535.42c-2.65-18.62,3.13-29.14,8.44-34.68,5.83-6.08,12.3-7.63,12.58-7.69l.88,3.77c-.06,.01-5.77,1.42-10.8,6.75-6.76,7.16-9.2,17.69-7.26,31.31l-3.83,.55Z"/>
          </g>
        </g>
        <g>
          <g>
            <polygon class="cls-6" points="387.42 585.82 360.94 612.1 387.32 612.2 387.42 585.82"/>
            <polygon class="cls-6" points="394.05 612.22 420.43 612.33 394.15 585.84 394.05 612.22"/>
            <polygon class="cls-6" points="360.91 618.83 387.19 645.31 387.29 618.93 360.91 618.83"/>
            <polygon class="cls-6" points="393.92 645.34 420.4 619.06 394.02 618.95 393.92 645.34"/>
            <rect class="cls-6" x="376.8" y="598.82" width="27.06" height="1.08" transform="translate(-210.54 987.35) rotate(-89.78)"/>
            <rect class="cls-6" x="376.67" y="631.25" width="27.06" height="1.08" transform="translate(-243.1 1019.54) rotate(-89.78)"/>
            <rect class="cls-6" x="373.71" y="602.19" width="1.08" height="26.65" transform="translate(-242.71 987.37) rotate(-89.78)"/>
            <rect class="cls-6" x="406.15" y="601.91" width="1.08" height="27.46" transform="translate(-210.52 1019.93) rotate(-89.78)"/>
            <circle class="cls-6" cx="390.2" cy="615.64" r="1.41"/>
          </g>
          <g>
            <rect class="cls-6" x="388.04" y="639.28" width="4.84" height="59.49" transform="translate(-280.07 1056.89) rotate(-89.78)"/>
            <rect class="cls-6" x="387.97" y="657.17" width="4.84" height="59.49" transform="translate(-298.04 1074.64) rotate(-89.78)"/>
            <rect class="cls-6" x="387.9" y="675.07" width="4.84" height="59.49" transform="translate(-316 1092.4) rotate(-89.78)"/>
          </g>
          <g>
            <path class="cls-1" d="M422.11,803.61l-64.33-.25,.31-79.33,64.33,.25-.31,79.33Zm-59.48-5.07l54.66,.21,.27-69.65-54.66-.21-.27,69.65Z"/>
            <path class="cls-1" d="M384.74,782.27c-2.65-18.62,3.13-29.14,8.44-34.68,5.83-6.08,12.3-7.63,12.58-7.69l.88,3.77c-.06,.01-5.77,1.42-10.8,6.75-6.76,7.16-9.2,17.69-7.26,31.31l-3.83,.55Z"/>
          </g>
        </g>
      </g>
      <g>
        <g>
          <rect class="cls-2" x="501.25" y="52.94" width="4.73" height="58.19" transform="translate(419.63 585.33) rotate(-89.78)"/>
          <rect class="cls-2" x="501.12" y="86.36" width="4.73" height="58.19" transform="translate(386.09 618.49) rotate(-89.78)"/>
          <rect class="cls-2" x="500.99" y="120.18" width="4.73" height="58.19" transform="translate(352.13 652.05) rotate(-89.78)"/>
          <rect class="cls-2" x="500.86" y="154" width="4.73" height="58.19" transform="translate(318.18 685.61) rotate(-89.78)"/>
          <circle class="cls-2" cx="486.88" cy="7.49" r="8.95"/>
          <circle class="cls-2" cx="490.75" cy="36.35" r="8.95"/>
          <circle class="cls-2" cx="512.67" cy="25.49" r="8.95"/>
          <circle class="cls-2" cx="527.5" cy="49.42" r="8.95"/>
          <circle class="cls-2" cx="481.1" cy="214.39" r="8.95"/>
          <circle class="cls-2" cx="508.86" cy="240.37" r="8.95"/>
          <circle class="cls-2" cx="485.91" cy="257.19" r="8.95"/>
          <circle class="cls-2" cx="489.78" cy="286.05" r="8.95"/>
          <circle class="cls-2" cx="511.71" cy="275.19" r="8.95"/>
          <circle class="cls-2" cx="526.53" cy="299.12" r="8.95"/>
          <circle class="cls-2" cx="526.83" cy="223.52" r="8.95"/>
        </g>
        <g>
          <rect class="cls-2" x="500.27" y="305.94" width="4.73" height="58.19" transform="translate(165.66 836.36) rotate(-89.78)"/>
          <rect class="cls-2" x="500.14" y="339.36" width="4.73" height="58.19" transform="translate(132.11 869.52) rotate(-89.78)"/>
          <rect class="cls-2" x="500.01" y="373.18" width="4.73" height="58.19" transform="translate(98.16 903.08) rotate(-89.78)"/>
          <rect class="cls-2" x="499.88" y="407" width="4.73" height="58.19" transform="translate(64.21 936.64) rotate(-89.78)"/>
          <rect class="cls-2" x="499.3" y="555.62" width="4.73" height="58.19" transform="translate(-84.98 1084.11) rotate(-89.78)"/>
          <rect class="cls-2" x="499.17" y="589.03" width="4.73" height="58.19" transform="translate(-118.53 1117.27) rotate(-89.78)"/>
          <rect class="cls-2" x="499.04" y="622.86" width="4.73" height="58.19" transform="translate(-152.48 1150.82) rotate(-89.78)"/>
          <rect class="cls-2" x="498.91" y="656.68" width="4.73" height="58.19" transform="translate(-186.43 1184.38) rotate(-89.78)"/>
          <circle class="cls-2" cx="480.12" cy="467.37" r="8.95"/>
          <circle class="cls-2" cx="507.87" cy="493.34" r="8.95"/>
          <circle class="cls-2" cx="484.93" cy="510.16" r="8.95"/>
          <circle class="cls-2" cx="488.8" cy="539.03" r="8.95"/>
          <circle class="cls-2" cx="510.72" cy="528.17" r="8.95"/>
          <circle class="cls-2" cx="525.55" cy="552.1" r="8.95"/>
          <circle class="cls-2" cx="525.85" cy="476.5" r="8.95"/>
          <circle class="cls-2" cx="479.15" cy="717.07" r="8.95"/>
          <circle class="cls-2" cx="506.91" cy="743.04" r="8.95"/>
          <circle class="cls-2" cx="524.88" cy="726.2" r="8.95"/>
        </g>
      </g>
      <g>
        <g>
          <rect class="cls-6" x="610.67" y="-9.94" width="14.81" height="14.81" rx="7.41" ry="7.41" transform="translate(180.93 -439.49) rotate(45.22)"/>
          <path class="cls-1" d="M599.36,48.6l18.1-17.96c.26-.26,.72-.26,.98,0l17.96,18.1h2.96c-.14-.3-.34-.59-.59-.84l-18.72-18.86c-.58-.58-1.33-.87-2.09-.88s-1.52,.28-2.1,.86l-18.86,18.72c-.25,.25-.45,.54-.6,.85h2.96Z"/>
          <path class="cls-1" d="M648.99,48.65c-.05-.06-.1-.11-.15-.17l-24.53-24.71s-.04-.12,0-.16L649.04-.92c.56-.56,.87-1.3,.88-2.09s-.3-1.54-.86-2.1l-23.82-24c-.21-.21-.33-.49-.32-.79s.12-.58,.33-.79l23.12-22.94h-3.21s-23.03,22.84-23.03,22.84c-.26,.21-.42,.53-.42,.87,0,.15,.03,.3,.08,.43l-.05,.06,.21,.21c.05,.06,.1,.11,.16,.16l25.34,25.54c.27,.27,.27,.71,0,.98l-25.53,25.33c-.26,.21-.42,.53-.42,.87,0,.15,.03,.3,.08,.43l-.05,.07,.22,.22c.05,.06,.1,.11,.16,.16l24.27,24.46h3.14s-.32-.36-.32-.36Z"/>
          <path class="cls-1" d="M614.21,24.36l.22-.22-.05-.07c.06-.13,.09-.28,.09-.43,0-.34-.15-.66-.41-.87l-25.33-25.53c-.27-.27-.27-.71,0-.98l25.54-25.34c.06-.05,.11-.1,.16-.16l.21-.21-.05-.06c.06-.13,.09-.28,.09-.43,0-.34-.15-.66-.41-.87l-22.86-23.03h-3.21s22.94,23.1,22.94,23.1c.21,.21,.33,.49,.32,.79s-.12,.58-.33,.79l-24.01,23.82c-.56,.56-.87,1.3-.88,2.1s.3,1.54,.86,2.1l24.53,24.71s.04,.12,0,.16l-24.72,24.52c-.05,.05-.1,.11-.15,.17l-.32,.37h3.14s24.46-24.26,24.46-24.26c.06-.05,.11-.1,.16-.16Z"/>
        </g>
        <g>
          <g>
            <rect class="cls-6" x="601.44" y="108.63" width="29.31" height="29.31" rx="12.05" ry="12.05" transform="translate(269.65 -400.88) rotate(45.22)"/>
            <polygon class="cls-6" points="586.87 126.54 582.75 126.53 612.59 156.6 612.61 152.48 586.87 126.54"/>
            <polygon class="cls-6" points="612.83 94.05 612.85 89.94 582.78 119.78 586.89 119.79 612.83 94.05"/>
            <polygon class="cls-6" points="645.32 120.02 649.43 120.04 619.6 89.97 619.58 94.08 645.32 120.02"/>
            <polygon class="cls-6" points="645.3 126.77 619.35 152.51 619.34 156.62 649.41 126.79 645.3 126.77"/>
          </g>
          <g>
            <rect class="cls-6" x="609.71" y="236.91" width="14.81" height="14.81" rx="7.41" ry="7.41" transform="translate(355.87 -365.83) rotate(45.22)"/>
            <path class="cls-1" d="M635.84,193.18l-18.1,17.96c-.26,.26-.72,.26-.98,0l-17.96-18.1h-2.96c.14,.3,.34,.59,.59,.84l18.72,18.86c.58,.58,1.33,.87,2.09,.88,.76,0,1.52-.28,2.1-.86l18.86-18.72c.25-.25,.45-.54,.6-.85h-2.96Z"/>
            <path class="cls-1" d="M598.4,295.45l18.1-17.96c.26-.26,.72-.26,.98,0l17.96,18.1h2.96c-.14-.3-.34-.59-.59-.84l-18.72-18.86c-.58-.58-1.33-.87-2.09-.88-.76,0-1.52,.28-2.1,.86l-18.86,18.72c-.25,.25-.45,.54-.6,.85h2.96Z"/>
            <path class="cls-1" d="M647.68,243.13c.03,.08,.06,.15,.08,.23-.02-.08-.05-.15-.08-.23Z"/>
            <path class="cls-1" d="M647.67,243.1c-.03-.07-.07-.14-.11-.21,.04,.07,.08,.14,.11,.21Z"/>
            <path class="cls-1" d="M647.66,244.57c-.03,.07-.07,.14-.11,.21,.04-.07,.08-.14,.11-.21Z"/>
            <path class="cls-1" d="M647.53,244.82c-.05,.08-.11,.16-.17,.23,.06-.07,.12-.15,.17-.23Z"/>
            <path class="cls-1" d="M647.76,244.31c-.02,.08-.05,.16-.08,.23,.03-.08,.06-.15,.08-.23Z"/>
            <path class="cls-1" d="M647.53,242.84c-.05-.08-.11-.16-.18-.23,.07,.07,.12,.15,.18,.23Z"/>
            <path class="cls-1" d="M647.76,243.36c.02,.09,.04,.18,.05,.28,0-.09-.03-.19-.05-.28Z"/>
            <path class="cls-1" d="M647.68,243.13s0-.02-.01-.04c0,.01,0,.02,.01,.04Z"/>
            <path class="cls-1" d="M647.76,244.31c.02-.09,.04-.18,.05-.27-.01,.09-.03,.18-.05,.27Z"/>
            <path class="cls-1" d="M647.55,244.78s-.01,.02-.02,.03c0-.01,.01-.02,.02-.03Z"/>
            <path class="cls-1" d="M647.55,242.88s-.01-.03-.02-.04c0,.01,.01,.03,.02,.04Z"/>
            <path class="cls-1" d="M647.67,244.54s0,.02-.01,.03c0-.01,0-.02,.01-.03Z"/>
            <path class="cls-1" d="M648.04,295.5c-.05-.06-.1-.11-.15-.17l-24.53-24.71s-.04-.12,0-.16l24.72-24.52c.56-.56,.87-1.3,.88-2.09,0-.79-.3-1.54-.86-2.1l-23.82-24c-.21-.21-.33-.49-.32-.79s.12-.58,.33-.79l23.12-22.94h-3.21s-23.03,22.84-23.03,22.84c-.26,.21-.42,.53-.42,.87,0,.15,.03,.3,.08,.43l-.05,.06,.21,.21c.05,.06,.1,.11,.16,.16l25.34,25.54c.27,.27,.27,.71,0,.98l-25.53,25.33c-.26,.21-.42,.53-.42,.87,0,.15,.03,.3,.08,.43l-.05,.07,.22,.22c.05,.06,.1,.11,.16,.16l24.27,24.46h3.14s-.32-.36-.32-.36Z"/>
            <path class="cls-1" d="M613.25,271.21l.22-.22-.05-.07c.06-.13,.09-.28,.09-.43,0-.34-.15-.66-.41-.87l-25.33-25.53c-.27-.27-.27-.71,0-.98l25.54-25.34c.06-.05,.11-.1,.16-.16l.21-.21-.05-.06c.06-.13,.09-.28,.09-.43,0-.34-.15-.66-.41-.87l-22.86-23.03h-3.21s22.94,23.1,22.94,23.1c.21,.21,.33,.49,.32,.79s-.12,.58-.33,.79l-24.01,23.82c-.56,.56-.87,1.3-.88,2.1,0,.79,.3,1.54,.86,2.1l24.53,24.71s.04,.12,0,.16l-24.72,24.52c-.05,.05-.1,.11-.15,.17l-.32,.37h3.14s24.46-24.26,24.46-24.26c.06-.05,.11-.1,.16-.16Z"/>
          </g>
        </g>
        <g>
          <g>
            <rect class="cls-6" x="600.45" y="364.46" width="29.31" height="29.31" rx="12.05" ry="12.05" transform="translate(450.96 -324.55) rotate(45.22)"/>
            <polygon class="cls-6" points="585.87 382.37 581.76 382.35 611.6 412.42 611.61 408.31 585.87 382.37"/>
            <polygon class="cls-6" points="611.84 349.88 611.86 345.77 581.79 375.6 585.9 375.62 611.84 349.88"/>
            <polygon class="cls-6" points="644.33 375.85 648.44 375.86 618.61 345.79 618.59 349.91 644.33 375.85"/>
            <polygon class="cls-6" points="644.3 382.6 618.36 408.34 618.35 412.45 648.42 382.61 644.3 382.6"/>
          </g>
          <g>
            <rect class="cls-6" x="608.72" y="492.73" width="14.81" height="14.81" rx="7.41" ry="7.41" transform="translate(537.17 -289.49) rotate(45.22)"/>
            <path class="cls-1" d="M634.85,449l-18.1,17.96c-.26,.26-.72,.26-.98,0l-17.96-18.1h-2.96c.14,.3,.34,.59,.59,.84l18.72,18.86c.58,.58,1.33,.87,2.09,.88,.76,0,1.52-.28,2.1-.86l18.86-18.72c.25-.25,.45-.54,.6-.85h-2.96Z"/>
            <path class="cls-1" d="M597.41,551.28l18.1-17.96c.26-.26,.72-.26,.98,0l17.96,18.1h2.96c-.14-.3-.34-.59-.59-.84l-18.72-18.86c-.58-.58-1.33-.87-2.09-.88s-1.52,.28-2.1,.86l-18.86,18.72c-.25,.25-.45,.54-.6,.85h2.96Z"/>
            <path class="cls-1" d="M646.69,498.96c.03,.08,.06,.15,.08,.23-.02-.08-.05-.15-.08-.23Z"/>
            <path class="cls-1" d="M646.67,498.92c-.03-.07-.07-.14-.11-.21,.04,.07,.08,.14,.11,.21Z"/>
            <path class="cls-1" d="M646.67,500.39c-.03,.07-.07,.14-.11,.21,.04-.07,.08-.14,.11-.21Z"/>
            <path class="cls-1" d="M646.54,500.64c-.05,.08-.11,.16-.17,.23,.06-.07,.12-.15,.17-.23Z"/>
            <path class="cls-1" d="M646.76,500.13c-.02,.08-.05,.16-.08,.23,.03-.08,.06-.15,.08-.23Z"/>
            <path class="cls-1" d="M646.54,498.67c-.05-.08-.11-.16-.18-.23,.07,.07,.12,.15,.18,.23Z"/>
            <path class="cls-1" d="M646.77,499.19c.02,.09,.04,.18,.05,.28,0-.09-.03-.19-.05-.28Z"/>
            <path class="cls-1" d="M646.69,498.96s0-.02-.01-.04c0,.01,0,.02,.01,.04Z"/>
            <path class="cls-1" d="M646.76,500.13c.02-.09,.04-.18,.05-.27-.01,.09-.03,.18-.05,.27Z"/>
            <path class="cls-1" d="M646.56,500.61s-.01,.02-.02,.03c0-.01,.01-.02,.02-.03Z"/>
            <path class="cls-1" d="M646.56,498.71s-.01-.03-.02-.04c0,.01,.01,.03,.02,.04Z"/>
            <path class="cls-1" d="M646.68,500.36s0,.02-.01,.03c0-.01,0-.02,.01-.03Z"/>
            <path class="cls-1" d="M647.04,551.33c-.05-.06-.1-.11-.15-.17l-24.53-24.71s-.04-.12,0-.16l24.72-24.52c.56-.56,.87-1.3,.88-2.09s-.3-1.54-.86-2.1l-23.82-24c-.21-.21-.33-.49-.32-.79s.12-.58,.33-.79l23.12-22.94h-3.21s-23.03,22.84-23.03,22.84c-.26,.21-.42,.53-.42,.87,0,.15,.03,.3,.08,.43l-.05,.06,.21,.21c.05,.06,.1,.11,.16,.16l25.34,25.54c.27,.27,.27,.71,0,.98l-25.53,25.33c-.26,.21-.42,.53-.42,.87,0,.15,.03,.3,.08,.43l-.05,.07,.22,.22c.05,.06,.1,.11,.16,.16l24.27,24.46h3.14s-.32-.36-.32-.36Z"/>
            <path class="cls-1" d="M612.26,527.04l.22-.22-.05-.07c.06-.13,.09-.28,.09-.43,0-.34-.15-.66-.41-.87l-25.33-25.53c-.27-.27-.27-.71,0-.98l25.54-25.34c.06-.05,.11-.1,.16-.16l.21-.21-.05-.06c.06-.13,.09-.28,.09-.43,0-.34-.15-.66-.41-.87l-22.86-23.03h-3.21s22.94,23.1,22.94,23.1c.21,.21,.33,.49,.32,.79s-.12,.58-.33,.79l-24.01,23.82c-.56,.56-.87,1.3-.88,2.1,0,.79,.3,1.54,.86,2.1l24.53,24.71s.04,.12,0,.16l-24.72,24.52c-.05,.05-.1,.11-.15,.17l-.32,.37h3.14s24.46-24.26,24.46-24.26c.06-.05,.11-.1,.16-.16Z"/>
          </g>
        </g>
        <g>
          <g>
            <rect class="cls-6" x="599.49" y="611.31" width="29.31" height="29.31" rx="12.05" ry="12.05" transform="translate(625.9 -250.89) rotate(45.22)"/>
            <polygon class="cls-6" points="584.92 629.22 580.8 629.2 610.64 659.27 610.66 655.16 584.92 629.22"/>
            <polygon class="cls-6" points="610.88 596.73 610.9 592.62 580.83 622.46 584.94 622.47 610.88 596.73"/>
            <polygon class="cls-6" points="643.37 622.7 647.48 622.71 617.65 592.64 617.63 596.76 643.37 622.7"/>
            <polygon class="cls-6" points="643.35 629.45 617.41 655.19 617.39 659.3 647.46 629.46 643.35 629.45"/>
          </g>
          <g>
            <rect class="cls-6" x="607.76" y="739.58" width="14.81" height="14.81" rx="7.41" ry="7.41" transform="translate(712.12 -215.83) rotate(45.22)"/>
            <path class="cls-1" d="M633.89,695.85l-18.1,17.96c-.26,.26-.72,.26-.98,0l-17.96-18.1h-2.96c.14,.3,.34,.59,.59,.84l18.72,18.86c.58,.58,1.33,.87,2.09,.88s1.52-.28,2.1-.86l18.86-18.72c.25-.25,.45-.54,.6-.85h-2.96Z"/>
            <path class="cls-1" d="M646.09,798.18c-.05-.06-.1-.11-.15-.17l-24.53-24.71s-.04-.12,0-.16l24.72-24.52c.56-.56,.87-1.3,.88-2.09s-.3-1.54-.86-2.1l-23.82-24c-.21-.21-.33-.49-.32-.79s.12-.58,.33-.79l23.12-22.94h-3.21s-23.03,22.84-23.03,22.84c-.26,.21-.42,.53-.42,.87,0,.15,.03,.3,.08,.43l-.05,.06,.21,.21c.05,.06,.1,.11,.16,.16l25.34,25.54c.27,.27,.27,.71,0,.98l-25.53,25.33c-.26,.21-.42,.53-.42,.87,0,.15,.03,.3,.08,.43l-.05,.07,.22,.22c.05,.06,.1,.11,.16,.16l24.27,24.46h3.14s-.32-.36-.32-.36Z"/>
            <path class="cls-1" d="M611.3,773.89l.22-.22-.05-.07c.06-.13,.09-.28,.09-.43,0-.34-.15-.66-.41-.87l-25.33-25.53c-.27-.27-.27-.71,0-.98l25.54-25.34c.06-.05,.11-.1,.16-.16l.21-.21-.05-.06c.06-.13,.09-.28,.09-.43,0-.34-.15-.66-.41-.87l-22.86-23.03h-3.21s22.94,23.1,22.94,23.1c.21,.21,.33,.49,.32,.79s-.12,.58-.33,.79l-24.01,23.82c-.56,.56-.87,1.3-.88,2.1s.3,1.54,.86,2.1l24.53,24.71s.04,.12,0,.16l-24.72,24.52c-.05,.05-.1,.11-.15,.17l-.32,.37h3.14s24.46-24.26,24.46-24.26c.06-.05,.11-.1,.16-.16Z"/>
          </g>
        </g>
      </g>
      <g>
        <g>
          <path class="cls-1" d="M760.28,55.39l-64.33-.25,.31-79.33,64.33,.25-.31,79.33Zm-59.48-5.07l54.66,.21,.27-69.65-54.66-.21-.27,69.65Z"/>
          <path class="cls-1" d="M722.92,34.04c-2.65-18.62,3.13-29.14,8.44-34.68,5.83-6.08,12.3-7.63,12.58-7.69l.88,3.77c-.06,.01-5.77,1.42-10.8,6.75-6.76,7.16-9.2,17.69-7.26,31.31l-3.83,.55Z"/>
        </g>
        <g>
          <g>
            <polygon class="cls-6" points="724.64 84.44 698.15 110.72 724.53 110.82 724.64 84.44"/>
            <polygon class="cls-6" points="731.26 110.85 757.65 110.95 731.37 84.47 731.26 110.85"/>
            <polygon class="cls-6" points="698.13 117.45 724.41 143.93 724.51 117.55 698.13 117.45"/>
            <polygon class="cls-6" points="731.14 143.96 757.62 117.68 731.24 117.58 731.14 143.96"/>
            <rect class="cls-6" x="714.02" y="97.44" width="27.06" height="1.08" transform="translate(626.75 825.14) rotate(-89.78)"/>
            <rect class="cls-6" x="713.89" y="129.88" width="27.06" height="1.08" transform="translate(594.18 857.33) rotate(-89.78)"/>
            <rect class="cls-6" x="710.93" y="100.81" width="1.08" height="26.65" transform="translate(594.57 825.15) rotate(-89.78)"/>
            <rect class="cls-6" x="743.37" y="100.53" width="1.08" height="27.46" transform="translate(626.76 857.72) rotate(-89.78)"/>
            <circle class="cls-6" cx="727.42" cy="114.26" r="1.41"/>
          </g>
          <g>
            <rect class="cls-6" x="725.26" y="137.9" width="4.84" height="59.49" transform="translate(557.21 894.67) rotate(-89.78)"/>
            <rect class="cls-6" x="725.19" y="155.8" width="4.84" height="59.49" transform="translate(539.25 912.43) rotate(-89.78)"/>
            <rect class="cls-6" x="725.12" y="173.69" width="4.84" height="59.49" transform="translate(521.28 930.19) rotate(-89.78)"/>
          </g>
          <g>
            <path class="cls-1" d="M759.32,302.24l-64.33-.25,.31-79.33,64.33,.25-.31,79.33Zm-59.48-5.07l54.66,.21,.27-69.65-54.66-.21-.27,69.65Z"/>
            <path class="cls-1" d="M721.96,280.89c-2.65-18.62,3.13-29.14,8.44-34.68,5.83-6.08,12.3-7.63,12.58-7.69l.88,3.77c-.06,.01-5.77,1.42-10.8,6.75-6.76,7.16-9.2,17.69-7.26,31.31l-3.83,.55Z"/>
          </g>
        </g>
        <g>
          <g>
            <polygon class="cls-6" points="723.64 340.27 697.16 366.55 723.54 366.65 723.64 340.27"/>
            <polygon class="cls-6" points="730.27 366.67 756.65 366.78 730.37 340.29 730.27 366.67"/>
            <polygon class="cls-6" points="697.13 373.28 723.41 399.76 723.52 373.38 697.13 373.28"/>
            <polygon class="cls-6" points="730.14 399.79 756.63 373.51 730.25 373.4 730.14 399.79"/>
            <rect class="cls-6" x="713.03" y="353.27" width="27.06" height="1.08" transform="translate(369.93 1078.98) rotate(-89.78)"/>
            <rect class="cls-6" x="712.9" y="385.71" width="27.06" height="1.08" transform="translate(337.37 1111.17) rotate(-89.78)"/>
            <rect class="cls-6" x="709.93" y="356.64" width="1.08" height="26.65" transform="translate(337.76 1078.99) rotate(-89.78)"/>
            <rect class="cls-6" x="742.37" y="356.36" width="1.08" height="27.46" transform="translate(369.94 1111.56) rotate(-89.78)"/>
            <circle class="cls-6" cx="726.42" cy="370.09" r="1.41"/>
          </g>
          <g>
            <rect class="cls-6" x="724.27" y="393.73" width="4.84" height="59.49" transform="translate(300.4 1148.51) rotate(-89.78)"/>
            <rect class="cls-6" x="724.2" y="411.62" width="4.84" height="59.49" transform="translate(282.43 1166.27) rotate(-89.78)"/>
            <rect class="cls-6" x="724.13" y="429.52" width="4.84" height="59.49" transform="translate(264.47 1184.03) rotate(-89.78)"/>
          </g>
          <g>
            <path class="cls-1" d="M758.33,558.06l-64.33-.25,.31-79.33,64.33,.25-.31,79.33Zm-59.48-5.07l54.66,.21,.27-69.65-54.66-.21-.27,69.65Z"/>
            <path class="cls-1" d="M720.97,536.72c-2.65-18.62,3.13-29.14,8.44-34.68,5.83-6.08,12.3-7.63,12.58-7.69l.88,3.77c-.06,.01-5.77,1.42-10.8,6.75-6.76,7.16-9.2,17.69-7.26,31.31l-3.83,.55Z"/>
          </g>
        </g>
        <g>
          <g>
            <polygon class="cls-6" points="722.69 587.12 696.2 613.4 722.58 613.5 722.69 587.12"/>
            <polygon class="cls-6" points="729.31 613.52 755.7 613.63 729.42 587.14 729.31 613.52"/>
            <polygon class="cls-6" points="696.18 620.13 722.46 646.61 722.56 620.23 696.18 620.13"/>
            <polygon class="cls-6" points="729.19 646.64 755.67 620.36 729.29 620.25 729.19 646.64"/>
            <rect class="cls-6" x="712.07" y="600.12" width="27.06" height="1.08" transform="translate(122.13 1323.92) rotate(-89.78)"/>
            <rect class="cls-6" x="711.94" y="632.56" width="27.06" height="1.08" transform="translate(89.57 1356.1) rotate(-89.78)"/>
            <rect class="cls-6" x="708.98" y="603.49" width="1.08" height="26.65" transform="translate(89.96 1323.93) rotate(-89.78)"/>
            <rect class="cls-6" x="741.42" y="603.21" width="1.08" height="27.46" transform="translate(122.14 1356.49) rotate(-89.78)"/>
            <circle class="cls-6" cx="725.47" cy="616.94" r="1.41"/>
          </g>
          <g>
            <rect class="cls-6" x="723.31" y="640.58" width="4.84" height="59.49" transform="translate(52.6 1393.45) rotate(-89.78)"/>
            <rect class="cls-6" x="723.24" y="658.47" width="4.84" height="59.49" transform="translate(34.63 1411.21) rotate(-89.78)"/>
            <rect class="cls-6" x="723.17" y="676.37" width="4.84" height="59.49" transform="translate(16.66 1428.96) rotate(-89.78)"/>
          </g>
          <g>
            <path class="cls-1" d="M757.37,804.91l-64.33-.25,.31-79.33,64.33,.25-.31,79.33Zm-59.48-5.07l54.66,.21,.27-69.65-54.66-.21-.27,69.65Z"/>
            <path class="cls-1" d="M720.01,783.57c-2.65-18.62,3.13-29.14,8.44-34.68,5.83-6.08,12.3-7.63,12.58-7.69l.88,3.77c-.06,.01-5.77,1.42-10.8,6.75-6.76,7.16-9.2,17.69-7.26,31.31l-3.83,.55Z"/>
          </g>
        </g>
      </g>
      <g>
        <g>
          <rect class="cls-2" x="836.52" y="54.24" width="4.73" height="58.19" transform="translate(752.3 921.89) rotate(-89.78)"/>
          <rect class="cls-2" x="836.39" y="87.66" width="4.73" height="58.19" transform="translate(718.75 955.05) rotate(-89.78)"/>
          <rect class="cls-2" x="836.26" y="121.48" width="4.73" height="58.19" transform="translate(684.8 988.61) rotate(-89.78)"/>
          <rect class="cls-2" x="836.13" y="155.3" width="4.73" height="58.19" transform="translate(650.85 1022.17) rotate(-89.78)"/>
          <circle class="cls-2" cx="845.09" cy="-8.04" r="8.95"/>
          <circle class="cls-2" cx="822.15" cy="8.79" r="8.95"/>
          <circle class="cls-2" cx="826.01" cy="37.65" r="8.95"/>
          <circle class="cls-2" cx="847.94" cy="26.79" r="8.95"/>
          <circle class="cls-2" cx="862.77" cy="50.72" r="8.95"/>
          <circle class="cls-2" cx="816.37" cy="215.69" r="8.95"/>
          <circle class="cls-2" cx="844.12" cy="241.67" r="8.95"/>
          <circle class="cls-2" cx="821.18" cy="258.49" r="8.95"/>
          <circle class="cls-2" cx="825.05" cy="287.35" r="8.95"/>
          <circle class="cls-2" cx="846.97" cy="276.49" r="8.95"/>
          <circle class="cls-2" cx="861.8" cy="300.42" r="8.95"/>
          <circle class="cls-2" cx="862.09" cy="224.83" r="8.95"/>
        </g>
        <g>
          <rect class="cls-2" x="835.54" y="307.24" width="4.73" height="58.19" transform="translate(498.33 1172.93) rotate(-89.78)"/>
          <rect class="cls-2" x="835.41" y="340.66" width="4.73" height="58.19" transform="translate(464.78 1206.08) rotate(-89.78)"/>
          <rect class="cls-2" x="835.28" y="374.48" width="4.73" height="58.19" transform="translate(430.83 1239.64) rotate(-89.78)"/>
          <rect class="cls-2" x="835.15" y="408.3" width="4.73" height="58.19" transform="translate(396.88 1273.2) rotate(-89.78)"/>
          <rect class="cls-2" x="834.57" y="556.92" width="4.73" height="58.19" transform="translate(247.68 1420.67) rotate(-89.78)"/>
          <rect class="cls-2" x="834.44" y="590.34" width="4.73" height="58.19" transform="translate(214.14 1453.83) rotate(-89.78)"/>
          <rect class="cls-2" x="834.31" y="624.16" width="4.73" height="58.19" transform="translate(180.19 1487.38) rotate(-89.78)"/>
          <rect class="cls-2" x="834.18" y="657.98" width="4.73" height="58.19" transform="translate(146.23 1520.94) rotate(-89.78)"/>
          <circle class="cls-2" cx="815.39" cy="468.67" r="8.95"/>
          <circle class="cls-2" cx="843.14" cy="494.64" r="8.95"/>
          <circle class="cls-2" cx="820.2" cy="511.46" r="8.95"/>
          <circle class="cls-2" cx="824.06" cy="540.33" r="8.95"/>
          <circle class="cls-2" cx="845.99" cy="529.47" r="8.95"/>
          <circle class="cls-2" cx="860.82" cy="553.4" r="8.95"/>
          <circle class="cls-2" cx="861.11" cy="477.8" r="8.95"/>
          <circle class="cls-2" cx="814.42" cy="718.37" r="8.95"/>
          <circle class="cls-2" cx="842.17" cy="744.34" r="8.95"/>
          <circle class="cls-2" cx="860.14" cy="727.5" r="8.95"/>
        </g>
      </g>
      <g>
        <g>
          <rect class="cls-6" x="945.94" y="-8.64" width="14.81" height="14.81" rx="7.41" ry="7.41" transform="translate(280.97 -677.09) rotate(45.22)"/>
          <path class="cls-1" d="M934.63,49.9l18.1-17.96c.26-.26,.72-.26,.98,0l17.96,18.1h2.96c-.14-.3-.34-.59-.59-.84l-18.72-18.86c-.58-.58-1.33-.87-2.09-.88s-1.52,.28-2.1,.86l-18.86,18.72c-.25,.25-.45,.54-.6,.85h2.96Z"/>
          <path class="cls-1" d="M984.26,49.95c-.05-.06-.1-.11-.15-.17l-24.53-24.71s-.04-.12,0-.16L984.3,.38c.56-.56,.87-1.3,.88-2.09,0-.79-.3-1.54-.86-2.1l-23.82-24c-.21-.21-.33-.49-.32-.79s.12-.58,.33-.79l23.12-22.94h-3.21s-23.03,22.84-23.03,22.84c-.26,.21-.42,.53-.42,.87,0,.15,.03,.3,.08,.43l-.05,.06,.21,.21c.05,.06,.1,.11,.16,.16l25.34,25.54c.27,.27,.27,.71,0,.98l-25.53,25.33c-.26,.21-.42,.53-.42,.87,0,.15,.03,.3,.08,.43l-.05,.07,.22,.22c.05,.06,.1,.11,.16,.16l24.27,24.46h3.14s-.32-.36-.32-.36Z"/>
          <path class="cls-1" d="M949.48,25.66l.22-.22-.05-.07c.06-.13,.09-.28,.09-.43,0-.34-.15-.66-.41-.87l-25.33-25.53c-.27-.27-.27-.71,0-.98l25.54-25.34c.06-.05,.11-.1,.16-.16l.21-.21-.05-.06c.06-.13,.09-.28,.09-.43,0-.34-.15-.66-.41-.87l-22.86-23.03h-3.21s22.94,23.1,22.94,23.1c.21,.21,.33,.49,.32,.79s-.12,.58-.33,.79l-24.01,23.82c-.56,.56-.87,1.3-.88,2.1s.3,1.54,.86,2.1l24.53,24.71s.04,.12,0,.16l-24.72,24.52c-.05,.05-.1,.11-.15,.17l-.32,.37h3.14s24.46-24.26,24.46-24.26c.06-.05,.11-.1,.16-.16Z"/>
        </g>
        <g>
          <g>
            <rect class="cls-6" x="936.71" y="109.93" width="29.31" height="29.31" rx="12.05" ry="12.05" transform="translate(369.7 -638.49) rotate(45.22)"/>
            <polygon class="cls-6" points="922.13 127.84 918.02 127.83 947.86 157.9 947.87 153.78 922.13 127.84"/>
            <polygon class="cls-6" points="948.1 95.35 948.12 91.24 918.05 121.08 922.16 121.09 948.1 95.35"/>
            <polygon class="cls-6" points="980.59 121.32 984.7 121.34 954.87 91.27 954.85 95.38 980.59 121.32"/>
            <polygon class="cls-6" points="980.56 128.07 954.62 153.81 954.61 157.92 984.68 128.09 980.56 128.07"/>
          </g>
          <g>
            <rect class="cls-6" x="944.98" y="238.21" width="14.81" height="14.81" rx="7.41" ry="7.41" transform="translate(455.91 -603.43) rotate(45.22)"/>
            <path class="cls-1" d="M971.11,194.48l-18.1,17.96c-.26,.26-.72,.26-.98,0l-17.96-18.1h-2.96c.14,.3,.34,.59,.59,.84l18.72,18.86c.58,.58,1.33,.87,2.09,.88s1.52-.28,2.1-.86l18.86-18.72c.25-.25,.45-.54,.6-.85h-2.96Z"/>
            <path class="cls-1" d="M933.67,296.75l18.1-17.96c.26-.26,.72-.26,.98,0l17.96,18.1h2.96c-.14-.3-.34-.59-.59-.84l-18.72-18.86c-.58-.58-1.33-.87-2.09-.88s-1.52,.28-2.1,.86l-18.86,18.72c-.25,.25-.45,.54-.6,.85h2.96Z"/>
            <path class="cls-1" d="M982.95,244.43c.03,.08,.06,.15,.08,.23-.02-.08-.05-.15-.08-.23Z"/>
            <path class="cls-1" d="M982.93,244.4c-.03-.07-.07-.14-.11-.21,.04,.07,.08,.14,.11,.21Z"/>
            <path class="cls-1" d="M982.93,245.87c-.03,.07-.07,.14-.11,.21,.04-.07,.08-.14,.11-.21Z"/>
            <path class="cls-1" d="M982.8,246.12c-.05,.08-.11,.16-.17,.23,.06-.07,.12-.15,.17-.23Z"/>
            <path class="cls-1" d="M983.02,245.61c-.02,.08-.05,.16-.08,.23,.03-.08,.06-.15,.08-.23Z"/>
            <path class="cls-1" d="M982.8,244.14c-.05-.08-.11-.16-.18-.23,.07,.07,.12,.15,.18,.23Z"/>
            <path class="cls-1" d="M983.03,244.66c.02,.09,.04,.18,.05,.28,0-.09-.03-.19-.05-.28Z"/>
            <path class="cls-1" d="M982.95,244.43s0-.02-.01-.04c0,.01,0,.02,.01,.04Z"/>
            <path class="cls-1" d="M983.02,245.61c.02-.09,.04-.18,.05-.27-.01,.09-.03,.18-.05,.27Z"/>
            <path class="cls-1" d="M982.82,246.08s-.01,.02-.02,.03c0-.01,.01-.02,.02-.03Z"/>
            <path class="cls-1" d="M982.82,244.18s-.01-.03-.02-.04c0,.01,.01,.03,.02,.04Z"/>
            <path class="cls-1" d="M982.94,245.84s0,.02-.01,.03c0-.01,0-.02,.01-.03Z"/>
            <path class="cls-1" d="M983.3,296.8c-.05-.06-.1-.11-.15-.17l-24.53-24.71s-.04-.12,0-.16l24.72-24.52c.56-.56,.87-1.3,.88-2.09,0-.79-.3-1.54-.86-2.1l-23.82-24c-.21-.21-.33-.49-.32-.79s.12-.58,.33-.79l23.12-22.94h-3.21s-23.03,22.84-23.03,22.84c-.26,.21-.42,.53-.42,.87,0,.15,.03,.3,.08,.43l-.05,.06,.21,.21c.05,.06,.1,.11,.16,.16l25.34,25.54c.27,.27,.27,.71,0,.98l-25.53,25.33c-.26,.21-.42,.53-.42,.87,0,.15,.03,.3,.08,.43l-.05,.07,.22,.22c.05,.06,.1,.11,.16,.16l24.27,24.46h3.14s-.32-.36-.32-.36Z"/>
            <path class="cls-1" d="M948.52,272.51l.22-.22-.05-.07c.06-.13,.09-.28,.09-.43,0-.34-.15-.66-.41-.87l-25.33-25.53c-.27-.27-.27-.71,0-.98l25.54-25.34c.06-.05,.11-.1,.16-.16l.21-.21-.05-.06c.06-.13,.09-.28,.09-.43,0-.34-.15-.66-.41-.87l-22.86-23.03h-3.21s22.94,23.1,22.94,23.1c.21,.21,.33,.49,.32,.79s-.12,.58-.33,.79l-24.01,23.82c-.56,.56-.87,1.3-.88,2.1s.3,1.54,.86,2.1l24.53,24.71s.04,.12,0,.16l-24.72,24.52c-.05,.05-.1,.11-.15,.17l-.32,.37h3.14s24.46-24.26,24.46-24.26c.06-.05,.11-.1,.16-.16Z"/>
          </g>
        </g>
        <g>
          <g>
            <rect class="cls-6" x="935.72" y="365.76" width="29.31" height="29.31" rx="12.05" ry="12.05" transform="translate(551 -562.15) rotate(45.22)"/>
            <polygon class="cls-6" points="921.14 383.67 917.03 383.65 946.87 413.72 946.88 409.61 921.14 383.67"/>
            <polygon class="cls-6" points="947.11 351.18 947.12 347.07 917.05 376.91 921.17 376.92 947.11 351.18"/>
            <polygon class="cls-6" points="979.6 377.15 983.71 377.16 953.87 347.09 953.86 351.21 979.6 377.15"/>
            <polygon class="cls-6" points="979.57 383.9 953.63 409.64 953.61 413.75 983.68 383.91 979.57 383.9"/>
          </g>
          <g>
            <rect class="cls-6" x="943.99" y="494.03" width="14.81" height="14.81" rx="7.41" ry="7.41" transform="translate(637.22 -527.1) rotate(45.22)"/>
            <path class="cls-1" d="M970.12,450.3l-18.1,17.96c-.26,.26-.72,.26-.98,0l-17.96-18.1h-2.96c.14,.3,.34,.59,.59,.84l18.72,18.86c.58,.58,1.33,.87,2.09,.88s1.52-.28,2.1-.86l18.86-18.72c.25-.25,.45-.54,.6-.85h-2.96Z"/>
            <path class="cls-1" d="M932.68,552.58l18.1-17.96c.26-.26,.72-.26,.98,0l17.96,18.1h2.96c-.14-.3-.34-.59-.59-.84l-18.72-18.86c-.58-.58-1.33-.87-2.09-.88s-1.52,.28-2.1,.86l-18.86,18.72c-.25,.25-.45,.54-.6,.85h2.96Z"/>
            <path class="cls-1" d="M981.95,500.26c.03,.08,.06,.15,.08,.23-.02-.08-.05-.15-.08-.23Z"/>
            <path class="cls-1" d="M981.94,500.22c-.03-.07-.07-.14-.11-.21,.04,.07,.08,.14,.11,.21Z"/>
            <path class="cls-1" d="M981.94,501.7c-.03,.07-.07,.14-.11,.21,.04-.07,.08-.14,.11-.21Z"/>
            <path class="cls-1" d="M981.8,501.94c-.05,.08-.11,.16-.17,.23,.06-.07,.12-.15,.17-.23Z"/>
            <path class="cls-1" d="M982.03,501.43c-.02,.08-.05,.16-.08,.23,.03-.08,.06-.15,.08-.23Z"/>
            <path class="cls-1" d="M981.81,499.97c-.05-.08-.11-.16-.18-.23,.07,.07,.12,.15,.18,.23Z"/>
            <path class="cls-1" d="M982.03,500.49c.02,.09,.04,.18,.05,.28,0-.09-.03-.19-.05-.28Z"/>
            <path class="cls-1" d="M981.95,500.26s0-.02-.01-.04c0,.01,0,.02,.01,.04Z"/>
            <path class="cls-1" d="M982.03,501.43c.02-.09,.04-.18,.05-.27-.01,.09-.03,.18-.05,.27Z"/>
            <path class="cls-1" d="M981.82,501.91s-.01,.02-.02,.03c0-.01,.01-.02,.02-.03Z"/>
            <path class="cls-1" d="M981.83,500.01s-.01-.03-.02-.04c0,.01,.01,.03,.02,.04Z"/>
            <path class="cls-1" d="M981.95,501.66s0,.02-.01,.03c0-.01,0-.02,.01-.03Z"/>
            <path class="cls-1" d="M982.31,552.63c-.05-.06-.1-.11-.15-.17l-24.53-24.71s-.04-.12,0-.16l24.72-24.52c.56-.56,.87-1.3,.88-2.09,0-.79-.3-1.54-.86-2.1l-23.82-24c-.21-.21-.33-.49-.32-.79s.12-.58,.33-.79l23.12-22.94h-3.21s-23.03,22.84-23.03,22.84c-.26,.21-.42,.53-.42,.87,0,.15,.03,.3,.08,.43l-.05,.06,.21,.21c.05,.06,.1,.11,.16,.16l25.34,25.54c.27,.27,.27,.71,0,.98l-25.53,25.33c-.26,.21-.42,.53-.42,.87,0,.15,.03,.3,.08,.43l-.05,.07,.22,.22c.05,.06,.1,.11,.16,.16l24.27,24.46h3.14s-.32-.36-.32-.36Z"/>
            <path class="cls-1" d="M947.53,528.34l.22-.22-.05-.07c.06-.13,.09-.28,.09-.43,0-.34-.15-.66-.41-.87l-25.33-25.53c-.27-.27-.27-.71,0-.98l25.54-25.34c.06-.05,.11-.1,.16-.16l.21-.21-.05-.06c.06-.13,.09-.28,.09-.43,0-.34-.15-.66-.41-.87l-22.86-23.03h-3.21s22.94,23.1,22.94,23.1c.21,.21,.33,.49,.32,.79s-.12,.58-.33,.79l-24.01,23.82c-.56,.56-.87,1.3-.88,2.1,0,.79,.3,1.54,.86,2.1l24.53,24.71s.04,.12,0,.16l-24.72,24.52c-.05,.05-.1,.11-.15,.17l-.32,.37h3.14s24.46-24.26,24.46-24.26c.06-.05,.11-.1,.16-.16Z"/>
          </g>
        </g>
        <g>
          <g>
            <rect class="cls-6" x="934.76" y="612.61" width="29.31" height="29.31" rx="12.05" ry="12.05" transform="translate(725.94 -488.49) rotate(45.22)"/>
            <polygon class="cls-6" points="920.18 630.52 916.07 630.5 945.91 660.57 945.92 656.46 920.18 630.52"/>
            <polygon class="cls-6" points="946.15 598.03 946.17 593.92 916.1 623.76 920.21 623.77 946.15 598.03"/>
            <polygon class="cls-6" points="978.64 624 982.75 624.01 952.92 593.94 952.9 598.06 978.64 624"/>
            <polygon class="cls-6" points="978.61 630.75 952.67 656.49 952.66 660.6 982.73 630.76 978.61 630.75"/>
          </g>
          <g>
            <rect class="cls-6" x="943.03" y="740.88" width="14.81" height="14.81" rx="7.41" ry="7.41" transform="translate(812.16 -453.44) rotate(45.22)"/>
            <path class="cls-1" d="M969.16,697.15l-18.1,17.96c-.26,.26-.72,.26-.98,0l-17.96-18.1h-2.96c.14,.3,.34,.59,.59,.84l18.72,18.86c.58,.58,1.33,.87,2.09,.88,.76,0,1.52-.28,2.1-.86l18.86-18.72c.25-.25,.45-.54,.6-.85h-2.96Z"/>
            <path class="cls-1" d="M981.35,799.48c-.05-.06-.1-.11-.15-.17l-24.53-24.71s-.04-.12,0-.16l24.72-24.52c.56-.56,.87-1.3,.88-2.09,0-.79-.3-1.54-.86-2.1l-23.82-24c-.21-.21-.33-.49-.32-.79s.12-.58,.33-.79l23.12-22.94h-3.21s-23.03,22.84-23.03,22.84c-.26,.21-.42,.53-.42,.87,0,.15,.03,.3,.08,.43l-.05,.06,.21,.21c.05,.06,.1,.11,.16,.16l25.34,25.54c.27,.27,.27,.71,0,.98l-25.53,25.33c-.26,.21-.42,.53-.42,.87,0,.15,.03,.3,.08,.43l-.05,.07,.22,.22c.05,.06,.1,.11,.16,.16l24.27,24.46h3.14s-.32-.36-.32-.36Z"/>
            <path class="cls-1" d="M946.57,775.19l.22-.22-.05-.07c.06-.13,.09-.28,.09-.43,0-.34-.15-.66-.41-.87l-25.33-25.53c-.27-.27-.27-.71,0-.98l25.54-25.34c.06-.05,.11-.1,.16-.16l.21-.21-.05-.06c.06-.13,.09-.28,.09-.43,0-.34-.15-.66-.41-.87l-22.86-23.03h-3.21s22.94,23.1,22.94,23.1c.21,.21,.33,.49,.32,.79s-.12,.58-.33,.79l-24.01,23.82c-.56,.56-.87,1.3-.88,2.1s.3,1.54,.86,2.1l24.53,24.71s.04,.12,0,.16l-24.72,24.52c-.05,.05-.1,.11-.15,.17l-.32,.37h3.14s24.46-24.26,24.46-24.26c.06-.05,.11-.1,.16-.16Z"/>
          </g>
        </g>
      </g>
      <g>
        <g>
          <path class="cls-1" d="M1095.55,56.69l-64.33-.25,.31-79.33,64.33,.25-.31,79.33Zm-59.48-5.07l54.66,.21,.27-69.65-54.66-.21-.27,69.65Z"/>
          <path class="cls-1" d="M1058.19,35.34c-2.65-18.62,3.13-29.14,8.44-34.68,5.83-6.08,12.3-7.63,12.58-7.69l.88,3.77c-.06,.01-5.77,1.42-10.8,6.75-6.76,7.16-9.2,17.69-7.26,31.31l-3.83,.55Z"/>
        </g>
        <g>
          <g>
            <polygon class="cls-6" points="1059.9 85.74 1033.42 112.02 1059.8 112.12 1059.9 85.74"/>
            <polygon class="cls-6" points="1066.53 112.15 1092.91 112.25 1066.63 85.77 1066.53 112.15"/>
            <polygon class="cls-6" points="1033.39 118.75 1059.67 145.23 1059.78 118.85 1033.39 118.75"/>
            <polygon class="cls-6" points="1066.4 145.26 1092.89 118.98 1066.51 118.88 1066.4 145.26"/>
            <rect class="cls-6" x="1049.29" y="98.74" width="27.06" height="1.08" transform="translate(959.41 1161.7) rotate(-89.78)"/>
            <rect class="cls-6" x="1049.16" y="131.18" width="27.06" height="1.08" transform="translate(926.85 1193.89) rotate(-89.78)"/>
            <rect class="cls-6" x="1046.19" y="102.11" width="1.08" height="26.65" transform="translate(927.24 1161.71) rotate(-89.78)"/>
            <rect class="cls-6" x="1078.63" y="101.83" width="1.08" height="27.46" transform="translate(959.42 1194.28) rotate(-89.78)"/>
            <circle class="cls-6" cx="1062.68" cy="115.57" r="1.41"/>
          </g>
          <g>
            <rect class="cls-6" x="1060.53" y="139.2" width="4.84" height="59.49" transform="translate(889.88 1231.23) rotate(-89.78)"/>
            <rect class="cls-6" x="1060.46" y="157.1" width="4.84" height="59.49" transform="translate(871.91 1248.99) rotate(-89.78)"/>
            <rect class="cls-6" x="1060.39" y="174.99" width="4.84" height="59.49" transform="translate(853.95 1266.75) rotate(-89.78)"/>
          </g>
          <g>
            <path class="cls-1" d="M1094.59,303.54l-64.33-.25,.31-79.33,64.33,.25-.31,79.33Zm-59.48-5.07l54.66,.21,.27-69.65-54.66-.21-.27,69.65Z"/>
            <path class="cls-1" d="M1057.23,282.19c-2.65-18.62,3.13-29.14,8.44-34.68,5.83-6.08,12.3-7.63,12.58-7.69l.88,3.77c-.06,.01-5.77,1.42-10.8,6.75-6.76,7.16-9.2,17.69-7.26,31.31l-3.83,.55Z"/>
          </g>
        </g>
        <g>
          <g>
            <polygon class="cls-6" points="1058.91 341.57 1032.43 367.85 1058.81 367.95 1058.91 341.57"/>
            <polygon class="cls-6" points="1065.54 367.97 1091.92 368.08 1065.64 341.59 1065.54 367.97"/>
            <polygon class="cls-6" points="1032.4 374.58 1058.68 401.06 1058.78 374.68 1032.4 374.58"/>
            <polygon class="cls-6" points="1065.41 401.09 1091.9 374.81 1065.51 374.7 1065.41 401.09"/>
            <rect class="cls-6" x="1048.29" y="354.57" width="27.06" height="1.08" transform="translate(702.6 1415.54) rotate(-89.78)"/>
            <rect class="cls-6" x="1048.17" y="387.01" width="27.06" height="1.08" transform="translate(670.04 1447.73) rotate(-89.78)"/>
            <rect class="cls-6" x="1045.2" y="357.94" width="1.08" height="26.65" transform="translate(670.42 1415.56) rotate(-89.78)"/>
            <rect class="cls-6" x="1077.64" y="357.66" width="1.08" height="27.46" transform="translate(702.61 1448.12) rotate(-89.78)"/>
            <circle class="cls-6" cx="1061.69" cy="371.39" r="1.41"/>
          </g>
          <g>
            <rect class="cls-6" x="1059.54" y="395.03" width="4.84" height="59.49" transform="translate(633.06 1485.07) rotate(-89.78)"/>
            <rect class="cls-6" x="1059.47" y="412.92" width="4.84" height="59.49" transform="translate(615.1 1502.83) rotate(-89.78)"/>
            <rect class="cls-6" x="1059.4" y="430.82" width="4.84" height="59.49" transform="translate(597.13 1520.59) rotate(-89.78)"/>
          </g>
          <g>
            <path class="cls-1" d="M1093.6,559.36l-64.33-.25,.31-79.33,64.33,.25-.31,79.33Zm-59.48-5.07l54.66,.21,.27-69.65-54.66-.21-.27,69.65Z"/>
            <path class="cls-1" d="M1056.24,538.02c-2.65-18.62,3.13-29.14,8.44-34.68,5.83-6.08,12.3-7.63,12.58-7.69l.88,3.77c-.06,.01-5.77,1.42-10.8,6.75-6.76,7.16-9.2,17.69-7.26,31.31l-3.83,.55Z"/>
          </g>
        </g>
        <g>
          <g>
            <polygon class="cls-6" points="1057.95 588.42 1031.47 614.7 1057.85 614.8 1057.95 588.42"/>
            <polygon class="cls-6" points="1064.58 614.82 1090.96 614.93 1064.68 588.44 1064.58 614.82"/>
            <polygon class="cls-6" points="1031.44 621.43 1057.72 647.91 1057.83 621.53 1031.44 621.43"/>
            <polygon class="cls-6" points="1064.45 647.94 1090.94 621.66 1064.56 621.55 1064.45 647.94"/>
            <rect class="cls-6" x="1047.34" y="601.42" width="27.06" height="1.08" transform="translate(454.8 1660.48) rotate(-89.78)"/>
            <rect class="cls-6" x="1047.21" y="633.86" width="27.06" height="1.08" transform="translate(422.23 1692.66) rotate(-89.78)"/>
            <rect class="cls-6" x="1044.24" y="604.79" width="1.08" height="26.65" transform="translate(422.62 1660.49) rotate(-89.78)"/>
            <rect class="cls-6" x="1076.68" y="604.51" width="1.08" height="27.46" transform="translate(454.81 1693.05) rotate(-89.78)"/>
            <circle class="cls-6" cx="1060.73" cy="618.24" r="1.41"/>
          </g>
          <g>
            <rect class="cls-6" x="1058.58" y="641.88" width="4.84" height="59.49" transform="translate(385.26 1730.01) rotate(-89.78)"/>
            <rect class="cls-6" x="1058.51" y="659.77" width="4.84" height="59.49" transform="translate(367.3 1747.77) rotate(-89.78)"/>
            <rect class="cls-6" x="1058.44" y="677.67" width="4.84" height="59.49" transform="translate(349.33 1765.52) rotate(-89.78)"/>
          </g>
          <g>
            <path class="cls-1" d="M1092.64,806.21l-64.33-.25,.31-79.33,64.33,.25-.31,79.33Zm-59.48-5.07l54.66,.21,.27-69.65-54.66-.21-.27,69.65Z"/>
            <path class="cls-1" d="M1055.28,784.87c-2.65-18.62,3.13-29.14,8.44-34.68,5.83-6.08,12.3-7.63,12.58-7.69l.88,3.77c-.06,.01-5.77,1.42-10.8,6.75-6.76,7.16-9.2,17.69-7.26,31.31l-3.83,.55Z"/>
          </g>
        </g>
      </g>
    </g>
  </g>
</svg>